<svg xmlns="http://www.w3.org/2000/svg" width="399.662" height="347.938" viewBox="0 0 399.662 347.938">
  <g id="Grupo_987314" data-name="Grupo 987314" transform="translate(-600 -6145)">
    <path id="Trazado_737673" data-name="Trazado 737673" d="M5,0H114.217a5,5,0,0,1,5,5V29.974a5,5,0,0,1-5,5H5a5,5,0,0,1-5-5V5A5,5,0,0,1,5,0Z" transform="translate(742 6307)" fill="#9b1f36"/>
    <path id="Trazado_737674" data-name="Trazado 737674" d="M-34.351,0V-7.874h1.59v3.1h3.115v-3.1h1.59V0h-1.59V-3.443h-3.115V0ZM-23.12-1.815l1.5.252A2.467,2.467,0,0,1-22.532-.3,2.69,2.69,0,0,1-24.1.129a2.552,2.552,0,0,1-2.2-.972,3.266,3.266,0,0,1-.564-1.966,3.15,3.15,0,0,1,.741-2.221,2.441,2.441,0,0,1,1.875-.8,2.532,2.532,0,0,1,2.009.841,3.719,3.719,0,0,1,.7,2.575h-3.781a1.527,1.527,0,0,0,.365,1.045,1.142,1.142,0,0,0,.87.373.924.924,0,0,0,.6-.193A1.194,1.194,0,0,0-23.12-1.815Zm.086-1.525a1.453,1.453,0,0,0-.338-1,1.038,1.038,0,0,0-.784-.341,1.048,1.048,0,0,0-.816.36,1.393,1.393,0,0,0-.317.978ZM-18.861,0H-20.37V-5.7h1.4v.811a2.438,2.438,0,0,1,.647-.757,1.191,1.191,0,0,1,.653-.183,1.916,1.916,0,0,1,.994.285l-.467,1.316a1.324,1.324,0,0,0-.709-.247.838.838,0,0,0-.537.175,1.193,1.193,0,0,0-.346.631,8.966,8.966,0,0,0-.126,1.912Zm4.281,0h-1.509V-5.7h1.4v.811a2.438,2.438,0,0,1,.647-.757,1.191,1.191,0,0,1,.653-.183,1.916,1.916,0,0,1,.994.285l-.467,1.316a1.324,1.324,0,0,0-.709-.247.838.838,0,0,0-.537.175,1.193,1.193,0,0,0-.346.631,8.966,8.966,0,0,0-.126,1.912Zm3.964-3.964-1.37-.247a2.133,2.133,0,0,1,.795-1.225,2.909,2.909,0,0,1,1.676-.4,3.612,3.612,0,0,1,1.5.239,1.5,1.5,0,0,1,.7.607,3.112,3.112,0,0,1,.2,1.351L-7.13-1.875A6.116,6.116,0,0,0-7.058-.765,3.237,3.237,0,0,0-6.786,0H-8.28q-.059-.15-.145-.446-.038-.134-.054-.177a2.721,2.721,0,0,1-.827.564,2.369,2.369,0,0,1-.94.188,1.944,1.944,0,0,1-1.388-.478,1.589,1.589,0,0,1-.508-1.208,1.622,1.622,0,0,1,.231-.862A1.509,1.509,0,0,1-11.263-3a5.058,5.058,0,0,1,1.2-.352A8.223,8.223,0,0,0-8.6-3.722v-.15a.781.781,0,0,0-.215-.62,1.287,1.287,0,0,0-.811-.185,1.08,1.08,0,0,0-.628.158A1.1,1.1,0,0,0-10.616-3.964ZM-8.6-2.739a9.434,9.434,0,0,1-.918.231,2.767,2.767,0,0,0-.822.263.629.629,0,0,0-.3.532.74.74,0,0,0,.236.548.825.825,0,0,0,.6.231A1.307,1.307,0,0,0-9.015-1.2a.945.945,0,0,0,.36-.5A2.98,2.98,0,0,0-8.6-2.438ZM-5.739-5.7h1.391v.779A2.238,2.238,0,0,1-2.57-5.833a1.915,1.915,0,0,1,.951.226,1.734,1.734,0,0,1,.661.682,2.635,2.635,0,0,1,.811-.682,1.99,1.99,0,0,1,.929-.226,2.07,2.07,0,0,1,1.063.255,1.563,1.563,0,0,1,.65.749,3.25,3.25,0,0,1,.156,1.182V0H1.141V-3.26a2.426,2.426,0,0,0-.156-1.1.715.715,0,0,0-.645-.322,1.029,1.029,0,0,0-.6.193,1.073,1.073,0,0,0-.4.567A4.077,4.077,0,0,0-.781-2.739V0H-2.291V-3.126A4.336,4.336,0,0,0-2.371-4.2a.686.686,0,0,0-.25-.36.79.79,0,0,0-.459-.118,1.1,1.1,0,0,0-.628.188,1.031,1.031,0,0,0-.4.542A4.032,4.032,0,0,0-4.23-2.771V0H-5.739Zm9.894-.773v-1.4H5.664v1.4ZM4.155,0V-5.7H5.664V0Zm6.359-1.815,1.5.252A2.467,2.467,0,0,1,11.1-.3,2.69,2.69,0,0,1,9.536.129a2.552,2.552,0,0,1-2.2-.972A3.266,3.266,0,0,1,6.77-2.809,3.15,3.15,0,0,1,7.511-5.03a2.441,2.441,0,0,1,1.875-.8,2.532,2.532,0,0,1,2.009.841,3.719,3.719,0,0,1,.7,2.575H8.317a1.527,1.527,0,0,0,.365,1.045A1.142,1.142,0,0,0,9.552-1a.924.924,0,0,0,.6-.193A1.194,1.194,0,0,0,10.514-1.815ZM10.6-3.341a1.453,1.453,0,0,0-.338-1,1.038,1.038,0,0,0-.784-.341,1.048,1.048,0,0,0-.816.36,1.393,1.393,0,0,0-.317.978ZM18.517,0H17.008V-2.911a4.5,4.5,0,0,0-.1-1.2.838.838,0,0,0-.314-.422.9.9,0,0,0-.524-.15,1.21,1.21,0,0,0-.7.215,1.082,1.082,0,0,0-.427.569,4.921,4.921,0,0,0-.115,1.311V0H13.318V-5.7h1.4v.838a2.284,2.284,0,0,1,1.88-.967,2.265,2.265,0,0,1,.913.18,1.53,1.53,0,0,1,.626.459,1.664,1.664,0,0,1,.3.634,4.714,4.714,0,0,1,.083,1.015Zm4.146-5.7v1.2H21.632v2.3a5.718,5.718,0,0,0,.03.814A.332.332,0,0,0,21.8-1.2a.426.426,0,0,0,.255.075,1.952,1.952,0,0,0,.607-.145L22.787-.1a3,3,0,0,1-1.192.226,1.891,1.891,0,0,1-.736-.137,1.074,1.074,0,0,1-.481-.354,1.4,1.4,0,0,1-.212-.588,7.316,7.316,0,0,1-.048-1.063V-4.5h-.693V-5.7h.693V-6.837l1.515-.881V-5.7Zm2.175,1.74-1.37-.247a2.133,2.133,0,0,1,.795-1.225,2.909,2.909,0,0,1,1.676-.4,3.612,3.612,0,0,1,1.5.239,1.5,1.5,0,0,1,.7.607,3.112,3.112,0,0,1,.2,1.351l-.016,1.762A6.116,6.116,0,0,0,28.4-.765,3.237,3.237,0,0,0,28.668,0H27.175q-.059-.15-.145-.446-.038-.134-.054-.177a2.721,2.721,0,0,1-.827.564,2.369,2.369,0,0,1-.94.188,1.944,1.944,0,0,1-1.388-.478,1.589,1.589,0,0,1-.508-1.208,1.622,1.622,0,0,1,.231-.862A1.509,1.509,0,0,1,24.191-3a5.058,5.058,0,0,1,1.2-.352,8.223,8.223,0,0,0,1.466-.371v-.15a.781.781,0,0,0-.215-.62,1.287,1.287,0,0,0-.811-.185,1.08,1.08,0,0,0-.628.158A1.1,1.1,0,0,0,24.839-3.964Zm2.02,1.225a9.434,9.434,0,0,1-.918.231,2.767,2.767,0,0,0-.822.263.629.629,0,0,0-.3.532.74.74,0,0,0,.236.548.825.825,0,0,0,.6.231,1.307,1.307,0,0,0,.779-.269.945.945,0,0,0,.36-.5,2.98,2.98,0,0,0,.059-.736ZM29.3-1.627l1.515-.231a1.11,1.11,0,0,0,.392.669,1.325,1.325,0,0,0,.827.228,1.493,1.493,0,0,0,.881-.215.48.48,0,0,0,.2-.4A.4.4,0,0,0,33-1.864a1.2,1.2,0,0,0-.5-.2A8.142,8.142,0,0,1,30.183-2.8a1.47,1.47,0,0,1-.677-1.284,1.582,1.582,0,0,1,.585-1.246,2.734,2.734,0,0,1,1.815-.5,3.167,3.167,0,0,1,1.74.381,1.949,1.949,0,0,1,.784,1.128l-1.423.263a.88.88,0,0,0-.346-.51,1.267,1.267,0,0,0-.728-.177,1.64,1.64,0,0,0-.854.167.358.358,0,0,0-.172.306.334.334,0,0,0,.15.274,5.663,5.663,0,0,0,1.41.424,4.2,4.2,0,0,1,1.684.671,1.4,1.4,0,0,1,.473,1.123,1.723,1.723,0,0,1-.655,1.348,2.9,2.9,0,0,1-1.939.564,3.182,3.182,0,0,1-1.845-.473A2.178,2.178,0,0,1,29.3-1.627ZM-51.759,12l1.649-7.874h1.617l-1.37,6.558h4.007L-46.13,12Zm12.219-2.374h-3.867q-.005.091-.005.14a1.294,1.294,0,0,0,.325.918,1.041,1.041,0,0,0,.792.349,1.32,1.32,0,0,0,1.2-.795l1.38.231a2.9,2.9,0,0,1-1.077,1.249,2.819,2.819,0,0,1-1.512.416,2.514,2.514,0,0,1-1.869-.728,2.619,2.619,0,0,1-.72-1.926,3.5,3.5,0,0,1,.65-2.084,2.926,2.926,0,0,1,2.53-1.235,2.193,2.193,0,0,1,1.665.647,2.52,2.52,0,0,1,.618,1.813A4.3,4.3,0,0,1-39.539,9.626Zm-1.3-.94q.005-.1.005-.156a1.384,1.384,0,0,0-.285-.951.975.975,0,0,0-.763-.317,1.212,1.212,0,0,0-.857.36,1.92,1.92,0,0,0-.513,1.063Zm4.039-.773-1.5-.129a2.263,2.263,0,0,1,.9-1.192,3.009,3.009,0,0,1,1.7-.43,2.492,2.492,0,0,1,1.627.443,1.365,1.365,0,0,1,.526,1.082,3.53,3.53,0,0,1-.046.548q-.046.29-.32,1.525a7.831,7.831,0,0,0-.226,1.429,2.944,2.944,0,0,0,.129.811h-1.5a2.963,2.963,0,0,1-.113-.645,2.363,2.363,0,0,1-.779.577,2.114,2.114,0,0,1-.886.2,1.582,1.582,0,0,1-1.171-.465,1.623,1.623,0,0,1-.462-1.2,1.728,1.728,0,0,1,.508-1.305A2.954,2.954,0,0,1-36.6,8.579a7.2,7.2,0,0,0,1.472-.22,1.9,1.9,0,0,0,.1-.516.519.519,0,0,0-.2-.414.9.9,0,0,0-.591-.167,1.112,1.112,0,0,0-.653.169A.84.84,0,0,0-36.8,7.913Zm1.466,1.429a3.164,3.164,0,0,1-.371.07,3.522,3.522,0,0,0-1.515.408.622.622,0,0,0-.252.521.6.6,0,0,0,.193.454.707.707,0,0,0,.51.185,1.349,1.349,0,0,0,.658-.169,1.157,1.157,0,0,0,.462-.435,2.972,2.972,0,0,0,.271-.83Zm3.69-3.045h1.461l-.15.741a4.017,4.017,0,0,1,1.023-.674,2.541,2.541,0,0,1,1-.2,1.5,1.5,0,0,1,1.109.4,1.439,1.439,0,0,1,.406,1.069,6.769,6.769,0,0,1-.177,1.139L-27.642,12h-1.542l.677-3.239a7.109,7.109,0,0,0,.15-.865.617.617,0,0,0-.175-.465.669.669,0,0,0-.486-.169,1.364,1.364,0,0,0-.752.285,1.98,1.98,0,0,0-.65.752,6.362,6.362,0,0,0-.387,1.359L-31.295,12h-1.542Zm13.1,5.7H-20.08l-.285-6.58L-21.616,12h-1.461l1.644-7.874h2.31l.242,5.516L-16.2,4.126h2.336L-15.509,12h-1.477l1.552-6.531Zm6.8-4.087-1.5-.129a2.263,2.263,0,0,1,.9-1.192,3.009,3.009,0,0,1,1.7-.43A2.492,2.492,0,0,1-9.021,6.6a1.365,1.365,0,0,1,.526,1.082,3.531,3.531,0,0,1-.046.548q-.046.29-.32,1.525a7.831,7.831,0,0,0-.226,1.429A2.944,2.944,0,0,0-8.956,12h-1.5a2.962,2.962,0,0,1-.113-.645,2.363,2.363,0,0,1-.779.577,2.114,2.114,0,0,1-.886.2A1.582,1.582,0,0,1-13.4,11.67a1.623,1.623,0,0,1-.462-1.2,1.728,1.728,0,0,1,.508-1.305,2.954,2.954,0,0,1,1.813-.591,7.2,7.2,0,0,0,1.472-.22,1.9,1.9,0,0,0,.1-.516.519.519,0,0,0-.2-.414.9.9,0,0,0-.591-.167,1.112,1.112,0,0,0-.653.169A.84.84,0,0,0-11.744,7.913Zm1.466,1.429a3.164,3.164,0,0,1-.371.07,3.522,3.522,0,0,0-1.515.408.622.622,0,0,0-.252.521.6.6,0,0,0,.193.454.707.707,0,0,0,.51.185,1.349,1.349,0,0,0,.658-.169,1.157,1.157,0,0,0,.462-.435,2.972,2.972,0,0,0,.271-.83ZM-6.588,6.3h1.461l-.15.741a4.017,4.017,0,0,1,1.023-.674,2.541,2.541,0,0,1,1-.2,1.5,1.5,0,0,1,1.109.4,1.439,1.439,0,0,1,.406,1.069,6.769,6.769,0,0,1-.177,1.139L-2.586,12H-4.128l.677-3.239A7.109,7.109,0,0,0-3.3,7.9a.617.617,0,0,0-.175-.465.669.669,0,0,0-.486-.169,1.364,1.364,0,0,0-.752.285,1.98,1.98,0,0,0-.65.752A6.362,6.362,0,0,0-5.75,9.658L-6.239,12H-7.78ZM.1,6.3H1.641l-.7,3.378a5.3,5.3,0,0,0-.129.757.571.571,0,0,0,.183.424.643.643,0,0,0,.467.177,1.1,1.1,0,0,0,.4-.078,1.732,1.732,0,0,0,.408-.236,2.184,2.184,0,0,0,.376-.363,2.311,2.311,0,0,0,.312-.537,5.072,5.072,0,0,0,.22-.806L3.746,6.3H5.288L4.1,12H2.656l.161-.773a2.922,2.922,0,0,1-2.057.908,1.5,1.5,0,0,1-1.106-.4,1.459,1.459,0,0,1-.4-1.08A7.322,7.322,0,0,1-.567,9.476Zm9.512,0L9.375,7.424H8.285L7.329,12H5.787l.956-4.576H5.884L6.12,6.3H6.98L7.1,5.71a4.223,4.223,0,0,1,.285-.972,1.332,1.332,0,0,1,.545-.545,1.945,1.945,0,0,1,.948-.2,4.781,4.781,0,0,1,1.493.258l-.3,1.1a2.944,2.944,0,0,0-.9-.188.465.465,0,0,0-.392.167,1.629,1.629,0,0,0-.177.564l-.086.4Zm1.864,1.617-1.5-.129a2.263,2.263,0,0,1,.9-1.192,3.009,3.009,0,0,1,1.7-.43A2.492,2.492,0,0,1,14.2,6.6a1.365,1.365,0,0,1,.526,1.082,3.531,3.531,0,0,1-.046.548q-.046.29-.32,1.525a7.831,7.831,0,0,0-.226,1.429,2.944,2.944,0,0,0,.129.811h-1.5a2.962,2.962,0,0,1-.113-.645,2.363,2.363,0,0,1-.779.577,2.114,2.114,0,0,1-.886.2,1.582,1.582,0,0,1-1.171-.465,1.623,1.623,0,0,1-.462-1.2,1.728,1.728,0,0,1,.508-1.305,2.954,2.954,0,0,1,1.813-.591,7.2,7.2,0,0,0,1.472-.22,1.9,1.9,0,0,0,.1-.516.519.519,0,0,0-.2-.414.9.9,0,0,0-.591-.167,1.112,1.112,0,0,0-.653.169A.84.84,0,0,0,11.475,7.913Zm1.466,1.429a3.164,3.164,0,0,1-.371.07,3.522,3.522,0,0,0-1.515.408.622.622,0,0,0-.252.521.6.6,0,0,0,.193.454.707.707,0,0,0,.51.185,1.349,1.349,0,0,0,.658-.169,1.157,1.157,0,0,0,.462-.435,2.972,2.972,0,0,0,.271-.83Zm6.343.51,1.5.242a3.16,3.16,0,0,1-1.1,1.52,2.806,2.806,0,0,1-1.681.521,2.315,2.315,0,0,1-1.729-.65A2.44,2.44,0,0,1,15.638,9.7a4.1,4.1,0,0,1,.387-1.756,2.965,2.965,0,0,1,1.166-1.3A3.216,3.216,0,0,1,18.9,6.162a2.36,2.36,0,0,1,1.611.526,2,2,0,0,1,.677,1.386l-1.466.156a1.105,1.105,0,0,0-.293-.7A.874.874,0,0,0,18.8,7.3a1.254,1.254,0,0,0-.833.333,2.1,2.1,0,0,0-.594,1,4.189,4.189,0,0,0-.207,1.243,1.123,1.123,0,0,0,.247.779.8.8,0,0,0,.618.274,1.147,1.147,0,0,0,.714-.269A1.736,1.736,0,0,0,19.285,9.852ZM21.922,7.44,22.158,6.3h.752l.188-.913,1.767-1.063L24.452,6.3h.94L25.156,7.44H24.21l-.5,2.39a7.458,7.458,0,0,0-.134.741.349.349,0,0,0,.113.277.629.629,0,0,0,.408.1q.1,0,.51-.038l-.242,1.144a4.1,4.1,0,0,1-.816.081,1.822,1.822,0,0,1-1.187-.314,1.083,1.083,0,0,1-.371-.873,8.166,8.166,0,0,1,.2-1.214l.478-2.293ZM26.38,6.3h1.542l-.7,3.378a5.3,5.3,0,0,0-.129.757.571.571,0,0,0,.183.424.643.643,0,0,0,.467.177,1.1,1.1,0,0,0,.4-.078,1.732,1.732,0,0,0,.408-.236,2.184,2.184,0,0,0,.376-.363,2.311,2.311,0,0,0,.312-.537,5.072,5.072,0,0,0,.22-.806L30.027,6.3h1.542L30.376,12H28.937l.161-.773a2.922,2.922,0,0,1-2.057.908,1.5,1.5,0,0,1-1.106-.4,1.459,1.459,0,0,1-.4-1.08,7.322,7.322,0,0,1,.183-1.176Zm6.644,0h1.439L34.233,7.4a2.2,2.2,0,0,1,1.746-1.241,1.792,1.792,0,0,1,.714.167L36.1,7.59a1.309,1.309,0,0,0-.446-.075,1.37,1.37,0,0,0-.808.3,2.016,2.016,0,0,0-.642.8,7.99,7.99,0,0,0-.457,1.593L33.373,12H31.832Zm4.818-2.17h1.542l-.29,1.4H37.552ZM37.391,6.3h1.542L37.74,12H36.2Zm3.078,0h1.461l-.15.741A4.017,4.017,0,0,1,42.8,6.363a2.541,2.541,0,0,1,1-.2,1.5,1.5,0,0,1,1.109.4,1.439,1.439,0,0,1,.406,1.069,6.769,6.769,0,0,1-.177,1.139L44.47,12H42.928l.677-3.239a7.108,7.108,0,0,0,.15-.865.617.617,0,0,0-.175-.465.669.669,0,0,0-.486-.169,1.364,1.364,0,0,0-.752.285,1.98,1.98,0,0,0-.65.752,6.362,6.362,0,0,0-.387,1.359L40.818,12H39.276Zm5.425,6,1.627.236a.7.7,0,0,0,.081.373.626.626,0,0,0,.26.215,1.127,1.127,0,0,0,.491.089,1.413,1.413,0,0,0,.784-.193,1.061,1.061,0,0,0,.36-.483,5.977,5.977,0,0,0,.22-.913l.054-.269a2.565,2.565,0,0,1-1.654.666,1.775,1.775,0,0,1-1.375-.591A2.489,2.489,0,0,1,46.2,9.7a4.561,4.561,0,0,1,.365-1.842A2.79,2.79,0,0,1,47.6,6.591a2.447,2.447,0,0,1,1.348-.43,1.9,1.9,0,0,1,1.042.3,2.016,2.016,0,0,1,.736.843l.215-1.01h1.445l-.988,4.753a15.863,15.863,0,0,1-.408,1.633,2.867,2.867,0,0,1-.381.779,1.844,1.844,0,0,1-.542.486,2.368,2.368,0,0,1-.773.282,5.111,5.111,0,0,1-.967.086,3.3,3.3,0,0,1-1.826-.414,1.532,1.532,0,0,1-.618-1.375A1.756,1.756,0,0,1,45.893,12.3Zm1.815-2.755a1.481,1.481,0,0,0,.293.991.926.926,0,0,0,.733.341,1.232,1.232,0,0,0,.781-.306,1.913,1.913,0,0,0,.58-.87,3.235,3.235,0,0,0,.2-1.09,1.422,1.422,0,0,0-.328-.978.987.987,0,0,0-.757-.371,1.085,1.085,0,0,0-.76.328,2.414,2.414,0,0,0-.572,1.01A3.083,3.083,0,0,0,47.709,9.545Z" transform="translate(801 6322)" fill="#fff"/>
    <path id="Trazado_737675" data-name="Trazado 737675" d="M4.226,36.374V22.659H0L13.289,0l13.29,22.659H22.955V36.374Z" transform="translate(793.005 6239.793)" fill="#d2d7e3"/>
    <path id="Trazado_737676" data-name="Trazado 737676" d="M4.227,0V13.715H0l13.289,22.66,13.29-22.66H22.955V0Z" transform="translate(793.005 6367.099)" fill="#d2d7e3"/>
    <path id="Trazado_737677" data-name="Trazado 737677" d="M4.227,36.375V22.66H0L13.289,0l13.29,22.66H22.955V36.375Z" transform="translate(897.229 6311.141) rotate(90)" fill="#d2d7e3"/>
    <path id="Trazado_737678" data-name="Trazado 737678" d="M4.227,0V13.715H0l13.289,22.66,13.29-22.66H22.955V0Z" transform="translate(739.896 6311.141) rotate(90)" fill="#d2d7e3"/>
    <path id="Trazado_737679" data-name="Trazado 737679" d="M4.227,0V13.715H0l13.289,22.66,13.29-22.66H22.955V0Z" transform="translate(843.421 6366.309) rotate(-45)" fill="#d2d7e3"/>
    <path id="Trazado_737680" data-name="Trazado 737680" d="M4.227,36.375V22.66H0L13.289,0l13.29,22.66H22.955V36.375Z" transform="translate(751.696 6396.1) rotate(-135)" fill="#d2d7e3"/>
    <path id="Trazado_737681" data-name="Trazado 737681" d="M4.227,0V13.715H0l13.289,22.66,13.29-22.66H22.955V0Z" transform="translate(777.416 6279.629) rotate(135)" fill="#d2d7e3"/>
    <path id="Trazado_737682" data-name="Trazado 737682" d="M4.227,36.375V22.66H0L13.289,0l13.29,22.66H22.955V36.375Z" transform="translate(869.142 6257.98) rotate(45)" fill="#d2d7e3"/>
    <path id="Trazado_737683" data-name="Trazado 737683" d="M41.969,0A41.969,41.969,0,1,1,0,41.969,41.969,41.969,0,0,1,41.969,0Z" transform="translate(600 6299.969) rotate(-30)" fill="#fad1d9"/>
    <path id="Trazado_737684" data-name="Trazado 737684" d="M41.969,0A41.969,41.969,0,1,1,0,41.969,41.969,41.969,0,0,1,41.969,0Z" transform="translate(655 6399.969) rotate(-30)" fill="#fad1d9"/>
    <path id="Trazado_737685" data-name="Trazado 737685" d="M41.969,0A41.969,41.969,0,1,1,0,41.969,41.969,41.969,0,0,1,41.969,0Z" transform="translate(696.969 6166) rotate(30)" fill="#fad1d9"/>
    <path id="Trazado_737686" data-name="Trazado 737686" d="M41.969,0A41.969,41.969,0,1,1,0,41.969,41.969,41.969,0,0,1,41.969,0Z" transform="translate(769 6409)" fill="#fad1d9"/>
    <path id="Trazado_737687" data-name="Trazado 737687" d="M41.969,0A41.969,41.969,0,1,1,0,41.969,41.969,41.969,0,0,1,41.969,0Z" transform="translate(769 6145)" fill="#fad1d9"/>
    <path id="Trazado_737688" data-name="Trazado 737688" d="M41.969,0A41.969,41.969,0,1,1,0,41.969,41.969,41.969,0,0,1,41.969,0Z" transform="translate(852 6399.969) rotate(-30)" fill="#fad1d9"/>
    <path id="Trazado_737689" data-name="Trazado 737689" d="M41.969,0A41.969,41.969,0,1,1,0,41.969,41.969,41.969,0,0,1,41.969,0Z" transform="translate(893.969 6166) rotate(30)" fill="#fad1d9"/>
    <path id="Trazado_737690" data-name="Trazado 737690" d="M41.969,0A41.969,41.969,0,1,1,0,41.969,41.969,41.969,0,0,1,41.969,0Z" transform="translate(885 6299.969) rotate(-30)" fill="#fad1d9"/>
    <path id="Trazado_737691" data-name="Trazado 737691" d="M-7.539-9.477h-3.484V0h-2.344V-9.477H-16.8v-1.9h9.266Zm3.68,5.469V0H-6.2V-11.375h4.438a5.134,5.134,0,0,1,2.254.469,3.454,3.454,0,0,1,1.5,1.332,3.714,3.714,0,0,1,.523,1.965A3.266,3.266,0,0,1,1.363-4.973,4.767,4.767,0,0,1-1.8-4.008Zm0-1.9h2.094A2.059,2.059,0,0,0-.348-6.344a1.591,1.591,0,0,0,.488-1.25A1.876,1.876,0,0,0-.352-8.945a1.839,1.839,0,0,0-1.359-.531H-3.859ZM7.18-11.375,10.1-3.125l2.906-8.25h3.078V0H13.734V-3.109l.234-5.367L10.9,0H9.289L6.227-8.469l.234,5.359V0H4.117V-11.375Z" transform="translate(811 6192)" fill="#9b1f36"/>
    <path id="Trazado_737692" data-name="Trazado 737692" d="M-8.4-5.594l.656-5.781h6.375v1.883H-5.891l-.281,2.445a3.58,3.58,0,0,1,1.711-.43A3.279,3.279,0,0,1-1.914-6.469a4.026,4.026,0,0,1,.922,2.82,4.124,4.124,0,0,1-.465,1.973A3.281,3.281,0,0,1-2.789-.324a4.158,4.158,0,0,1-2.047.48A4.416,4.416,0,0,1-6.75-.262,3.4,3.4,0,0,1-8.145-1.437a3.2,3.2,0,0,1-.543-1.727h2.234a1.669,1.669,0,0,0,.5,1.105,1.573,1.573,0,0,0,1.113.395,1.388,1.388,0,0,0,1.18-.551A2.551,2.551,0,0,0-3.25-3.773a2.11,2.11,0,0,0-.477-1.484,1.749,1.749,0,0,0-1.352-.516,1.954,1.954,0,0,0-1.3.422l-.219.2ZM6.586-2.984A1.2,1.2,0,0,0,6.117-4a6.148,6.148,0,0,0-1.687-.75A11.963,11.963,0,0,1,2.5-5.531,3.153,3.153,0,0,1,.563-8.352,2.747,2.747,0,0,1,1.082-10a3.389,3.389,0,0,1,1.492-1.129,5.616,5.616,0,0,1,2.184-.406,5.112,5.112,0,0,1,2.172.441A3.458,3.458,0,0,1,8.41-9.844a3.261,3.261,0,0,1,.527,1.828H6.594A1.534,1.534,0,0,0,6.1-9.23a2.023,2.023,0,0,0-1.383-.434A2.162,2.162,0,0,0,3.383-9.3a1.146,1.146,0,0,0-.477.957,1.1,1.1,0,0,0,.559.93,6.311,6.311,0,0,0,1.645.7A7.106,7.106,0,0,1,8.023-5.219,2.972,2.972,0,0,1,8.938-3,2.737,2.737,0,0,1,7.82-.684a4.891,4.891,0,0,1-3.008.84,5.808,5.808,0,0,1-2.391-.48A3.783,3.783,0,0,1,.777-1.641,3.371,3.371,0,0,1,.211-3.578H2.563q0,1.883,2.25,1.883a2.189,2.189,0,0,0,1.3-.34A1.106,1.106,0,0,0,6.586-2.984Z" transform="translate(909 6229)" fill="#9b1f36"/>
    <path id="Trazado_737693" data-name="Trazado 737693" d="M-14.711-2.984A1.2,1.2,0,0,0-15.18-4a6.148,6.148,0,0,0-1.687-.75,11.963,11.963,0,0,1-1.93-.777,3.153,3.153,0,0,1-1.937-2.82A2.747,2.747,0,0,1-20.215-10a3.389,3.389,0,0,1,1.492-1.129,5.616,5.616,0,0,1,2.184-.406,5.112,5.112,0,0,1,2.172.441,3.458,3.458,0,0,1,1.48,1.246,3.261,3.261,0,0,1,.527,1.828H-14.7A1.534,1.534,0,0,0-15.2-9.23a2.023,2.023,0,0,0-1.383-.434,2.162,2.162,0,0,0-1.336.363,1.146,1.146,0,0,0-.477.957,1.1,1.1,0,0,0,.559.93,6.311,6.311,0,0,0,1.645.7,7.106,7.106,0,0,1,2.914,1.492A2.972,2.972,0,0,1-12.359-3,2.737,2.737,0,0,1-13.477-.684a4.891,4.891,0,0,1-3.008.84,5.808,5.808,0,0,1-2.391-.48A3.783,3.783,0,0,1-20.52-1.641a3.371,3.371,0,0,1-.566-1.937h2.352q0,1.883,2.25,1.883a2.189,2.189,0,0,0,1.3-.34A1.106,1.106,0,0,0-14.711-2.984Zm7-8.391,2.922,8.25,2.906-8.25H1.2V0H-1.156V-3.109l.234-5.367L-3.992,0H-5.6L-8.664-8.469l.234,5.359V0h-2.344V-11.375Zm17.8,6.445h-4.5v3.047h5.281V0H3.242V-11.375h7.609v1.9H5.586v2.711h4.5ZM12.242,0V-11.375h3.5a5.315,5.315,0,0,1,2.684.676,4.712,4.712,0,0,1,1.848,1.922,5.928,5.928,0,0,1,.664,2.832v.523a5.945,5.945,0,0,1-.652,2.82,4.672,4.672,0,0,1-1.84,1.914A5.355,5.355,0,0,1,15.766,0Zm2.344-9.477v7.594h1.133a2.545,2.545,0,0,0,2.1-.9,4.06,4.06,0,0,0,.742-2.57v-.6a4.124,4.124,0,0,0-.719-2.629,2.537,2.537,0,0,0-2.1-.895Z" transform="translate(943 6321)" fill="#9b1f36"/>
    <path id="Trazado_737694" data-name="Trazado 737694" d="M-27.668-4.562-28.887-3.25V0H-31.23V-11.375h2.344v5.156l1.031-1.414,2.9-3.742h2.883L-26.113-6.32-21.957,0h-2.789Zm13.016,2.219h-4.109L-19.543,0h-2.492L-17.8-11.375h2.172L-11.371,0h-2.492Zm-3.477-1.9h2.844L-16.715-8.5ZM-1.059,0H-3.4L-7.965-7.484V0h-2.344V-11.375h2.344l4.57,7.5v-7.5h2.336ZM.988,0V-11.375H4.973a5.232,5.232,0,0,1,3.141.793,2.712,2.712,0,0,1,1.07,2.324,2.57,2.57,0,0,1-.43,1.473,2.482,2.482,0,0,1-1.2.934,2.4,2.4,0,0,1,1.379.883,2.61,2.61,0,0,1,.5,1.625A3,3,0,0,1,8.395-.859,4.713,4.713,0,0,1,5.41,0ZM3.332-4.953v3.07H5.34a1.938,1.938,0,0,0,1.293-.395A1.353,1.353,0,0,0,7.1-3.367,1.428,1.428,0,0,0,5.48-4.953Zm0-1.656H5.066Q6.84-6.641,6.84-8.023a1.307,1.307,0,0,0-.449-1.113,2.363,2.363,0,0,0-1.418-.34H3.332ZM17.621-2.344H13.512L12.73,0H10.238l4.234-11.375h2.172L20.9,0H18.41Zm-3.477-1.9h2.844L15.559-8.5ZM31.215,0H28.871L24.309-7.484V0H21.965V-11.375h2.344l4.57,7.5v-7.5h2.336Z" transform="translate(909 6421)" fill="#9b1f36"/>
    <path id="Trazado_737695" data-name="Trazado 737695" d="M-23.211-4.562-24.43-3.25V0h-2.344V-11.375h2.344v5.156L-23.4-7.633l2.9-3.742h2.883L-21.656-6.32-17.5,0h-2.789ZM-10.2-2.344H-14.3L-15.086,0h-2.492l4.234-11.375h2.172L-6.914,0H-9.406Zm-3.477-1.9h2.844L-12.258-8.5ZM-3.359,0H-5.7V-11.375h2.344ZM1.3-1.883H7.031V0H-1.633V-1.375l5.625-8.1H-1.625v-1.9H6.906v1.344ZM15.352-4.93h-4.5v3.047h5.281V0H8.508V-11.375h7.609v1.9H10.852v2.711h4.5ZM26.758,0H24.414L19.852-7.484V0H17.508V-11.375h2.344l4.57,7.5v-7.5h2.336Z" transform="translate(811 6457)" fill="#9b1f36"/>
    <path id="Trazado_737696" data-name="Trazado 737696" d="M-24.548,0H-26.6V-4.266h-4V0h-2.051V-9.953H-30.6V-5.92h4V-9.953h2.051Zm7.779-4.313h-3.937v2.666h4.621V0h-6.672V-9.953H-16.1v1.661h-4.607V-5.92h3.938ZM-12.7,0h-2.051V-9.953H-12.7Zm5.913-9.953h2.051v6.891a3.3,3.3,0,0,1-.42,1.678A2.853,2.853,0,0,1-6.344-.26a3.705,3.705,0,0,1-1.729.4,3.522,3.522,0,0,1-2.461-.8,2.918,2.918,0,0,1-.882-2.273h2.064a1.6,1.6,0,0,0,.308,1.08,1.231,1.231,0,0,0,.971.349,1.175,1.175,0,0,0,.937-.4,1.7,1.7,0,0,0,.349-1.148Zm11.341,0V-3.4A3.356,3.356,0,0,1,3.531-.813,3.94,3.94,0,0,1,.738.137,3.984,3.984,0,0,1-2.03-.786,3.3,3.3,0,0,1-3.076-3.322V-9.953h2.051v6.569A1.9,1.9,0,0,0-.557-1.958a1.8,1.8,0,0,0,1.3.448q1.729,0,1.757-1.818V-9.953ZM14.328,0H12.277L8.285-6.549V0H6.234V-9.953H8.285l4,6.563V-9.953h2.044Zm4.908-3.992L18.17-2.844V0H16.119V-9.953H18.17v4.512l.9-1.237,2.536-3.274h2.522L20.6-5.53,24.233,0h-2.44ZM30.625-2.051h-3.6L26.346,0H24.165L27.87-9.953h1.9L33.5,0H31.315ZM27.583-3.712h2.488L28.82-7.437Z" transform="translate(712 6420)" fill="#9b1f36"/>
    <path id="Trazado_737697" data-name="Trazado 737697" d="M-22.383-11.375h2.344V-3.5a3.766,3.766,0,0,1-.48,1.918A3.261,3.261,0,0,1-21.875-.3a4.235,4.235,0,0,1-1.977.453,4.025,4.025,0,0,1-2.812-.918,3.335,3.335,0,0,1-1.008-2.6h2.359a1.829,1.829,0,0,0,.352,1.234,1.407,1.407,0,0,0,1.109.4,1.343,1.343,0,0,0,1.07-.461,1.948,1.948,0,0,0,.4-1.312ZM-15.539,0h-2.344V-11.375h2.344Zm2.172,0V-11.375h3.5a5.315,5.315,0,0,1,2.684.676A4.712,4.712,0,0,1-5.336-8.777a5.928,5.928,0,0,1,.664,2.832v.523A5.945,5.945,0,0,1-5.324-2.6,4.672,4.672,0,0,1-7.164-.687,5.355,5.355,0,0,1-9.844,0Zm2.344-9.477v7.594h1.133a2.545,2.545,0,0,0,2.1-.9,4.06,4.06,0,0,0,.742-2.57v-.6a4.124,4.124,0,0,0-.719-2.629,2.537,2.537,0,0,0-2.1-.895ZM6.375-5.43a6.867,6.867,0,0,1-.594,2.945,4.472,4.472,0,0,1-1.7,1.953A4.7,4.7,0,0,1,1.547.156,4.732,4.732,0,0,1-.977-.523,4.515,4.515,0,0,1-2.7-2.465a6.67,6.67,0,0,1-.617-2.9V-5.93a6.831,6.831,0,0,1,.605-2.957A4.508,4.508,0,0,1-1-10.848a4.706,4.706,0,0,1,2.527-.684,4.706,4.706,0,0,1,2.527.684A4.508,4.508,0,0,1,5.77-8.887a6.811,6.811,0,0,1,.605,2.949ZM4-5.945a4.787,4.787,0,0,0-.641-2.719,2.088,2.088,0,0,0-1.828-.93,2.088,2.088,0,0,0-1.82.918A4.732,4.732,0,0,0-.937-5.984v.555A4.847,4.847,0,0,0-.3-2.727a2.082,2.082,0,0,0,1.844.961,2.064,2.064,0,0,0,1.813-.926A4.819,4.819,0,0,0,4-5.391Zm7.641,1.383L10.422-3.25V0H8.078V-11.375h2.344v5.156l1.031-1.414,2.9-3.742h2.883L13.2-6.32,17.352,0H14.563ZM24.656-2.344H20.547L19.766,0H17.273l4.234-11.375H23.68L27.938,0H25.445Zm-3.477-1.9h2.844L22.594-8.5Z" transform="translate(657 6321)" fill="#9b1f36"/>
    <path id="Trazado_737698" data-name="Trazado 737698" d="M-6.035-11.375h2.344V-3.5a3.766,3.766,0,0,1-.48,1.918A3.261,3.261,0,0,1-5.527-.3,4.235,4.235,0,0,1-7.5.156a4.025,4.025,0,0,1-2.812-.918,3.335,3.335,0,0,1-1.008-2.6h2.359a1.829,1.829,0,0,0,.352,1.234,1.407,1.407,0,0,0,1.109.4,1.343,1.343,0,0,0,1.07-.461,1.948,1.948,0,0,0,.4-1.312ZM.809,0H-1.535V-11.375H.809ZM11.316-9.477H7.832V0H5.488V-9.477H2.051v-1.9h9.266Z" transform="translate(712 6229)" fill="#9b1f36"/>
  </g>
</svg>
