<svg xmlns="http://www.w3.org/2000/svg" width="711.086" height="373.164" viewBox="0 0 711.086 373.164">
  <g id="Grupo_987312" data-name="Grupo 987312" transform="translate(-446.914 -2185)">
    <path id="Trazado_730996" data-name="Trazado 730996" d="M0,0H300.13V147.157H0Z" transform="translate(548 2185)" fill="#fee7dd"/>
    <path id="Trazado_737632" data-name="Trazado 737632" d="M0,0H300V147H0Z" transform="translate(548 2342)" fill="#fee7dd"/>
    <path id="Trazado_737633" data-name="Trazado 737633" d="M0,0H300V147H0Z" transform="translate(858 2185)" fill="#fee7dd"/>
    <path id="Trazado_737634" data-name="Trazado 737634" d="M0,0H300V147H0Z" transform="translate(858 2342)" fill="#fee7dd"/>
    <path id="Trazado_737635" data-name="Trazado 737635" d="M74.688,12.008h.047l2.922-8.383h2.977V15H78.352V7.234L78.3,7.227,75.492,15H73.945L71.133,7.211l-.047.008V15H68.8V3.625H71.8ZM91.742,3.625V11.07a3.741,3.741,0,0,1-1.273,3.008,4.916,4.916,0,0,1-3.3,1.086,4.858,4.858,0,0,1-3.285-1.086,3.757,3.757,0,0,1-1.262-3.008V3.625h2.289V11.07a2.341,2.341,0,0,0,.609,1.742,2.244,2.244,0,0,0,1.648.6,2.293,2.293,0,0,0,1.672-.6,2.324,2.324,0,0,0,.617-1.742V3.625Zm5.992,5.242h.047l2.484-5.242h2.5L98.867,11v4H96.586V10.883L92.75,3.625h2.5ZM114.383,10h-4.219v3.25h5.016V15h-7.3V3.625h7.281V5.383h-5V8.242h4.219Zm9.047.273h-4.367V15h-2.281V3.625h7.445V5.383h-5.164V8.516h4.367ZM128.117,15h-2.281V3.625h2.281Zm10.789-3.766.016.047a3.561,3.561,0,0,1-1.109,2.852,4.523,4.523,0,0,1-3.148,1.031,4.361,4.361,0,0,1-3.3-1.316,4.722,4.722,0,0,1-1.258-3.4V8.188a4.809,4.809,0,0,1,1.227-3.4,4.182,4.182,0,0,1,3.219-1.324,4.8,4.8,0,0,1,3.25,1.016,3.5,3.5,0,0,1,1.141,2.859l-.016.047H136.7a2.236,2.236,0,0,0-.527-1.629,2.2,2.2,0,0,0-1.629-.535,1.839,1.839,0,0,0-1.6.824,3.645,3.645,0,0,0-.574,2.129v2.273a3.538,3.538,0,0,0,.605,2.141,1.968,1.968,0,0,0,1.684.828,2,2,0,0,0,1.527-.535,2.328,2.328,0,0,0,.5-1.645ZM142.992,15h-2.281V3.625h2.281Zm8.758-5h-4.219v3.25h5.016V15h-7.3V3.625h7.281V5.383h-5V8.242h4.219Zm11.594,5h-2.281l-4.586-7.672-.047.008V15h-2.281V3.625h2.281l4.586,7.664.047-.008V3.625h2.281Zm9.8-9.617h-3.25V15h-2.281V5.383h-3.2V3.625h8.734ZM180.891,10h-4.219v3.25h5.016V15h-7.3V3.625h7.281V5.383h-5V8.242h4.219ZM79.172,34.875V39H76.891V27.625h4.352a4.48,4.48,0,0,1,3.086,1,3.634,3.634,0,0,1,0,5.258,4.5,4.5,0,0,1-3.086.992Zm0-1.758h2.07a1.9,1.9,0,0,0,1.445-.52,1.848,1.848,0,0,0,.492-1.324,1.934,1.934,0,0,0-.488-1.355,1.864,1.864,0,0,0-1.449-.535h-2.07Zm17.117,1.219a4.776,4.776,0,0,1-1.32,3.465,4.991,4.991,0,0,1-6.859,0A4.8,4.8,0,0,1,86.8,34.336V32.289a4.807,4.807,0,0,1,1.309-3.457,4.5,4.5,0,0,1,3.41-1.371,4.583,4.583,0,0,1,3.445,1.371,4.768,4.768,0,0,1,1.328,3.457Zm-2.273-2.062a3.44,3.44,0,0,0-.664-2.18,2.2,2.2,0,0,0-1.836-.852,2.129,2.129,0,0,0-1.8.852,3.512,3.512,0,0,0-.645,2.18v2.063a3.537,3.537,0,0,0,.648,2.2,2.148,2.148,0,0,0,1.813.852,2.177,2.177,0,0,0,1.828-.852,3.507,3.507,0,0,0,.656-2.2Zm12.609,2.961.016.047a3.561,3.561,0,0,1-1.109,2.852,4.523,4.523,0,0,1-3.148,1.031,4.361,4.361,0,0,1-3.3-1.316,4.722,4.722,0,0,1-1.258-3.4V32.188a4.809,4.809,0,0,1,1.227-3.4,4.182,4.182,0,0,1,3.219-1.324,4.8,4.8,0,0,1,3.25,1.016,3.5,3.5,0,0,1,1.141,2.859l-.016.047h-2.219a2.236,2.236,0,0,0-.527-1.629,2.2,2.2,0,0,0-1.629-.535,1.839,1.839,0,0,0-1.6.824,3.645,3.645,0,0,0-.574,2.129v2.273a3.538,3.538,0,0,0,.605,2.141,1.968,1.968,0,0,0,1.684.828,2,2,0,0,0,1.527-.535,2.328,2.328,0,0,0,.5-1.645Zm10.852-.9a4.776,4.776,0,0,1-1.32,3.465,4.991,4.991,0,0,1-6.859,0,4.8,4.8,0,0,1-1.312-3.461V32.289a4.807,4.807,0,0,1,1.309-3.457,4.5,4.5,0,0,1,3.41-1.371,4.583,4.583,0,0,1,3.445,1.371,4.768,4.768,0,0,1,1.328,3.457ZM115.2,32.273a3.44,3.44,0,0,0-.664-2.18,2.2,2.2,0,0,0-1.836-.852,2.129,2.129,0,0,0-1.8.852,3.512,3.512,0,0,0-.645,2.18v2.063a3.537,3.537,0,0,0,.648,2.2,2.148,2.148,0,0,0,1.813.852,2.177,2.177,0,0,0,1.828-.852,3.507,3.507,0,0,0,.656-2.2ZM129.766,34h-4.219v3.25h5.016V39h-7.3V27.625h7.281v1.758h-5v2.859h4.219Zm9.047.273h-4.367V39h-2.281V27.625h7.445v1.758h-5.164v3.133h4.367ZM143.5,39h-2.281V27.625H143.5Zm10.789-3.766.016.047a3.561,3.561,0,0,1-1.109,2.852,4.523,4.523,0,0,1-3.148,1.031,4.361,4.361,0,0,1-3.3-1.316,4.722,4.722,0,0,1-1.258-3.4V32.188a4.809,4.809,0,0,1,1.227-3.4,4.182,4.182,0,0,1,3.219-1.324,4.8,4.8,0,0,1,3.25,1.016,3.5,3.5,0,0,1,1.141,2.859l-.016.047h-2.219a2.236,2.236,0,0,0-.527-1.629,2.2,2.2,0,0,0-1.629-.535,1.839,1.839,0,0,0-1.6.824,3.645,3.645,0,0,0-.574,2.129v2.273a3.538,3.538,0,0,0,.605,2.141,1.968,1.968,0,0,0,1.684.828,2,2,0,0,0,1.527-.535,2.328,2.328,0,0,0,.5-1.645Zm7.578,1.313H158.18L157.414,39h-2.383l3.836-11.375H161.2L165.023,39h-2.383Zm-3.125-1.789h2.57l-1.258-4.008h-.047Zm9.617,2.492h5.219V39h-7.906V37.813l5.063-8.43H165.68V27.625h7.766v1.141ZM10.008,84.07H5.727L4.711,87H3.141l4.1-11.375h1.32L12.578,87h-1.57ZM6.172,82.781h3.4L7.914,77.9H7.867Zm7.516.148a5.641,5.641,0,0,1,.871-3.289A2.807,2.807,0,0,1,17,78.391a3.027,3.027,0,0,1,1.316.273,2.7,2.7,0,0,1,.98.8V74.813h1.539V87h-1.18l-.234-1.07a2.743,2.743,0,0,1-1.023.922,3.058,3.058,0,0,1-1.414.313,2.9,2.9,0,0,1-2.422-1.121,4.659,4.659,0,0,1-.875-2.949Zm1.539.164a3.588,3.588,0,0,0,.523,2.051,1.828,1.828,0,0,0,1.625.77,2.039,2.039,0,0,0,1.156-.312,2.334,2.334,0,0,0,.766-.875V80.781a2.37,2.37,0,0,0-.77-.832,2.033,2.033,0,0,0-1.137-.309,1.759,1.759,0,0,0-1.637.914,4.718,4.718,0,0,0-.527,2.375Zm9.281-4.547.109,1.109a2.871,2.871,0,0,1,1.051-.934,3.158,3.158,0,0,1,1.48-.332,2.615,2.615,0,0,1,1.449.391,2.363,2.363,0,0,1,.91,1.172,3.162,3.162,0,0,1,1.059-1.145,2.769,2.769,0,0,1,1.527-.418,2.531,2.531,0,0,1,2.039.887,4.051,4.051,0,0,1,.75,2.668V87H33.344V81.93a2.81,2.81,0,0,0-.43-1.77,1.567,1.567,0,0,0-1.281-.52,1.631,1.631,0,0,0-1.277.547,2.381,2.381,0,0,0-.574,1.383V87H28.234V81.93a2.772,2.772,0,0,0-.441-1.738,1.532,1.532,0,0,0-1.27-.551,2.115,2.115,0,0,0-1.156.289,1.867,1.867,0,0,0-.7.813V87H23.133V78.547ZM38.781,87H37.242V78.547h1.539Zm0-10.617H37.242v-1.57h1.539Zm3.742,2.164.109,1.258a3.069,3.069,0,0,1,1.059-1.043,2.824,2.824,0,0,1,1.449-.371,2.759,2.759,0,0,1,2.117.8,3.515,3.515,0,0,1,.75,2.473V87H46.469V81.7a2.287,2.287,0,0,0-.441-1.586,1.768,1.768,0,0,0-1.348-.469,2.386,2.386,0,0,0-1.207.285,2.072,2.072,0,0,0-.785.8V87H41.148V78.547ZM51.906,87H50.367V78.547h1.539Zm0-10.617H50.367v-1.57h1.539Zm7.281,8.344A1.026,1.026,0,0,0,58.8,83.9a3.733,3.733,0,0,0-1.465-.562,6.146,6.146,0,0,1-2.293-.9,1.814,1.814,0,0,1-.8-1.547,2.229,2.229,0,0,1,.879-1.766,3.879,3.879,0,0,1,4.605.047,2.239,2.239,0,0,1,.852,1.82l-.016.047H59.094a1.331,1.331,0,0,0-.48-.992A1.717,1.717,0,0,0,57.4,79.6a1.751,1.751,0,0,0-1.215.367,1.146,1.146,0,0,0-.4.875.927.927,0,0,0,.348.773,3.848,3.848,0,0,0,1.434.5,6.058,6.058,0,0,1,2.359.93,1.872,1.872,0,0,1,.8,1.57,2.226,2.226,0,0,1-.91,1.836,3.754,3.754,0,0,1-2.379.711,3.715,3.715,0,0,1-2.547-.82,2.341,2.341,0,0,1-.883-1.914l.016-.047h1.469a1.424,1.424,0,0,0,.609,1.2,2.358,2.358,0,0,0,1.336.379,2.1,2.1,0,0,0,1.285-.348A1.063,1.063,0,0,0,59.188,84.727Zm5.594-8.219v2.039h1.6v1.141h-1.6V84.82a1.149,1.149,0,0,0,.246.836.89.89,0,0,0,.652.242,1.43,1.43,0,0,0,.3-.035,2.2,2.2,0,0,0,.273-.074l.211,1.055a1.36,1.36,0,0,1-.508.23,2.562,2.562,0,0,1-.664.09A1.993,1.993,0,0,1,63.8,86.6a2.46,2.46,0,0,1-.555-1.777V79.688H61.9V78.547h1.344V76.508Zm7.25,3.4-.789-.047a1.762,1.762,0,0,0-1.027.289,1.854,1.854,0,0,0-.645.813V87H68.031V78.547h1.375l.148,1.234a2.934,2.934,0,0,1,.887-1.023,2.073,2.073,0,0,1,1.215-.367,1.9,1.9,0,0,1,.328.027,2.174,2.174,0,0,1,.258.059ZM78.828,87q-.078-.383-.121-.676a4.96,4.96,0,0,1-.051-.59,3.589,3.589,0,0,1-1.121,1.02,2.867,2.867,0,0,1-1.488.41,2.763,2.763,0,0,1-2.012-.676,2.486,2.486,0,0,1-.691-1.863,2.183,2.183,0,0,1,.98-1.895,4.579,4.579,0,0,1,2.66-.684h1.672v-.836a1.551,1.551,0,0,0-.453-1.176,1.779,1.779,0,0,0-1.281-.434,1.859,1.859,0,0,0-1.211.375,1.125,1.125,0,0,0-.461.9l-1.461.016-.016-.047a2.023,2.023,0,0,1,.863-1.687,3.578,3.578,0,0,1,2.371-.766,3.49,3.49,0,0,1,2.313.73,2.588,2.588,0,0,1,.875,2.105V85.3a7.923,7.923,0,0,0,.047.875,4.5,4.5,0,0,0,.172.828Zm-2.555-1.125a2.739,2.739,0,0,0,1.508-.43,2.042,2.042,0,0,0,.875-.984V83.086H76.93a2.24,2.24,0,0,0-1.488.469,1.4,1.4,0,0,0-.559,1.1,1.159,1.159,0,0,0,.352.891A1.472,1.472,0,0,0,76.273,85.875Zm17.352-2.781a4.645,4.645,0,0,1-.879,2.949,2.9,2.9,0,0,1-2.418,1.121,3.064,3.064,0,0,1-1.465-.332,2.719,2.719,0,0,1-1.027-.98L87.586,87h-1.18V74.813h1.539v4.734a2.671,2.671,0,0,1,.988-.859,3.03,3.03,0,0,1,1.379-.3,2.809,2.809,0,0,1,2.438,1.25,5.622,5.622,0,0,1,.875,3.289Zm-1.539-.164a4.666,4.666,0,0,0-.535-2.371,1.762,1.762,0,0,0-1.629-.918,2.014,2.014,0,0,0-1.2.348,2.452,2.452,0,0,0-.777.934v3.664a2.517,2.517,0,0,0,.777.977,2,2,0,0,0,1.215.352,1.829,1.829,0,0,0,1.617-.773,3.552,3.552,0,0,0,.531-2.047ZM97.164,87H95.625V78.547h1.539Zm0-10.617H95.625v-1.57h1.539Zm5.867,10.781A3.576,3.576,0,0,1,100.191,86a4.48,4.48,0,0,1-1.02-3.062v-.344a4.386,4.386,0,0,1,1.051-3.012,3.3,3.3,0,0,1,2.566-1.191,3.067,3.067,0,0,1,2.543,1.055,4.345,4.345,0,0,1,.848,2.8v.813h-5.406l-.023.039a3.494,3.494,0,0,0,.563,2.066,1.965,1.965,0,0,0,1.719.793,3.872,3.872,0,0,0,1.371-.223,3.061,3.061,0,0,0,1.012-.613l.6,1a3.7,3.7,0,0,1-1.2.738A4.762,4.762,0,0,1,103.031,87.164Zm-.242-7.562a1.673,1.673,0,0,0-1.332.621,2.938,2.938,0,0,0-.645,1.59l.016.039h3.813v-.125a2.462,2.462,0,0,0-.453-1.523A1.638,1.638,0,0,0,102.789,79.6Zm6.492-1.055.109,1.258a3.069,3.069,0,0,1,1.059-1.043,2.824,2.824,0,0,1,1.449-.371,2.759,2.759,0,0,1,2.117.8,3.515,3.515,0,0,1,.75,2.473V87h-1.539V81.7a2.287,2.287,0,0,0-.441-1.586,1.768,1.768,0,0,0-1.348-.469,2.386,2.386,0,0,0-1.207.285,2.072,2.072,0,0,0-.785.8V87h-1.539V78.547ZM122.641,87H121.1V74.813h1.539Zm2.008-4.3a4.654,4.654,0,0,1,1.016-3.09,3.764,3.764,0,0,1,5.535,0,4.639,4.639,0,0,1,1.02,3.094v.172a4.631,4.631,0,0,1-1.016,3.094,3.781,3.781,0,0,1-5.535,0,4.623,4.623,0,0,1-1.02-3.09Zm1.539.172a4.009,4.009,0,0,0,.566,2.219,2.046,2.046,0,0,0,3.355,0,3.988,3.988,0,0,0,.57-2.219V82.7a3.976,3.976,0,0,0-.574-2.211,1.882,1.882,0,0,0-1.684-.883,1.856,1.856,0,0,0-1.668.883,4.018,4.018,0,0,0-.566,2.211Zm12.828,1.859a1.026,1.026,0,0,0-.387-.828,3.733,3.733,0,0,0-1.465-.562,6.146,6.146,0,0,1-2.293-.9,1.814,1.814,0,0,1-.8-1.547,2.229,2.229,0,0,1,.879-1.766,3.879,3.879,0,0,1,4.605.047,2.239,2.239,0,0,1,.852,1.82l-.016.047h-1.469a1.331,1.331,0,0,0-.48-.992,1.717,1.717,0,0,0-1.215-.445,1.751,1.751,0,0,0-1.215.367,1.146,1.146,0,0,0-.4.875.927.927,0,0,0,.348.773,3.848,3.848,0,0,0,1.434.5,6.058,6.058,0,0,1,2.359.93,1.872,1.872,0,0,1,.8,1.57,2.226,2.226,0,0,1-.91,1.836,3.754,3.754,0,0,1-2.379.711,3.715,3.715,0,0,1-2.547-.82,2.341,2.341,0,0,1-.883-1.914l.016-.047h1.469a1.424,1.424,0,0,0,.609,1.2,2.358,2.358,0,0,0,1.336.379,2.1,2.1,0,0,0,1.285-.348A1.063,1.063,0,0,0,139.016,84.727Zm11.43-4.82-.789-.047a1.762,1.762,0,0,0-1.027.289,1.855,1.855,0,0,0-.645.813V87h-1.539V78.547h1.375l.148,1.234a2.934,2.934,0,0,1,.887-1.023,2.073,2.073,0,0,1,1.215-.367,1.9,1.9,0,0,1,.328.027,2.173,2.173,0,0,1,.258.059Zm4.953,7.258A3.576,3.576,0,0,1,152.559,86a4.48,4.48,0,0,1-1.02-3.062v-.344a4.386,4.386,0,0,1,1.051-3.012,3.3,3.3,0,0,1,2.566-1.191,3.067,3.067,0,0,1,2.543,1.055,4.345,4.345,0,0,1,.848,2.8v.813h-5.406l-.023.039a3.494,3.494,0,0,0,.563,2.066,1.965,1.965,0,0,0,1.719.793,3.872,3.872,0,0,0,1.371-.223,3.061,3.061,0,0,0,1.012-.613l.6,1a3.7,3.7,0,0,1-1.2.738A4.762,4.762,0,0,1,155.4,87.164Zm-.242-7.562a1.673,1.673,0,0,0-1.332.621,2.938,2.938,0,0,0-.645,1.59l.016.039h3.813v-.125a2.462,2.462,0,0,0-.453-1.523A1.638,1.638,0,0,0,155.156,79.6Zm8.477,6.359a1.81,1.81,0,0,0,1.242-.473,1.493,1.493,0,0,0,.531-1.16H166.8l.023.047a2.428,2.428,0,0,1-.937,1.941,3.582,3.582,0,0,1-5-.363,4.674,4.674,0,0,1-.969-3.016v-.328a4.654,4.654,0,0,1,.973-3,3.317,3.317,0,0,1,2.746-1.215,3.189,3.189,0,0,1,2.316.875,2.775,2.775,0,0,1,.871,2.148l-.016.047h-1.4a1.865,1.865,0,0,0-.5-1.316,1.658,1.658,0,0,0-1.27-.543,1.777,1.777,0,0,0-1.652.879,4.114,4.114,0,0,0-.52,2.129v.328a4.192,4.192,0,0,0,.512,2.148A1.776,1.776,0,0,0,163.633,85.961Zm10.383-.211a2.863,2.863,0,0,1-1.023,1.047,2.8,2.8,0,0,1-1.445.367,2.716,2.716,0,0,1-2.156-.883,4.1,4.1,0,0,1-.773-2.75V78.547h1.539v5a3.147,3.147,0,0,0,.4,1.859,1.481,1.481,0,0,0,1.242.508,2.531,2.531,0,0,0,1.355-.332,2.077,2.077,0,0,0,.809-.941V78.547H175.5V87h-1.383Zm7.727-5.844-.789-.047a1.762,1.762,0,0,0-1.027.289,1.855,1.855,0,0,0-.645.813V87h-1.539V78.547h1.375l.148,1.234a2.934,2.934,0,0,1,.887-1.023,2.073,2.073,0,0,1,1.215-.367,1.9,1.9,0,0,1,.328.027,2.173,2.173,0,0,1,.258.059Zm6.516,4.82a1.026,1.026,0,0,0-.387-.828,3.733,3.733,0,0,0-1.465-.562,6.146,6.146,0,0,1-2.293-.9,1.814,1.814,0,0,1-.8-1.547,2.229,2.229,0,0,1,.879-1.766,3.879,3.879,0,0,1,4.605.047,2.239,2.239,0,0,1,.852,1.82l-.016.047h-1.469a1.331,1.331,0,0,0-.48-.992,1.717,1.717,0,0,0-1.215-.445,1.751,1.751,0,0,0-1.215.367,1.146,1.146,0,0,0-.4.875.927.927,0,0,0,.348.773,3.848,3.848,0,0,0,1.434.5,6.058,6.058,0,0,1,2.359.93,1.872,1.872,0,0,1,.8,1.57,2.226,2.226,0,0,1-.91,1.836,3.754,3.754,0,0,1-2.379.711,3.715,3.715,0,0,1-2.547-.82,2.341,2.341,0,0,1-.883-1.914l.016-.047h1.469a1.424,1.424,0,0,0,.609,1.2,2.358,2.358,0,0,0,1.336.379,2.1,2.1,0,0,0,1.285-.348A1.063,1.063,0,0,0,188.258,84.727Zm3.094-2.031a4.654,4.654,0,0,1,1.016-3.09,3.764,3.764,0,0,1,5.535,0,4.639,4.639,0,0,1,1.02,3.094v.172a4.631,4.631,0,0,1-1.016,3.094,3.781,3.781,0,0,1-5.535,0,4.623,4.623,0,0,1-1.02-3.09Zm1.539.172a4.009,4.009,0,0,0,.566,2.219,2.046,2.046,0,0,0,3.355,0,3.988,3.988,0,0,0,.57-2.219V82.7a3.976,3.976,0,0,0-.574-2.211,1.882,1.882,0,0,0-1.684-.883,1.856,1.856,0,0,0-1.668.883,4.018,4.018,0,0,0-.566,2.211Zm12.828,1.859a1.026,1.026,0,0,0-.387-.828,3.733,3.733,0,0,0-1.465-.562,6.146,6.146,0,0,1-2.293-.9,1.814,1.814,0,0,1-.8-1.547,2.229,2.229,0,0,1,.879-1.766,3.879,3.879,0,0,1,4.605.047,2.239,2.239,0,0,1,.852,1.82l-.016.047h-1.469a1.331,1.331,0,0,0-.48-.992,1.717,1.717,0,0,0-1.215-.445,1.751,1.751,0,0,0-1.215.367,1.146,1.146,0,0,0-.4.875.927.927,0,0,0,.348.773,3.848,3.848,0,0,0,1.434.5,6.058,6.058,0,0,1,2.359.93,1.872,1.872,0,0,1,.8,1.57,2.226,2.226,0,0,1-.91,1.836,3.754,3.754,0,0,1-2.379.711,3.715,3.715,0,0,1-2.547-.82,2.341,2.341,0,0,1-.883-1.914l.016-.047h1.469a1.424,1.424,0,0,0,.609,1.2,2.358,2.358,0,0,0,1.336.379,2.1,2.1,0,0,0,1.285-.348A1.063,1.063,0,0,0,205.719,84.727Zm4.8,1.9-1.172,2.391h-.914l.547-2.469V85.273h1.539Zm12.992-3.531a4.659,4.659,0,0,1-.875,2.949,2.893,2.893,0,0,1-2.414,1.121,3.354,3.354,0,0,1-1.371-.262,2.622,2.622,0,0,1-1-.785V90.25H216.3v-11.7h1.18l.242,1.094a2.792,2.792,0,0,1,1.031-.93,3.078,3.078,0,0,1,1.438-.32,2.809,2.809,0,0,1,2.441,1.246,5.637,5.637,0,0,1,.871,3.293Zm-1.539-.164a4.467,4.467,0,0,0-.566-2.363,1.835,1.835,0,0,0-1.668-.926,2.053,2.053,0,0,0-1.133.3,2.25,2.25,0,0,0-.758.824v4.086a2.186,2.186,0,0,0,.758.816,2.126,2.126,0,0,0,1.148.293,1.894,1.894,0,0,0,1.656-.8,3.516,3.516,0,0,0,.563-2.066Zm6.93,4.234A3.576,3.576,0,0,1,226.059,86a4.48,4.48,0,0,1-1.02-3.062v-.344a4.386,4.386,0,0,1,1.051-3.012,3.3,3.3,0,0,1,2.566-1.191,3.067,3.067,0,0,1,2.543,1.055,4.345,4.345,0,0,1,.848,2.8v.813h-5.406l-.023.039a3.494,3.494,0,0,0,.563,2.066,1.965,1.965,0,0,0,1.719.793,3.872,3.872,0,0,0,1.371-.223,3.061,3.061,0,0,0,1.012-.613l.6,1a3.7,3.7,0,0,1-1.2.738A4.762,4.762,0,0,1,228.9,87.164Zm-.242-7.562a1.673,1.673,0,0,0-1.332.621,2.938,2.938,0,0,0-.645,1.59l.016.039h3.813v-.125a2.462,2.462,0,0,0-.453-1.523A1.638,1.638,0,0,0,228.656,79.6Zm9.117.3-.789-.047a1.762,1.762,0,0,0-1.027.289,1.855,1.855,0,0,0-.645.813V87h-1.539V78.547h1.375l.148,1.234a2.934,2.934,0,0,1,.887-1.023,2.073,2.073,0,0,1,1.215-.367,1.9,1.9,0,0,1,.328.027,2.173,2.173,0,0,1,.258.059Zm1.086,2.789a4.654,4.654,0,0,1,1.016-3.09,3.764,3.764,0,0,1,5.535,0,4.639,4.639,0,0,1,1.02,3.094v.172a4.631,4.631,0,0,1-1.016,3.094,3.781,3.781,0,0,1-5.535,0,4.623,4.623,0,0,1-1.02-3.09Zm1.539.172a4.009,4.009,0,0,0,.566,2.219,2.046,2.046,0,0,0,3.355,0,3.988,3.988,0,0,0,.57-2.219V82.7a3.976,3.976,0,0,0-.574-2.211,1.882,1.882,0,0,0-1.684-.883,1.856,1.856,0,0,0-1.668.883A4.018,4.018,0,0,0,240.4,82.7Zm-195.02,19.68.109,1.258a3.069,3.069,0,0,1,1.059-1.043A2.824,2.824,0,0,1,48,102.391a2.759,2.759,0,0,1,2.117.8,3.515,3.515,0,0,1,.75,2.473V111H49.324v-5.3a2.287,2.287,0,0,0-.441-1.586,1.768,1.768,0,0,0-1.348-.469,2.386,2.386,0,0,0-1.207.285,2.072,2.072,0,0,0-.785.8V111H44v-8.453Zm7.359,4.148a4.654,4.654,0,0,1,1.016-3.09,3.764,3.764,0,0,1,5.535,0,4.639,4.639,0,0,1,1.02,3.094v.172a4.631,4.631,0,0,1-1.016,3.094,3.781,3.781,0,0,1-5.535,0,4.623,4.623,0,0,1-1.02-3.09Zm1.539.172a4.009,4.009,0,0,0,.566,2.219,2.046,2.046,0,0,0,3.355,0,3.988,3.988,0,0,0,.57-2.219V106.7a3.976,3.976,0,0,0-.574-2.211,1.882,1.882,0,0,0-1.684-.883,1.856,1.856,0,0,0-1.668.883,4.018,4.018,0,0,0-.566,2.211ZM67.832,111H66.293V98.813h1.539Zm4.031,0H70.324V98.813h1.539Zm5.867.164A3.576,3.576,0,0,1,74.891,110a4.48,4.48,0,0,1-1.02-3.062v-.344a4.386,4.386,0,0,1,1.051-3.012,3.3,3.3,0,0,1,2.566-1.191,3.067,3.067,0,0,1,2.543,1.055,4.345,4.345,0,0,1,.848,2.8v.813H75.473l-.023.039a3.494,3.494,0,0,0,.563,2.066,1.965,1.965,0,0,0,1.719.793,3.872,3.872,0,0,0,1.371-.223,3.061,3.061,0,0,0,1.012-.613l.6,1a3.7,3.7,0,0,1-1.2.738A4.762,4.762,0,0,1,77.73,111.164Zm-.242-7.562a1.673,1.673,0,0,0-1.332.621,2.938,2.938,0,0,0-.645,1.59l.016.039H79.34v-.125a2.462,2.462,0,0,0-.453-1.523A1.638,1.638,0,0,0,77.488,103.6Zm4.844,3.328a5.641,5.641,0,0,1,.871-3.289,2.8,2.8,0,0,1,2.434-1.25,2.966,2.966,0,0,1,1.414.324,2.845,2.845,0,0,1,1.023.934l.188-1.1h1.227v8.5a3.225,3.225,0,0,1-.945,2.5,3.884,3.884,0,0,1-2.727.871,5.717,5.717,0,0,1-1.316-.168,5.147,5.147,0,0,1-1.246-.457l.234-1.2a4.45,4.45,0,0,0,1.074.379,5.517,5.517,0,0,0,1.238.145,2.242,2.242,0,0,0,1.637-.512,2.12,2.12,0,0,0,.512-1.559v-.961a2.725,2.725,0,0,1-.992.8,3.091,3.091,0,0,1-1.336.273,2.89,2.89,0,0,1-2.418-1.121,4.674,4.674,0,0,1-.871-2.949Zm1.539.164a3.592,3.592,0,0,0,.523,2.047,1.817,1.817,0,0,0,1.617.773,2.034,2.034,0,0,0,1.164-.316,2.4,2.4,0,0,0,.773-.895v-3.891a2.388,2.388,0,0,0-.773-.855,2.029,2.029,0,0,0-1.148-.316,1.752,1.752,0,0,0-1.629.914,4.718,4.718,0,0,0-.527,2.375ZM96.895,111q-.078-.383-.121-.676a4.96,4.96,0,0,1-.051-.59,3.589,3.589,0,0,1-1.121,1.02,2.867,2.867,0,0,1-1.488.41,2.763,2.763,0,0,1-2.012-.676,2.486,2.486,0,0,1-.691-1.863,2.183,2.183,0,0,1,.98-1.895,4.579,4.579,0,0,1,2.66-.684h1.672v-.836a1.551,1.551,0,0,0-.453-1.176,1.779,1.779,0,0,0-1.281-.434,1.859,1.859,0,0,0-1.211.375,1.125,1.125,0,0,0-.461.9l-1.461.016-.016-.047a2.023,2.023,0,0,1,.863-1.687,3.578,3.578,0,0,1,2.371-.766,3.49,3.49,0,0,1,2.313.73,2.588,2.588,0,0,1,.875,2.105v4.07a7.923,7.923,0,0,0,.047.875,4.5,4.5,0,0,0,.172.828Zm-2.555-1.125a2.739,2.739,0,0,0,1.508-.43,2.042,2.042,0,0,0,.875-.984v-1.375H95a2.24,2.24,0,0,0-1.488.469,1.4,1.4,0,0,0-.559,1.1,1.159,1.159,0,0,0,.352.891A1.472,1.472,0,0,0,94.34,109.875ZM109.668,111q-.078-.383-.121-.676a4.96,4.96,0,0,1-.051-.59,3.589,3.589,0,0,1-1.121,1.02,2.867,2.867,0,0,1-1.488.41,2.763,2.763,0,0,1-2.012-.676,2.486,2.486,0,0,1-.691-1.863,2.183,2.183,0,0,1,.98-1.895,4.579,4.579,0,0,1,2.66-.684H109.5v-.836a1.551,1.551,0,0,0-.453-1.176,1.779,1.779,0,0,0-1.281-.434,1.859,1.859,0,0,0-1.211.375,1.125,1.125,0,0,0-.461.9l-1.461.016-.016-.047a2.023,2.023,0,0,1,.863-1.687,3.578,3.578,0,0,1,2.371-.766,3.49,3.49,0,0,1,2.313.73,2.588,2.588,0,0,1,.875,2.105v4.07a7.923,7.923,0,0,0,.047.875,4.5,4.5,0,0,0,.172.828Zm-2.555-1.125a2.739,2.739,0,0,0,1.508-.43,2.042,2.042,0,0,0,.875-.984v-1.375H107.77a2.24,2.24,0,0,0-1.488.469,1.4,1.4,0,0,0-.559,1.1,1.159,1.159,0,0,0,.352.891A1.472,1.472,0,0,0,107.113,109.875ZM118.91,111h-1.539V98.813h1.539Zm2.008-4.3a4.654,4.654,0,0,1,1.016-3.09,3.764,3.764,0,0,1,5.535,0,4.639,4.639,0,0,1,1.02,3.094v.172a4.631,4.631,0,0,1-1.016,3.094,3.781,3.781,0,0,1-5.535,0,4.623,4.623,0,0,1-1.02-3.09Zm1.539.172a4.009,4.009,0,0,0,.566,2.219,2.046,2.046,0,0,0,3.355,0,3.988,3.988,0,0,0,.57-2.219V106.7a3.976,3.976,0,0,0-.574-2.211,1.882,1.882,0,0,0-1.684-.883,1.856,1.856,0,0,0-1.668.883,4.018,4.018,0,0,0-.566,2.211Zm12.828,1.859a1.026,1.026,0,0,0-.387-.828,3.733,3.733,0,0,0-1.465-.562,6.146,6.146,0,0,1-2.293-.9,1.814,1.814,0,0,1-.8-1.547,2.229,2.229,0,0,1,.879-1.766,3.879,3.879,0,0,1,4.605.047,2.239,2.239,0,0,1,.852,1.82l-.016.047h-1.469a1.331,1.331,0,0,0-.48-.992,1.717,1.717,0,0,0-1.215-.445,1.751,1.751,0,0,0-1.215.367,1.146,1.146,0,0,0-.4.875.927.927,0,0,0,.348.773,3.848,3.848,0,0,0,1.434.5,6.058,6.058,0,0,1,2.359.93,1.872,1.872,0,0,1,.8,1.57,2.226,2.226,0,0,1-.91,1.836,3.754,3.754,0,0,1-2.379.711,3.715,3.715,0,0,1-2.547-.82,2.341,2.341,0,0,1-.883-1.914l.016-.047h1.469a1.424,1.424,0,0,0,.609,1.2,2.358,2.358,0,0,0,1.336.379,2.1,2.1,0,0,0,1.285-.348A1.063,1.063,0,0,0,135.285,108.727Zm7.07-2.031a4.654,4.654,0,0,1,1.016-3.09,3.764,3.764,0,0,1,5.535,0,4.639,4.639,0,0,1,1.02,3.094v.172a4.631,4.631,0,0,1-1.016,3.094,3.781,3.781,0,0,1-5.535,0,4.623,4.623,0,0,1-1.02-3.09Zm1.539.172a4.009,4.009,0,0,0,.566,2.219,2.046,2.046,0,0,0,3.355,0,3.988,3.988,0,0,0,.57-2.219V106.7a3.976,3.976,0,0,0-.574-2.211,1.882,1.882,0,0,0-1.684-.883,1.856,1.856,0,0,0-1.668.883,4.018,4.018,0,0,0-.566,2.211Zm15.133.227a4.645,4.645,0,0,1-.879,2.949,2.9,2.9,0,0,1-2.418,1.121,3.064,3.064,0,0,1-1.465-.332,2.719,2.719,0,0,1-1.027-.98l-.25,1.148h-1.18V98.813h1.539v4.734a2.671,2.671,0,0,1,.988-.859,3.03,3.03,0,0,1,1.379-.3,2.809,2.809,0,0,1,2.438,1.25,5.622,5.622,0,0,1,.875,3.289Zm-1.539-.164a4.666,4.666,0,0,0-.535-2.371,1.762,1.762,0,0,0-1.629-.918,2.014,2.014,0,0,0-1.2.348,2.452,2.452,0,0,0-.777.934v3.664a2.517,2.517,0,0,0,.777.977,2,2,0,0,0,1.215.352,1.829,1.829,0,0,0,1.617-.773,3.552,3.552,0,0,0,.531-2.047Zm5.188-4.383V111.7a2.807,2.807,0,0,1-.672,2.012,2.452,2.452,0,0,1-1.867.707,2.549,2.549,0,0,1-.441-.035,3.49,3.49,0,0,1-.426-.105l.109-1.211a1.621,1.621,0,0,0,.313.066,2.609,2.609,0,0,0,.336.027,1.02,1.02,0,0,0,.809-.344,1.681,1.681,0,0,0,.3-1.117v-9.148Zm-.047-2.2H161.09V98.813h1.539Zm5.914,10.813A3.576,3.576,0,0,1,165.7,110a4.48,4.48,0,0,1-1.02-3.062v-.344a4.386,4.386,0,0,1,1.051-3.012,3.3,3.3,0,0,1,2.566-1.191,3.067,3.067,0,0,1,2.543,1.055,4.345,4.345,0,0,1,.848,2.8v.813h-5.406l-.023.039a3.494,3.494,0,0,0,.563,2.066,1.965,1.965,0,0,0,1.719.793,3.872,3.872,0,0,0,1.371-.223,3.061,3.061,0,0,0,1.012-.613l.6,1a3.7,3.7,0,0,1-1.2.738A4.762,4.762,0,0,1,168.543,111.164ZM168.3,103.6a1.673,1.673,0,0,0-1.332.621,2.938,2.938,0,0,0-.645,1.59l.016.039h3.813v-.125a2.462,2.462,0,0,0-.453-1.523A1.638,1.638,0,0,0,168.3,103.6Zm7.258-3.094v2.039h1.6v1.141h-1.6v5.133a1.149,1.149,0,0,0,.246.836.89.89,0,0,0,.652.242,1.429,1.429,0,0,0,.3-.035,2.2,2.2,0,0,0,.273-.074l.211,1.055a1.36,1.36,0,0,1-.508.23,2.562,2.562,0,0,1-.664.09,1.993,1.993,0,0,1-1.492-.566,2.46,2.46,0,0,1-.555-1.777v-5.133h-1.344v-1.141h1.344v-2.039ZM180.473,111h-1.539v-8.453h1.539Zm0-10.617h-1.539v-1.57h1.539Zm5.188,8.125.133.594h.047l.148-.594,1.945-5.961h1.57L186.395,111H185.23l-3.148-8.453h1.578Zm4.75-1.812a4.654,4.654,0,0,1,1.016-3.09,3.764,3.764,0,0,1,5.535,0,4.639,4.639,0,0,1,1.02,3.094v.172a4.631,4.631,0,0,1-1.016,3.094,3.781,3.781,0,0,1-5.535,0,4.623,4.623,0,0,1-1.02-3.09Zm1.539.172a4.009,4.009,0,0,0,.566,2.219,2.046,2.046,0,0,0,3.355,0,3.988,3.988,0,0,0,.57-2.219V106.7a3.976,3.976,0,0,0-.574-2.211,1.882,1.882,0,0,0-1.684-.883,1.856,1.856,0,0,0-1.668.883,4.018,4.018,0,0,0-.566,2.211Zm12.828,1.859a1.026,1.026,0,0,0-.387-.828,3.733,3.733,0,0,0-1.465-.562,6.146,6.146,0,0,1-2.293-.9,1.814,1.814,0,0,1-.8-1.547,2.229,2.229,0,0,1,.879-1.766,3.879,3.879,0,0,1,4.605.047,2.239,2.239,0,0,1,.852,1.82l-.016.047h-1.469a1.331,1.331,0,0,0-.48-.992,1.717,1.717,0,0,0-1.215-.445,1.751,1.751,0,0,0-1.215.367,1.146,1.146,0,0,0-.4.875.927.927,0,0,0,.348.773,3.848,3.848,0,0,0,1.434.5,6.058,6.058,0,0,1,2.359.93,1.872,1.872,0,0,1,.8,1.57,2.226,2.226,0,0,1-.91,1.836,3.754,3.754,0,0,1-2.379.711,3.715,3.715,0,0,1-2.547-.82,2.341,2.341,0,0,1-.883-1.914l.016-.047h1.469a1.424,1.424,0,0,0,.609,1.2,2.358,2.358,0,0,0,1.336.379,2.1,2.1,0,0,0,1.285-.348A1.063,1.063,0,0,0,204.777,108.727Z" transform="translate(573 2201)" fill="#12263f"/>
    <path id="Trazado_737636" data-name="Trazado 737636" d="M67.438,10.875V15H65.156V3.625h4.352a4.48,4.48,0,0,1,3.086,1,3.353,3.353,0,0,1,1.125,2.633,3.329,3.329,0,0,1-1.125,2.625,4.5,4.5,0,0,1-3.086.992Zm0-1.758h2.07a1.9,1.9,0,0,0,1.445-.52,1.848,1.848,0,0,0,.492-1.324,1.934,1.934,0,0,0-.488-1.355,1.864,1.864,0,0,0-1.449-.535h-2.07Zm17.117,1.219a4.776,4.776,0,0,1-1.32,3.465,4.991,4.991,0,0,1-6.859,0,4.8,4.8,0,0,1-1.312-3.461V8.289a4.807,4.807,0,0,1,1.309-3.457,4.5,4.5,0,0,1,3.41-1.371,4.583,4.583,0,0,1,3.445,1.371,4.768,4.768,0,0,1,1.328,3.457ZM82.281,8.273a3.44,3.44,0,0,0-.664-2.18,2.2,2.2,0,0,0-1.836-.852,2.129,2.129,0,0,0-1.8.852,3.512,3.512,0,0,0-.645,2.18v2.063a3.537,3.537,0,0,0,.648,2.2,2.148,2.148,0,0,0,1.813.852,2.177,2.177,0,0,0,1.828-.852,3.507,3.507,0,0,0,.656-2.2Zm12.609,2.961.016.047A3.561,3.561,0,0,1,93.8,14.133a4.523,4.523,0,0,1-3.148,1.031,4.361,4.361,0,0,1-3.3-1.316,4.722,4.722,0,0,1-1.258-3.4V8.188a4.809,4.809,0,0,1,1.227-3.4,4.182,4.182,0,0,1,3.219-1.324,4.8,4.8,0,0,1,3.25,1.016,3.5,3.5,0,0,1,1.141,2.859l-.016.047H92.688a2.236,2.236,0,0,0-.527-1.629,2.2,2.2,0,0,0-1.629-.535,1.839,1.839,0,0,0-1.6.824,3.645,3.645,0,0,0-.574,2.129v2.273a3.538,3.538,0,0,0,.605,2.141,1.968,1.968,0,0,0,1.684.828,2,2,0,0,0,1.527-.535,2.328,2.328,0,0,0,.5-1.645Zm10.852-.9a4.776,4.776,0,0,1-1.32,3.465,4.991,4.991,0,0,1-6.859,0,4.8,4.8,0,0,1-1.312-3.461V8.289a4.807,4.807,0,0,1,1.309-3.457,4.5,4.5,0,0,1,3.41-1.371,4.583,4.583,0,0,1,3.445,1.371,4.768,4.768,0,0,1,1.328,3.457Zm-2.273-2.062a3.44,3.44,0,0,0-.664-2.18,2.2,2.2,0,0,0-1.836-.852,2.129,2.129,0,0,0-1.8.852,3.512,3.512,0,0,0-.645,2.18v2.063a3.537,3.537,0,0,0,.648,2.2,2.148,2.148,0,0,0,1.813.852,2.177,2.177,0,0,0,1.828-.852,3.507,3.507,0,0,0,.656-2.2ZM118.031,10h-4.219v3.25h5.016V15h-7.3V3.625h7.281V5.383h-5V8.242h4.219Zm9.047.273h-4.367V15H120.43V3.625h7.445V5.383h-5.164V8.516h4.367ZM131.766,15h-2.281V3.625h2.281Zm10.789-3.766.016.047a3.561,3.561,0,0,1-1.109,2.852,4.523,4.523,0,0,1-3.148,1.031,4.361,4.361,0,0,1-3.3-1.316,4.722,4.722,0,0,1-1.258-3.4V8.188a4.809,4.809,0,0,1,1.227-3.4A4.182,4.182,0,0,1,138.2,3.461a4.8,4.8,0,0,1,3.25,1.016,3.5,3.5,0,0,1,1.141,2.859l-.016.047h-2.219a2.236,2.236,0,0,0-.527-1.629,2.2,2.2,0,0,0-1.629-.535,1.839,1.839,0,0,0-1.6.824,3.645,3.645,0,0,0-.574,2.129v2.273a3.538,3.538,0,0,0,.605,2.141,1.968,1.968,0,0,0,1.684.828,2,2,0,0,0,1.527-.535,2.328,2.328,0,0,0,.5-1.645ZM146.641,15h-2.281V3.625h2.281Zm8.758-5H151.18v3.25H156.2V15h-7.3V3.625h7.281V5.383h-5V8.242H155.4Zm11.594,5h-2.281l-4.586-7.672-.047.008V15H157.8V3.625h2.281l4.586,7.664.047-.008V3.625h2.281Zm9.8-9.617h-3.25V15h-2.281V5.383h-3.2V3.625h8.734ZM184.539,10H180.32v3.25h5.016V15h-7.3V3.625h7.281V5.383h-5V8.242h4.219ZM79.172,34.875V39H76.891V27.625h4.352a4.48,4.48,0,0,1,3.086,1,3.634,3.634,0,0,1,0,5.258,4.5,4.5,0,0,1-3.086.992Zm0-1.758h2.07a1.9,1.9,0,0,0,1.445-.52,1.848,1.848,0,0,0,.492-1.324,1.934,1.934,0,0,0-.488-1.355,1.864,1.864,0,0,0-1.449-.535h-2.07Zm17.117,1.219a4.776,4.776,0,0,1-1.32,3.465,4.991,4.991,0,0,1-6.859,0A4.8,4.8,0,0,1,86.8,34.336V32.289a4.807,4.807,0,0,1,1.309-3.457,4.5,4.5,0,0,1,3.41-1.371,4.583,4.583,0,0,1,3.445,1.371,4.768,4.768,0,0,1,1.328,3.457Zm-2.273-2.062a3.44,3.44,0,0,0-.664-2.18,2.2,2.2,0,0,0-1.836-.852,2.129,2.129,0,0,0-1.8.852,3.512,3.512,0,0,0-.645,2.18v2.063a3.537,3.537,0,0,0,.648,2.2,2.148,2.148,0,0,0,1.813.852,2.177,2.177,0,0,0,1.828-.852,3.507,3.507,0,0,0,.656-2.2Zm12.609,2.961.016.047a3.561,3.561,0,0,1-1.109,2.852,4.523,4.523,0,0,1-3.148,1.031,4.361,4.361,0,0,1-3.3-1.316,4.722,4.722,0,0,1-1.258-3.4V32.188a4.809,4.809,0,0,1,1.227-3.4,4.182,4.182,0,0,1,3.219-1.324,4.8,4.8,0,0,1,3.25,1.016,3.5,3.5,0,0,1,1.141,2.859l-.016.047h-2.219a2.236,2.236,0,0,0-.527-1.629,2.2,2.2,0,0,0-1.629-.535,1.839,1.839,0,0,0-1.6.824,3.645,3.645,0,0,0-.574,2.129v2.273a3.538,3.538,0,0,0,.605,2.141,1.968,1.968,0,0,0,1.684.828,2,2,0,0,0,1.527-.535,2.328,2.328,0,0,0,.5-1.645Zm10.852-.9a4.776,4.776,0,0,1-1.32,3.465,4.991,4.991,0,0,1-6.859,0,4.8,4.8,0,0,1-1.312-3.461V32.289a4.807,4.807,0,0,1,1.309-3.457,4.5,4.5,0,0,1,3.41-1.371,4.583,4.583,0,0,1,3.445,1.371,4.768,4.768,0,0,1,1.328,3.457ZM115.2,32.273a3.44,3.44,0,0,0-.664-2.18,2.2,2.2,0,0,0-1.836-.852,2.129,2.129,0,0,0-1.8.852,3.512,3.512,0,0,0-.645,2.18v2.063a3.537,3.537,0,0,0,.648,2.2,2.148,2.148,0,0,0,1.813.852,2.177,2.177,0,0,0,1.828-.852,3.507,3.507,0,0,0,.656-2.2ZM129.766,34h-4.219v3.25h5.016V39h-7.3V27.625h7.281v1.758h-5v2.859h4.219Zm9.047.273h-4.367V39h-2.281V27.625h7.445v1.758h-5.164v3.133h4.367ZM143.5,39h-2.281V27.625H143.5Zm10.789-3.766.016.047a3.561,3.561,0,0,1-1.109,2.852,4.523,4.523,0,0,1-3.148,1.031,4.361,4.361,0,0,1-3.3-1.316,4.722,4.722,0,0,1-1.258-3.4V32.188a4.809,4.809,0,0,1,1.227-3.4,4.182,4.182,0,0,1,3.219-1.324,4.8,4.8,0,0,1,3.25,1.016,3.5,3.5,0,0,1,1.141,2.859l-.016.047h-2.219a2.236,2.236,0,0,0-.527-1.629,2.2,2.2,0,0,0-1.629-.535,1.839,1.839,0,0,0-1.6.824,3.645,3.645,0,0,0-.574,2.129v2.273a3.538,3.538,0,0,0,.605,2.141,1.968,1.968,0,0,0,1.684.828,2,2,0,0,0,1.527-.535,2.328,2.328,0,0,0,.5-1.645Zm7.578,1.313H158.18L157.414,39h-2.383l3.836-11.375H161.2L165.023,39h-2.383Zm-3.125-1.789h2.57l-1.258-4.008h-.047Zm9.617,2.492h5.219V39h-7.906V37.813l5.063-8.43H165.68V27.625h7.766v1.141ZM43.18,87H41.641l-5.477-8.687-.047.016V87H34.578V75.625h1.539l5.477,8.68.047-.016V75.625H43.18Zm2.094-4.3a4.654,4.654,0,0,1,1.016-3.09,3.764,3.764,0,0,1,5.535,0,4.639,4.639,0,0,1,1.02,3.094v.172a4.631,4.631,0,0,1-1.016,3.094,3.781,3.781,0,0,1-5.535,0,4.623,4.623,0,0,1-1.02-3.09Zm1.539.172a4.009,4.009,0,0,0,.566,2.219,2.046,2.046,0,0,0,3.355,0,3.988,3.988,0,0,0,.57-2.219V82.7a3.976,3.976,0,0,0-.574-2.211,1.882,1.882,0,0,0-1.684-.883,1.856,1.856,0,0,0-1.668.883,4.018,4.018,0,0,0-.566,2.211ZM60.367,87H58.828V74.813h1.539ZM64.4,87H62.859V74.813H64.4Zm5.867.164A3.576,3.576,0,0,1,67.426,86a4.48,4.48,0,0,1-1.02-3.062v-.344a4.386,4.386,0,0,1,1.051-3.012,3.3,3.3,0,0,1,2.566-1.191,3.067,3.067,0,0,1,2.543,1.055,4.345,4.345,0,0,1,.848,2.8v.813H68.008l-.023.039a3.494,3.494,0,0,0,.563,2.066,1.965,1.965,0,0,0,1.719.793,3.872,3.872,0,0,0,1.371-.223,3.061,3.061,0,0,0,1.012-.613l.6,1a3.7,3.7,0,0,1-1.2.738A4.762,4.762,0,0,1,70.266,87.164ZM70.023,79.6a1.673,1.673,0,0,0-1.332.621,2.938,2.938,0,0,0-.645,1.59l.016.039h3.813v-.125a2.462,2.462,0,0,0-.453-1.523A1.638,1.638,0,0,0,70.023,79.6Zm4.844,3.328a5.641,5.641,0,0,1,.871-3.289,2.8,2.8,0,0,1,2.434-1.25,2.966,2.966,0,0,1,1.414.324,2.845,2.845,0,0,1,1.023.934l.188-1.1h1.227v8.5a3.225,3.225,0,0,1-.945,2.5,3.884,3.884,0,0,1-2.727.871,5.717,5.717,0,0,1-1.316-.168,5.147,5.147,0,0,1-1.246-.457l.234-1.2a4.45,4.45,0,0,0,1.074.379,5.517,5.517,0,0,0,1.238.145,2.242,2.242,0,0,0,1.637-.512,2.12,2.12,0,0,0,.512-1.559v-.961a2.725,2.725,0,0,1-.992.8,3.091,3.091,0,0,1-1.336.273,2.89,2.89,0,0,1-2.418-1.121,4.674,4.674,0,0,1-.871-2.949Zm1.539.164a3.592,3.592,0,0,0,.523,2.047,1.817,1.817,0,0,0,1.617.773,2.034,2.034,0,0,0,1.164-.316,2.4,2.4,0,0,0,.773-.895V80.813a2.388,2.388,0,0,0-.773-.855,2.029,2.029,0,0,0-1.148-.316,1.752,1.752,0,0,0-1.629.914,4.718,4.718,0,0,0-.527,2.375ZM89.43,87q-.078-.383-.121-.676a4.96,4.96,0,0,1-.051-.59,3.589,3.589,0,0,1-1.121,1.02,2.867,2.867,0,0,1-1.488.41,2.763,2.763,0,0,1-2.012-.676,2.486,2.486,0,0,1-.691-1.863,2.183,2.183,0,0,1,.98-1.895,4.579,4.579,0,0,1,2.66-.684h1.672v-.836a1.551,1.551,0,0,0-.453-1.176,1.779,1.779,0,0,0-1.281-.434,1.859,1.859,0,0,0-1.211.375,1.125,1.125,0,0,0-.461.9l-1.461.016-.016-.047a2.023,2.023,0,0,1,.863-1.687,3.578,3.578,0,0,1,2.371-.766,3.49,3.49,0,0,1,2.313.73,2.588,2.588,0,0,1,.875,2.105V85.3a7.923,7.923,0,0,0,.047.875,4.5,4.5,0,0,0,.172.828Zm-2.555-1.125a2.739,2.739,0,0,0,1.508-.43,2.042,2.042,0,0,0,.875-.984V83.086H87.531a2.24,2.24,0,0,0-1.488.469,1.4,1.4,0,0,0-.559,1.1,1.159,1.159,0,0,0,.352.891A1.472,1.472,0,0,0,86.875,85.875ZM102.2,87q-.078-.383-.121-.676a4.96,4.96,0,0,1-.051-.59,3.589,3.589,0,0,1-1.121,1.02,2.867,2.867,0,0,1-1.488.41,2.763,2.763,0,0,1-2.012-.676,2.486,2.486,0,0,1-.691-1.863,2.183,2.183,0,0,1,.98-1.895,4.579,4.579,0,0,1,2.66-.684h1.672v-.836a1.551,1.551,0,0,0-.453-1.176A1.779,1.779,0,0,0,100.3,79.6a1.859,1.859,0,0,0-1.211.375,1.125,1.125,0,0,0-.461.9l-1.461.016-.016-.047a2.023,2.023,0,0,1,.863-1.687,3.578,3.578,0,0,1,2.371-.766,3.49,3.49,0,0,1,2.313.73,2.588,2.588,0,0,1,.875,2.105V85.3a7.923,7.923,0,0,0,.047.875,4.5,4.5,0,0,0,.172.828Zm-2.555-1.125a2.739,2.739,0,0,0,1.508-.43,2.042,2.042,0,0,0,.875-.984V83.086H100.3a2.24,2.24,0,0,0-1.488.469,1.4,1.4,0,0,0-.559,1.1,1.159,1.159,0,0,0,.352.891A1.472,1.472,0,0,0,99.648,85.875ZM111.445,87h-1.539V74.813h1.539Zm2.008-4.3a4.654,4.654,0,0,1,1.016-3.09,3.764,3.764,0,0,1,5.535,0,4.639,4.639,0,0,1,1.02,3.094v.172a4.631,4.631,0,0,1-1.016,3.094,3.781,3.781,0,0,1-5.535,0,4.623,4.623,0,0,1-1.02-3.09Zm1.539.172a4.009,4.009,0,0,0,.566,2.219,2.046,2.046,0,0,0,3.355,0,3.988,3.988,0,0,0,.57-2.219V82.7a3.976,3.976,0,0,0-.574-2.211,1.882,1.882,0,0,0-1.684-.883,1.856,1.856,0,0,0-1.668.883,4.018,4.018,0,0,0-.566,2.211Zm12.828,1.859a1.026,1.026,0,0,0-.387-.828,3.733,3.733,0,0,0-1.465-.562,6.146,6.146,0,0,1-2.293-.9,1.814,1.814,0,0,1-.8-1.547,2.229,2.229,0,0,1,.879-1.766,3.879,3.879,0,0,1,4.605.047,2.239,2.239,0,0,1,.852,1.82l-.016.047h-1.469a1.331,1.331,0,0,0-.48-.992,1.717,1.717,0,0,0-1.215-.445,1.751,1.751,0,0,0-1.215.367,1.146,1.146,0,0,0-.4.875.927.927,0,0,0,.348.773,3.848,3.848,0,0,0,1.434.5,6.058,6.058,0,0,1,2.359.93,1.872,1.872,0,0,1,.8,1.57,2.226,2.226,0,0,1-.91,1.836,3.754,3.754,0,0,1-2.379.711,3.715,3.715,0,0,1-2.547-.82,2.341,2.341,0,0,1-.883-1.914l.016-.047h1.469a1.424,1.424,0,0,0,.609,1.2,2.358,2.358,0,0,0,1.336.379,2.1,2.1,0,0,0,1.285-.348A1.063,1.063,0,0,0,127.82,84.727Zm7.07-2.031a4.654,4.654,0,0,1,1.016-3.09,3.764,3.764,0,0,1,5.535,0,4.639,4.639,0,0,1,1.02,3.094v.172a4.631,4.631,0,0,1-1.016,3.094,3.781,3.781,0,0,1-5.535,0,4.623,4.623,0,0,1-1.02-3.09Zm1.539.172A4.009,4.009,0,0,0,137,85.086a2.046,2.046,0,0,0,3.355,0,3.988,3.988,0,0,0,.57-2.219V82.7a3.976,3.976,0,0,0-.574-2.211,1.882,1.882,0,0,0-1.684-.883,1.856,1.856,0,0,0-1.668.883,4.018,4.018,0,0,0-.566,2.211Zm15.133.227a4.645,4.645,0,0,1-.879,2.949,2.9,2.9,0,0,1-2.418,1.121,3.064,3.064,0,0,1-1.465-.332,2.719,2.719,0,0,1-1.027-.98L145.523,87h-1.18V74.813h1.539v4.734a2.671,2.671,0,0,1,.988-.859,3.03,3.03,0,0,1,1.379-.3,2.809,2.809,0,0,1,2.438,1.25,5.622,5.622,0,0,1,.875,3.289Zm-1.539-.164a4.666,4.666,0,0,0-.535-2.371,1.762,1.762,0,0,0-1.629-.918,2.014,2.014,0,0,0-1.2.348,2.452,2.452,0,0,0-.777.934v3.664a2.517,2.517,0,0,0,.777.977,2,2,0,0,0,1.215.352,1.829,1.829,0,0,0,1.617-.773,3.552,3.552,0,0,0,.531-2.047Zm5.188-4.383V87.7a2.807,2.807,0,0,1-.672,2.012,2.452,2.452,0,0,1-1.867.707,2.549,2.549,0,0,1-.441-.035,3.49,3.49,0,0,1-.426-.105l.109-1.211a1.621,1.621,0,0,0,.313.066,2.609,2.609,0,0,0,.336.027,1.02,1.02,0,0,0,.809-.344,1.681,1.681,0,0,0,.3-1.117V78.547Zm-.047-2.2h-1.539V74.813h1.539Zm5.914,10.813A3.576,3.576,0,0,1,158.238,86a4.48,4.48,0,0,1-1.02-3.062v-.344a4.386,4.386,0,0,1,1.051-3.012,3.3,3.3,0,0,1,2.566-1.191,3.067,3.067,0,0,1,2.543,1.055,4.345,4.345,0,0,1,.848,2.8v.813H158.82l-.023.039a3.494,3.494,0,0,0,.563,2.066,1.965,1.965,0,0,0,1.719.793,3.872,3.872,0,0,0,1.371-.223,3.061,3.061,0,0,0,1.012-.613l.6,1a3.7,3.7,0,0,1-1.2.738A4.762,4.762,0,0,1,161.078,87.164Zm-.242-7.562a1.673,1.673,0,0,0-1.332.621,2.938,2.938,0,0,0-.645,1.59l.016.039h3.813v-.125a2.462,2.462,0,0,0-.453-1.523A1.638,1.638,0,0,0,160.836,79.6Zm7.258-3.094v2.039h1.6v1.141h-1.6V84.82a1.149,1.149,0,0,0,.246.836.89.89,0,0,0,.652.242,1.429,1.429,0,0,0,.3-.035,2.2,2.2,0,0,0,.273-.074l.211,1.055a1.36,1.36,0,0,1-.508.23,2.562,2.562,0,0,1-.664.09,1.993,1.993,0,0,1-1.492-.566,2.46,2.46,0,0,1-.555-1.777V79.688h-1.344V78.547h1.344V76.508ZM173.008,87h-1.539V78.547h1.539Zm0-10.617h-1.539v-1.57h1.539Zm5.188,8.125.133.594h.047l.148-.594,1.945-5.961h1.57L178.93,87h-1.164l-3.148-8.453H176.2Zm4.75-1.812a4.654,4.654,0,0,1,1.016-3.09,3.764,3.764,0,0,1,5.535,0,4.639,4.639,0,0,1,1.02,3.094v.172a4.631,4.631,0,0,1-1.016,3.094,3.781,3.781,0,0,1-5.535,0,4.623,4.623,0,0,1-1.02-3.09Zm1.539.172a4.009,4.009,0,0,0,.566,2.219,2.046,2.046,0,0,0,3.355,0,3.988,3.988,0,0,0,.57-2.219V82.7a3.976,3.976,0,0,0-.574-2.211,1.882,1.882,0,0,0-1.684-.883,1.856,1.856,0,0,0-1.668.883,4.018,4.018,0,0,0-.566,2.211Zm12.828,1.859a1.026,1.026,0,0,0-.387-.828,3.733,3.733,0,0,0-1.465-.562,6.146,6.146,0,0,1-2.293-.9,1.814,1.814,0,0,1-.8-1.547,2.229,2.229,0,0,1,.879-1.766,3.879,3.879,0,0,1,4.605.047,2.239,2.239,0,0,1,.852,1.82l-.016.047h-1.469a1.331,1.331,0,0,0-.48-.992,1.717,1.717,0,0,0-1.215-.445,1.751,1.751,0,0,0-1.215.367,1.146,1.146,0,0,0-.4.875.927.927,0,0,0,.348.773,3.848,3.848,0,0,0,1.434.5,6.058,6.058,0,0,1,2.359.93,1.872,1.872,0,0,1,.8,1.57,2.226,2.226,0,0,1-.91,1.836,3.754,3.754,0,0,1-2.379.711,3.715,3.715,0,0,1-2.547-.82,2.341,2.341,0,0,1-.883-1.914l.016-.047h1.469a1.424,1.424,0,0,0,.609,1.2,2.358,2.358,0,0,0,1.336.379,2.1,2.1,0,0,0,1.285-.348A1.063,1.063,0,0,0,197.313,84.727Zm8.8-6.18.109,1.258a3.069,3.069,0,0,1,1.059-1.043,2.824,2.824,0,0,1,1.449-.371,2.759,2.759,0,0,1,2.117.8,3.515,3.515,0,0,1,.75,2.473V87h-1.539V81.7a2.287,2.287,0,0,0-.441-1.586,1.768,1.768,0,0,0-1.348-.469,2.386,2.386,0,0,0-1.207.285,2.072,2.072,0,0,0-.785.8V87h-1.539V78.547ZM215.5,87h-1.539V78.547H215.5Zm0-10.617h-1.539v-1.57H215.5ZM46.633,111q-.078-.383-.121-.676a4.96,4.96,0,0,1-.051-.59,3.589,3.589,0,0,1-1.121,1.02,2.867,2.867,0,0,1-1.488.41,2.763,2.763,0,0,1-2.012-.676,2.486,2.486,0,0,1-.691-1.863,2.183,2.183,0,0,1,.98-1.895,4.579,4.579,0,0,1,2.66-.684h1.672v-.836a1.551,1.551,0,0,0-.453-1.176,1.779,1.779,0,0,0-1.281-.434,1.859,1.859,0,0,0-1.211.375,1.125,1.125,0,0,0-.461.9l-1.461.016-.016-.047a2.023,2.023,0,0,1,.863-1.687,3.578,3.578,0,0,1,2.371-.766,3.49,3.49,0,0,1,2.313.73A2.588,2.588,0,0,1,48,105.227v4.07a7.923,7.923,0,0,0,.047.875,4.5,4.5,0,0,0,.172.828Zm-2.555-1.125a2.739,2.739,0,0,0,1.508-.43,2.042,2.042,0,0,0,.875-.984v-1.375H44.734a2.24,2.24,0,0,0-1.488.469,1.4,1.4,0,0,0-.559,1.1,1.159,1.159,0,0,0,.352.891A1.472,1.472,0,0,0,44.078,109.875Zm5.8-2.945a5.641,5.641,0,0,1,.871-3.289,2.807,2.807,0,0,1,2.441-1.25,3.027,3.027,0,0,1,1.316.273,2.7,2.7,0,0,1,.98.8V98.813h1.539V111h-1.18l-.234-1.07a2.743,2.743,0,0,1-1.023.922,3.058,3.058,0,0,1-1.414.313,2.9,2.9,0,0,1-2.422-1.121,4.659,4.659,0,0,1-.875-2.949Zm1.539.164a3.588,3.588,0,0,0,.523,2.051,1.828,1.828,0,0,0,1.625.77,2.039,2.039,0,0,0,1.156-.312,2.334,2.334,0,0,0,.766-.875v-3.945a2.37,2.37,0,0,0-.77-.832,2.033,2.033,0,0,0-1.137-.309,1.759,1.759,0,0,0-1.637.914,4.718,4.718,0,0,0-.527,2.375Zm9.281-4.547.109,1.109a2.871,2.871,0,0,1,1.051-.934,3.158,3.158,0,0,1,1.48-.332,2.615,2.615,0,0,1,1.449.391,2.363,2.363,0,0,1,.91,1.172,3.162,3.162,0,0,1,1.059-1.145,2.769,2.769,0,0,1,1.527-.418,2.531,2.531,0,0,1,2.039.887,4.051,4.051,0,0,1,.75,2.668V111H69.539v-5.07a2.81,2.81,0,0,0-.43-1.77,1.567,1.567,0,0,0-1.281-.52,1.631,1.631,0,0,0-1.277.547,2.381,2.381,0,0,0-.574,1.383V111H64.43v-5.07a2.772,2.772,0,0,0-.441-1.738,1.532,1.532,0,0,0-1.27-.551,2.115,2.115,0,0,0-1.156.289,1.867,1.867,0,0,0-.7.813V111H59.328v-8.453ZM74.977,111H73.438v-8.453h1.539Zm0-10.617H73.438v-1.57h1.539Zm3.742,2.164.109,1.258a3.069,3.069,0,0,1,1.059-1.043,2.824,2.824,0,0,1,1.449-.371,2.759,2.759,0,0,1,2.117.8,3.515,3.515,0,0,1,.75,2.473V111H82.664v-5.3a2.287,2.287,0,0,0-.441-1.586,1.768,1.768,0,0,0-1.348-.469,2.386,2.386,0,0,0-1.207.285,2.072,2.072,0,0,0-.785.8V111H77.344v-8.453ZM88.1,111H86.563v-8.453H88.1Zm0-10.617H86.563v-1.57H88.1Zm7.281,8.344A1.026,1.026,0,0,0,95,107.9a3.733,3.733,0,0,0-1.465-.562,6.146,6.146,0,0,1-2.293-.9,1.814,1.814,0,0,1-.8-1.547,2.229,2.229,0,0,1,.879-1.766,3.879,3.879,0,0,1,4.605.047,2.239,2.239,0,0,1,.852,1.82l-.016.047H95.289a1.331,1.331,0,0,0-.48-.992,1.717,1.717,0,0,0-1.215-.445,1.751,1.751,0,0,0-1.215.367,1.146,1.146,0,0,0-.4.875.927.927,0,0,0,.348.773,3.848,3.848,0,0,0,1.434.5,6.058,6.058,0,0,1,2.359.93,1.872,1.872,0,0,1,.8,1.57,2.226,2.226,0,0,1-.91,1.836,3.754,3.754,0,0,1-2.379.711,3.715,3.715,0,0,1-2.547-.82,2.341,2.341,0,0,1-.883-1.914l.016-.047h1.469a1.424,1.424,0,0,0,.609,1.2,2.358,2.358,0,0,0,1.336.379,2.1,2.1,0,0,0,1.285-.348A1.063,1.063,0,0,0,95.383,108.727Zm5.594-8.219v2.039h1.6v1.141h-1.6v5.133a1.149,1.149,0,0,0,.246.836.89.89,0,0,0,.652.242,1.43,1.43,0,0,0,.3-.035,2.2,2.2,0,0,0,.273-.074l.211,1.055a1.36,1.36,0,0,1-.508.23,2.562,2.562,0,0,1-.664.09,1.993,1.993,0,0,1-1.492-.566,2.46,2.46,0,0,1-.555-1.777v-5.133H98.094v-1.141h1.344v-2.039Zm7.25,3.4-.789-.047a1.762,1.762,0,0,0-1.027.289,1.854,1.854,0,0,0-.645.813V111h-1.539v-8.453H105.6l.148,1.234a2.934,2.934,0,0,1,.887-1.023,2.073,2.073,0,0,1,1.215-.367,1.9,1.9,0,0,1,.328.027,2.174,2.174,0,0,1,.258.059Zm6.8,7.094q-.078-.383-.121-.676a4.96,4.96,0,0,1-.051-.59,3.589,3.589,0,0,1-1.121,1.02,2.867,2.867,0,0,1-1.488.41,2.763,2.763,0,0,1-2.012-.676,2.486,2.486,0,0,1-.691-1.863,2.183,2.183,0,0,1,.98-1.895,4.579,4.579,0,0,1,2.66-.684h1.672v-.836a1.551,1.551,0,0,0-.453-1.176,1.779,1.779,0,0,0-1.281-.434,1.859,1.859,0,0,0-1.211.375,1.125,1.125,0,0,0-.461.9l-1.461.016-.016-.047a2.023,2.023,0,0,1,.863-1.687,3.578,3.578,0,0,1,2.371-.766,3.49,3.49,0,0,1,2.313.73,2.588,2.588,0,0,1,.875,2.105v4.07a7.923,7.923,0,0,0,.047.875,4.5,4.5,0,0,0,.172.828Zm-2.555-1.125a2.739,2.739,0,0,0,1.508-.43,2.042,2.042,0,0,0,.875-.984v-1.375h-1.727a2.24,2.24,0,0,0-1.488.469,1.4,1.4,0,0,0-.559,1.1,1.159,1.159,0,0,0,.352.891A1.472,1.472,0,0,0,112.469,109.875Zm11.8,1.125h-1.539V98.813h1.539Zm2.008-4.3a4.654,4.654,0,0,1,1.016-3.09,3.764,3.764,0,0,1,5.535,0,4.639,4.639,0,0,1,1.02,3.094v.172a4.631,4.631,0,0,1-1.016,3.094,3.781,3.781,0,0,1-5.535,0,4.623,4.623,0,0,1-1.02-3.09Zm1.539.172a4.009,4.009,0,0,0,.566,2.219,2.046,2.046,0,0,0,3.355,0,3.988,3.988,0,0,0,.57-2.219V106.7a3.976,3.976,0,0,0-.574-2.211,1.882,1.882,0,0,0-1.684-.883,1.856,1.856,0,0,0-1.668.883,4.018,4.018,0,0,0-.566,2.211Zm12.828,1.859a1.026,1.026,0,0,0-.387-.828,3.733,3.733,0,0,0-1.465-.562,6.146,6.146,0,0,1-2.293-.9,1.814,1.814,0,0,1-.8-1.547,2.229,2.229,0,0,1,.879-1.766,3.879,3.879,0,0,1,4.605.047,2.239,2.239,0,0,1,.852,1.82l-.016.047h-1.469a1.331,1.331,0,0,0-.48-.992,1.717,1.717,0,0,0-1.215-.445,1.751,1.751,0,0,0-1.215.367,1.146,1.146,0,0,0-.4.875.927.927,0,0,0,.348.773,3.848,3.848,0,0,0,1.434.5,6.058,6.058,0,0,1,2.359.93,1.872,1.872,0,0,1,.8,1.57,2.226,2.226,0,0,1-.91,1.836,3.754,3.754,0,0,1-2.379.711,3.715,3.715,0,0,1-2.547-.82,2.341,2.341,0,0,1-.883-1.914l.016-.047h1.469a1.424,1.424,0,0,0,.609,1.2,2.358,2.358,0,0,0,1.336.379,2.1,2.1,0,0,0,1.285-.348A1.063,1.063,0,0,0,140.641,108.727Zm11.43-4.82-.789-.047a1.762,1.762,0,0,0-1.027.289,1.855,1.855,0,0,0-.645.813V111H148.07v-8.453h1.375l.148,1.234a2.934,2.934,0,0,1,.887-1.023,2.073,2.073,0,0,1,1.215-.367,1.9,1.9,0,0,1,.328.027,2.173,2.173,0,0,1,.258.059Zm4.953,7.258a3.576,3.576,0,0,1-2.84-1.164,4.48,4.48,0,0,1-1.02-3.062v-.344a4.386,4.386,0,0,1,1.051-3.012,3.3,3.3,0,0,1,2.566-1.191,3.067,3.067,0,0,1,2.543,1.055,4.345,4.345,0,0,1,.848,2.8v.813h-5.406l-.023.039a3.494,3.494,0,0,0,.563,2.066,1.965,1.965,0,0,0,1.719.793,3.872,3.872,0,0,0,1.371-.223,3.061,3.061,0,0,0,1.012-.613l.6,1a3.7,3.7,0,0,1-1.2.738A4.762,4.762,0,0,1,157.023,111.164Zm-.242-7.562a1.673,1.673,0,0,0-1.332.621,2.938,2.938,0,0,0-.645,1.59l.016.039h3.813v-.125a2.462,2.462,0,0,0-.453-1.523A1.638,1.638,0,0,0,156.781,103.6Zm8.477,6.359a1.81,1.81,0,0,0,1.242-.473,1.493,1.493,0,0,0,.531-1.16h1.391l.023.047a2.428,2.428,0,0,1-.937,1.941,3.582,3.582,0,0,1-5-.363,4.674,4.674,0,0,1-.969-3.016v-.328a4.654,4.654,0,0,1,.973-3,3.317,3.317,0,0,1,2.746-1.215,3.189,3.189,0,0,1,2.316.875,2.775,2.775,0,0,1,.871,2.148l-.016.047h-1.4a1.865,1.865,0,0,0-.5-1.316,1.658,1.658,0,0,0-1.27-.543,1.777,1.777,0,0,0-1.652.879,4.114,4.114,0,0,0-.52,2.129v.328a4.192,4.192,0,0,0,.512,2.148A1.776,1.776,0,0,0,165.258,109.961Zm10.383-.211a2.863,2.863,0,0,1-1.023,1.047,2.8,2.8,0,0,1-1.445.367,2.716,2.716,0,0,1-2.156-.883,4.1,4.1,0,0,1-.773-2.75v-4.984h1.539v5a3.147,3.147,0,0,0,.4,1.859,1.481,1.481,0,0,0,1.242.508,2.531,2.531,0,0,0,1.355-.332,2.077,2.077,0,0,0,.809-.941v-6.094h1.539V111h-1.383Zm7.727-5.844-.789-.047a1.762,1.762,0,0,0-1.027.289,1.855,1.855,0,0,0-.645.813V111h-1.539v-8.453h1.375l.148,1.234a2.934,2.934,0,0,1,.887-1.023,2.073,2.073,0,0,1,1.215-.367,1.9,1.9,0,0,1,.328.027,2.173,2.173,0,0,1,.258.059Zm6.516,4.82a1.026,1.026,0,0,0-.387-.828,3.733,3.733,0,0,0-1.465-.562,6.146,6.146,0,0,1-2.293-.9,1.814,1.814,0,0,1-.8-1.547,2.229,2.229,0,0,1,.879-1.766,3.879,3.879,0,0,1,4.605.047,2.239,2.239,0,0,1,.852,1.82l-.016.047h-1.469a1.331,1.331,0,0,0-.48-.992,1.717,1.717,0,0,0-1.215-.445,1.751,1.751,0,0,0-1.215.367,1.146,1.146,0,0,0-.4.875.927.927,0,0,0,.348.773,3.848,3.848,0,0,0,1.434.5,6.058,6.058,0,0,1,2.359.93,1.872,1.872,0,0,1,.8,1.57,2.226,2.226,0,0,1-.91,1.836,3.754,3.754,0,0,1-2.379.711,3.715,3.715,0,0,1-2.547-.82,2.341,2.341,0,0,1-.883-1.914l.016-.047h1.469a1.424,1.424,0,0,0,.609,1.2,2.358,2.358,0,0,0,1.336.379,2.1,2.1,0,0,0,1.285-.348A1.063,1.063,0,0,0,189.883,108.727Zm3.094-2.031a4.654,4.654,0,0,1,1.016-3.09,3.764,3.764,0,0,1,5.535,0,4.639,4.639,0,0,1,1.02,3.094v.172a4.631,4.631,0,0,1-1.016,3.094,3.781,3.781,0,0,1-5.535,0,4.623,4.623,0,0,1-1.02-3.09Zm1.539.172a4.009,4.009,0,0,0,.566,2.219,2.046,2.046,0,0,0,3.355,0,3.988,3.988,0,0,0,.57-2.219V106.7a3.976,3.976,0,0,0-.574-2.211,1.882,1.882,0,0,0-1.684-.883,1.856,1.856,0,0,0-1.668.883,4.018,4.018,0,0,0-.566,2.211Zm12.828,1.859a1.026,1.026,0,0,0-.387-.828,3.733,3.733,0,0,0-1.465-.562,6.146,6.146,0,0,1-2.293-.9,1.814,1.814,0,0,1-.8-1.547,2.229,2.229,0,0,1,.879-1.766,3.879,3.879,0,0,1,4.605.047,2.239,2.239,0,0,1,.852,1.82l-.016.047H207.25a1.331,1.331,0,0,0-.48-.992,1.717,1.717,0,0,0-1.215-.445,1.751,1.751,0,0,0-1.215.367,1.146,1.146,0,0,0-.4.875.927.927,0,0,0,.348.773,3.848,3.848,0,0,0,1.434.5,6.058,6.058,0,0,1,2.359.93,1.872,1.872,0,0,1,.8,1.57,2.226,2.226,0,0,1-.91,1.836,3.754,3.754,0,0,1-2.379.711,3.715,3.715,0,0,1-2.547-.82,2.341,2.341,0,0,1-.883-1.914l.016-.047h1.469a1.424,1.424,0,0,0,.609,1.2,2.358,2.358,0,0,0,1.336.379,2.1,2.1,0,0,0,1.285-.348A1.063,1.063,0,0,0,207.344,108.727Z" transform="translate(573 2358)" fill="#12263f"/>
    <path id="Trazado_737637" data-name="Trazado 737637" d="M74.688,12.008h.047l2.922-8.383h2.977V15H78.352V7.234L78.3,7.227,75.492,15H73.945L71.133,7.211l-.047.008V15H68.8V3.625H71.8ZM91.742,3.625V11.07a3.741,3.741,0,0,1-1.273,3.008,4.916,4.916,0,0,1-3.3,1.086,4.858,4.858,0,0,1-3.285-1.086,3.757,3.757,0,0,1-1.262-3.008V3.625h2.289V11.07a2.341,2.341,0,0,0,.609,1.742,2.244,2.244,0,0,0,1.648.6,2.293,2.293,0,0,0,1.672-.6,2.324,2.324,0,0,0,.617-1.742V3.625Zm5.992,5.242h.047l2.484-5.242h2.5L98.867,11v4H96.586V10.883L92.75,3.625h2.5ZM114.383,10h-4.219v3.25h5.016V15h-7.3V3.625h7.281V5.383h-5V8.242h4.219Zm9.047.273h-4.367V15h-2.281V3.625h7.445V5.383h-5.164V8.516h4.367ZM128.117,15h-2.281V3.625h2.281Zm10.789-3.766.016.047a3.561,3.561,0,0,1-1.109,2.852,4.523,4.523,0,0,1-3.148,1.031,4.361,4.361,0,0,1-3.3-1.316,4.722,4.722,0,0,1-1.258-3.4V8.188a4.809,4.809,0,0,1,1.227-3.4,4.182,4.182,0,0,1,3.219-1.324,4.8,4.8,0,0,1,3.25,1.016,3.5,3.5,0,0,1,1.141,2.859l-.016.047H136.7a2.236,2.236,0,0,0-.527-1.629,2.2,2.2,0,0,0-1.629-.535,1.839,1.839,0,0,0-1.6.824,3.645,3.645,0,0,0-.574,2.129v2.273a3.538,3.538,0,0,0,.605,2.141,1.968,1.968,0,0,0,1.684.828,2,2,0,0,0,1.527-.535,2.328,2.328,0,0,0,.5-1.645ZM142.992,15h-2.281V3.625h2.281Zm8.758-5h-4.219v3.25h5.016V15h-7.3V3.625h7.281V5.383h-5V8.242h4.219Zm11.594,5h-2.281l-4.586-7.672-.047.008V15h-2.281V3.625h2.281l4.586,7.664.047-.008V3.625h2.281Zm9.8-9.617h-3.25V15h-2.281V5.383h-3.2V3.625h8.734ZM180.891,10h-4.219v3.25h5.016V15h-7.3V3.625h7.281V5.383h-5V8.242h4.219ZM86.422,36.008h.047l2.922-8.383h2.977V39H90.086V31.234l-.047-.008L87.227,39H85.68l-2.812-7.789-.047.008V39H80.539V27.625h2.992Zm17.055-8.383V35.07a3.741,3.741,0,0,1-1.273,3.008,4.916,4.916,0,0,1-3.3,1.086,4.858,4.858,0,0,1-3.285-1.086,3.757,3.757,0,0,1-1.262-3.008V27.625h2.289V35.07a2.341,2.341,0,0,0,.609,1.742,2.244,2.244,0,0,0,1.648.6,2.293,2.293,0,0,0,1.672-.6,2.324,2.324,0,0,0,.617-1.742V27.625Zm5.992,5.242h.047L112,27.625h2.5L110.6,35v4H108.32V34.883l-3.836-7.258h2.5ZM126.117,34H121.9v3.25h5.016V39h-7.3V27.625H126.9v1.758h-5v2.859h4.219Zm9.047.273H130.8V39h-2.281V27.625h7.445v1.758H130.8v3.133h4.367ZM139.852,39H137.57V27.625h2.281Zm10.789-3.766.016.047a3.561,3.561,0,0,1-1.109,2.852,4.523,4.523,0,0,1-3.148,1.031,4.361,4.361,0,0,1-3.3-1.316,4.722,4.722,0,0,1-1.258-3.4V32.188a4.809,4.809,0,0,1,1.227-3.4,4.182,4.182,0,0,1,3.219-1.324,4.8,4.8,0,0,1,3.25,1.016,3.5,3.5,0,0,1,1.141,2.859l-.016.047h-2.219a2.236,2.236,0,0,0-.527-1.629,2.2,2.2,0,0,0-1.629-.535,1.839,1.839,0,0,0-1.6.824,3.645,3.645,0,0,0-.574,2.129v2.273a3.538,3.538,0,0,0,.605,2.141,1.968,1.968,0,0,0,1.684.828,2,2,0,0,0,1.527-.535,2.328,2.328,0,0,0,.5-1.645Zm7.578,1.313h-3.687L153.766,39h-2.383l3.836-11.375h2.336L161.375,39h-2.383Zm-3.125-1.789h2.57l-1.258-4.008h-.047Zm9.617,2.492h5.219V39h-7.906V37.813l5.063-8.43h-5.055V27.625H169.8v1.141ZM7.859,85.8h5.547V87H6.32V75.625H7.859ZM16.57,87H15.031V74.813H16.57Zm5.867.164A3.576,3.576,0,0,1,19.6,86a4.48,4.48,0,0,1-1.02-3.062v-.344a4.386,4.386,0,0,1,1.051-3.012A3.3,3.3,0,0,1,22.2,78.391a3.067,3.067,0,0,1,2.543,1.055,4.345,4.345,0,0,1,.848,2.8v.813H20.18l-.023.039a3.494,3.494,0,0,0,.563,2.066,1.965,1.965,0,0,0,1.719.793,3.872,3.872,0,0,0,1.371-.223,3.061,3.061,0,0,0,1.012-.613l.6,1a3.7,3.7,0,0,1-1.2.738A4.762,4.762,0,0,1,22.438,87.164ZM22.2,79.6a1.673,1.673,0,0,0-1.332.621,2.938,2.938,0,0,0-.645,1.59l.016.039h3.813v-.125a2.462,2.462,0,0,0-.453-1.523A1.638,1.638,0,0,0,22.2,79.6Zm4.844,3.328a5.641,5.641,0,0,1,.871-3.289,2.8,2.8,0,0,1,2.434-1.25,2.966,2.966,0,0,1,1.414.324,2.845,2.845,0,0,1,1.023.934l.188-1.1H34.2v8.5a3.225,3.225,0,0,1-.945,2.5,3.884,3.884,0,0,1-2.727.871,5.717,5.717,0,0,1-1.316-.168,5.147,5.147,0,0,1-1.246-.457l.234-1.2a4.45,4.45,0,0,0,1.074.379,5.517,5.517,0,0,0,1.238.145,2.242,2.242,0,0,0,1.637-.512,2.12,2.12,0,0,0,.512-1.559v-.961a2.725,2.725,0,0,1-.992.8,3.091,3.091,0,0,1-1.336.273,2.89,2.89,0,0,1-2.418-1.121,4.674,4.674,0,0,1-.871-2.949Zm1.539.164a3.592,3.592,0,0,0,.523,2.047,1.817,1.817,0,0,0,1.617.773,2.034,2.034,0,0,0,1.164-.316,2.4,2.4,0,0,0,.773-.895V80.813a2.388,2.388,0,0,0-.773-.855,2.029,2.029,0,0,0-1.148-.316,1.752,1.752,0,0,0-1.629.914,4.718,4.718,0,0,0-.527,2.375ZM41.6,87q-.078-.383-.121-.676a4.96,4.96,0,0,1-.051-.59,3.589,3.589,0,0,1-1.121,1.02,2.867,2.867,0,0,1-1.488.41,2.763,2.763,0,0,1-2.012-.676,2.486,2.486,0,0,1-.691-1.863,2.183,2.183,0,0,1,.98-1.895,4.579,4.579,0,0,1,2.66-.684H41.43v-.836a1.551,1.551,0,0,0-.453-1.176A1.779,1.779,0,0,0,39.7,79.6a1.859,1.859,0,0,0-1.211.375,1.125,1.125,0,0,0-.461.9l-1.461.016-.016-.047a2.023,2.023,0,0,1,.863-1.687,3.578,3.578,0,0,1,2.371-.766,3.49,3.49,0,0,1,2.313.73,2.588,2.588,0,0,1,.875,2.105V85.3a7.923,7.923,0,0,0,.047.875,4.5,4.5,0,0,0,.172.828Zm-2.555-1.125a2.739,2.739,0,0,0,1.508-.43,2.042,2.042,0,0,0,.875-.984V83.086H39.7a2.24,2.24,0,0,0-1.488.469,1.4,1.4,0,0,0-.559,1.1,1.159,1.159,0,0,0,.352.891A1.472,1.472,0,0,0,39.047,85.875ZM54.375,87q-.078-.383-.121-.676a4.96,4.96,0,0,1-.051-.59,3.589,3.589,0,0,1-1.121,1.02,2.867,2.867,0,0,1-1.488.41,2.763,2.763,0,0,1-2.012-.676,2.486,2.486,0,0,1-.691-1.863,2.183,2.183,0,0,1,.98-1.895,4.579,4.579,0,0,1,2.66-.684H54.2v-.836a1.551,1.551,0,0,0-.453-1.176,1.779,1.779,0,0,0-1.281-.434,1.859,1.859,0,0,0-1.211.375,1.125,1.125,0,0,0-.461.9l-1.461.016-.016-.047a2.023,2.023,0,0,1,.863-1.687,3.578,3.578,0,0,1,2.371-.766,3.49,3.49,0,0,1,2.313.73,2.588,2.588,0,0,1,.875,2.105V85.3a7.923,7.923,0,0,0,.047.875,4.5,4.5,0,0,0,.172.828ZM51.82,85.875a2.739,2.739,0,0,0,1.508-.43,2.042,2.042,0,0,0,.875-.984V83.086H52.477a2.24,2.24,0,0,0-1.488.469,1.4,1.4,0,0,0-.559,1.1,1.159,1.159,0,0,0,.352.891A1.472,1.472,0,0,0,51.82,85.875ZM63.617,87H62.078V74.813h1.539Zm2.008-4.3a4.654,4.654,0,0,1,1.016-3.09,3.764,3.764,0,0,1,5.535,0A4.639,4.639,0,0,1,73.2,82.7v.172a4.631,4.631,0,0,1-1.016,3.094,3.781,3.781,0,0,1-5.535,0,4.623,4.623,0,0,1-1.02-3.09Zm1.539.172a4.009,4.009,0,0,0,.566,2.219,2.046,2.046,0,0,0,3.355,0,3.988,3.988,0,0,0,.57-2.219V82.7a3.976,3.976,0,0,0-.574-2.211A1.882,1.882,0,0,0,69.4,79.6a1.856,1.856,0,0,0-1.668.883,4.018,4.018,0,0,0-.566,2.211Zm12.828,1.859a1.026,1.026,0,0,0-.387-.828,3.733,3.733,0,0,0-1.465-.562,6.146,6.146,0,0,1-2.293-.9,1.814,1.814,0,0,1-.8-1.547,2.229,2.229,0,0,1,.879-1.766,3.879,3.879,0,0,1,4.605.047,2.239,2.239,0,0,1,.852,1.82l-.016.047H79.9a1.331,1.331,0,0,0-.48-.992A1.717,1.717,0,0,0,78.2,79.6a1.751,1.751,0,0,0-1.215.367,1.146,1.146,0,0,0-.4.875.927.927,0,0,0,.348.773,3.848,3.848,0,0,0,1.434.5,6.058,6.058,0,0,1,2.359.93,1.872,1.872,0,0,1,.8,1.57,2.226,2.226,0,0,1-.91,1.836,3.754,3.754,0,0,1-2.379.711,3.715,3.715,0,0,1-2.547-.82,2.341,2.341,0,0,1-.883-1.914l.016-.047H76.3a1.424,1.424,0,0,0,.609,1.2,2.358,2.358,0,0,0,1.336.379,2.1,2.1,0,0,0,1.285-.348A1.063,1.063,0,0,0,79.992,84.727Zm7.07-2.031a4.654,4.654,0,0,1,1.016-3.09,3.764,3.764,0,0,1,5.535,0,4.639,4.639,0,0,1,1.02,3.094v.172a4.631,4.631,0,0,1-1.016,3.094,3.781,3.781,0,0,1-5.535,0,4.623,4.623,0,0,1-1.02-3.09Zm1.539.172a4.009,4.009,0,0,0,.566,2.219,2.046,2.046,0,0,0,3.355,0,3.988,3.988,0,0,0,.57-2.219V82.7a3.976,3.976,0,0,0-.574-2.211,1.882,1.882,0,0,0-1.684-.883,1.856,1.856,0,0,0-1.668.883A4.018,4.018,0,0,0,88.6,82.7Zm15.133.227a4.645,4.645,0,0,1-.879,2.949,2.9,2.9,0,0,1-2.418,1.121,3.064,3.064,0,0,1-1.465-.332,2.719,2.719,0,0,1-1.027-.98L97.7,87h-1.18V74.813h1.539v4.734a2.671,2.671,0,0,1,.988-.859,3.03,3.03,0,0,1,1.379-.3,2.809,2.809,0,0,1,2.438,1.25,5.622,5.622,0,0,1,.875,3.289ZM102.2,82.93a4.666,4.666,0,0,0-.535-2.371,1.762,1.762,0,0,0-1.629-.918,2.014,2.014,0,0,0-1.2.348,2.452,2.452,0,0,0-.777.934v3.664a2.517,2.517,0,0,0,.777.977,2,2,0,0,0,1.215.352,1.829,1.829,0,0,0,1.617-.773,3.552,3.552,0,0,0,.531-2.047Zm5.188-4.383V87.7a2.807,2.807,0,0,1-.672,2.012,2.452,2.452,0,0,1-1.867.707,2.549,2.549,0,0,1-.441-.035,3.49,3.49,0,0,1-.426-.105l.109-1.211a1.621,1.621,0,0,0,.313.066,2.609,2.609,0,0,0,.336.027,1.02,1.02,0,0,0,.809-.344,1.681,1.681,0,0,0,.3-1.117V78.547Zm-.047-2.2H105.8V74.813h1.539Zm5.914,10.813A3.576,3.576,0,0,1,110.41,86a4.48,4.48,0,0,1-1.02-3.062v-.344a4.386,4.386,0,0,1,1.051-3.012,3.3,3.3,0,0,1,2.566-1.191,3.067,3.067,0,0,1,2.543,1.055,4.345,4.345,0,0,1,.848,2.8v.813h-5.406l-.023.039a3.494,3.494,0,0,0,.563,2.066,1.965,1.965,0,0,0,1.719.793,3.872,3.872,0,0,0,1.371-.223,3.061,3.061,0,0,0,1.012-.613l.6,1a3.7,3.7,0,0,1-1.2.738A4.762,4.762,0,0,1,113.25,87.164Zm-.242-7.562a1.673,1.673,0,0,0-1.332.621,2.938,2.938,0,0,0-.645,1.59l.016.039h3.813v-.125a2.462,2.462,0,0,0-.453-1.523A1.638,1.638,0,0,0,113.008,79.6Zm7.258-3.094v2.039h1.6v1.141h-1.6V84.82a1.149,1.149,0,0,0,.246.836.89.89,0,0,0,.652.242,1.43,1.43,0,0,0,.3-.035,2.2,2.2,0,0,0,.273-.074l.211,1.055a1.36,1.36,0,0,1-.508.23,2.562,2.562,0,0,1-.664.09,1.993,1.993,0,0,1-1.492-.566,2.46,2.46,0,0,1-.555-1.777V79.688h-1.344V78.547h1.344V76.508ZM125.18,87h-1.539V78.547h1.539Zm0-10.617h-1.539v-1.57h1.539Zm5.188,8.125.133.594h.047l.148-.594,1.945-5.961h1.57L131.1,87h-1.164l-3.148-8.453h1.578Zm4.75-1.812a4.654,4.654,0,0,1,1.016-3.09,3.764,3.764,0,0,1,5.535,0,4.639,4.639,0,0,1,1.02,3.094v.172a4.631,4.631,0,0,1-1.016,3.094,3.781,3.781,0,0,1-5.535,0,4.623,4.623,0,0,1-1.02-3.09Zm1.539.172a4.009,4.009,0,0,0,.566,2.219,2.046,2.046,0,0,0,3.355,0,3.988,3.988,0,0,0,.57-2.219V82.7a3.976,3.976,0,0,0-.574-2.211,1.882,1.882,0,0,0-1.684-.883,1.856,1.856,0,0,0-1.668.883,4.018,4.018,0,0,0-.566,2.211Zm12.828,1.859a1.026,1.026,0,0,0-.387-.828,3.733,3.733,0,0,0-1.465-.562,6.146,6.146,0,0,1-2.293-.9,1.814,1.814,0,0,1-.8-1.547,2.229,2.229,0,0,1,.879-1.766,3.879,3.879,0,0,1,4.605.047,2.239,2.239,0,0,1,.852,1.82l-.016.047h-1.469a1.331,1.331,0,0,0-.48-.992A1.717,1.717,0,0,0,147.7,79.6a1.751,1.751,0,0,0-1.215.367,1.146,1.146,0,0,0-.4.875.927.927,0,0,0,.348.773,3.848,3.848,0,0,0,1.434.5,6.058,6.058,0,0,1,2.359.93,1.872,1.872,0,0,1,.8,1.57,2.226,2.226,0,0,1-.91,1.836,3.754,3.754,0,0,1-2.379.711,3.715,3.715,0,0,1-2.547-.82,2.341,2.341,0,0,1-.883-1.914l.016-.047h1.469a1.424,1.424,0,0,0,.609,1.2,2.358,2.358,0,0,0,1.336.379,2.1,2.1,0,0,0,1.285-.348A1.063,1.063,0,0,0,149.484,84.727Zm10.016-.859.273,1.063h.047l2.078-6.383h1.711l-3.555,9.75a4.383,4.383,0,0,1-.918,1.484,2.113,2.113,0,0,1-1.613.633,3.362,3.362,0,0,1-.477-.043q-.289-.043-.445-.082l.156-1.211a2.061,2.061,0,0,1,.277.016q.324.023.41.023a.95.95,0,0,0,.8-.437,4.543,4.543,0,0,0,.523-.969l.367-.883L156,78.547h1.719ZM174.133,87q-.078-.383-.121-.676a4.96,4.96,0,0,1-.051-.59,3.588,3.588,0,0,1-1.121,1.02,2.867,2.867,0,0,1-1.488.41,2.763,2.763,0,0,1-2.012-.676,2.486,2.486,0,0,1-.691-1.863,2.183,2.183,0,0,1,.98-1.895,4.579,4.579,0,0,1,2.66-.684h1.672v-.836a1.551,1.551,0,0,0-.453-1.176,1.779,1.779,0,0,0-1.281-.434,1.859,1.859,0,0,0-1.211.375,1.125,1.125,0,0,0-.461.9l-1.461.016-.016-.047a2.023,2.023,0,0,1,.863-1.687,3.578,3.578,0,0,1,2.371-.766,3.49,3.49,0,0,1,2.313.73,2.588,2.588,0,0,1,.875,2.105V85.3a7.923,7.923,0,0,0,.047.875,4.5,4.5,0,0,0,.172.828Zm-2.555-1.125a2.739,2.739,0,0,0,1.508-.43,2.042,2.042,0,0,0,.875-.984V83.086h-1.727a2.24,2.24,0,0,0-1.488.469,1.4,1.4,0,0,0-.559,1.1,1.159,1.159,0,0,0,.352.891A1.472,1.472,0,0,0,171.578,85.875Zm5.8-2.945a5.641,5.641,0,0,1,.871-3.289,2.807,2.807,0,0,1,2.441-1.25,3.027,3.027,0,0,1,1.316.273,2.7,2.7,0,0,1,.98.8V74.813h1.539V87h-1.18l-.234-1.07a2.743,2.743,0,0,1-1.023.922,3.058,3.058,0,0,1-1.414.313,2.9,2.9,0,0,1-2.422-1.121,4.659,4.659,0,0,1-.875-2.949Zm1.539.164a3.588,3.588,0,0,0,.523,2.051,1.828,1.828,0,0,0,1.625.77,2.039,2.039,0,0,0,1.156-.312,2.334,2.334,0,0,0,.766-.875V80.781a2.37,2.37,0,0,0-.77-.832,2.033,2.033,0,0,0-1.137-.309,1.759,1.759,0,0,0-1.637.914,4.718,4.718,0,0,0-.527,2.375Zm9.281-4.547.109,1.109a2.871,2.871,0,0,1,1.051-.934,3.158,3.158,0,0,1,1.48-.332,2.615,2.615,0,0,1,1.449.391,2.363,2.363,0,0,1,.91,1.172,3.162,3.162,0,0,1,1.059-1.145,2.769,2.769,0,0,1,1.527-.418,2.531,2.531,0,0,1,2.039.887,4.051,4.051,0,0,1,.75,2.668V87h-1.539V81.93a2.81,2.81,0,0,0-.43-1.77,1.567,1.567,0,0,0-1.281-.52,1.631,1.631,0,0,0-1.277.547,2.381,2.381,0,0,0-.574,1.383V87H191.93V81.93a2.772,2.772,0,0,0-.441-1.738,1.532,1.532,0,0,0-1.27-.551,2.115,2.115,0,0,0-1.156.289,1.867,1.867,0,0,0-.7.813V87h-1.539V78.547ZM202.477,87h-1.539V78.547h1.539Zm0-10.617h-1.539v-1.57h1.539Zm3.742,2.164.109,1.258a3.069,3.069,0,0,1,1.059-1.043,2.824,2.824,0,0,1,1.449-.371,2.759,2.759,0,0,1,2.117.8,3.515,3.515,0,0,1,.75,2.473V87h-1.539V81.7a2.287,2.287,0,0,0-.441-1.586,1.768,1.768,0,0,0-1.348-.469,2.386,2.386,0,0,0-1.207.285,2.072,2.072,0,0,0-.785.8V87h-1.539V78.547ZM215.6,87h-1.539V78.547H215.6Zm0-10.617h-1.539v-1.57H215.6Zm7.281,8.344a1.026,1.026,0,0,0-.387-.828,3.733,3.733,0,0,0-1.465-.562,6.146,6.146,0,0,1-2.293-.9,1.814,1.814,0,0,1-.8-1.547,2.229,2.229,0,0,1,.879-1.766,3.879,3.879,0,0,1,4.605.047,2.239,2.239,0,0,1,.852,1.82l-.016.047h-1.469a1.331,1.331,0,0,0-.48-.992,1.717,1.717,0,0,0-1.215-.445,1.751,1.751,0,0,0-1.215.367,1.146,1.146,0,0,0-.4.875.927.927,0,0,0,.348.773,3.848,3.848,0,0,0,1.434.5,6.058,6.058,0,0,1,2.359.93,1.872,1.872,0,0,1,.8,1.57,2.226,2.226,0,0,1-.91,1.836,3.754,3.754,0,0,1-2.379.711,3.715,3.715,0,0,1-2.547-.82,2.341,2.341,0,0,1-.883-1.914l.016-.047h1.469a1.424,1.424,0,0,0,.609,1.2,2.358,2.358,0,0,0,1.336.379,2.1,2.1,0,0,0,1.285-.348A1.063,1.063,0,0,0,222.883,84.727Zm5.594-8.219v2.039h1.6v1.141h-1.6V84.82a1.149,1.149,0,0,0,.246.836.89.89,0,0,0,.652.242,1.429,1.429,0,0,0,.3-.035,2.2,2.2,0,0,0,.273-.074l.211,1.055a1.36,1.36,0,0,1-.508.23,2.562,2.562,0,0,1-.664.09,1.993,1.993,0,0,1-1.492-.566,2.46,2.46,0,0,1-.555-1.777V79.688h-1.344V78.547h1.344V76.508Zm7.25,3.4-.789-.047a1.762,1.762,0,0,0-1.027.289,1.855,1.855,0,0,0-.645.813V87h-1.539V78.547H233.1l.148,1.234a2.934,2.934,0,0,1,.887-1.023,2.073,2.073,0,0,1,1.215-.367,1.9,1.9,0,0,1,.328.027,2.173,2.173,0,0,1,.258.059Zm6.8,7.094q-.078-.383-.121-.676a4.96,4.96,0,0,1-.051-.59,3.588,3.588,0,0,1-1.121,1.02,2.867,2.867,0,0,1-1.488.41,2.763,2.763,0,0,1-2.012-.676,2.486,2.486,0,0,1-.691-1.863,2.183,2.183,0,0,1,.98-1.895,4.579,4.579,0,0,1,2.66-.684h1.672v-.836a1.551,1.551,0,0,0-.453-1.176,1.779,1.779,0,0,0-1.281-.434,1.859,1.859,0,0,0-1.211.375,1.125,1.125,0,0,0-.461.9l-1.461.016-.016-.047a2.023,2.023,0,0,1,.863-1.687,3.578,3.578,0,0,1,2.371-.766,3.49,3.49,0,0,1,2.313.73,2.588,2.588,0,0,1,.875,2.105V85.3a7.923,7.923,0,0,0,.047.875,4.5,4.5,0,0,0,.172.828Zm-2.555-1.125a2.739,2.739,0,0,0,1.508-.43,2.042,2.042,0,0,0,.875-.984V83.086h-1.727a2.24,2.24,0,0,0-1.488.469,1.4,1.4,0,0,0-.559,1.1,1.159,1.159,0,0,0,.352.891A1.472,1.472,0,0,0,239.969,85.875ZM71.953,107.094a4.645,4.645,0,0,1-.879,2.949,2.9,2.9,0,0,1-2.418,1.121,3.064,3.064,0,0,1-1.465-.332,2.719,2.719,0,0,1-1.027-.98L65.914,111h-1.18V98.813h1.539v4.734a2.671,2.671,0,0,1,.988-.859,3.03,3.03,0,0,1,1.379-.3,2.809,2.809,0,0,1,2.438,1.25,5.622,5.622,0,0,1,.875,3.289Zm-1.539-.164a4.666,4.666,0,0,0-.535-2.371,1.762,1.762,0,0,0-1.629-.918,2.014,2.014,0,0,0-1.2.348,2.452,2.452,0,0,0-.777.934v3.664a2.517,2.517,0,0,0,.777.977,2,2,0,0,0,1.215.352,1.829,1.829,0,0,0,1.617-.773,3.552,3.552,0,0,0,.531-2.047ZM75.492,111H73.953v-8.453h1.539Zm0-10.617H73.953v-1.57h1.539Zm5.867,10.781A3.576,3.576,0,0,1,78.52,110a4.48,4.48,0,0,1-1.02-3.062v-.344a4.386,4.386,0,0,1,1.051-3.012,3.3,3.3,0,0,1,2.566-1.191,3.067,3.067,0,0,1,2.543,1.055,4.345,4.345,0,0,1,.848,2.8v.813H79.1l-.023.039a3.494,3.494,0,0,0,.563,2.066,1.965,1.965,0,0,0,1.719.793,3.872,3.872,0,0,0,1.371-.223,3.061,3.061,0,0,0,1.012-.613l.6,1a3.7,3.7,0,0,1-1.2.738A4.762,4.762,0,0,1,81.359,111.164Zm-.242-7.562a1.673,1.673,0,0,0-1.332.621,2.938,2.938,0,0,0-.645,1.59l.016.039h3.813v-.125a2.462,2.462,0,0,0-.453-1.523A1.638,1.638,0,0,0,81.117,103.6Zm6.492-1.055.109,1.258a3.069,3.069,0,0,1,1.059-1.043,2.824,2.824,0,0,1,1.449-.371,2.759,2.759,0,0,1,2.117.8,3.515,3.515,0,0,1,.75,2.473V111H91.555v-5.3a2.287,2.287,0,0,0-.441-1.586,1.768,1.768,0,0,0-1.348-.469,2.386,2.386,0,0,0-1.207.285,2.072,2.072,0,0,0-.785.8V111H86.234v-8.453ZM100.969,111H99.43V98.813h1.539Zm2.008-4.3a4.654,4.654,0,0,1,1.016-3.09,3.764,3.764,0,0,1,5.535,0,4.639,4.639,0,0,1,1.02,3.094v.172a4.631,4.631,0,0,1-1.016,3.094,3.781,3.781,0,0,1-5.535,0,4.623,4.623,0,0,1-1.02-3.09Zm1.539.172a4.009,4.009,0,0,0,.566,2.219,2.046,2.046,0,0,0,3.355,0,3.988,3.988,0,0,0,.57-2.219V106.7a3.976,3.976,0,0,0-.574-2.211,1.882,1.882,0,0,0-1.684-.883,1.856,1.856,0,0,0-1.668.883,4.018,4.018,0,0,0-.566,2.211Zm12.828,1.859a1.026,1.026,0,0,0-.387-.828,3.733,3.733,0,0,0-1.465-.562,6.146,6.146,0,0,1-2.293-.9,1.814,1.814,0,0,1-.8-1.547,2.229,2.229,0,0,1,.879-1.766,3.879,3.879,0,0,1,4.605.047,2.239,2.239,0,0,1,.852,1.82l-.016.047H117.25a1.331,1.331,0,0,0-.48-.992,1.717,1.717,0,0,0-1.215-.445,1.751,1.751,0,0,0-1.215.367,1.146,1.146,0,0,0-.4.875.927.927,0,0,0,.348.773,3.848,3.848,0,0,0,1.434.5,6.058,6.058,0,0,1,2.359.93,1.872,1.872,0,0,1,.8,1.57,2.226,2.226,0,0,1-.91,1.836,3.754,3.754,0,0,1-2.379.711,3.715,3.715,0,0,1-2.547-.82,2.341,2.341,0,0,1-.883-1.914l.016-.047h1.469a1.424,1.424,0,0,0,.609,1.2,2.358,2.358,0,0,0,1.336.379,2.1,2.1,0,0,0,1.285-.348A1.063,1.063,0,0,0,117.344,108.727Zm11.43-4.82-.789-.047a1.762,1.762,0,0,0-1.027.289,1.854,1.854,0,0,0-.645.813V111h-1.539v-8.453h1.375l.148,1.234a2.934,2.934,0,0,1,.887-1.023,2.073,2.073,0,0,1,1.215-.367,1.9,1.9,0,0,1,.328.027,2.173,2.173,0,0,1,.258.059Zm4.953,7.258a3.576,3.576,0,0,1-2.84-1.164,4.48,4.48,0,0,1-1.02-3.062v-.344a4.386,4.386,0,0,1,1.051-3.012,3.3,3.3,0,0,1,2.566-1.191,3.067,3.067,0,0,1,2.543,1.055,4.345,4.345,0,0,1,.848,2.8v.813h-5.406l-.023.039a3.494,3.494,0,0,0,.563,2.066,1.965,1.965,0,0,0,1.719.793,3.872,3.872,0,0,0,1.371-.223,3.061,3.061,0,0,0,1.012-.613l.6,1a3.7,3.7,0,0,1-1.2.738A4.762,4.762,0,0,1,133.727,111.164Zm-.242-7.562a1.673,1.673,0,0,0-1.332.621,2.938,2.938,0,0,0-.645,1.59l.016.039h3.813v-.125a2.462,2.462,0,0,0-.453-1.523A1.638,1.638,0,0,0,133.484,103.6Zm8.477,6.359a1.81,1.81,0,0,0,1.242-.473,1.493,1.493,0,0,0,.531-1.16h1.391l.023.047a2.428,2.428,0,0,1-.937,1.941,3.582,3.582,0,0,1-5-.363,4.674,4.674,0,0,1-.969-3.016v-.328a4.654,4.654,0,0,1,.973-3,3.317,3.317,0,0,1,2.746-1.215,3.189,3.189,0,0,1,2.316.875,2.775,2.775,0,0,1,.871,2.148l-.016.047h-1.4a1.865,1.865,0,0,0-.5-1.316,1.658,1.658,0,0,0-1.27-.543,1.777,1.777,0,0,0-1.652.879,4.114,4.114,0,0,0-.52,2.129v.328a4.192,4.192,0,0,0,.512,2.148A1.776,1.776,0,0,0,141.961,109.961Zm10.383-.211a2.863,2.863,0,0,1-1.023,1.047,2.8,2.8,0,0,1-1.445.367,2.716,2.716,0,0,1-2.156-.883,4.1,4.1,0,0,1-.773-2.75v-4.984h1.539v5a3.147,3.147,0,0,0,.4,1.859,1.481,1.481,0,0,0,1.242.508,2.531,2.531,0,0,0,1.355-.332,2.077,2.077,0,0,0,.809-.941v-6.094h1.539V111h-1.383Zm7.727-5.844-.789-.047a1.762,1.762,0,0,0-1.027.289,1.855,1.855,0,0,0-.645.813V111H156.07v-8.453h1.375l.148,1.234a2.934,2.934,0,0,1,.887-1.023,2.073,2.073,0,0,1,1.215-.367,1.9,1.9,0,0,1,.328.027,2.173,2.173,0,0,1,.258.059Zm6.516,4.82a1.026,1.026,0,0,0-.387-.828,3.733,3.733,0,0,0-1.465-.562,6.146,6.146,0,0,1-2.293-.9,1.814,1.814,0,0,1-.8-1.547,2.229,2.229,0,0,1,.879-1.766,3.879,3.879,0,0,1,4.605.047,2.239,2.239,0,0,1,.852,1.82l-.016.047h-1.469a1.331,1.331,0,0,0-.48-.992,1.717,1.717,0,0,0-1.215-.445,1.751,1.751,0,0,0-1.215.367,1.146,1.146,0,0,0-.4.875.927.927,0,0,0,.348.773,3.848,3.848,0,0,0,1.434.5,6.058,6.058,0,0,1,2.359.93,1.872,1.872,0,0,1,.8,1.57,2.226,2.226,0,0,1-.91,1.836,3.754,3.754,0,0,1-2.379.711,3.715,3.715,0,0,1-2.547-.82,2.341,2.341,0,0,1-.883-1.914l.016-.047h1.469a1.424,1.424,0,0,0,.609,1.2,2.358,2.358,0,0,0,1.336.379,2.1,2.1,0,0,0,1.285-.348A1.063,1.063,0,0,0,166.586,108.727Zm3.094-2.031a4.654,4.654,0,0,1,1.016-3.09,3.764,3.764,0,0,1,5.535,0,4.639,4.639,0,0,1,1.02,3.094v.172a4.631,4.631,0,0,1-1.016,3.094,3.781,3.781,0,0,1-5.535,0,4.623,4.623,0,0,1-1.02-3.09Zm1.539.172a4.009,4.009,0,0,0,.566,2.219,2.046,2.046,0,0,0,3.355,0,3.988,3.988,0,0,0,.57-2.219V106.7a3.976,3.976,0,0,0-.574-2.211,1.882,1.882,0,0,0-1.684-.883,1.856,1.856,0,0,0-1.668.883,4.018,4.018,0,0,0-.566,2.211Zm12.828,1.859a1.026,1.026,0,0,0-.387-.828,3.733,3.733,0,0,0-1.465-.562,6.146,6.146,0,0,1-2.293-.9,1.814,1.814,0,0,1-.8-1.547,2.229,2.229,0,0,1,.879-1.766,3.879,3.879,0,0,1,4.605.047,2.239,2.239,0,0,1,.852,1.82l-.016.047h-1.469a1.331,1.331,0,0,0-.48-.992,1.717,1.717,0,0,0-1.215-.445,1.751,1.751,0,0,0-1.215.367,1.146,1.146,0,0,0-.4.875.927.927,0,0,0,.348.773,3.848,3.848,0,0,0,1.434.5,6.058,6.058,0,0,1,2.359.93,1.872,1.872,0,0,1,.8,1.57,2.226,2.226,0,0,1-.91,1.836,3.754,3.754,0,0,1-2.379.711,3.715,3.715,0,0,1-2.547-.82,2.341,2.341,0,0,1-.883-1.914l.016-.047h1.469a1.424,1.424,0,0,0,.609,1.2,2.358,2.358,0,0,0,1.336.379,2.1,2.1,0,0,0,1.285-.348A1.063,1.063,0,0,0,184.047,108.727Z" transform="translate(883 2201)" fill="#12263f"/>
    <path id="Trazado_737638" data-name="Trazado 737638" d="M67.438,10.875V15H65.156V3.625h4.352a4.48,4.48,0,0,1,3.086,1,3.353,3.353,0,0,1,1.125,2.633,3.329,3.329,0,0,1-1.125,2.625,4.5,4.5,0,0,1-3.086.992Zm0-1.758h2.07a1.9,1.9,0,0,0,1.445-.52,1.848,1.848,0,0,0,.492-1.324,1.934,1.934,0,0,0-.488-1.355,1.864,1.864,0,0,0-1.449-.535h-2.07Zm17.117,1.219a4.776,4.776,0,0,1-1.32,3.465,4.991,4.991,0,0,1-6.859,0,4.8,4.8,0,0,1-1.312-3.461V8.289a4.807,4.807,0,0,1,1.309-3.457,4.5,4.5,0,0,1,3.41-1.371,4.583,4.583,0,0,1,3.445,1.371,4.768,4.768,0,0,1,1.328,3.457ZM82.281,8.273a3.44,3.44,0,0,0-.664-2.18,2.2,2.2,0,0,0-1.836-.852,2.129,2.129,0,0,0-1.8.852,3.512,3.512,0,0,0-.645,2.18v2.063a3.537,3.537,0,0,0,.648,2.2,2.148,2.148,0,0,0,1.813.852,2.177,2.177,0,0,0,1.828-.852,3.507,3.507,0,0,0,.656-2.2Zm12.609,2.961.016.047A3.561,3.561,0,0,1,93.8,14.133a4.523,4.523,0,0,1-3.148,1.031,4.361,4.361,0,0,1-3.3-1.316,4.722,4.722,0,0,1-1.258-3.4V8.188a4.809,4.809,0,0,1,1.227-3.4,4.182,4.182,0,0,1,3.219-1.324,4.8,4.8,0,0,1,3.25,1.016,3.5,3.5,0,0,1,1.141,2.859l-.016.047H92.688a2.236,2.236,0,0,0-.527-1.629,2.2,2.2,0,0,0-1.629-.535,1.839,1.839,0,0,0-1.6.824,3.645,3.645,0,0,0-.574,2.129v2.273a3.538,3.538,0,0,0,.605,2.141,1.968,1.968,0,0,0,1.684.828,2,2,0,0,0,1.527-.535,2.328,2.328,0,0,0,.5-1.645Zm10.852-.9a4.776,4.776,0,0,1-1.32,3.465,4.991,4.991,0,0,1-6.859,0,4.8,4.8,0,0,1-1.312-3.461V8.289a4.807,4.807,0,0,1,1.309-3.457,4.5,4.5,0,0,1,3.41-1.371,4.583,4.583,0,0,1,3.445,1.371,4.768,4.768,0,0,1,1.328,3.457Zm-2.273-2.062a3.44,3.44,0,0,0-.664-2.18,2.2,2.2,0,0,0-1.836-.852,2.129,2.129,0,0,0-1.8.852,3.512,3.512,0,0,0-.645,2.18v2.063a3.537,3.537,0,0,0,.648,2.2,2.148,2.148,0,0,0,1.813.852,2.177,2.177,0,0,0,1.828-.852,3.507,3.507,0,0,0,.656-2.2ZM118.031,10h-4.219v3.25h5.016V15h-7.3V3.625h7.281V5.383h-5V8.242h4.219Zm9.047.273h-4.367V15H120.43V3.625h7.445V5.383h-5.164V8.516h4.367ZM131.766,15h-2.281V3.625h2.281Zm10.789-3.766.016.047a3.561,3.561,0,0,1-1.109,2.852,4.523,4.523,0,0,1-3.148,1.031,4.361,4.361,0,0,1-3.3-1.316,4.722,4.722,0,0,1-1.258-3.4V8.188a4.809,4.809,0,0,1,1.227-3.4A4.182,4.182,0,0,1,138.2,3.461a4.8,4.8,0,0,1,3.25,1.016,3.5,3.5,0,0,1,1.141,2.859l-.016.047h-2.219a2.236,2.236,0,0,0-.527-1.629,2.2,2.2,0,0,0-1.629-.535,1.839,1.839,0,0,0-1.6.824,3.645,3.645,0,0,0-.574,2.129v2.273a3.538,3.538,0,0,0,.605,2.141,1.968,1.968,0,0,0,1.684.828,2,2,0,0,0,1.527-.535,2.328,2.328,0,0,0,.5-1.645ZM146.641,15h-2.281V3.625h2.281Zm8.758-5H151.18v3.25H156.2V15h-7.3V3.625h7.281V5.383h-5V8.242H155.4Zm11.594,5h-2.281l-4.586-7.672-.047.008V15H157.8V3.625h2.281l4.586,7.664.047-.008V3.625h2.281Zm9.8-9.617h-3.25V15h-2.281V5.383h-3.2V3.625h8.734ZM184.539,10H180.32v3.25h5.016V15h-7.3V3.625h7.281V5.383h-5V8.242h4.219ZM84.43,36.008h.047L87.4,27.625h2.977V39H88.094V31.234l-.047-.008L85.234,39H83.688l-2.812-7.789-.047.008V39H78.547V27.625h2.992Zm17.055-8.383V35.07a3.741,3.741,0,0,1-1.273,3.008,4.916,4.916,0,0,1-3.3,1.086,4.858,4.858,0,0,1-3.285-1.086,3.757,3.757,0,0,1-1.262-3.008V27.625h2.289V35.07a2.341,2.341,0,0,0,.609,1.742,2.244,2.244,0,0,0,1.648.6,2.293,2.293,0,0,0,1.672-.6A2.324,2.324,0,0,0,99.2,35.07V27.625Zm5.992,5.242h.047l2.484-5.242h2.5L108.609,35v4h-2.281V34.883l-3.836-7.258h2.5ZM128.109,34h-4.219v3.25h5.016V39h-7.3V27.625h7.281v1.758h-5v2.859h4.219Zm9.047.273h-4.367V39h-2.281V27.625h7.445v1.758h-5.164v3.133h4.367ZM141.844,39h-2.281V27.625h2.281Zm10.789-3.766.016.047a3.561,3.561,0,0,1-1.109,2.852,4.523,4.523,0,0,1-3.148,1.031,4.361,4.361,0,0,1-3.3-1.316,4.722,4.722,0,0,1-1.258-3.4V32.188a4.809,4.809,0,0,1,1.227-3.4,4.182,4.182,0,0,1,3.219-1.324,4.8,4.8,0,0,1,3.25,1.016,3.5,3.5,0,0,1,1.141,2.859l-.016.047H150.43a2.236,2.236,0,0,0-.527-1.629,2.2,2.2,0,0,0-1.629-.535,1.839,1.839,0,0,0-1.6.824,3.645,3.645,0,0,0-.574,2.129v2.273a3.538,3.538,0,0,0,.605,2.141,1.968,1.968,0,0,0,1.684.828,2,2,0,0,0,1.527-.535,2.328,2.328,0,0,0,.5-1.645Zm7.578,1.313h-3.687L155.758,39h-2.383l3.836-11.375h2.336L163.367,39h-2.383Zm-3.125-1.789h2.57L158.4,30.75h-.047ZM166.7,37.25h5.219V39h-7.906V37.813l5.063-8.43h-5.055V27.625h7.766v1.141ZM8.75,87H7.211V74.813H8.75Zm4.031,0H11.242V74.813h1.539Zm5.867.164A3.576,3.576,0,0,1,15.809,86a4.48,4.48,0,0,1-1.02-3.062v-.344a4.386,4.386,0,0,1,1.051-3.012,3.3,3.3,0,0,1,2.566-1.191,3.067,3.067,0,0,1,2.543,1.055,4.345,4.345,0,0,1,.848,2.8v.813H16.391l-.023.039a3.494,3.494,0,0,0,.563,2.066,1.965,1.965,0,0,0,1.719.793,3.872,3.872,0,0,0,1.371-.223,3.061,3.061,0,0,0,1.012-.613l.6,1a3.7,3.7,0,0,1-1.2.738A4.762,4.762,0,0,1,18.648,87.164ZM18.406,79.6a1.673,1.673,0,0,0-1.332.621,2.938,2.938,0,0,0-.645,1.59l.016.039h3.813v-.125A2.462,2.462,0,0,0,19.8,80.2,1.638,1.638,0,0,0,18.406,79.6ZM23.25,82.93a5.641,5.641,0,0,1,.871-3.289,2.8,2.8,0,0,1,2.434-1.25,2.966,2.966,0,0,1,1.414.324,2.845,2.845,0,0,1,1.023.934l.188-1.1h1.227v8.5a3.225,3.225,0,0,1-.945,2.5,3.884,3.884,0,0,1-2.727.871,5.717,5.717,0,0,1-1.316-.168,5.147,5.147,0,0,1-1.246-.457l.234-1.2a4.45,4.45,0,0,0,1.074.379,5.517,5.517,0,0,0,1.238.145,2.242,2.242,0,0,0,1.637-.512,2.12,2.12,0,0,0,.512-1.559v-.961a2.725,2.725,0,0,1-.992.8,3.091,3.091,0,0,1-1.336.273,2.89,2.89,0,0,1-2.418-1.121,4.674,4.674,0,0,1-.871-2.949Zm1.539.164a3.592,3.592,0,0,0,.523,2.047,1.817,1.817,0,0,0,1.617.773,2.034,2.034,0,0,0,1.164-.316,2.4,2.4,0,0,0,.773-.895V80.813a2.388,2.388,0,0,0-.773-.855,2.029,2.029,0,0,0-1.148-.316,1.752,1.752,0,0,0-1.629.914,4.718,4.718,0,0,0-.527,2.375ZM37.813,87q-.078-.383-.121-.676a4.96,4.96,0,0,1-.051-.59,3.589,3.589,0,0,1-1.121,1.02,2.867,2.867,0,0,1-1.488.41,2.763,2.763,0,0,1-2.012-.676,2.486,2.486,0,0,1-.691-1.863,2.183,2.183,0,0,1,.98-1.895,4.579,4.579,0,0,1,2.66-.684h1.672v-.836a1.551,1.551,0,0,0-.453-1.176,1.779,1.779,0,0,0-1.281-.434,1.859,1.859,0,0,0-1.211.375,1.125,1.125,0,0,0-.461.9l-1.461.016-.016-.047a2.023,2.023,0,0,1,.863-1.687,3.578,3.578,0,0,1,2.371-.766,3.49,3.49,0,0,1,2.313.73,2.588,2.588,0,0,1,.875,2.105V85.3a7.923,7.923,0,0,0,.047.875A4.5,4.5,0,0,0,39.4,87Zm-2.555-1.125a2.739,2.739,0,0,0,1.508-.43,2.042,2.042,0,0,0,.875-.984V83.086H35.914a2.24,2.24,0,0,0-1.488.469,1.4,1.4,0,0,0-.559,1.1,1.159,1.159,0,0,0,.352.891A1.472,1.472,0,0,0,35.258,85.875ZM50.586,87q-.078-.383-.121-.676a4.96,4.96,0,0,1-.051-.59,3.589,3.589,0,0,1-1.121,1.02,2.867,2.867,0,0,1-1.488.41,2.763,2.763,0,0,1-2.012-.676,2.486,2.486,0,0,1-.691-1.863,2.183,2.183,0,0,1,.98-1.895,4.579,4.579,0,0,1,2.66-.684h1.672v-.836a1.551,1.551,0,0,0-.453-1.176A1.779,1.779,0,0,0,48.68,79.6a1.859,1.859,0,0,0-1.211.375,1.125,1.125,0,0,0-.461.9l-1.461.016-.016-.047a2.023,2.023,0,0,1,.863-1.687,3.578,3.578,0,0,1,2.371-.766,3.49,3.49,0,0,1,2.313.73,2.588,2.588,0,0,1,.875,2.105V85.3a7.923,7.923,0,0,0,.047.875,4.5,4.5,0,0,0,.172.828Zm-2.555-1.125a2.739,2.739,0,0,0,1.508-.43,2.042,2.042,0,0,0,.875-.984V83.086H48.688a2.24,2.24,0,0,0-1.488.469,1.4,1.4,0,0,0-.559,1.1,1.159,1.159,0,0,0,.352.891A1.472,1.472,0,0,0,48.031,85.875ZM59.828,87H58.289V74.813h1.539Zm2.008-4.3a4.654,4.654,0,0,1,1.016-3.09,3.764,3.764,0,0,1,5.535,0,4.639,4.639,0,0,1,1.02,3.094v.172a4.631,4.631,0,0,1-1.016,3.094,3.781,3.781,0,0,1-5.535,0,4.623,4.623,0,0,1-1.02-3.09Zm1.539.172a4.009,4.009,0,0,0,.566,2.219,2.046,2.046,0,0,0,3.355,0,3.988,3.988,0,0,0,.57-2.219V82.7a3.976,3.976,0,0,0-.574-2.211,1.882,1.882,0,0,0-1.684-.883,1.856,1.856,0,0,0-1.668.883,4.018,4.018,0,0,0-.566,2.211ZM76.2,84.727a1.026,1.026,0,0,0-.387-.828,3.733,3.733,0,0,0-1.465-.562,6.146,6.146,0,0,1-2.293-.9,1.814,1.814,0,0,1-.8-1.547,2.229,2.229,0,0,1,.879-1.766,3.879,3.879,0,0,1,4.605.047,2.239,2.239,0,0,1,.852,1.82l-.016.047H76.109a1.331,1.331,0,0,0-.48-.992,1.717,1.717,0,0,0-1.215-.445,1.751,1.751,0,0,0-1.215.367,1.146,1.146,0,0,0-.4.875.927.927,0,0,0,.348.773,3.848,3.848,0,0,0,1.434.5,6.058,6.058,0,0,1,2.359.93,1.872,1.872,0,0,1,.8,1.57,2.226,2.226,0,0,1-.91,1.836,3.754,3.754,0,0,1-2.379.711,3.715,3.715,0,0,1-2.547-.82,2.341,2.341,0,0,1-.883-1.914l.016-.047h1.469a1.424,1.424,0,0,0,.609,1.2,2.358,2.358,0,0,0,1.336.379,2.1,2.1,0,0,0,1.285-.348A1.063,1.063,0,0,0,76.2,84.727Zm7.07-2.031a4.654,4.654,0,0,1,1.016-3.09,3.764,3.764,0,0,1,5.535,0,4.639,4.639,0,0,1,1.02,3.094v.172a4.631,4.631,0,0,1-1.016,3.094,3.781,3.781,0,0,1-5.535,0,4.623,4.623,0,0,1-1.02-3.09Zm1.539.172a4.009,4.009,0,0,0,.566,2.219,2.046,2.046,0,0,0,3.355,0,3.988,3.988,0,0,0,.57-2.219V82.7a3.976,3.976,0,0,0-.574-2.211,1.882,1.882,0,0,0-1.684-.883,1.856,1.856,0,0,0-1.668.883,4.018,4.018,0,0,0-.566,2.211Zm15.133.227a4.645,4.645,0,0,1-.879,2.949,2.9,2.9,0,0,1-2.418,1.121,3.064,3.064,0,0,1-1.465-.332,2.719,2.719,0,0,1-1.027-.98L93.906,87h-1.18V74.813h1.539v4.734a2.671,2.671,0,0,1,.988-.859,3.03,3.03,0,0,1,1.379-.3,2.809,2.809,0,0,1,2.438,1.25,5.622,5.622,0,0,1,.875,3.289Zm-1.539-.164a4.666,4.666,0,0,0-.535-2.371,1.762,1.762,0,0,0-1.629-.918,2.014,2.014,0,0,0-1.2.348,2.452,2.452,0,0,0-.777.934v3.664a2.517,2.517,0,0,0,.777.977,2,2,0,0,0,1.215.352,1.829,1.829,0,0,0,1.617-.773,3.552,3.552,0,0,0,.531-2.047Zm5.188-4.383V87.7a2.807,2.807,0,0,1-.672,2.012,2.452,2.452,0,0,1-1.867.707,2.549,2.549,0,0,1-.441-.035,3.49,3.49,0,0,1-.426-.105l.109-1.211a1.621,1.621,0,0,0,.313.066,2.609,2.609,0,0,0,.336.027,1.02,1.02,0,0,0,.809-.344,1.681,1.681,0,0,0,.3-1.117V78.547Zm-.047-2.2h-1.539V74.813h1.539Zm5.914,10.813A3.576,3.576,0,0,1,106.621,86a4.48,4.48,0,0,1-1.02-3.062v-.344a4.386,4.386,0,0,1,1.051-3.012,3.3,3.3,0,0,1,2.566-1.191,3.067,3.067,0,0,1,2.543,1.055,4.345,4.345,0,0,1,.848,2.8v.813H107.2l-.023.039a3.494,3.494,0,0,0,.563,2.066,1.965,1.965,0,0,0,1.719.793,3.872,3.872,0,0,0,1.371-.223,3.061,3.061,0,0,0,1.012-.613l.6,1a3.7,3.7,0,0,1-1.2.738A4.762,4.762,0,0,1,109.461,87.164Zm-.242-7.562a1.673,1.673,0,0,0-1.332.621,2.938,2.938,0,0,0-.645,1.59l.016.039h3.813v-.125a2.462,2.462,0,0,0-.453-1.523A1.638,1.638,0,0,0,109.219,79.6Zm7.258-3.094v2.039h1.6v1.141h-1.6V84.82a1.149,1.149,0,0,0,.246.836.89.89,0,0,0,.652.242,1.43,1.43,0,0,0,.3-.035,2.2,2.2,0,0,0,.273-.074l.211,1.055a1.36,1.36,0,0,1-.508.23,2.562,2.562,0,0,1-.664.09,1.993,1.993,0,0,1-1.492-.566,2.46,2.46,0,0,1-.555-1.777V79.688h-1.344V78.547h1.344V76.508ZM121.391,87h-1.539V78.547h1.539Zm0-10.617h-1.539v-1.57h1.539Zm5.188,8.125.133.594h.047l.148-.594,1.945-5.961h1.57L127.313,87h-1.164L123,78.547h1.578Zm4.75-1.812a4.654,4.654,0,0,1,1.016-3.09,3.764,3.764,0,0,1,5.535,0A4.639,4.639,0,0,1,138.9,82.7v.172a4.631,4.631,0,0,1-1.016,3.094,3.781,3.781,0,0,1-5.535,0,4.623,4.623,0,0,1-1.02-3.09Zm1.539.172a4.009,4.009,0,0,0,.566,2.219,2.046,2.046,0,0,0,3.355,0,3.988,3.988,0,0,0,.57-2.219V82.7a3.976,3.976,0,0,0-.574-2.211A1.882,1.882,0,0,0,135.1,79.6a1.856,1.856,0,0,0-1.668.883,4.018,4.018,0,0,0-.566,2.211ZM145.7,84.727a1.026,1.026,0,0,0-.387-.828,3.733,3.733,0,0,0-1.465-.562,6.146,6.146,0,0,1-2.293-.9,1.814,1.814,0,0,1-.8-1.547,2.229,2.229,0,0,1,.879-1.766,3.879,3.879,0,0,1,4.605.047,2.239,2.239,0,0,1,.852,1.82l-.016.047H145.6a1.331,1.331,0,0,0-.48-.992,1.717,1.717,0,0,0-1.215-.445,1.751,1.751,0,0,0-1.215.367,1.146,1.146,0,0,0-.4.875.927.927,0,0,0,.348.773,3.848,3.848,0,0,0,1.434.5,6.058,6.058,0,0,1,2.359.93,1.872,1.872,0,0,1,.8,1.57,2.226,2.226,0,0,1-.91,1.836,3.754,3.754,0,0,1-2.379.711,3.715,3.715,0,0,1-2.547-.82,2.341,2.341,0,0,1-.883-1.914l.016-.047H142a1.424,1.424,0,0,0,.609,1.2,2.358,2.358,0,0,0,1.336.379,2.1,2.1,0,0,0,1.285-.348A1.063,1.063,0,0,0,145.7,84.727Zm12.344,0a1.026,1.026,0,0,0-.387-.828,3.733,3.733,0,0,0-1.465-.562,6.146,6.146,0,0,1-2.293-.9,1.814,1.814,0,0,1-.8-1.547,2.229,2.229,0,0,1,.879-1.766,3.879,3.879,0,0,1,4.605.047,2.239,2.239,0,0,1,.852,1.82l-.016.047h-1.469a1.331,1.331,0,0,0-.48-.992,1.717,1.717,0,0,0-1.215-.445,1.751,1.751,0,0,0-1.215.367,1.146,1.146,0,0,0-.4.875.927.927,0,0,0,.348.773,3.848,3.848,0,0,0,1.434.5,6.058,6.058,0,0,1,2.359.93,1.872,1.872,0,0,1,.8,1.57,2.226,2.226,0,0,1-.91,1.836,3.754,3.754,0,0,1-2.379.711,3.715,3.715,0,0,1-2.547-.82,2.341,2.341,0,0,1-.883-1.914l.016-.047h1.469a1.424,1.424,0,0,0,.609,1.2,2.358,2.358,0,0,0,1.336.379,2.1,2.1,0,0,0,1.285-.348A1.063,1.063,0,0,0,158.039,84.727ZM163.156,87h-1.539V78.547h1.539Zm0-10.617h-1.539v-1.57h1.539Zm3.742,2.164.109,1.258a3.069,3.069,0,0,1,1.059-1.043,2.824,2.824,0,0,1,1.449-.371,2.759,2.759,0,0,1,2.117.8,3.515,3.515,0,0,1,.75,2.473V87h-1.539V81.7a2.287,2.287,0,0,0-.441-1.586,1.768,1.768,0,0,0-1.348-.469,2.386,2.386,0,0,0-1.207.285,2.072,2.072,0,0,0-.785.8V87h-1.539V78.547Zm13.07,0,.109,1.109a2.871,2.871,0,0,1,1.051-.934,3.158,3.158,0,0,1,1.48-.332,2.615,2.615,0,0,1,1.449.391,2.363,2.363,0,0,1,.91,1.172,3.162,3.162,0,0,1,1.059-1.145,2.769,2.769,0,0,1,1.527-.418,2.531,2.531,0,0,1,2.039.887,4.051,4.051,0,0,1,.75,2.668V87H188.8V81.93a2.81,2.81,0,0,0-.43-1.77,1.567,1.567,0,0,0-1.281-.52,1.631,1.631,0,0,0-1.277.547,2.381,2.381,0,0,0-.574,1.383V87H183.7V81.93a2.772,2.772,0,0,0-.441-1.738,1.532,1.532,0,0,0-1.27-.551,2.115,2.115,0,0,0-1.156.289,1.867,1.867,0,0,0-.7.813V87h-1.539V78.547Zm16.109,8.617A3.576,3.576,0,0,1,193.238,86a4.48,4.48,0,0,1-1.02-3.062v-.344a4.386,4.386,0,0,1,1.051-3.012,3.3,3.3,0,0,1,2.566-1.191,3.067,3.067,0,0,1,2.543,1.055,4.345,4.345,0,0,1,.848,2.8v.813H193.82l-.023.039a3.494,3.494,0,0,0,.563,2.066,1.965,1.965,0,0,0,1.719.793,3.872,3.872,0,0,0,1.371-.223,3.061,3.061,0,0,0,1.012-.613l.6,1a3.7,3.7,0,0,1-1.2.738A4.762,4.762,0,0,1,196.078,87.164Zm-.242-7.562a1.673,1.673,0,0,0-1.332.621,2.938,2.938,0,0,0-.645,1.59l.016.039h3.813v-.125a2.462,2.462,0,0,0-.453-1.523A1.638,1.638,0,0,0,195.836,79.6ZM200.6,82.93a5.641,5.641,0,0,1,.871-3.289,2.807,2.807,0,0,1,2.441-1.25,3.027,3.027,0,0,1,1.316.273,2.7,2.7,0,0,1,.98.8V74.813h1.539V87h-1.18l-.234-1.07a2.743,2.743,0,0,1-1.023.922,3.058,3.058,0,0,1-1.414.313,2.9,2.9,0,0,1-2.422-1.121,4.659,4.659,0,0,1-.875-2.949Zm1.539.164a3.588,3.588,0,0,0,.523,2.051,1.828,1.828,0,0,0,1.625.77,2.039,2.039,0,0,0,1.156-.312,2.334,2.334,0,0,0,.766-.875V80.781a2.37,2.37,0,0,0-.77-.832,2.033,2.033,0,0,0-1.137-.309,1.759,1.759,0,0,0-1.637.914,4.718,4.718,0,0,0-.527,2.375ZM211.711,87h-1.539V78.547h1.539Zm0-10.617h-1.539v-1.57h1.539Zm6.367,3.523-.789-.047a1.762,1.762,0,0,0-1.027.289,1.855,1.855,0,0,0-.645.813V87h-1.539V78.547h1.375l.148,1.234a2.934,2.934,0,0,1,.887-1.023,2.073,2.073,0,0,1,1.215-.367,1.9,1.9,0,0,1,.328.027,2.173,2.173,0,0,1,.258.059ZM225.32,87h-1.539V74.813h1.539Zm2.008-4.3a4.654,4.654,0,0,1,1.016-3.09,3.764,3.764,0,0,1,5.535,0A4.639,4.639,0,0,1,234.9,82.7v.172a4.631,4.631,0,0,1-1.016,3.094,3.781,3.781,0,0,1-5.535,0,4.623,4.623,0,0,1-1.02-3.09Zm1.539.172a4.009,4.009,0,0,0,.566,2.219,2.046,2.046,0,0,0,3.355,0,3.988,3.988,0,0,0,.57-2.219V82.7a3.976,3.976,0,0,0-.574-2.211A1.882,1.882,0,0,0,231.1,79.6a1.856,1.856,0,0,0-1.668.883,4.018,4.018,0,0,0-.566,2.211ZM241.7,84.727a1.026,1.026,0,0,0-.387-.828,3.733,3.733,0,0,0-1.465-.562,6.146,6.146,0,0,1-2.293-.9,1.814,1.814,0,0,1-.8-1.547,2.229,2.229,0,0,1,.879-1.766,3.879,3.879,0,0,1,4.605.047,2.239,2.239,0,0,1,.852,1.82l-.016.047H241.6a1.331,1.331,0,0,0-.48-.992,1.717,1.717,0,0,0-1.215-.445,1.751,1.751,0,0,0-1.215.367,1.146,1.146,0,0,0-.4.875.927.927,0,0,0,.348.773,3.848,3.848,0,0,0,1.434.5,6.058,6.058,0,0,1,2.359.93,1.872,1.872,0,0,1,.8,1.57,2.226,2.226,0,0,1-.91,1.836,3.754,3.754,0,0,1-2.379.711,3.715,3.715,0,0,1-2.547-.82,2.341,2.341,0,0,1-.883-1.914l.016-.047H238a1.424,1.424,0,0,0,.609,1.2,2.358,2.358,0,0,0,1.336.379,2.1,2.1,0,0,0,1.285-.348A1.063,1.063,0,0,0,241.7,84.727ZM37.117,103.906l-.789-.047a1.762,1.762,0,0,0-1.027.289,1.855,1.855,0,0,0-.645.813V111H33.117v-8.453h1.375l.148,1.234a2.934,2.934,0,0,1,.887-1.023,2.073,2.073,0,0,1,1.215-.367,1.9,1.9,0,0,1,.328.027,2.173,2.173,0,0,1,.258.059Zm4.953,7.258A3.576,3.576,0,0,1,39.23,110a4.48,4.48,0,0,1-1.02-3.062v-.344a4.386,4.386,0,0,1,1.051-3.012,3.3,3.3,0,0,1,2.566-1.191,3.067,3.067,0,0,1,2.543,1.055,4.345,4.345,0,0,1,.848,2.8v.813H39.813l-.023.039a3.494,3.494,0,0,0,.563,2.066,1.965,1.965,0,0,0,1.719.793,3.872,3.872,0,0,0,1.371-.223,3.061,3.061,0,0,0,1.012-.613l.6,1a3.7,3.7,0,0,1-1.2.738A4.762,4.762,0,0,1,42.07,111.164Zm-.242-7.562a1.673,1.673,0,0,0-1.332.621,2.938,2.938,0,0,0-.645,1.59l.016.039H43.68v-.125a2.462,2.462,0,0,0-.453-1.523A1.638,1.638,0,0,0,41.828,103.6Zm8.477,6.359a1.81,1.81,0,0,0,1.242-.473,1.494,1.494,0,0,0,.531-1.16h1.391l.023.047a2.428,2.428,0,0,1-.937,1.941,3.582,3.582,0,0,1-5-.363,4.674,4.674,0,0,1-.969-3.016v-.328a4.654,4.654,0,0,1,.973-3,3.317,3.317,0,0,1,2.746-1.215,3.189,3.189,0,0,1,2.316.875,2.775,2.775,0,0,1,.871,2.148l-.016.047h-1.4a1.865,1.865,0,0,0-.5-1.316,1.658,1.658,0,0,0-1.27-.543,1.777,1.777,0,0,0-1.652.879,4.114,4.114,0,0,0-.52,2.129v.328a4.192,4.192,0,0,0,.512,2.148A1.776,1.776,0,0,0,50.3,109.961Zm10.383-.211a2.863,2.863,0,0,1-1.023,1.047,2.8,2.8,0,0,1-1.445.367,2.716,2.716,0,0,1-2.156-.883,4.1,4.1,0,0,1-.773-2.75v-4.984h1.539v5a3.147,3.147,0,0,0,.4,1.859,1.481,1.481,0,0,0,1.242.508,2.531,2.531,0,0,0,1.355-.332,2.077,2.077,0,0,0,.809-.941v-6.094h1.539V111H60.789Zm7.727-5.844-.789-.047a1.762,1.762,0,0,0-1.027.289,1.854,1.854,0,0,0-.645.813V111H64.414v-8.453h1.375l.148,1.234a2.934,2.934,0,0,1,.887-1.023,2.073,2.073,0,0,1,1.215-.367,1.9,1.9,0,0,1,.328.027,2.174,2.174,0,0,1,.258.059Zm6.516,4.82a1.026,1.026,0,0,0-.387-.828,3.733,3.733,0,0,0-1.465-.562,6.146,6.146,0,0,1-2.293-.9,1.814,1.814,0,0,1-.8-1.547,2.229,2.229,0,0,1,.879-1.766,3.879,3.879,0,0,1,4.605.047,2.239,2.239,0,0,1,.852,1.82l-.016.047H74.836a1.331,1.331,0,0,0-.48-.992,1.717,1.717,0,0,0-1.215-.445,1.751,1.751,0,0,0-1.215.367,1.146,1.146,0,0,0-.4.875.927.927,0,0,0,.348.773,3.848,3.848,0,0,0,1.434.5,6.058,6.058,0,0,1,2.359.93,1.872,1.872,0,0,1,.8,1.57,2.226,2.226,0,0,1-.91,1.836,3.754,3.754,0,0,1-2.379.711,3.715,3.715,0,0,1-2.547-.82,2.341,2.341,0,0,1-.883-1.914l.016-.047h1.469a1.424,1.424,0,0,0,.609,1.2,2.358,2.358,0,0,0,1.336.379,2.1,2.1,0,0,0,1.285-.348A1.063,1.063,0,0,0,74.93,108.727Zm3.094-2.031a4.654,4.654,0,0,1,1.016-3.09,3.764,3.764,0,0,1,5.535,0,4.639,4.639,0,0,1,1.02,3.094v.172a4.631,4.631,0,0,1-1.016,3.094,3.781,3.781,0,0,1-5.535,0,4.623,4.623,0,0,1-1.02-3.09Zm1.539.172a4.009,4.009,0,0,0,.566,2.219,2.046,2.046,0,0,0,3.355,0,3.988,3.988,0,0,0,.57-2.219V106.7a3.976,3.976,0,0,0-.574-2.211A1.882,1.882,0,0,0,81.8,103.6a1.856,1.856,0,0,0-1.668.883,4.018,4.018,0,0,0-.566,2.211Zm12.828,1.859A1.026,1.026,0,0,0,92,107.9a3.733,3.733,0,0,0-1.465-.562,6.146,6.146,0,0,1-2.293-.9,1.814,1.814,0,0,1-.8-1.547,2.229,2.229,0,0,1,.879-1.766,3.879,3.879,0,0,1,4.605.047,2.239,2.239,0,0,1,.852,1.82l-.016.047H92.3a1.331,1.331,0,0,0-.48-.992A1.717,1.717,0,0,0,90.6,103.6a1.751,1.751,0,0,0-1.215.367,1.146,1.146,0,0,0-.4.875.927.927,0,0,0,.348.773,3.848,3.848,0,0,0,1.434.5,6.058,6.058,0,0,1,2.359.93,1.872,1.872,0,0,1,.8,1.57,2.226,2.226,0,0,1-.91,1.836,3.754,3.754,0,0,1-2.379.711,3.715,3.715,0,0,1-2.547-.82,2.341,2.341,0,0,1-.883-1.914l.016-.047H88.7a1.424,1.424,0,0,0,.609,1.2,2.358,2.358,0,0,0,1.336.379,2.1,2.1,0,0,0,1.285-.348A1.063,1.063,0,0,0,92.391,108.727Zm14.633-1.633a4.659,4.659,0,0,1-.875,2.949,2.893,2.893,0,0,1-2.414,1.121,3.354,3.354,0,0,1-1.371-.262,2.622,2.622,0,0,1-1-.785v4.133H99.82v-11.7H101l.242,1.094a2.792,2.792,0,0,1,1.031-.93,3.078,3.078,0,0,1,1.438-.32,2.809,2.809,0,0,1,2.441,1.246,5.638,5.638,0,0,1,.871,3.293Zm-1.539-.164a4.467,4.467,0,0,0-.566-2.363,1.835,1.835,0,0,0-1.668-.926,2.053,2.053,0,0,0-1.133.3,2.25,2.25,0,0,0-.758.824v4.086a2.186,2.186,0,0,0,.758.816,2.126,2.126,0,0,0,1.148.293,1.894,1.894,0,0,0,1.656-.8,3.516,3.516,0,0,0,.563-2.066Zm8.625,4.07q-.078-.383-.121-.676a4.96,4.96,0,0,1-.051-.59,3.589,3.589,0,0,1-1.121,1.02,2.867,2.867,0,0,1-1.488.41,2.763,2.763,0,0,1-2.012-.676,2.486,2.486,0,0,1-.691-1.863,2.183,2.183,0,0,1,.98-1.895,4.579,4.579,0,0,1,2.66-.684h1.672v-.836a1.551,1.551,0,0,0-.453-1.176,1.779,1.779,0,0,0-1.281-.434,1.859,1.859,0,0,0-1.211.375,1.125,1.125,0,0,0-.461.9l-1.461.016-.016-.047a2.023,2.023,0,0,1,.863-1.687,3.578,3.578,0,0,1,2.371-.766,3.49,3.49,0,0,1,2.313.73,2.588,2.588,0,0,1,.875,2.105v4.07a7.923,7.923,0,0,0,.047.875,4.5,4.5,0,0,0,.172.828Zm-2.555-1.125a2.739,2.739,0,0,0,1.508-.43,2.042,2.042,0,0,0,.875-.984v-1.375h-1.727a2.24,2.24,0,0,0-1.488.469,1.4,1.4,0,0,0-.559,1.1,1.159,1.159,0,0,0,.352.891A1.472,1.472,0,0,0,111.555,109.875Zm10.156-5.969-.789-.047a1.762,1.762,0,0,0-1.027.289,1.854,1.854,0,0,0-.645.813V111h-1.539v-8.453h1.375l.148,1.234a2.934,2.934,0,0,1,.887-1.023,2.073,2.073,0,0,1,1.215-.367,1.9,1.9,0,0,1,.328.027,2.174,2.174,0,0,1,.258.059Zm6.8,7.094q-.078-.383-.121-.676a4.96,4.96,0,0,1-.051-.59,3.588,3.588,0,0,1-1.121,1.02,2.867,2.867,0,0,1-1.488.41,2.763,2.763,0,0,1-2.012-.676,2.486,2.486,0,0,1-.691-1.863,2.183,2.183,0,0,1,.98-1.895,4.579,4.579,0,0,1,2.66-.684h1.672v-.836a1.551,1.551,0,0,0-.453-1.176,1.779,1.779,0,0,0-1.281-.434,1.859,1.859,0,0,0-1.211.375,1.125,1.125,0,0,0-.461.9l-1.461.016-.016-.047a2.023,2.023,0,0,1,.863-1.687,3.578,3.578,0,0,1,2.371-.766,3.49,3.49,0,0,1,2.313.73,2.588,2.588,0,0,1,.875,2.105v4.07a7.923,7.923,0,0,0,.047.875,4.5,4.5,0,0,0,.172.828Zm-2.555-1.125a2.739,2.739,0,0,0,1.508-.43,2.042,2.042,0,0,0,.875-.984v-1.375h-1.727a2.24,2.24,0,0,0-1.488.469,1.4,1.4,0,0,0-.559,1.1,1.159,1.159,0,0,0,.352.891A1.472,1.472,0,0,0,125.953,109.875ZM141.281,111q-.078-.383-.121-.676a4.96,4.96,0,0,1-.051-.59,3.588,3.588,0,0,1-1.121,1.02,2.867,2.867,0,0,1-1.488.41,2.763,2.763,0,0,1-2.012-.676,2.486,2.486,0,0,1-.691-1.863,2.183,2.183,0,0,1,.98-1.895,4.579,4.579,0,0,1,2.66-.684h1.672v-.836a1.551,1.551,0,0,0-.453-1.176,1.779,1.779,0,0,0-1.281-.434,1.859,1.859,0,0,0-1.211.375,1.125,1.125,0,0,0-.461.9l-1.461.016-.016-.047a2.023,2.023,0,0,1,.863-1.687,3.578,3.578,0,0,1,2.371-.766,3.49,3.49,0,0,1,2.313.73,2.588,2.588,0,0,1,.875,2.105v4.07a7.923,7.923,0,0,0,.047.875,4.5,4.5,0,0,0,.172.828Zm-2.555-1.125a2.739,2.739,0,0,0,1.508-.43,2.042,2.042,0,0,0,.875-.984v-1.375h-1.727a2.24,2.24,0,0,0-1.488.469,1.4,1.4,0,0,0-.559,1.1,1.159,1.159,0,0,0,.352.891A1.472,1.472,0,0,0,138.727,109.875Zm7.82,1.125h-1.539V98.813h1.539Zm5.727-1.039a1.81,1.81,0,0,0,1.242-.473,1.493,1.493,0,0,0,.531-1.16h1.391l.023.047a2.428,2.428,0,0,1-.937,1.941,3.582,3.582,0,0,1-5-.363,4.674,4.674,0,0,1-.969-3.016v-.328a4.654,4.654,0,0,1,.973-3,3.317,3.317,0,0,1,2.746-1.215,3.189,3.189,0,0,1,2.316.875,2.775,2.775,0,0,1,.871,2.148l-.016.047h-1.4a1.865,1.865,0,0,0-.5-1.316,1.658,1.658,0,0,0-1.27-.543,1.777,1.777,0,0,0-1.652.879,4.114,4.114,0,0,0-.52,2.129v.328a4.192,4.192,0,0,0,.512,2.148A1.776,1.776,0,0,0,152.273,109.961ZM162.484,111q-.078-.383-.121-.676a4.96,4.96,0,0,1-.051-.59,3.588,3.588,0,0,1-1.121,1.02,2.867,2.867,0,0,1-1.488.41,2.763,2.763,0,0,1-2.012-.676,2.486,2.486,0,0,1-.691-1.863,2.183,2.183,0,0,1,.98-1.895,4.579,4.579,0,0,1,2.66-.684h1.672v-.836a1.551,1.551,0,0,0-.453-1.176,1.779,1.779,0,0,0-1.281-.434,1.859,1.859,0,0,0-1.211.375,1.125,1.125,0,0,0-.461.9l-1.461.016-.016-.047a2.023,2.023,0,0,1,.863-1.687,3.578,3.578,0,0,1,2.371-.766,3.49,3.49,0,0,1,2.313.73,2.588,2.588,0,0,1,.875,2.105v4.07a7.923,7.923,0,0,0,.047.875,4.5,4.5,0,0,0,.172.828Zm-2.555-1.125a2.739,2.739,0,0,0,1.508-.43,2.042,2.042,0,0,0,.875-.984v-1.375h-1.727a2.24,2.24,0,0,0-1.488.469,1.4,1.4,0,0,0-.559,1.1,1.159,1.159,0,0,0,.352.891A1.472,1.472,0,0,0,159.93,109.875Zm7.531-7.328.109,1.258a3.069,3.069,0,0,1,1.059-1.043,2.824,2.824,0,0,1,1.449-.371,2.759,2.759,0,0,1,2.117.8,3.515,3.515,0,0,1,.75,2.473V111h-1.539v-5.3a2.287,2.287,0,0,0-.441-1.586,1.768,1.768,0,0,0-1.348-.469,2.386,2.386,0,0,0-1.207.285,2.072,2.072,0,0,0-.785.8V111h-1.539v-8.453Zm9.172,7.25h4.883V111H174.8v-1.078l4.57-6.156h-4.516v-1.219h6.4v1.047Zm11.789,1.2q-.078-.383-.121-.676a4.96,4.96,0,0,1-.051-.59,3.588,3.588,0,0,1-1.121,1.02,2.867,2.867,0,0,1-1.488.41,2.763,2.763,0,0,1-2.012-.676,2.486,2.486,0,0,1-.691-1.863,2.183,2.183,0,0,1,.98-1.895,4.579,4.579,0,0,1,2.66-.684h1.672v-.836a1.551,1.551,0,0,0-.453-1.176,1.779,1.779,0,0,0-1.281-.434,1.859,1.859,0,0,0-1.211.375,1.125,1.125,0,0,0-.461.9l-1.461.016-.016-.047a2.023,2.023,0,0,1,.863-1.687,3.578,3.578,0,0,1,2.371-.766,3.49,3.49,0,0,1,2.313.73,2.588,2.588,0,0,1,.875,2.105v4.07a7.923,7.923,0,0,0,.047.875,4.5,4.5,0,0,0,.172.828Zm-2.555-1.125a2.739,2.739,0,0,0,1.508-.43,2.042,2.042,0,0,0,.875-.984v-1.375h-1.727a2.24,2.24,0,0,0-1.488.469,1.4,1.4,0,0,0-.559,1.1,1.159,1.159,0,0,0,.352.891A1.472,1.472,0,0,0,185.867,109.875Zm10.156-5.969-.789-.047a1.762,1.762,0,0,0-1.027.289,1.855,1.855,0,0,0-.645.813V111h-1.539v-8.453H193.4l.148,1.234a2.934,2.934,0,0,1,.887-1.023,2.073,2.073,0,0,1,1.215-.367,1.9,1.9,0,0,1,.328.027,2.173,2.173,0,0,1,.258.059ZM199.289,111H197.75V98.813h1.539Zm2.008-4.3a4.654,4.654,0,0,1,1.016-3.09,3.764,3.764,0,0,1,5.535,0,4.639,4.639,0,0,1,1.02,3.094v.172a4.631,4.631,0,0,1-1.016,3.094,3.781,3.781,0,0,1-5.535,0,4.623,4.623,0,0,1-1.02-3.09Zm1.539.172a4.009,4.009,0,0,0,.566,2.219,2.046,2.046,0,0,0,3.355,0,3.988,3.988,0,0,0,.57-2.219V106.7a3.976,3.976,0,0,0-.574-2.211,1.882,1.882,0,0,0-1.684-.883,1.856,1.856,0,0,0-1.668.883,4.018,4.018,0,0,0-.566,2.211Zm12.828,1.859a1.026,1.026,0,0,0-.387-.828,3.733,3.733,0,0,0-1.465-.562,6.146,6.146,0,0,1-2.293-.9,1.814,1.814,0,0,1-.8-1.547,2.229,2.229,0,0,1,.879-1.766,3.879,3.879,0,0,1,4.605.047,2.239,2.239,0,0,1,.852,1.82l-.016.047H215.57a1.331,1.331,0,0,0-.48-.992,1.717,1.717,0,0,0-1.215-.445,1.751,1.751,0,0,0-1.215.367,1.146,1.146,0,0,0-.4.875.927.927,0,0,0,.348.773,3.848,3.848,0,0,0,1.434.5,6.058,6.058,0,0,1,2.359.93,1.872,1.872,0,0,1,.8,1.57,2.226,2.226,0,0,1-.91,1.836,3.754,3.754,0,0,1-2.379.711,3.715,3.715,0,0,1-2.547-.82,2.341,2.341,0,0,1-.883-1.914l.016-.047h1.469a1.424,1.424,0,0,0,.609,1.2,2.358,2.358,0,0,0,1.336.379,2.1,2.1,0,0,0,1.285-.348A1.063,1.063,0,0,0,215.664,108.727Z" transform="translate(883 2358)" fill="#12263f"/>
    <path id="Trazado_737639" data-name="Trazado 737639" d="M17.414,15V3.625h3.727a5.41,5.41,0,0,1,3.133.785A2.659,2.659,0,0,1,25.4,6.742,2.415,2.415,0,0,1,23.8,9.07a2.451,2.451,0,0,1,1.6.922,2.768,2.768,0,0,1,.539,1.7,2.943,2.943,0,0,1-1.078,2.473,4.873,4.873,0,0,1-3.055.84ZM19.7,9.969V13.25h2.117a2.119,2.119,0,0,0,1.383-.395,1.429,1.429,0,0,0,.477-1.168,1.673,1.673,0,0,0-.469-1.273,1.985,1.985,0,0,0-1.414-.445Zm0-1.578h1.523a2.283,2.283,0,0,0,1.406-.375,1.291,1.291,0,0,0,.492-1.094,1.365,1.365,0,0,0-.5-1.164,2.437,2.437,0,0,0-1.48-.375H19.7Zm13.844,4.156H29.852L29.086,15H26.7L30.539,3.625h2.336L36.7,15H34.313Zm-3.125-1.789h2.57L31.727,6.75H31.68ZM42.32,3.625h2.273v7.852a3.563,3.563,0,0,1-1.035,2.688,3.67,3.67,0,0,1-2.66,1,4.29,4.29,0,0,1-2.859-.891,3.1,3.1,0,0,1-1.016-2.586l.016-.047h2.219a1.8,1.8,0,0,0,.445,1.34,1.64,1.64,0,0,0,1.2.434,1.235,1.235,0,0,0,1.023-.52,2.276,2.276,0,0,0,.4-1.418ZM52.43,12.547H48.742L47.977,15H45.594L49.43,3.625h2.336L55.586,15H53.2ZM49.3,10.758h2.57L50.617,6.75H50.57Z" transform="translate(548 2543)" fill="#12263f"/>
    <path id="Trazado_737640" data-name="Trazado 737640" d="M24.988,12.547H21.3L20.535,15H18.152L21.988,3.625h2.336L28.145,15H25.762Zm-3.125-1.789h2.57L23.176,6.75h-.047ZM31.52,13.25h5.094V15H29.238V3.625H31.52ZM44.457,5.383h-3.25V15H38.926V5.383h-3.2V3.625h8.734Zm6.328,7.164H47.1L46.332,15H43.949L47.785,3.625h2.336L53.941,15H51.559ZM47.66,10.758h2.57L48.973,6.75h-.047Z" transform="translate(1086 2543)" fill="#12263f"/>
    <path id="Trazado_737641" data-name="Trazado 737641" d="M0,0H54V304H0Z" transform="translate(494 2185)" fill="#ff6e33"/>
    <path id="Trazado_737642" data-name="Trazado 737642" d="M0,0H610V53H0Z" transform="translate(548 2489)" fill="#ff6e33"/>
    <path id="Trazado_737643" data-name="Trazado 737643" d="M17.187,17.938H9.54v5.891h9.091V27H5.405V6.383H18.6V9.569H9.54v5.183h7.646Zm16.4.5H25.668V27H21.534V6.383H35.028V9.569h-9.36v5.678h7.916ZM42.08,27H37.945V6.383H42.08Zm19.555-6.825.028.085a6.454,6.454,0,0,1-2.011,5.168A8.2,8.2,0,0,1,53.946,27.3a7.9,7.9,0,0,1-5.99-2.386,8.559,8.559,0,0,1-2.28-6.167V14.652A8.716,8.716,0,0,1,47.9,8.486a7.58,7.58,0,0,1,5.834-2.4,8.7,8.7,0,0,1,5.891,1.841,6.338,6.338,0,0,1,2.067,5.183l-.028.085H57.642a4.053,4.053,0,0,0-.956-2.952,3.987,3.987,0,0,0-2.952-.97,3.333,3.333,0,0,0-2.9,1.494A6.607,6.607,0,0,0,49.8,14.624v4.121a6.412,6.412,0,0,0,1.1,3.88,3.567,3.567,0,0,0,3.052,1.5,3.63,3.63,0,0,0,2.768-.97,4.22,4.22,0,0,0,.913-2.981ZM69.041,27H64.906V6.383h4.135Zm15.874-9.062H77.268v5.891h9.091V27H73.133V6.383h13.2V9.569H77.268v5.183h7.646ZM105.928,27h-4.135L93.481,13.095l-.085.014V27H89.262V6.383H93.4l8.312,13.891.085-.014V6.383h4.135Zm19.258-6.825.028.085a6.454,6.454,0,0,1-2.011,5.168A8.2,8.2,0,0,1,117.5,27.3a7.9,7.9,0,0,1-5.99-2.386,8.559,8.559,0,0,1-2.28-6.167V14.652a8.716,8.716,0,0,1,2.223-6.167,7.58,7.58,0,0,1,5.834-2.4,8.7,8.7,0,0,1,5.891,1.841,6.338,6.338,0,0,1,2.067,5.183l-.028.085h-4.021a4.053,4.053,0,0,0-.956-2.952,3.987,3.987,0,0,0-2.952-.97,3.333,3.333,0,0,0-2.9,1.494,6.607,6.607,0,0,0-1.041,3.859v4.121a6.412,6.412,0,0,0,1.1,3.88,3.567,3.567,0,0,0,3.052,1.5,3.63,3.63,0,0,0,2.768-.97,4.22,4.22,0,0,0,.913-2.981ZM132.592,27h-4.135V6.383h4.135Zm15.095-4.446H141L139.615,27H135.3l6.953-20.617h4.234L153.407,27h-4.319Zm-5.664-3.243h4.659l-2.28-7.264h-.085Z" transform="translate(506 2408) rotate(-90)"/>
    <path id="Trazado_737644" data-name="Trazado 737644" d="M22.687,17.938H15.04v5.891h9.091V27H10.905V6.383H24.1V9.569H15.04v5.183h7.646Zm16.4.5H31.168V27H27.034V6.383H40.528V9.569h-9.36v5.678h7.916ZM47.58,27H43.445V6.383H47.58Zm19.555-6.825.028.085a6.454,6.454,0,0,1-2.011,5.168A8.2,8.2,0,0,1,59.446,27.3a7.9,7.9,0,0,1-5.99-2.386,8.559,8.559,0,0,1-2.28-6.167V14.652A8.716,8.716,0,0,1,53.4,8.486a7.58,7.58,0,0,1,5.834-2.4,8.7,8.7,0,0,1,5.891,1.841,6.338,6.338,0,0,1,2.067,5.183l-.028.085H63.142a4.053,4.053,0,0,0-.956-2.952,3.987,3.987,0,0,0-2.952-.97,3.333,3.333,0,0,0-2.9,1.494A6.607,6.607,0,0,0,55.3,14.624v4.121a6.412,6.412,0,0,0,1.1,3.88,3.567,3.567,0,0,0,3.052,1.5,3.63,3.63,0,0,0,2.768-.97,4.22,4.22,0,0,0,.913-2.981ZM74.541,27H70.406V6.383h4.135Zm15.874-9.062H82.768v5.891h9.091V27H78.633V6.383h13.2V9.569H82.768v5.183h7.646ZM111.428,27h-4.135L98.981,13.095l-.085.014V27H94.762V6.383H98.9l8.312,13.891.085-.014V6.383h4.135Zm19.258-6.825.028.085a6.454,6.454,0,0,1-2.011,5.168A8.2,8.2,0,0,1,123,27.3a7.9,7.9,0,0,1-5.99-2.386,8.559,8.559,0,0,1-2.28-6.167V14.652a8.716,8.716,0,0,1,2.223-6.167,7.58,7.58,0,0,1,5.834-2.4,8.7,8.7,0,0,1,5.891,1.841,6.338,6.338,0,0,1,2.067,5.183l-.028.085h-4.021a4.053,4.053,0,0,0-.956-2.952,3.987,3.987,0,0,0-2.952-.97,3.333,3.333,0,0,0-2.9,1.494,6.607,6.607,0,0,0-1.041,3.859v4.121a6.412,6.412,0,0,0,1.1,3.88,3.567,3.567,0,0,0,3.052,1.5,3.63,3.63,0,0,0,2.768-.97,4.22,4.22,0,0,0,.913-2.981ZM138.092,27h-4.135V6.383h4.135Zm15.095-4.446H146.5L145.115,27H140.8l6.953-20.617h4.234L158.907,27h-4.319Zm-5.664-3.243h4.659l-2.28-7.264h-.085Z" transform="translate(769 2501)"/>
    <path id="Trazado_737645" data-name="Trazado 737645" d="M6.988,12.547H3.3L2.535,15H.152L3.988,3.625H6.324L10.145,15H7.762ZM3.863,10.758h2.57L5.176,6.75H5.129ZM13.52,13.25h5.094V15H11.238V3.625H13.52ZM26.457,5.383h-3.25V15H20.926V5.383h-3.2V3.625h8.734Zm6.328,7.164H29.1L28.332,15H25.949L29.785,3.625h2.336L35.941,15H33.559ZM29.66,10.758h2.57L30.973,6.75h-.047Z" transform="translate(452 2185)" fill="#12263f"/>
    <path id="Trazado_737646" data-name="Trazado 737646" d="M3.914,15V3.625H7.641a5.41,5.41,0,0,1,3.133.785A2.659,2.659,0,0,1,11.9,6.742,2.415,2.415,0,0,1,10.3,9.07a2.451,2.451,0,0,1,1.6.922,2.768,2.768,0,0,1,.539,1.7,2.943,2.943,0,0,1-1.078,2.473A4.873,4.873,0,0,1,8.313,15ZM6.2,9.969V13.25H8.313A2.119,2.119,0,0,0,9.7,12.855a1.429,1.429,0,0,0,.477-1.168A1.673,1.673,0,0,0,9.7,10.414a1.985,1.985,0,0,0-1.414-.445Zm0-1.578H7.719a2.283,2.283,0,0,0,1.406-.375,1.291,1.291,0,0,0,.492-1.094,1.365,1.365,0,0,0-.5-1.164,2.437,2.437,0,0,0-1.48-.375H6.2Zm13.844,4.156H16.352L15.586,15H13.2L17.039,3.625h2.336L23.2,15H20.813Zm-3.125-1.789h2.57L18.227,6.75H18.18ZM28.82,3.625h2.273v7.852a3.563,3.563,0,0,1-1.035,2.688,3.67,3.67,0,0,1-2.66,1,4.29,4.29,0,0,1-2.859-.891,3.1,3.1,0,0,1-1.016-2.586l.016-.047h2.219a1.8,1.8,0,0,0,.445,1.34,1.64,1.64,0,0,0,1.2.434,1.235,1.235,0,0,0,1.023-.52,2.276,2.276,0,0,0,.4-1.418ZM38.93,12.547H35.242L34.477,15H32.094L35.93,3.625h2.336L42.086,15H39.7ZM35.8,10.758h2.57L37.117,6.75H37.07Z" transform="translate(443 2471)" fill="#12263f"/>
  </g>
</svg>
