<svg xmlns="http://www.w3.org/2000/svg" width="295" height="148" viewBox="0 0 295 148">
  <g id="Grupo_987235" data-name="Grupo 987235" transform="translate(-1125 -1190)">
    <g id="Grupo_987179" data-name="Grupo 987179">
      <rect id="Rectángulo_344858" data-name="Rectángulo 344858" width="295" height="148" transform="translate(1125 1190)" fill="#dee9f0"/>
      <g id="_20-Currency_Exchange" data-name="20-Currency Exchange" transform="translate(1214 1206)">
        <path id="Trazado_731123" data-name="Trazado 731123" d="M30.539,5a14.418,14.418,0,0,1,11.377,5.507,23.612,23.612,0,0,0-21.864,19.1A14.54,14.54,0,0,1,30.539,5Z" transform="translate(13.08 4.087)" fill="#ffac5a"/>
        <path id="Trazado_731124" data-name="Trazado 731124" d="M50.1,8.323a21.842,21.842,0,0,1,4.089,6.67,23.709,23.709,0,0,0-7.652-1.272c-.454,0-.891.018-1.345.055a14.54,14.54,0,1,0-21.864,19.1,23.892,23.892,0,0,0,.036,9.087A21.81,21.81,0,1,1,50.1,8.323Z" transform="translate(9.802 0.819)" fill="#ff873c"/>
        <path id="Trazado_731125" data-name="Trazado 731125" d="M53.333,15.27l-6.579,4.943A23.6,23.6,0,0,0,37.03,10.69L42.428,8Z" transform="translate(30.271 6.54)" fill="#ffbeaa"/>
        <circle id="Elipse_4727" data-name="Elipse 4727" cx="23.5" cy="23.5" r="23.5" transform="translate(33 14.817)" fill="#ffac5a"/>
        <path id="Trazado_731126" data-name="Trazado 731126" d="M67.858,7V36.079h-10.9V7Z" transform="translate(46.557 5.722)" fill="#64e1dc"/>
        <path id="Trazado_731127" data-name="Trazado 731127" d="M65.405,7V36.079H59.953V7Z" transform="translate(49.009 5.722)" fill="#00c8c8"/>
        <path id="Trazado_731128" data-name="Trazado 731128" d="M54.584,26.54a15.016,15.016,0,0,1,.109,1.817,16.384,16.384,0,1,1-4.18-10.9H44.7a4.544,4.544,0,1,0,0,9.087Z" transform="translate(17.92 9.809)" fill="#ffdfb0"/>
        <path id="Trazado_731129" data-name="Trazado 731129" d="M31.423,13.818a16.248,16.248,0,0,1,10.238,3.635h5.574a16.339,16.339,0,0,0-21.3-2.67,16.321,16.321,0,0,1,5.492-.965Z" transform="translate(21.198 9.809)" fill="#ffcf94"/>
        <path id="Trazado_731130" data-name="Trazado 731130" d="M48.019,23.27H38.132A4.529,4.529,0,0,1,34.511,16H34.5a4.544,4.544,0,0,0,0,9.087h9.887a15.016,15.016,0,0,1,.109,1.817,16.344,16.344,0,0,1-7.23,13.575A16.357,16.357,0,0,0,48.128,25.087a15.014,15.014,0,0,0-.109-1.817Z" transform="translate(24.485 13.079)" fill="#ffcf94"/>
        <path id="Trazado_731131" data-name="Trazado 731131" d="M50.487,15.453a16.346,16.346,0,0,0-28.534,10.9,16.465,16.465,0,0,0,.124,1.7,16.339,16.339,0,0,1,28.411-8.975H58.3l.691-.509a23.605,23.605,0,0,0-2.1-3.126Z" transform="translate(17.946 8.174)" fill="#fc9942"/>
        <path id="Trazado_731132" data-name="Trazado 731132" d="M39.895,23.635h3.742a21.58,21.58,0,0,0,3.348,1.7,23.842,23.842,0,0,0,.287-3.515A21.664,21.664,0,0,1,43.637,20H39.893A15.017,15.017,0,0,1,40,21.817,16.24,16.24,0,0,1,39.895,23.635Z" transform="translate(32.611 16.349)" fill="#fc9942"/>
        <path id="Trazado_731133" data-name="Trazado 731133" d="M36.04,24.087H32.405a1.817,1.817,0,1,1,0-3.635H36.04a1.817,1.817,0,0,1,1.817,1.817h3.635a5.452,5.452,0,0,0-5.452-5.452V15H32.405v1.817a5.452,5.452,0,1,0,0,10.9H36.04a1.817,1.817,0,1,1,0,3.635H32.405a1.817,1.817,0,0,1-1.817-1.817H26.953a5.452,5.452,0,0,0,5.452,5.452V36.81H36.04V34.992a5.452,5.452,0,0,0,0-10.9Z" transform="translate(22.033 12.262)" fill="#ff873c"/>
        <path id="Trazado_731134" data-name="Trazado 731134" d="M77.436,15.54v21.81A68.771,68.771,0,0,1,62.9,39.167a24.717,24.717,0,0,1-9.087-1.817,21.664,21.664,0,0,1-3.635-1.817H36.544a4.544,4.544,0,1,1,0-9.087H50.175l.691-.509,6.579-4.943-10.9-7.27-5.4,2.69a23.227,23.227,0,0,0-3.308-1.418,21.842,21.842,0,0,0-4.089-6.67l.073-.055L44.722,1Z" transform="translate(26.159 0.818)" fill="#ffcdbe"/>
        <path id="Trazado_731135" data-name="Trazado 731135" d="M43.937,1l-10.9,7.27-.073.055a21.445,21.445,0,0,1,1.839,2.4l9.138-6.092,32.714,14.54V15.54Z" transform="translate(26.943 0.818)" fill="#ffd8cf"/>
        <path id="Trazado_731136" data-name="Trazado 731136" d="M53.761,21.044a21.664,21.664,0,0,1-3.635-1.817H36.5A4.544,4.544,0,0,1,32.334,16.5,4.544,4.544,0,0,0,36.5,22.861H50.127a21.664,21.664,0,0,0,3.635,1.817A24.717,24.717,0,0,0,62.849,26.5a68.771,68.771,0,0,0,14.54-1.817V21.044a68.771,68.771,0,0,1-14.54,1.817A24.718,24.718,0,0,1,53.761,21.044Z" transform="translate(26.121 13.488)" fill="#ffbeaa"/>
        <path id="Trazado_731137" data-name="Trazado 731137" d="M37.756,6.255A27.262,27.262,0,0,0,16.744,24.6a14.62,14.62,0,0,0,2.7,3.982,23.612,23.612,0,0,1,21.864-19.1A14.318,14.318,0,0,0,37.756,6.255Z" transform="translate(13.688 5.113)" fill="#fc9942"/>
        <path id="Trazado_731138" data-name="Trazado 731138" d="M28.305,6.463a14.318,14.318,0,0,1,3.553,3.226c.454-.036.891-.055,1.345-.055a23.709,23.709,0,0,1,7.652,1.272A22.031,22.031,0,0,0,38.53,6.529a26.615,26.615,0,0,0-10.225-.065Z" transform="translate(23.138 4.905)" fill="#fa732d"/>
        <path id="Trazado_731139" data-name="Trazado 731139" d="M19.635,24.8a24.21,24.21,0,0,1,.418-4.471,14.62,14.62,0,0,1-2.7-3.982A27.2,27.2,0,0,0,16,24.8c0,.605.051,1.2.091,1.792a21.726,21.726,0,0,0,4,2.824,24.1,24.1,0,0,1-.454-4.616Z" transform="translate(13.079 13.365)" fill="#fa732d"/>
        <path id="Trazado_731140" data-name="Trazado 731140" d="M47.864,34.372,52.031,30.2V51.261h3.635V30.2l4.167,4.167L62.4,31.8l-7.27-7.27-.013.013a1.79,1.79,0,0,0-2.559-.011l-7.27,7.27Z" transform="translate(37.024 19.62)" fill="#19cffc"/>
        <ellipse id="Elipse_4728" data-name="Elipse 4728" cx="13" cy="12.5" rx="13" ry="12.5" transform="translate(65 82.817)" fill="#ffc170"/>
        <ellipse id="Elipse_4729" data-name="Elipse 4729" cx="7.5" cy="6.5" rx="7.5" ry="6.5" transform="translate(71 87.817)" fill="#ffcf94"/>
        <path id="Trazado_731141" data-name="Trazado 731141" d="M43.339,42.542,78.706,34l3.635,12.722H26Z" transform="translate(21.254 27.794)" fill="#1cadb5"/>
        <path id="Trazado_731142" data-name="Trazado 731142" d="M95.7,41V80.984H23V66.444h7.27v3.635A3.646,3.646,0,0,1,33.9,73.714H84.794a3.646,3.646,0,0,1,3.635-3.635V51.9a3.646,3.646,0,0,1-3.635-3.635H33.9A3.646,3.646,0,0,1,30.27,51.9v5.452H23V41Z" transform="translate(18.802 33.516)" fill="#64e1dc"/>
        <g id="Grupo_987178" data-name="Grupo 987178" transform="translate(1.817 74.516)">
          <path id="Trazado_731143" data-name="Trazado 731143" d="M30.27,58.635V55H23V69.54h3.635V62.27A3.635,3.635,0,0,1,30.27,58.635Z" transform="translate(16.984 -29.556)" fill="#00c8c8"/>
          <path id="Trazado_731144" data-name="Trazado 731144" d="M26.635,50.087a5.452,5.452,0,0,1,5.452-5.452H95.7V41H23V57.357h3.635Z" transform="translate(16.984 -41)" fill="#00c8c8"/>
          <path id="Trazado_731145" data-name="Trazado 731145" d="M11.9,67.444v3.635H1V42H11.9V67.444Z" transform="translate(-1 -40.183)" fill="#00c8c8"/>
        </g>
        <path id="Trazado_731146" data-name="Trazado 731146" d="M9.452,67.444v3.635H4V42H9.452V67.444Z" transform="translate(3.27 34.333)" fill="#64e1dc"/>
        <path id="Trazado_731147" data-name="Trazado 731147" d="M36.079,61.444H47.893a4.544,4.544,0,1,1,0,9.087H34.262A25.143,25.143,0,0,1,21.54,74.167,68.771,68.771,0,0,1,7,72.349V50.54L39.714,36l14.54,1.817,4.616,3.09-17.339,4.18H36.079Z" transform="translate(5.722 29.429)" fill="#ffcdbe"/>
        <path id="Trazado_731148" data-name="Trazado 731148" d="M28.452,40.447H26.635A3.635,3.635,0,0,0,23,44.082h5.452L45.791,39.9l-4-2.672Z" transform="translate(18.802 30.434)" fill="#ffbeaa"/>
        <path id="Trazado_731149" data-name="Trazado 731149" d="M51.11,52.9a4.544,4.544,0,0,1-3.217,1.327H34.262A25.143,25.143,0,0,1,21.54,57.861,68.771,68.771,0,0,1,7,56.044v3.635A68.77,68.77,0,0,0,21.54,61.5a25.143,25.143,0,0,0,12.722-3.635H47.893a4.535,4.535,0,0,0,4.16-6.361,4.5,4.5,0,0,1-.943,1.4Z" transform="translate(5.722 42.099)" fill="#ffbeaa"/>
        <path id="Trazado_731150" data-name="Trazado 731150" d="M27,63.175h4.544a4.544,4.544,0,1,0,0-9.087H27V48.635A3.646,3.646,0,0,0,30.635,45H56.079a12.722,12.722,0,0,0,0,25.444H30.635A3.646,3.646,0,0,0,27,66.81Z" transform="translate(22.071 36.786)" fill="#f0f0f0"/>
        <path id="Trazado_731151" data-name="Trazado 731151" d="M72.079,48.635V66.81a3.646,3.646,0,0,0-3.635,3.635H43A12.722,12.722,0,0,0,43,45H68.444A3.646,3.646,0,0,0,72.079,48.635Z" transform="translate(35.151 36.786)" fill="#f0f0f0"/>
        <path id="Trazado_731152" data-name="Trazado 731152" d="M27.087,41V57.357H25.27L18,51.9a15.1,15.1,0,0,1,2.126-6.961C21.453,42.727,23.271,41,25.27,41Z" transform="translate(14.714 33.516)" fill="#faa68e"/>
        <path id="Trazado_731153" data-name="Trazado 731153" d="M16.833,37.89l-4.167,4.167V21H9.03V42.057L4.863,37.89l-2.57,2.57,7.27,7.27.013-.013a1.79,1.79,0,0,0,2.559.011l7.27-7.27Z" transform="translate(1.874 17.167)" fill="#19cffc"/>
        <path id="Trazado_731154" data-name="Trazado 731154" d="M6,17H9.635v3.635H6Z" transform="translate(4.905 13.897)" fill="#19cffc"/>
        <path id="Trazado_731155" data-name="Trazado 731155" d="M47.848,53.783l4.92-4.92-2.57-2.57L46.03,50.46l-4.167-4.167-2.57,2.57,4.92,4.92v1.065H40.578v3.635h3.635V60.3H40.578v3.635h3.635v1.817h3.635V63.935h3.635V60.3H47.848V58.483h3.635V54.848H47.848Z" transform="translate(32.12 37.843)" fill="#ff873c"/>
        <path id="Trazado_731156" data-name="Trazado 731156" d="M105.511,10.9h-10.9a1.817,1.817,0,0,0-1.817,1.817v.838L62.63.156a1.817,1.817,0,0,0-1.747.149L51.156,6.79A23.611,23.611,0,1,0,22.6,43.959a25.428,25.428,0,0,0,50.071-3.291,25.635,25.635,0,0,0,7.4,1.134,67.755,67.755,0,0,0,12.722-1.378V41.8a1.817,1.817,0,0,0,1.817,1.817h10.9a1.817,1.817,0,0,0,1.817-1.817V12.722a1.817,1.817,0,0,0-1.817-1.817ZM14.638,23.627A19.992,19.992,0,0,1,51.609,13.095a25.455,25.455,0,0,0-4.256-.373c-.182,0-.363.024-.545.027A16.135,16.135,0,0,0,34.63,7.27a16.334,16.334,0,0,0-12.391,27,25.263,25.263,0,0,0-.331,3.895c0,.3.035.583.044.878a19.965,19.965,0,0,1-7.313-15.418ZM42.031,13.291A25.513,25.513,0,0,0,23.416,29.625,12.709,12.709,0,0,1,42.031,13.291Zm5.322,46.685A21.81,21.81,0,1,1,65.038,25.445H60.283a18.14,18.14,0,1,0,5.243,12.722h1.3A25.135,25.135,0,0,0,69.1,39.334a21.809,21.809,0,0,1-21.75,20.643Zm.093-27.262a6.334,6.334,0,0,0,1.845,3.648c-.04,0-.078-.013-.12-.013H45.535a1.817,1.817,0,1,1,0-3.635Zm1.725-5.347v-.105H45.535v1.817a5.452,5.452,0,0,0,0,10.9H49.17a1.817,1.817,0,1,1,0,3.635H45.535A1.817,1.817,0,0,1,43.717,41.8H40.082a5.452,5.452,0,0,0,5.452,5.452v1.817H49.17V47.254a5.432,5.432,0,0,0,3.987-9.144c.182.016.363.056.556.056h8.179a14.587,14.587,0,1,1-7.535-12.722h-.643a6.334,6.334,0,0,0-4.544,1.923Zm30.9,10.8a23.549,23.549,0,0,1-11.714-3.33,1.828,1.828,0,0,0-1.009-.305H53.713a2.726,2.726,0,0,1,0-5.452H67.344a1.817,1.817,0,0,0,1.09-.363l7.27-5.452-2.181-2.908L68.536,24.1a25.414,25.414,0,0,0-12.168-9.709,23.37,23.37,0,0,0-2.793-4.84l8.5-5.661L92.789,17.539V36.713a65.7,65.7,0,0,1-12.722,1.454Zm23.627,1.817h-7.27V14.54h7.27Z" transform="translate(8.989 0)"/>
        <path id="Trazado_731157" data-name="Trazado 731157" d="M59,19h3.635v3.635H59Z" transform="translate(48.23 15.532)"/>
        <path id="Trazado_731158" data-name="Trazado 731158" d="M3,54H6.635v3.635H3Z" transform="translate(2.452 44.143)"/>
        <path id="Trazado_731159" data-name="Trazado 731159" d="M114.5,53.083h-9.534l-3.259-11.4a1.8,1.8,0,0,0-2.181-1.272L92.69,42.063V30.208l4.167,4.167,2.57-2.57-7.27-7.27-.013.013a1.77,1.77,0,0,0-2.559-.011l-7.27,7.27,2.57,2.57,4.169-4.169V42.941L64.947,48.757l-3.962-2.643a1.817,1.817,0,0,0-.783-.291l-14.54-1.817a1.841,1.841,0,0,0-.963.142L14.54,57.555v-.838A1.817,1.817,0,0,0,12.722,54.9H1.817A1.817,1.817,0,0,0,0,56.717V85.8a1.817,1.817,0,0,0,1.817,1.817h10.9A1.817,1.817,0,0,0,14.54,85.8V84.419A67.755,67.755,0,0,0,27.262,85.8a27,27,0,0,0,12.722-3.344V94.884A1.817,1.817,0,0,0,41.8,96.7h72.7a1.817,1.817,0,0,0,1.817-1.817V54.9a1.817,1.817,0,0,0-1.817-1.817ZM98.688,44.359l2.5,8.724H62.521l1.725-.416.167.111.122-.182,28.112-6.783h.044V45.8ZM10.9,83.979H3.635V58.535H10.9Zm16.357-1.817A65.821,65.821,0,0,1,14.54,80.708V61.534L45.713,47.677l13.613,1.7.811.545-13.1,3.157H41.8A1.817,1.817,0,0,0,39.984,54.9V68.985L33.8,64.351l-2.181,2.908,7.27,5.452a1.817,1.817,0,0,0,1.09.363H53.615a2.726,2.726,0,0,1,0,5.452H39.984a1.834,1.834,0,0,0-1.005.3,23.558,23.558,0,0,1-11.717,3.331Zm39.984-7.27a10.9,10.9,0,0,1,6.179-9.814l-2.008,2.008,4.916,4.924v1.065H72.7V76.71h3.635v1.817H72.7v3.635h3.635v1.817h3.635V82.162H83.6V78.527H79.968V76.71H83.6V73.075H79.968V72.01l4.92-4.92-2.012-2.012a10.9,10.9,0,1,1-15.63,9.814Zm25.444,0a14.5,14.5,0,0,0-4.954-10.9h14.358a5.481,5.481,0,0,0,3.319,3.324V82.473a5.482,5.482,0,0,0-3.324,3.324H87.731a14.5,14.5,0,0,0,4.96-10.9ZM82.1,64.738l-3.949,3.949L74.2,64.738a10.765,10.765,0,0,1,7.9,0ZM63.611,74.892a14.5,14.5,0,0,0,4.954,10.9H54.208a5.481,5.481,0,0,0-3.319-3.324v-.311h2.726a6.361,6.361,0,1,0,0-12.722H50.889V67.311a5.481,5.481,0,0,0,3.324-3.324H68.571a14.5,14.5,0,0,0-4.96,10.9Zm49.071,18.175H43.619v-10.9h3.635v1.817A1.817,1.817,0,0,0,49.071,85.8a1.817,1.817,0,0,1,1.817,1.817,1.817,1.817,0,0,0,1.817,1.817H103.6a1.817,1.817,0,0,0,1.817-1.817A1.817,1.817,0,0,1,107.23,85.8a1.817,1.817,0,0,0,1.817-1.817V65.8a1.817,1.817,0,0,0-1.817-1.817,1.817,1.817,0,0,1-1.817-1.817,1.817,1.817,0,0,0-1.817-1.817H52.706a1.817,1.817,0,0,0-1.817,1.817,1.817,1.817,0,0,1-1.817,1.817A1.817,1.817,0,0,0,47.254,65.8V69.44H43.619V56.717h69.063Z" transform="translate(0 19.616)"/>
        <path id="Trazado_731160" data-name="Trazado 731160" d="M9.576,47.717a1.79,1.79,0,0,0,2.559.011l7.27-7.27-2.57-2.57-4.169,4.169V21H9.03V42.057L4.863,37.89l-2.57,2.57,7.27,7.27Z" transform="translate(1.874 17.167)"/>
        <path id="Trazado_731161" data-name="Trazado 731161" d="M6,17H9.635v3.635H6Z" transform="translate(4.905 13.897)"/>
      </g>
    </g>
  </g>
</svg>
