<svg xmlns="http://www.w3.org/2000/svg" width="505" height="344" viewBox="0 0 505 344">
  <g id="Grupo_987222" data-name="Grupo 987222" transform="translate(-180 -2928)">
    <g id="Grupo_987220" data-name="Grupo 987220" transform="translate(0 -14.959)">
      <rect id="Rectángulo_344919" data-name="Rectángulo 344919" width="252" height="154" rx="24" transform="translate(180 2954.959)" fill="#ff6e33"/>
      <rect id="AdobeStock_31320034" width="474" height="344" rx="165" transform="translate(211 2942.959)" fill="#dee9f0"/>
    </g>
    <g id="Grupo_987219" data-name="Grupo 987219" transform="translate(58 1672.041)">
      <g id="Grupo_987217" data-name="Grupo 987217" transform="translate(218 1256)">
        <g id="Grupo_987221" data-name="Grupo 987221">
          <path id="Trazado_731276" data-name="Trazado 731276" d="M331.905,116.718l2.308-.346a12.79,12.79,0,0,0,.306-3.089l-2.2-.784a10.617,10.617,0,0,0-.227-1.366l1.825-1.451a13.125,13.125,0,0,0-1.285-2.828l-2.3.421a10.888,10.888,0,0,0-.877-1.072l.855-2.169a12.875,12.875,0,0,0-2.528-1.8l-1.777,1.511c-.309-.139-.626-.266-.954-.377-.113-.039-.227-.073-.339-.108l-.346-2.308a12.873,12.873,0,0,0-3.09-.306l-.784,2.2a10.542,10.542,0,0,0-1.366.227l-1.451-1.825a12.951,12.951,0,0,0-2.828,1.285l.421,2.3a11.049,11.049,0,0,0-1.07.876l-2.169-.854a12.837,12.837,0,0,0-1.806,2.528l1.511,1.775c-.139.31-.266.627-.377.955-.038.112-.072.226-.106.34l-2.309.344a12.876,12.876,0,0,0-.306,3.089l2.2.784a10.789,10.789,0,0,0,.227,1.365l-1.825,1.452a12.871,12.871,0,0,0,1.286,2.828l2.294-.421a10.367,10.367,0,0,0,.876,1.07l-.855,2.17a12.878,12.878,0,0,0,2.527,1.8l1.777-1.511c.309.139.627.267.955.378.112.039.227.072.339.105l.345,2.311a12.917,12.917,0,0,0,3.09.306l.785-2.2a10.772,10.772,0,0,0,1.364-.227l1.452,1.824a13.009,13.009,0,0,0,2.828-1.285l-.421-2.294a10.9,10.9,0,0,0,1.071-.878l2.168.856a12.859,12.859,0,0,0,1.805-2.528l-1.51-1.776c.139-.31.267-.627.379-.955.038-.112.07-.226.105-.339m-2.034-.318a8.757,8.757,0,1,1-6-11.271,8.757,8.757,0,0,1,6,11.271" transform="translate(-57.073 -18.61)" fill="#effefe"/>
          <path id="Trazado_731277" data-name="Trazado 731277" d="M371.452,179.25l3.261-.488a18.13,18.13,0,0,0,.43-4.363l-3.107-1.107a14.957,14.957,0,0,0-.321-1.929l2.578-2.048a18.46,18.46,0,0,0-1.814-3.993l-3.241.593A15.238,15.238,0,0,0,368,164.4l1.208-3.063a18.106,18.106,0,0,0-3.57-2.549l-2.508,2.133c-.437-.2-.886-.375-1.348-.531-.161-.055-.321-.1-.48-.152l-.487-3.26a18.147,18.147,0,0,0-4.364-.433l-1.109,3.109a14.835,14.835,0,0,0-1.928.321l-2.049-2.578a18.351,18.351,0,0,0-3.994,1.814l.6,3.242a15.006,15.006,0,0,0-1.512,1.237l-3.065-1.207a18.1,18.1,0,0,0-2.549,3.571l2.134,2.507c-.2.437-.375.885-.533,1.348-.055.161-.1.32-.15.481l-3.261.486a18.211,18.211,0,0,0-.431,4.363l3.108,1.107a15.276,15.276,0,0,0,.32,1.928l-2.577,2.049a18.34,18.34,0,0,0,1.815,3.995l3.241-.593a15.011,15.011,0,0,0,1.239,1.511l-1.208,3.065a18.175,18.175,0,0,0,3.569,2.548l2.508-2.134c.437.2.887.377,1.35.534.159.055.319.1.479.149l.487,3.263a18.218,18.218,0,0,0,4.364.431l1.108-3.109a14.961,14.961,0,0,0,1.927-.32l2.05,2.576a18.342,18.342,0,0,0,3.993-1.814l-.593-3.24a15.448,15.448,0,0,0,1.512-1.24l3.062,1.208a18.094,18.094,0,0,0,2.55-3.571l-2.133-2.507c.2-.438.376-.886.534-1.349.054-.159.1-.32.149-.479m-2.872-.449a12.367,12.367,0,1,1-8.474-15.917A12.366,12.366,0,0,1,368.58,178.8" transform="translate(-62.612 -28.948)" fill="#fad1d9"/>
          <path id="Trazado_731278" data-name="Trazado 731278" d="M94.465,190.815l6.224-.932a34.566,34.566,0,0,0,.823-8.329L95.58,179.44a28.388,28.388,0,0,0-.612-3.683l4.921-3.909a35.151,35.151,0,0,0-3.465-7.623l-6.186,1.133a29.2,29.2,0,0,0-2.366-2.888l2.306-5.847a34.614,34.614,0,0,0-6.815-4.865l-4.788,4.072c-.834-.374-1.69-.716-2.573-1.015-.306-.105-.613-.195-.917-.289l-.929-6.223a34.638,34.638,0,0,0-8.329-.827l-2.117,5.935a28.554,28.554,0,0,0-3.68.612L56.117,149.1a35.019,35.019,0,0,0-7.624,3.464l1.136,6.19a28.8,28.8,0,0,0-2.886,2.361l-5.85-2.3a34.571,34.571,0,0,0-4.866,6.817l4.075,4.787c-.377.834-.717,1.69-1.018,2.574-.1.3-.194.61-.287.916l-6.225.929a34.679,34.679,0,0,0-.823,8.328l5.933,2.114a29.014,29.014,0,0,0,.611,3.681l-4.92,3.912a34.98,34.98,0,0,0,3.465,7.626l6.186-1.134a28.757,28.757,0,0,0,2.365,2.885l-2.306,5.85a34.772,34.772,0,0,0,6.813,4.865l4.788-4.074c.835.374,1.693.718,2.578,1.018.3.105.61.193.915.284l.928,6.229a34.791,34.791,0,0,0,8.33.824l2.116-5.935a28.77,28.77,0,0,0,3.679-.612l3.913,4.919a35.075,35.075,0,0,0,7.623-3.463l-1.133-6.186A29.7,29.7,0,0,0,86.52,203.6l5.846,2.306a34.585,34.585,0,0,0,4.867-6.817L93.161,194.3c.372-.836.717-1.692,1.019-2.576.1-.3.192-.609.285-.915m-5.484-.857A23.608,23.608,0,1,1,72.8,159.573a23.607,23.607,0,0,1,16.178,30.385" transform="translate(-5.869 -27.269)" fill="#fff"/>
          <path id="Trazado_731279" data-name="Trazado 731279" d="M144.774,78.586l1.784-.267a9.931,9.931,0,0,0,.236-2.387l-1.7-.606a8.312,8.312,0,0,0-.175-1.056l1.41-1.12a10.066,10.066,0,0,0-.993-2.185l-1.773.324a8.524,8.524,0,0,0-.678-.827l.661-1.676a9.953,9.953,0,0,0-1.954-1.395l-1.372,1.167q-.358-.161-.738-.291c-.088-.03-.175-.055-.262-.082l-.267-1.783a9.933,9.933,0,0,0-2.387-.237l-.606,1.7a8.323,8.323,0,0,0-1.055.175l-1.121-1.41a10.028,10.028,0,0,0-2.185.993l.325,1.774a8.284,8.284,0,0,0-.827.677l-1.676-.661a9.9,9.9,0,0,0-1.395,1.954l1.167,1.372q-.161.359-.292.738c-.029.088-.055.175-.082.263l-1.783.266a9.926,9.926,0,0,0-.236,2.387l1.7.606a8.468,8.468,0,0,0,.175,1.055l-1.41,1.121a10.036,10.036,0,0,0,.994,2.186l1.773-.325a8.308,8.308,0,0,0,.677.827l-.66,1.677A9.973,9.973,0,0,0,132,84.933l1.373-1.167c.239.107.485.205.738.292.087.03.175.055.262.082l.266,1.785a9.976,9.976,0,0,0,2.387.236l.606-1.7a8.3,8.3,0,0,0,1.055-.175l1.122,1.409a10,10,0,0,0,2.184-.993l-.324-1.772a8.636,8.636,0,0,0,.826-.678l1.676.66a9.89,9.89,0,0,0,1.395-1.953L144.4,79.587c.108-.24.206-.485.293-.738.029-.087.055-.174.082-.262M143.2,78.34a6.766,6.766,0,1,1-4.636-8.708A6.765,6.765,0,0,1,143.2,78.34" transform="translate(-23.447 -12.235)" fill="#9999dc"/>
          <path id="Trazado_731280" data-name="Trazado 731280" d="M170.213,46.691A31.108,31.108,0,0,1,182.89,21.636l-9.378-9.589a44.4,44.4,0,0,0-9.69,58.467l11.04-7.478a30.943,30.943,0,0,1-4.649-16.344" transform="translate(-29.011 -2.228)" fill="#0ce6ea"/>
          <path id="Trazado_731281" data-name="Trazado 731281" d="M205.122,13.327c.072,0,.143,0,.214.006V0l-.214,0a44.252,44.252,0,0,0-27.837,9.819l9.378,9.589a30.966,30.966,0,0,1,18.459-6.081" transform="translate(-32.783)" fill="#1448d3"/>
          <path id="Trazado_731282" data-name="Trazado 731282" d="M255.949,44.464A44.514,44.514,0,0,0,211.7,0V13.334a31.129,31.129,0,0,1,13.058,59.289l6.68,11.569a44.512,44.512,0,0,0,24.512-39.728" transform="translate(-39.147 -0.001)" fill="#fff"/>
          <path id="Trazado_731283" data-name="Trazado 731283" d="M202.923,89.4A31.142,31.142,0,0,1,176.436,74.6L165.4,82.081a44.423,44.423,0,0,0,57.479,15.906L216.2,86.417A30.937,30.937,0,0,1,202.923,89.4" transform="translate(-30.585 -13.795)" fill="#9b1f36"/>
          <path id="Trazado_731284" data-name="Trazado 731284" d="M136.94,4.129a20.963,20.963,0,0,0-16.919,33.346L136.94,25.1Z" transform="translate(-21.446 -0.764)" fill="#fff"/>
          <path id="Trazado_731285" data-name="Trazado 731285" d="M141.7,4.129V25.1l16.919,12.379A20.963,20.963,0,0,0,141.7,4.129" transform="translate(-26.202 -0.764)" fill="#1448d3"/>
          <path id="Trazado_731286" data-name="Trazado 731286" d="M120.941,42.231a20.961,20.961,0,0,0,33.837,0L137.86,29.852Z" transform="translate(-22.364 -5.52)" fill="#9b1f36"/>
          <path id="Trazado_731287" data-name="Trazado 731287" d="M302.1,75.7H269.812a9,9,0,0,1-9-9V44.5a9,9,0,0,1,9-9H302.1a9,9,0,0,1,9,9V66.7a9,9,0,0,1-9,9" transform="translate(-48.229 -6.566)" fill="#1448d3"/>
          <path id="Trazado_731288" data-name="Trazado 731288" d="M271.216,72.607h-2.793a1.933,1.933,0,0,1-1.933-1.933V48.866a1.933,1.933,0,0,1,1.933-1.933h2.793a1.933,1.933,0,0,1,1.933,1.933V70.674a1.933,1.933,0,0,1-1.933,1.933" transform="translate(-49.279 -8.679)" fill="#cecef4"/>
          <path id="Trazado_731289" data-name="Trazado 731289" d="M281.753,74.037h-2.793a1.933,1.933,0,0,1-1.933-1.933V56.6a1.934,1.934,0,0,1,1.933-1.934h2.793a1.934,1.934,0,0,1,1.933,1.934V72.1a1.933,1.933,0,0,1-1.933,1.933" transform="translate(-51.227 -10.109)" fill="#cecef4"/>
          <path id="Trazado_731290" data-name="Trazado 731290" d="M292.291,76.077H289.5a1.933,1.933,0,0,1-1.933-1.933V67.629A1.933,1.933,0,0,1,289.5,65.7h2.793a1.933,1.933,0,0,1,1.933,1.933v6.514a1.933,1.933,0,0,1-1.933,1.933" transform="translate(-53.176 -12.148)" fill="#cecef4"/>
          <path id="Trazado_731291" data-name="Trazado 731291" d="M302.828,75.456h-2.793a1.933,1.933,0,0,1-1.933-1.933V64.275a1.934,1.934,0,0,1,1.933-1.934h2.793a1.934,1.934,0,0,1,1.933,1.934v9.248a1.933,1.933,0,0,1-1.933,1.933" transform="translate(-55.124 -11.528)" fill="#cecef4"/>
          <path id="Trazado_731292" data-name="Trazado 731292" d="M313.365,74.205h-2.793a1.933,1.933,0,0,1-1.933-1.933V57.508a1.933,1.933,0,0,1,1.933-1.933h2.793a1.933,1.933,0,0,1,1.933,1.933V72.272a1.933,1.933,0,0,1-1.933,1.933" transform="translate(-57.073 -10.277)" fill="#cecef4"/>
          <path id="Trazado_731293" data-name="Trazado 731293" d="M273.945,15.952a3.781,3.781,0,0,1-3.78,3.783H252.239a3.78,3.78,0,0,1-3.778-3.783v-.218a3.779,3.779,0,0,1,3.778-3.78h17.925a3.78,3.78,0,0,1,3.78,3.78Z" transform="translate(-45.945 -2.21)" fill="#ff6e33"/>
          <path id="Trazado_731294" data-name="Trazado 731294" d="M257.584,16.418a1.459,1.459,0,1,1-1.459-1.459,1.459,1.459,0,0,1,1.459,1.459" transform="translate(-47.093 -2.766)" fill="#fff"/>
          <path id="Trazado_731295" data-name="Trazado 731295" d="M265.221,16.418a1.459,1.459,0,1,1-1.458-1.459,1.459,1.459,0,0,1,1.458,1.459" transform="translate(-48.505 -2.766)" fill="#fff"/>
          <path id="Trazado_731296" data-name="Trazado 731296" d="M272.858,16.418a1.459,1.459,0,1,1-1.459-1.459,1.459,1.459,0,0,1,1.459,1.459" transform="translate(-49.917 -2.766)" fill="#fff"/>
          <path id="Trazado_731297" data-name="Trazado 731297" d="M25.484,142.865a3.781,3.781,0,0,1-3.78,3.782H3.778A3.78,3.78,0,0,1,0,142.865v-.219a3.779,3.779,0,0,1,3.778-3.78H21.7a3.78,3.78,0,0,1,3.78,3.78Z" transform="translate(0 -25.679)" fill="#2f2fa7"/>
          <path id="Trazado_731298" data-name="Trazado 731298" d="M9.124,143.33a1.459,1.459,0,1,1-1.459-1.458,1.459,1.459,0,0,1,1.459,1.458" transform="translate(-1.148 -26.235)" fill="#fff"/>
          <path id="Trazado_731299" data-name="Trazado 731299" d="M16.761,143.33a1.459,1.459,0,1,1-1.458-1.458,1.459,1.459,0,0,1,1.458,1.458" transform="translate(-2.56 -26.235)" fill="#fff"/>
          <path id="Trazado_731300" data-name="Trazado 731300" d="M24.4,143.33a1.459,1.459,0,1,1-1.459-1.458A1.459,1.459,0,0,1,24.4,143.33" transform="translate(-3.972 -26.235)" fill="#fff"/>
          <path id="Trazado_731301" data-name="Trazado 731301" d="M64.566,48.9H91.332a10.4,10.4,0,0,1,10.4,10.405v6.925a10.405,10.405,0,0,1-10.4,10.406h-.759l9.838,13.477L77.325,76.638H64.566a10.407,10.407,0,0,1-10.4-10.406V59.308A10.4,10.4,0,0,1,64.566,48.9" transform="translate(-10.016 -9.043)" fill="#1448d3"/>
          <path id="Trazado_731302" data-name="Trazado 731302" d="M93.968,62.011H64.881a1.4,1.4,0,1,1,0-2.795H93.969a1.4,1.4,0,0,1,0,2.795" transform="translate(-11.739 -10.95)" fill="#cecef4"/>
          <path id="Trazado_731303" data-name="Trazado 731303" d="M93.969,70H64.881a1.4,1.4,0,1,1,0-2.794H93.968a1.4,1.4,0,1,1,0,2.795" transform="translate(-11.739 -12.427)" fill="#cecef4"/>
          <path id="Trazado_731304" data-name="Trazado 731304" d="M27.929,122.075H64.61a5.25,5.25,0,0,0,5.25-5.25V102.943a5.25,5.25,0,0,0-5.25-5.25H27.929a5.25,5.25,0,0,0-5.25,5.25v13.882a5.25,5.25,0,0,0,5.25,5.25" transform="translate(-4.194 -18.065)" fill="#ff6e33" fill-rule="evenodd"/>
          <path id="Trazado_731305" data-name="Trazado 731305" d="M64.438,106.058a3.713,3.713,0,0,1,1.953-1.967,3.616,3.616,0,0,1,2.846,0,3.71,3.71,0,0,1,1.167.795,3.751,3.751,0,0,1,.787,1.172,3.619,3.619,0,0,1,0,2.824,3.777,3.777,0,0,1-.787,1.167,3.71,3.71,0,0,1-1.167.795,3.616,3.616,0,0,1-2.846,0,3.692,3.692,0,0,1-1.167-.795,3.746,3.746,0,0,1-.786-1.167,3.6,3.6,0,0,1,0-2.824m3.771,11.8L58.438,105.3a.894.894,0,0,1-.187-.566.881.881,0,0,1,.076-.368.96.96,0,0,1,.2-.3.97.97,0,0,1,.3-.2.88.88,0,0,1,.368-.077.969.969,0,0,1,.753.377l9.673,12.419a.922.922,0,0,1,.224.638.9.9,0,0,1-.073.359.946.946,0,0,1-.2.3.875.875,0,0,1-.3.2.941.941,0,0,1-.369.073.9.9,0,0,1-.7-.3M67.123,105.82a1.8,1.8,0,0,0-.566.39,1.89,1.89,0,0,0-.386.575,1.705,1.705,0,0,0-.143.687,1.746,1.746,0,0,0,.139.692,1.786,1.786,0,0,0,.381.565,1.852,1.852,0,0,0,.571.386,1.708,1.708,0,0,0,.7.143,1.732,1.732,0,0,0,.706-.143,1.792,1.792,0,0,0,.566-.386,1.845,1.845,0,0,0,.377-.565,1.785,1.785,0,0,0,0-1.379,1.834,1.834,0,0,0-.381-.575,1.809,1.809,0,0,0-.566-.39,1.7,1.7,0,0,0-.7-.144,1.677,1.677,0,0,0-.69.144m-3.417,10.093a3.757,3.757,0,0,1-1.953,1.954,3.506,3.506,0,0,1-1.421.292,3.546,3.546,0,0,1-1.413-.288,3.708,3.708,0,0,1-1.168-.786,3.8,3.8,0,0,1-.79-1.163,3.66,3.66,0,0,1,0-2.86,3.687,3.687,0,0,1,.795-1.163,3.807,3.807,0,0,1,1.168-.781,3.618,3.618,0,0,1,2.837,0,3.784,3.784,0,0,1,1.163.791,3.685,3.685,0,0,1,.786,1.167,3.608,3.608,0,0,1,0,2.833m-4.068-3.062a1.853,1.853,0,0,0-.57.386,1.833,1.833,0,0,0-.387.566,1.739,1.739,0,0,0,0,1.383,1.844,1.844,0,0,0,.957.952,1.72,1.72,0,0,0,.694.143,1.769,1.769,0,0,0,.7-.139,1.764,1.764,0,0,0,.951-.952,1.816,1.816,0,0,0,0-1.391,1.763,1.763,0,0,0-.951-.952,1.768,1.768,0,0,0-.7-.139,1.72,1.72,0,0,0-.694.143" transform="translate(-10.479 -19.193)" fill="#fff"/>
          <path id="Trazado_731306" data-name="Trazado 731306" d="M29.828,106.29h17.48a.879.879,0,1,0,0-1.757H29.828a.879.879,0,1,0,0,1.757" transform="translate(-5.353 -19.33)" fill="#fff"/>
          <path id="Trazado_731307" data-name="Trazado 731307" d="M29.828,113.478h17.48a.879.879,0,1,0,0-1.758H29.828a.879.879,0,1,0,0,1.758" transform="translate(-5.353 -20.659)" fill="#fff"/>
          <path id="Trazado_731308" data-name="Trazado 731308" d="M29.828,120.667h17.48a.879.879,0,1,0,0-1.757H29.828a.879.879,0,1,0,0,1.757" transform="translate(-5.353 -21.989)" fill="#fff"/>
          <path id="Trazado_731309" data-name="Trazado 731309" d="M222.331,260.893a2.739,2.739,0,0,0,1.89.785,4.321,4.321,0,0,0-.146,3.957c.213.423.6.653.768,1.021a4.839,4.839,0,0,1-1.828,1.214c-.5.269-1.724.82-1.688,1.354.048.7,1.243.818,1.728.77a5.5,5.5,0,0,0,2.832-1.25c.174-.124.487-.416.624-.239.172.219-.488.666-.826.9s-.748.515-1.141.737c-.621.351-2.165.873-1.968,1.635.15.578,1.372.6,1.9.51a7.2,7.2,0,0,0,3.045-1.574c.26-.209.714-.679.839-.563.223.209-1.134,1.344-2.074,1.937-.484.306-2.44,1.131-2.268,1.809.086.337.716.518,1.166.492a7.117,7.117,0,0,0,3.885-1.858c.412-.372,1.068-1.291,1.279-1.158.251.159-.526,2.065-1.079,2.969-.224.366-.532.734-.869,1.243-.239.36-.787,1.007-.469,1.554.2.349,1.072.2,1.347.006,2.967-2.1,4.347-5.892,3.662-10.395a22.554,22.554,0,0,0-3.493-8.6q-.209-.339-.419-.669Z" transform="translate(-40.927 -47.612)" fill="#bb8774" fill-rule="evenodd"/>
          <path id="Trazado_731310" data-name="Trazado 731310" d="M222.127,270.874c-.391-.124-.8-.224-.853-.633-.082-.61,1-1.036,1.677-1.408a6.168,6.168,0,0,0,1.818-1.267,6.2,6.2,0,0,1-.519-.624,4.234,4.234,0,0,1-.037-4.311,10.3,10.3,0,0,0,.042,2.4,7.1,7.1,0,0,0,1.4,2.744c-.781.372-3.694,1.481-3.527,3.1" transform="translate(-40.917 -48.565)" fill="#935e45" fill-rule="evenodd"/>
          <path id="Trazado_731311" data-name="Trazado 731311" d="M231.087,280.37c-.815.743-2.11.885-1.84-.445a6.072,6.072,0,0,1,1.072-1.621,11.693,11.693,0,0,0,1.137-1.955,5.844,5.844,0,0,1-.845,2.008c-.464.835-1.254,2.309.476,2.013" transform="translate(-42.385 -51.102)" fill="#935e45" fill-rule="evenodd"/>
          <path id="Trazado_731312" data-name="Trazado 731312" d="M225.511,277.01c-.051.286.109.379.35.445-.776.106-1.624-.3-1.28-.873a4.594,4.594,0,0,1,1.732-1.138,12.809,12.809,0,0,0,1.952-1.324c-.6.822-2.541,1.677-2.755,2.89" transform="translate(-41.515 -50.69)" fill="#935e45" fill-rule="evenodd"/>
          <path id="Trazado_731313" data-name="Trazado 731313" d="M223.744,274.848c-.242-.008-.942-.151-.928-.632.02-.638,1.121-1.154,1.884-1.556a7.49,7.49,0,0,0,2.056-1.372c-.08.738-2.55,1.743-3.182,3a.414.414,0,0,0,.17.555" transform="translate(-41.203 -50.166)" fill="#935e45" fill-rule="evenodd"/>
          <path id="Trazado_731314" data-name="Trazado 731314" d="M219.431,162.889a59.239,59.239,0,0,1,4.978-5.865,12.216,12.216,0,0,1,5.668-3.376,56.613,56.613,0,0,1,8.253-1.547c4.291-.514,8.606-.732,12.919-.962.809-.042,1.621-.044,2.431-.044q20.263,0,40.526.022c1.551,0,3.1.153,4.654.165,2.871.021,5.735-.286,8.6-.147a1.268,1.268,0,0,0,1.347-.947c1.6-3.616,3-7.309,4.445-10.986,2.556-6.505,5.136-13,7.916-19.415.406-.937.527-1.019,1.537-.892,2.645.333,5.288.686,7.932,1.032.1.013.2.036.3.055.925.187.989.262.827,1.23-.753,4.494-1.537,8.983-2.269,13.48a162.555,162.555,0,0,1-4.1,18.581,37.577,37.577,0,0,1-2.839,7.463,12.418,12.418,0,0,1-8.417,6.437,63.1,63.1,0,0,1-7.7,1.213c-4.493.522-9.011.741-13.521,1.065-5.222.376-10.444.611-15.68.549-.169,0-.338,0-.507,0-.5-.022-.755.2-.76.712-.015,1.624-.256,3.229-.431,4.839-.514,4.729-.887,9.473-1.549,14.188a56.55,56.55,0,0,0-.341,12.628c.149,1.782.237,3.568.462,5.344a.814.814,0,0,1-.053.6c-.294.11-.355-.14-.4-.308-.16-.62-.312-1.245-.418-1.876-.071-.425-.255-.558-.682-.514-1.342.139-2.685.269-4.036.325-1.448.06-2.892.253-4.34.3-2.362.077-4.723.2-7.082.3-6.72.28-13.437.149-20.157.1-1.146-.008-2.293-.094-3.437-.172-.8-.055-1.012-.262-.989-1.082.027-.909.118-1.819.23-2.722a65.785,65.785,0,0,0,.379-9.707,51.219,51.219,0,0,0-.972-7.524c-.42-2.428-.848-4.854-1.115-7.306-.043-.394-.13-.782-.2-1.166-.382.015-10.34,15.453-15.787,22.563-1,1.307-1.073.9-.156,2.53a90.42,90.42,0,0,1,6.374,13.549c1.759,4.859,3.489,9.725,4.971,14.676.409,1.368.388,1.36-.9,1.933-2.376,1.057-4.714,2.2-7,3.433-.981.531-1.013.518-1.619-.384-4.123-6.144-7.988-12.446-11.525-18.947a58.5,58.5,0,0,1-4.438-9.981,29.758,29.758,0,0,1-.9-3.532,14.472,14.472,0,0,1,1.09-8.217,70.075,70.075,0,0,1,3.629-7.242q3.828-7.085,7.911-14.028c1.393-2.356,6.72-10.14,6.93-10.423" transform="translate(-36.921 -21.977)" fill="#cecef4"/>
          <path id="Trazado_731315" data-name="Trazado 731315" d="M337.632,158.248a1.982,1.982,0,0,0,.4-.031.381.381,0,0,0,.236-.156c.072-.14-.025-.254-.139-.333a2.052,2.052,0,0,0-.428-.263c-1.3-.478-2.6-.958-3.91-1.413-.146.338-.285.679-.434,1.016-.223.5-.48.823-.945.917l-.021.039a36.785,36.785,0,0,0,5.241.223" transform="translate(-61.465 -28.857)" fill="#a4a4e4"/>
          <path id="Trazado_731316" data-name="Trazado 731316" d="M340.733,157.885a20.3,20.3,0,0,1-7.4,7.742,27.46,27.46,0,0,1-7.056,2.457c-3.349.815-6.754,1.324-10.16,1.832-3.138.468-6.274.985-9.44,1.168-3.2.186-6.41.2-9.615.307-.978.031-1.955.092-2.931.16-.657.046-.79.152-.8.787-.011,1-.017,2-.008,3,.077-.34.321-.488.731-.47.169.007.338,0,.507,0,5.235.062,10.457-.174,15.68-.549,4.51-.324,9.027-.543,13.521-1.065a63.105,63.105,0,0,0,7.7-1.213,12.418,12.418,0,0,0,8.417-6.437,37.63,37.63,0,0,0,2.839-7.463c1.223-4.279,2.24-8.6,3.092-12.963-.427,1.293-.85,2.587-1.3,3.872a48,48,0,0,1-3.777,8.831" transform="translate(-54.241 -26.847)" fill="#a4a4e4"/>
          <path id="Trazado_731317" data-name="Trazado 731317" d="M232.778,181.121c-.3.091-.39.367-.527.588q-2.411,3.867-4.812,7.74c-2.087,3.353-4.154,6.72-6.416,9.959-2.8,4.014-5.5,8.1-8,12.3a1.622,1.622,0,0,0,.036,1.931c2.782,4.512,5.45,9.093,7.834,13.829,2.643,5.247,4.958,10.646,7.178,16.085,0,.01.007.02.011.029.976-.443.964-.548.591-1.794-1.482-4.951-3.212-9.817-4.97-14.676a90.3,90.3,0,0,0-6.375-13.548c-.915-1.627-.844-1.223.156-2.531,5.447-7.11,15.405-22.547,15.787-22.563.012.068.026.139.038.207-.164-2.29-.2-4.585-.247-6.879,0-.247.058-.555-.28-.681" transform="translate(-39.335 -33.493)" fill="#a4a4e4"/>
          <path id="Trazado_731318" data-name="Trazado 731318" d="M272.633,169.893c.39,2.325.173,20.486.13,26.534-.024,3.31.21,6.611.232,9.919,0,.462.007.926-.02,1.386a1.549,1.549,0,0,1-.523,1.117c-.24.207-.519.4-.83.255-.28-.13-.283-.464-.293-.747-.026-.712-.053-1.423-.051-2.134.007-3.167-.035-6.335.052-9.5.119-4.335.355-8.667.508-13,.069-1.99.143-3.979.232-5.969.117-2.624.293-5.243.563-7.863" transform="translate(-50.163 -31.416)" fill="#a4a4e4"/>
          <path id="Trazado_731319" data-name="Trazado 731319" d="M277.818,143.372l-2.533,8.618a29.616,29.616,0,0,1-13.847-1.2c.854-2.977,1.977-5.46,2.259-8.95.086-1.05.289-2.647-.211-3.59-.354-.666-1.451-.82-1.98-1.353-1.048-1.06-2.134-3.6-.517-4.547a11.061,11.061,0,0,1-.711-5.514c.717-5.2,3.366-8.942,9.47-9.049,2.982-.053,7.63.838,10.019,2.815,1.983,1.639,2.976,5.364,4.054,9.08.988,3.414,2.14,6.254,1.006,9.394a7.068,7.068,0,0,1-7.01,4.294" transform="translate(-48.109 -21.781)" fill="#bb8774" fill-rule="evenodd"/>
          <path id="Trazado_731320" data-name="Trazado 731320" d="M279.157,151.871c-5.995-1.505-6.589-5.669-6.589-5.669a17.756,17.756,0,0,0,7.543,2.425Z" transform="translate(-50.403 -27.035)" fill="#935e45" fill-rule="evenodd"/>
          <path id="Trazado_731321" data-name="Trazado 731321" d="M288.039,127.033c.028.328-.964.677-2.213.779s-2.285-.074-2.312-.4.963-.674,2.213-.779,2.285.074,2.312.4" transform="translate(-52.427 -23.411)" fill="#1e1e77" fill-rule="evenodd"/>
          <path id="Trazado_731322" data-name="Trazado 731322" d="M288.142,131.332a.913.913,0,0,1-.524,1.144c-.4.082-.818-.3-.929-.849a.913.913,0,0,1,.526-1.143c.4-.08.815.3.928.848" transform="translate(-53.009 -24.127)" fill="#1e1e77" fill-rule="evenodd"/>
          <path id="Trazado_731323" data-name="Trazado 731323" d="M279.981,128.09c.123.321-.782.963-2.019,1.431s-2.343.589-2.468.267.786-.966,2.025-1.437,2.339-.586,2.462-.261" transform="translate(-50.942 -23.652)" fill="#1e1e77" fill-rule="evenodd"/>
          <path id="Trazado_731324" data-name="Trazado 731324" d="M279.821,133.3a.967.967,0,0,1-.553,1.21c-.425.085-.865-.316-.981-.9a.957.957,0,0,1,.554-1.205c.423-.086.862.316.98.893" transform="translate(-51.455 -24.483)" fill="#1e1e77" fill-rule="evenodd"/>
          <path id="Trazado_731325" data-name="Trazado 731325" d="M284.358,137.717a.545.545,0,0,0,.068-.02,1.809,1.809,0,0,0,1.09-.967c.355-.86-.111-1.946-.7-3.321a20.255,20.255,0,0,1-1.085-2.957.377.377,0,0,0-.73.188,20.984,20.984,0,0,0,1.123,3.067c.5,1.161.934,2.168.7,2.733a1.116,1.116,0,0,1-.675.558.376.376,0,0,0,.211.719" transform="translate(-52.329 -24.071)" fill="#935e45"/>
          <path id="Trazado_731326" data-name="Trazado 731326" d="M284.161,141.783a4.933,4.933,0,0,0,1.212-.433.381.381,0,0,0,.165-.508.376.376,0,0,0-.505-.165c-1.974.993-2.9-.084-2.934-.13a.381.381,0,0,0-.528-.053.371.371,0,0,0-.057.524c-.321-.432,1.278,1.043,2.647.765" transform="translate(-52.042 -25.964)" fill="#935e45"/>
          <path id="Trazado_731327" data-name="Trazado 731327" d="M261.221,119.632c.212-.1.434-.894.757-1.347,1.548-2.15,5.526-3.223,9.522-4.026a36.637,36.637,0,0,0,7.373-2.321c2.771-.906,3.767-.591,4.793.366a2.408,2.408,0,0,1,.487,2.7,5.015,5.015,0,0,1-2.244,2.332c.72.162,1.781.087,2.435.632,1.3,1.083.29,2.588-.716,3.365-2.084,1.607-7.95,2.159-11.121,3.1-2.09.617-2.978,1.647-3.282,4.392-.086.775-.166,1.778-.2,2.791-.024.712.1,2.425-.353,2.63-.721.33-1.974-1.721-2.44-2.175-.485-.474-1.312-1.25-1.8-1.257-2.4-.029-2.008,3.248-.861,4.574.4.456,1.032.75,1.2,1.169a13.68,13.68,0,0,1,.256,3.052,5.565,5.565,0,0,1-2.5-.718c-1.664-1.094-2.443-4.075-3.171-7.334-.327-1.454-.655-3.013-.891-4.509-.42-2.642-.445-4.464,1.393-5.348-.082-.454-1.389-.642-1.484-1.367a.569.569,0,0,1,.744-.624c-.508-.979-.906-2.648-.066-2.928,1.06-.354,1.684,1.874,2.167,2.85" transform="translate(-47.752 -20.6)" fill="#1e1e77" fill-rule="evenodd"/>
          <path id="Trazado_731328" data-name="Trazado 731328" d="M273.127,158.823c-1.257,1.395,2.171,6.142,3.061,6.121.582-.014,2.815-3.641,3.726-5.005a3.083,3.083,0,0,0,.76-2.089c-.136-.748-1.436-1.819-1.964-2.276s-1.2.085-1.853.5c-.421.272-3.124,2.172-3.729,2.744" transform="translate(-50.455 -28.736)" fill="#fff" fill-rule="evenodd"/>
          <path id="Trazado_731329" data-name="Trazado 731329" d="M270.337,158.8c1.436,1.21-1.307,6.383-2.193,6.484-.579.065-5.809-4.214-6.9-5.44a3.079,3.079,0,0,1-1.04-1.964c.032-.762,1.173-2,1.636-2.525s1.2-.082,1.9.246c.456.213,5.916,2.717,6.595,3.2" transform="translate(-48.116 -28.683)" fill="#fff" fill-rule="evenodd"/>
          <path id="Trazado_731330" data-name="Trazado 731330" d="M273.143,179.371a27.976,27.976,0,0,1-3.05-5.283c-.06-.8,2-9.941,1.909-10.244-.112-.392-.761-.565-.866-.915a6.447,6.447,0,0,1,1.043-2.641.431.431,0,0,1,.174-.047h0a.085.085,0,0,1,.02,0l.021,0v0a.463.463,0,0,1,.176.026,6.454,6.454,0,0,1,1.335,2.5c-.063.36-.69.6-.755,1.007-.051.311,3.027,9.157,3.061,9.961a27.979,27.979,0,0,1-2.431,5.595.467.467,0,0,1-.637.037" transform="translate(-49.945 -29.631)" fill="#af5091"/>
          <path id="Trazado_731331" data-name="Trazado 731331" d="M296.409,398.424l10.474-1.9,3.527,12.864-12.7,2.1Z" transform="translate(-54.811 -73.324)" fill="#bb8774" fill-rule="evenodd"/>
          <path id="Trazado_731332" data-name="Trazado 731332" d="M307.97,400.631c-4.282,3.656-11.189,1.377-11.189,1.377Z" transform="translate(-54.88 -74.084)" fill="#935e45" fill-rule="evenodd"/>
          <path id="Trazado_731333" data-name="Trazado 731333" d="M308.97,404.209c-.5.113-2.279.364-2.831,1.122-.573.782-.213,1.852-.03,3.264-3.389.4-4.823-2.772-9.188-1.335a70.869,70.869,0,0,0,1.32,11.438c9.024-1.3,18.331-3,27.466-4.459a8.39,8.39,0,0,0-1.188-2.248c-1.414-1.755-3.39-2.4-5.588-2.744-2.963-.466-6.394-.777-8.377-2.855a17.252,17.252,0,0,1-1.584-2.184" transform="translate(-54.906 -74.746)" fill="#fff" fill-rule="evenodd"/>
          <path id="Trazado_731334" data-name="Trazado 731334" d="M310.387,409.1c.315.478,1.449-.342,2.359-.647.535-.176,1.854-.347,1.873-.866.031-.931-1.934-.566-2.732-.217-.773.339-1.965,1.021-1.5,1.73" transform="translate(-57.377 -75.261)" fill="#2f2fa7" fill-rule="evenodd"/>
          <path id="Trazado_731335" data-name="Trazado 731335" d="M312.417,411.225c.571.556,1.753-.407,2.643-.763.469-.188,1-.345,1.47-.489.443-.134,1.291-.219,1.2-.606-.187-.826-1.569-.664-2.512-.4-1.191.336-3.655,1.431-2.8,2.257" transform="translate(-57.739 -75.586)" fill="#2f2fa7" fill-rule="evenodd"/>
          <path id="Trazado_731336" data-name="Trazado 731336" d="M320.036,409.892c.877.153,1.76.273,2.606.408,2.2.345,4.175.989,5.589,2.744a8.435,8.435,0,0,1,1.188,2.248c-4.1.655-8.242,1.36-12.372,2.052a8.037,8.037,0,0,1,2.99-7.451" transform="translate(-58.617 -75.796)" fill="#2f2fa7"/>
          <path id="Trazado_731337" data-name="Trazado 731337" d="M303.842,419.457c-1.857.291-3.71.577-5.548.843-.437-2.532-.846-5.042-1.091-7.433a9.242,9.242,0,0,1,6.64,6.59" transform="translate(-54.958 -76.347)" fill="#2f2fa7"/>
          <path id="Trazado_731338" data-name="Trazado 731338" d="M203.064,384.062l8.7,6.134-6.7,11.534-10.4-7.583Z" transform="translate(-35.997 -71.02)" fill="#bb8774" fill-rule="evenodd"/>
          <path id="Trazado_731339" data-name="Trazado 731339" d="M211.6,393.375a10.65,10.65,0,0,1-9.342-6.213Z" transform="translate(-37.401 -71.593)" fill="#935e45" fill-rule="evenodd"/>
          <path id="Trazado_731340" data-name="Trazado 731340" d="M207.825,397.258c-.43-.275-1.858-1.37-2.784-1.232-.96.14-1.47,1.147-2.349,2.267-2.661-2.137-1.405-5.383-5.49-7.488a70.849,70.849,0,0,0-7.231,8.961c7.254,5.522,14.993,10.967,22.435,16.46a8.415,8.415,0,0,0,.77-2.423c.26-2.238-.666-4.1-1.961-5.909-1.745-2.439-3.93-5.1-3.837-7.976a17.224,17.224,0,0,1,.447-2.66" transform="translate(-35.129 -72.267)" fill="#fff" fill-rule="evenodd"/>
          <path id="Trazado_731341" data-name="Trazado 731341" d="M207.142,401.447c-.12.56,1.259.794,2.115,1.228.5.258,1.548,1.079,1.931.729.685-.631-.953-1.777-1.761-2.1-.784-.314-2.106-.686-2.285.143" transform="translate(-38.303 -74.142)" fill="#2f2fa7" fill-rule="evenodd"/>
          <path id="Trazado_731342" data-name="Trazado 731342" d="M207,404.445c0,.8,1.519.965,2.4,1.35.464.2.949.474,1.379.705.405.223,1.062.767,1.276.434.456-.713-.627-1.585-1.478-2.071-1.074-.614-3.583-1.6-3.575-.417" transform="translate(-38.278 -74.686)" fill="#2f2fa7" fill-rule="evenodd"/>
          <path id="Trazado_731343" data-name="Trazado 731343" d="M212.468,409.127c.506.734,1.039,1.447,1.537,2.144,1.3,1.81,2.221,3.67,1.961,5.909a8.415,8.415,0,0,1-.77,2.423c-3.343-2.466-6.747-4.924-10.137-7.385a8.04,8.04,0,0,1,7.409-3.092" transform="translate(-37.919 -75.644)" fill="#2f2fa7"/>
          <path id="Trazado_731344" data-name="Trazado 731344" d="M194.461,403.806c-1.51-1.12-3.013-2.241-4.49-3.365,1.5-2.086,3-4.138,4.535-5.989a9.241,9.241,0,0,1-.045,9.355" transform="translate(-35.129 -72.941)" fill="#2f2fa7"/>
          <path id="Trazado_731345" data-name="Trazado 731345" d="M259.4,273.327c-.207,2.024-.421,4.027-.616,6.033a161.643,161.643,0,0,1-4.273,25.745,71.882,71.882,0,0,1-8.281,18.745,141.691,141.691,0,0,1-12.611,17.485q-7.039,8.441-14.1,16.862-2.57,3.066-5.185,6.1c-.646.753-.685.758-1.481.179-3.745-2.721-7.624-5.242-11.52-7.738-.2-.127-.4-.259-.592-.392-.944-.641-.95-.694-.507-1.714a131.962,131.962,0,0,1,10.225-18.859c4.041-6.276,8.257-12.435,12.467-18.6,2.038-2.984,4.065-5.978,5.822-9.142a43.263,43.263,0,0,0,3-6.64,24.838,24.838,0,0,0,1.07-8.395c0-4.053-.174-8.1-.319-12.15-.3-8.24-.143-16.478-.1-24.717,0-.337.052-.672.075-1.009a11.166,11.166,0,0,0-.354-4.2,41.577,41.577,0,0,1,.01-25.222,1.6,1.6,0,0,1,1.629-1.292q6.712-.544,13.44-.8c2.937-.111,5.876-.072,8.809-.208,3.106-.143,6.214-.065,9.316-.192,2.261-.094,4.522-.139,6.783-.2,1.21-.031,1.237-.054,1.561,1.162q1.281,4.8,2.519,9.6c3.493,13.677,6.562,27.452,9.437,41.269,1.451,6.974,2.751,13.979,4.057,20.981a54.767,54.767,0,0,1,.917,9.566c.033,3.884.331,7.755.539,11.63.025.472.029.945.039,1.417.079,3.781.2,7.561.293,11.341.1,3.951.018,7.9.161,11.85.122,3.409.1,6.821.236,10.227.1,2.6.091,5.2.173,7.8.067,2.125.209,4.247.316,6.371.012.236.028.472.03.708.007.909-.037.99-.92,1.108q-4.566.61-9.138,1.186c-1.541.195-3.083.362-4.626.542-.135.015-.268.036-.4.047-1.093.091-1.217.024-1.5-1.019-.549-2.02-1.109-4.038-1.607-6.071-1.507-6.166-3.026-12.331-4.23-18.564a80.512,80.512,0,0,1-1.147-9.341c-.7-9.407-.54-18.828-.6-28.248a58.835,58.835,0,0,0-1.422-12.758,56.955,56.955,0,0,0-2.515-7.7c-1.575-4.1-4.628-12.684-4.867-12.782" transform="translate(-36.973 -41.235)" fill="#204069"/>
          <path id="Trazado_731346" data-name="Trazado 731346" d="M289.216,338.284c-.254-4.819-.481-9.638-.831-14.452-.3-4.14-.475-8.287-.8-12.426a89.434,89.434,0,0,0-3.339-18.091c-1.654-5.671-3.33-11.331-4.781-17.062a153.943,153.943,0,0,1-4.1-23.923c-.026-.289.032-.615-.289-.864a.768.768,0,0,0-.188.531c-.446,3.38-.707,6.777-.99,10.174-.17,2.051-.308,4.1-.49,6.155a100.764,100.764,0,0,0-.552,10.519c.009-.085.018-.168.026-.253.24.1,3.293,8.685,4.868,12.782a56.927,56.927,0,0,1,2.514,7.7,58.825,58.825,0,0,1,1.422,12.757c.062,9.42-.1,18.841.6,28.248a80.7,80.7,0,0,0,1.147,9.341c1.2,6.235,2.724,12.4,4.231,18.564.5,2.033,1.057,4.051,1.606,6.071.284,1.042.408,1.11,1.5,1.019.134-.011.268-.031.4-.047q1.473-.171,2.948-.342a215.444,215.444,0,0,1-3.693-21.364c-.615-4.992-.945-10.013-1.209-15.033" transform="translate(-50.454 -46.501)" fill="#12263f"/>
          <path id="Trazado_731347" data-name="Trazado 731347" d="M226.691,322.352a104.987,104.987,0,0,0,8.863-13.186,25.692,25.692,0,0,0,2.858-12.907c-.108-4.891-.566-9.769-.883-14.653-.278-4.279-.3-8.569-.39-12.855-.045-2.225.1-4.454.164-6.681.015-.505.071-1.01.106-1.514.154-2.189.316-4.376.459-6.565a26.222,26.222,0,0,0-.848-7.621,46.319,46.319,0,0,1-.938-16.791,34.816,34.816,0,0,1,.973-5.166q-1.654.116-3.308.25a1.6,1.6,0,0,0-1.629,1.293,41.574,41.574,0,0,0-.01,25.221,11.172,11.172,0,0,1,.354,4.2c-.023.337-.073.672-.075,1.009-.041,8.24-.192,16.478.1,24.717.145,4.048.318,8.1.319,12.15a24.837,24.837,0,0,1-1.07,8.395,43.184,43.184,0,0,1-3,6.64c-1.757,3.164-3.784,6.158-5.822,9.141-4.21,6.164-8.425,12.322-12.467,18.6a131.865,131.865,0,0,0-10.224,18.859c-.443,1.02-.438,1.073.506,1.714.2.133.393.264.592.392.415.266.828.534,1.242.8a152.389,152.389,0,0,1,11.657-18.707c4.066-5.644,8.306-11.163,12.465-16.739" transform="translate(-36.973 -41.498)" fill="#12263f"/>
          <path id="Trazado_731348" data-name="Trazado 731348" d="M303.095,319.173a5.654,5.654,0,0,1-.034-3.551c.033-.095.056-.194.1-.286.091-.212.136-.493.411-.522.3-.032.35.262.443.468.557,1.222,1.1,2.45,1.664,3.669.41.883.851,1.752,1.275,2.628.1.21.244.44.1.665-.183.282-.478.194-.734.122a4.486,4.486,0,0,1-3.22-3.193" transform="translate(-55.991 -58.214)" fill="#12263f"/>
          <path id="Trazado_731349" data-name="Trazado 731349" d="M256.662,323.426a5.654,5.654,0,0,1,2.406-2.612c.09-.047.174-.1.267-.143.211-.092.437-.266.656-.1.242.184.076.431,0,.645-.431,1.272-.877,2.539-1.3,3.814-.306.924-.58,1.858-.871,2.788-.07.223-.124.488-.383.553-.327.081-.481-.186-.619-.413a4.486,4.486,0,0,1-.161-4.532" transform="translate(-47.362 -59.267)" fill="#12263f"/>
          <path id="Trazado_731350" data-name="Trazado 731350" d="M251.313,245.355c3.225-1.755,8.125-8.712,9.849-13.949a21.737,21.737,0,0,1-1.766,8.539,9.076,9.076,0,0,1-6.538,5.389,2.929,2.929,0,0,1-1.545.022" transform="translate(-46.472 -42.791)" fill="#12263f"/>
          <path id="Trazado_731351" data-name="Trazado 731351" d="M293.229,244.628c-2.786-1.515-7.017-7.524-8.505-12.047a18.768,18.768,0,0,0,1.525,7.375,7.843,7.843,0,0,0,5.646,4.653,2.538,2.538,0,0,0,1.334.019" transform="translate(-52.65 -43.008)" fill="#12263f"/>
          <path id="Trazado_731352" data-name="Trazado 731352" d="M275.141,230.277s.527,14.007-2.076,15.762c0,0,2.245.285,2.709-1.548.633-2.5-.633-14.214-.633-14.214" transform="translate(-50.495 -42.582)" fill="#12263f"/>
          <path id="Trazado_731353" data-name="Trazado 731353" d="M239.734,224.864a1.15,1.15,0,0,0,1.2,1.1l39.258-.485a1.149,1.149,0,0,0,1.17-1.126L281.331,222a1.148,1.148,0,0,0-1.2-1.1l-39.259.485a1.149,1.149,0,0,0-1.17,1.127Z" transform="translate(-44.326 -40.849)" fill="#af5091" fill-rule="evenodd"/>
          <path id="Trazado_731354" data-name="Trazado 731354" d="M276.388,225.535a.711.711,0,1,0,1.421-.043l-.126-4.278a.711.711,0,1,0-1.421.042Z" transform="translate(-51.086 -40.779)" fill="#fff" fill-rule="evenodd"/>
          <path id="Trazado_731355" data-name="Trazado 731355" d="M265.61,225.809a.711.711,0,1,0,1.421-.04l-.126-4.281a.71.71,0,0,0-1.42.042Z" transform="translate(-49.093 -40.83)" fill="#fff" fill-rule="evenodd"/>
          <path id="Trazado_731356" data-name="Trazado 731356" d="M268.5,221.27l0,.02,0,0,0,.015.112,3.95a.59.59,0,0,0,.012.071.56.56,0,0,0-.016.144.646.646,0,0,0,.644.648l3.858-.038a.648.648,0,0,0,.635-.661l0-.018a.486.486,0,0,0,.019-.158l-.115-3.955a.123.123,0,0,1,0-.03.182.182,0,0,0,0-.02.647.647,0,0,0-.647-.649l-3.86.038a.64.64,0,0,0-.624.537.539.539,0,0,0-.01.105m1.412,3.53-.026-.857,2.521-.024.025.856Zm2.436-2.892.021.7-2.52.026-.02-.7Z" transform="translate(-49.651 -40.791)" fill="#fff" fill-rule="evenodd"/>
          <path id="Trazado_731357" data-name="Trazado 731357" d="M243.44,214.3a8.661,8.661,0,0,1-5.472-2.346,37.754,37.754,0,0,1-5.671-6.166c-3.811-4.96-7.6-9.937-10.927-15.245-.3-.474-.6-.945-.866-1.437-.536-.993-.509-1.141.386-1.79,1.039-.753,2.087-1.5,3.157-2.206,2.167-1.437,4.357-2.839,6.6-4.15.973-.568,1.062-.57,1.7.3,4.115,5.6,8.583,10.924,12.657,16.553.309.426.614.856.923,1.282a.538.538,0,0,0,.769.179c3.532-1.783,7.27-3.083,10.894-4.65,4.35-1.881,8.721-3.716,13.133-5.447.276-.108.549-.225.826-.327.791-.288.893-.273,1.377.459q1.279,1.937,2.508,3.906c.456.727.443.818-.258,1.381-1.36,1.093-2.712,2.2-4.115,3.233-5.433,4-10.849,8.029-16.382,11.895a29.656,29.656,0,0,1-7.9,4.007,12.549,12.549,0,0,1-3.343.575" transform="translate(-40.71 -33.389)" fill="#fda189"/>
          <path id="Trazado_731358" data-name="Trazado 731358" d="M247.36,206.357a.375.375,0,0,0,.039.273c.093.121.234.083.351.016a1.956,1.956,0,0,0,.41-.268c1.055-1.033,2.112-2.063,3.143-3.119.016-.016.031-.033.046-.05a.564.564,0,0,1-.39-.258c-.311-.425-.615-.855-.923-1.282-.05-.068-.1-.134-.149-.2a35.823,35.823,0,0,0-2.386,4.523,1.949,1.949,0,0,0-.141.366" transform="translate(-45.74 -37.255)" fill="#dd9080"/>
          <path id="Trazado_731359" data-name="Trazado 731359" d="M136.152,225.817c-.042-4.035-.073-7.328.187-10.612a61,61,0,0,1,2.177-12.819,25.9,25.9,0,0,1,4.243-8.2q4.648-6.142,9.638-12.014c1.025-1.214,1.025-1.175,2.274-.249,2.856,2.116,5.74,4.2,8.6,6.307,1.283.948,1.416.751.343,2.149-1.964,2.563-4.179,4.912-6.26,7.376-1.273,1.509-2.569,3-3.856,4.5a15.5,15.5,0,0,0-3.5,6.767c-.739,3.273-1.5,6.542-2.323,9.8-1.095,4.354-3.4,13.031-3.4,13.031-3.321,4.76-6.721,10.4-6.721,10.4-1.784-4.1-1.524-13.361-1.4-16.434" transform="translate(-25.16 -33.516)" fill="#fda189"/>
          <path id="Trazado_731360" data-name="Trazado 731360" d="M150.162,208.093a1.008,1.008,0,0,0-.807-.011.832.832,0,0,0,.4.506c1.112.868,2.224,1.739,3.348,2.593l.218.167a15.334,15.334,0,0,1,1.029-1.958c-.106-.047-.21-.1-.319-.134a35.889,35.889,0,0,0-3.864-1.163" transform="translate(-27.618 -38.463)" fill="#bb78a2"/>
          <path id="Trazado_731361" data-name="Trazado 731361" d="M172.675,182.537c-.377.566-3.352,3.653-4.4,4.649-.6.571-.713.575-1.35.087-3.5-2.682-7.081-5.259-10.7-7.784-.638-.446-.656-.553-.14-1.164.934-1.105,1.889-2.194,2.855-3.273.9-1,1.833-1.98,2.737-2.981a17.092,17.092,0,0,1,10.228-5.5c2.339-.386,4.69-.629,7.052-.824,2.334-.192,4.675-.063,7-.208,4.178-.26,8.356-.143,12.535-.159a43.964,43.964,0,0,1,6.094.493,19.237,19.237,0,0,1,10.813,5.5,72.512,72.512,0,0,1,5.525,5.91c.56.668.544.76-.253,1.253q-4.115,2.544-8.366,4.858a1.593,1.593,0,0,0-1,1.507,6.83,6.83,0,0,1-1.162,3.219,17.063,17.063,0,0,1-1.228,1.909,7.641,7.641,0,0,0-1.5,4.708,28.224,28.224,0,0,0,.511,5.69c.219,1.264.5,2.516.734,3.779.134.743.013.874-.719.935-.1.009-.2.008-.3.007-4.575-.034-9.148.147-13.719.262-5.031.128-10.062.3-15.1.417-1.61.037-3.221.115-4.833.155a1.436,1.436,0,0,1-.947-.117.5.5,0,0,1,0-.391c.712-2.2,1.1-4.472,1.606-6.716a11.9,11.9,0,0,0-.026-5.769c-.809-3.021-1.893-10.263-1.958-10.452" transform="translate(-28.796 -30.579)" fill="#1448d3"/>
          <path id="Trazado_731362" data-name="Trazado 731362" d="M204.693,134.276a10.593,10.593,0,0,1,2.281,6.138,31.879,31.879,0,0,0,.425,4.609c.538,3.169-2.683,8.483-3.283,11.847q2.266,0,4.531.01c5.637.02,11.275.139,16.913.226-.342-2.259-4.33-3.752-3.226-8.8.328-1.5,4.172-6.647-.871-11.577a16.014,16.014,0,0,1-3.817-5.572,38.483,38.483,0,0,0-2.4-5.626c-.251-.463-.464-.95-.758-1.385a11.5,11.5,0,0,0-6.691-4.811,6.713,6.713,0,0,0-6.09,1.245,3.6,3.6,0,0,0-1.6,2.584,8.05,8.05,0,0,0,.716,4.7,42.83,42.83,0,0,0,3.868,6.416" transform="translate(-36.989 -22.018)" fill="#9a466e"/>
          <path id="Trazado_731363" data-name="Trazado 731363" d="M204.212,150.14l-2.47,8.4a28.856,28.856,0,0,1-13.5-1.168c.832-2.9,1.927-5.322,2.2-8.725.086-1.023.284-2.58-.205-3.5-.345-.65-1.414-.8-1.929-1.32-1.022-1.033-2.081-3.512-.5-4.432a10.787,10.787,0,0,1-.694-5.375c.7-5.069,3.282-8.717,9.232-8.822,2.907-.051,7.437.818,9.767,2.745,1.933,1.6,2.9,5.229,3.952,8.851.963,3.328,2.086,6.1.981,9.158a6.892,6.892,0,0,1-6.834,4.185" transform="translate(-34.58 -23.151)" fill="#fda189" fill-rule="evenodd"/>
          <path id="Trazado_731364" data-name="Trazado 731364" d="M205.536,158.61c-5.844-1.468-6.164-5.328-6.164-5.328a14.28,14.28,0,0,0,7.346,2.056Z" transform="translate(-36.867 -28.345)" fill="#dd9080" fill-rule="evenodd"/>
          <path id="Trazado_731365" data-name="Trazado 731365" d="M214.176,134.212c.028.32-.94.66-2.158.76s-2.228-.072-2.254-.39.939-.657,2.158-.76,2.228.073,2.253.39" transform="translate(-38.789 -24.741)" fill="#9a466e" fill-rule="evenodd"/>
          <path id="Trazado_731366" data-name="Trazado 731366" d="M214.277,138.4a.89.89,0,0,1-.511,1.115c-.39.079-.8-.289-.906-.827a.89.89,0,0,1,.513-1.115c.39-.077.795.292.9.826" transform="translate(-39.357 -25.438)" fill="#1e1e77" fill-rule="evenodd"/>
          <path id="Trazado_731367" data-name="Trazado 731367" d="M206.32,135.242c.12.313-.762.939-1.968,1.4s-2.285.575-2.405.26.765-.942,1.973-1.4,2.281-.571,2.4-.254" transform="translate(-37.342 -24.976)" fill="#9a466e" fill-rule="evenodd"/>
          <path id="Trazado_731368" data-name="Trazado 731368" d="M206.164,140.324a.943.943,0,0,1-.539,1.179c-.414.082-.843-.308-.956-.875a.934.934,0,0,1,.54-1.176c.412-.084.84.308.955.871" transform="translate(-37.841 -25.785)" fill="#1e1e77" fill-rule="evenodd"/>
          <path id="Trazado_731369" data-name="Trazado 731369" d="M210.586,144.88a.438.438,0,0,0,.066-.02,1.764,1.764,0,0,0,1.063-.943c.346-.838-.108-1.9-.687-3.237a19.731,19.731,0,0,1-1.058-2.883.361.361,0,0,0-.446-.262.365.365,0,0,0-.265.446,20.33,20.33,0,0,0,1.1,2.99c.489,1.132.91,2.113.684,2.665a1.092,1.092,0,0,1-.659.544.367.367,0,0,0,.206.7" transform="translate(-38.694 -25.43)" fill="#bb78a2"/>
          <path id="Trazado_731370" data-name="Trazado 731370" d="M210.4,148.591a4.821,4.821,0,0,0,1.182-.422.371.371,0,0,0,.16-.495.365.365,0,0,0-.492-.161c-1.924.967-2.822-.082-2.859-.128a.371.371,0,0,0-.515-.051.362.362,0,0,0-.055.511,2.6,2.6,0,0,0,2.581.746" transform="translate(-38.414 -27.23)" fill="#bb78a2"/>
          <path id="Trazado_731371" data-name="Trazado 731371" d="M199.638,165.2c-1.225,1.36,2.116,5.988,2.984,5.967.567-.014,2.744-3.549,3.632-4.88a3,3,0,0,0,.74-2.036c-.132-.729-1.4-1.774-1.915-2.219s-1.174.083-1.806.491c-.41.266-3.046,2.118-3.635,2.676" transform="translate(-36.867 -29.932)" fill="#fff" fill-rule="evenodd"/>
          <path id="Trazado_731372" data-name="Trazado 731372" d="M196.919,165.18c1.4,1.18-1.274,6.222-2.138,6.321-.564.064-5.662-4.108-6.725-5.3a3,3,0,0,1-1.013-1.915c.03-.743,1.144-1.95,1.594-2.462s1.172-.08,1.854.24c.444.208,5.766,2.649,6.429,3.119" transform="translate(-34.587 -29.88)" fill="#fff" fill-rule="evenodd"/>
          <path id="Trazado_731373" data-name="Trazado 731373" d="M161.092,155.868a10.681,10.681,0,0,0,.551,1.218q11.543-.006,23.086-.016a7.037,7.037,0,0,1,.847-4.851c4.393-4.665,1.982-8.479,2.132-10.751a16.867,16.867,0,0,1,4.816-11.206c.728-.71,1.481-1.4,2.209-2.106a6.393,6.393,0,0,0,2.015-4.846c-.006-.466.192-1.36-.3-1.565a14.247,14.247,0,0,0-8.942-1.316,11.833,11.833,0,0,0-8.181,6.045,19.962,19.962,0,0,0-1.717,4.044c-.3,1.019-.69,2.011-1.091,3a9.984,9.984,0,0,1-3.74,4.539,35.523,35.523,0,0,1-4.274,2.625,19.145,19.145,0,0,0-2.974,1.809c-3.934,2.938-5.643,6.757-5.013,11.478a9.1,9.1,0,0,0,.574,1.9" transform="translate(-29.659 -22.229)" fill="#9a466e"/>
          <path id="Trazado_731374" data-name="Trazado 731374" d="M212.719,129.523a8.613,8.613,0,0,1,.173.884c.08.782-.239,1.02-1.154.84a11.1,11.1,0,0,1-2.692-1.039,19.245,19.245,0,0,1-6.707-5.2c-.924-1.142-.759-1.483.976-2.058a4.77,4.77,0,0,1,2.528-.138,7.126,7.126,0,0,1,3.685,1.941,17.162,17.162,0,0,1,3.19,4.775" transform="translate(-37.313 -22.689)" fill="#9a466e"/>
          <path id="Trazado_731375" data-name="Trazado 731375" d="M194.079,134.145a8.608,8.608,0,0,0,.082.9c.142.773.514.913,1.342.483a11.1,11.1,0,0,0,2.294-1.75,19.238,19.238,0,0,0,4.985-6.871c.568-1.355.314-1.636-1.514-1.7a4.776,4.776,0,0,0-2.466.574,7.123,7.123,0,0,0-3,2.894,17.163,17.163,0,0,0-1.729,5.476" transform="translate(-35.889 -23.151)" fill="#9a466e"/>
          <path id="Trazado_731376" data-name="Trazado 731376" d="M169.857,159.094a12.756,12.756,0,0,1,.135-4.685,19.949,19.949,0,0,1,8.827-13.046c3.286-2.25,6.8-4.136,10.18-6.23,1.175-.726,2.343-1.465,3.48-2.248a17,17,0,0,0,5.4-5.663c.169-.3.342-.752.786-.579s.261.623.217.966a5.552,5.552,0,0,1-.745,2.024,16.875,16.875,0,0,1-4.93,5.182,71.985,71.985,0,0,1-6.236,3.976,78.652,78.652,0,0,0-9.346,6.062,19.306,19.306,0,0,0-6.5,8.989,20.622,20.622,0,0,0-.854,3.95c-.059.447-.121.893-.181,1.339l-.232-.037" transform="translate(-31.38 -23.411)" fill="#c167a0"/>
          <path id="Trazado_731377" data-name="Trazado 731377" d="M228.977,148.315a9.45,9.45,0,0,0-.469-3.436,14.769,14.769,0,0,0-7.525-8.9c-2.6-1.4-5.328-2.507-7.983-3.78-.921-.443-1.84-.893-2.738-1.38a12.583,12.583,0,0,1-4.422-3.741c-.148-.209-.311-.527-.624-.364s-.143.479-.084.728a4.108,4.108,0,0,0,.708,1.431,12.493,12.493,0,0,0,4.035,3.424,53.438,53.438,0,0,0,4.9,2.434,58.32,58.32,0,0,1,7.355,3.723,14.294,14.294,0,0,1,5.5,6.1,15.232,15.232,0,0,1,.94,2.839c.078.324.159.647.239.971l.168-.045" transform="translate(-37.915 -23.422)" fill="#c167a0"/>
          <path id="Trazado_731378" data-name="Trazado 731378" d="M186.676,199.957a19.341,19.341,0,0,0,12.372-.154c-1.979,3.273-10.03,3.37-12.372.154" transform="translate(-34.52 -36.947)" fill="#1e1e77"/>
          <path id="Trazado_731379" data-name="Trazado 731379" d="M218.161,178.968c-.191.151-.09.33-.066.493a13.9,13.9,0,0,0,1.557,4.733A8.251,8.251,0,0,1,220.7,187a3.765,3.765,0,0,1-.117,1.7,14.059,14.059,0,0,1-.7,1.732c-1.841,3.991-1.271,8.029-.942,8.037a14.9,14.9,0,0,1,2.3-6.363c.4-.59.748-1.212,1.116-1.822a5,5,0,0,0,.1-5.206,21.255,21.255,0,0,0-2.049-3.132c-.672-.866-1.31-1.753-1.9-2.67-.082-.127-.134-.292-.346-.3" transform="translate(-40.321 -33.094)" fill="#1e1e77"/>
          <path id="Trazado_731380" data-name="Trazado 731380" d="M176.7,181.8c.279.107.227.373.248.584a46.8,46.8,0,0,0,2.715,10.985c.385,1.085.786,2.165,1.139,3.259a11.629,11.629,0,0,1-.244,7.742c-.733,2.008-1.542,3.987-2.451,5.924a1.736,1.736,0,0,1-1.06,1.1c-.632.176-.928-.122-.768-.764.43-1.722.9-3.436,1.289-5.168a28.222,28.222,0,0,0,.044-11.837,43.13,43.13,0,0,1-1.258-9.366,15.213,15.213,0,0,1,.123-2.066c.024-.152.006-.333.222-.39" transform="translate(-32.59 -33.618)" fill="#1e1e77"/>
          <path id="Trazado_731381" data-name="Trazado 731381" d="M219.232,337.8a64.937,64.937,0,0,1,.527-7.941c.23-2.324.439-4.65.659-6.975.108-1.146.253-2.29.317-3.439a24.266,24.266,0,0,0-.678-7.341,117.076,117.076,0,0,0-3.948-11.582q-1.379-3.755-2.725-7.52c-.3-.84-.2-.978.694-1.027,4.566-.248,9.108-.816,13.676-1.039,1.576-.077,3.148-.245,4.724-.333.912-.051,1,.023,1.219.916,1.354,5.53,2.625,11.078,3.424,16.724.3,2.149.67,4.29.836,6.458a62.035,62.035,0,0,1,.187,9.267c-.046.624-.046,1.25-.052,1.875-.035,3.49-.316,6.966-.557,10.445-.154,2.232-.294,4.464-.436,6.7q-.284,4.482-.557,8.963-.114,1.921-.2,3.844c-.156,3.648-.376,7.294-.512,10.944q-.179,4.84-.092,9.674a53.628,53.628,0,0,0,.558,7.672,6.113,6.113,0,0,0,2.184,4.062c1.5,1.181,2.932,2.444,4.392,3.673a2.435,2.435,0,0,1,.841.948c.1.272,0,.479-.3.463a4.038,4.038,0,0,1-.869-.166,36.6,36.6,0,0,1-13.984-7.5c-.8-.684-1.562-1.413-2.347-2.115a1.971,1.971,0,0,1-.662-1.28c-.864-6.724-2.247-13.369-3.1-20.094-.669-5.292-1.579-10.541-2.51-15.79a41.51,41.51,0,0,1-.712-8.478" transform="translate(-39.43 -53.735)" fill="#fda189"/>
          <path id="Trazado_731382" data-name="Trazado 731382" d="M226.758,383.747a1.977,1.977,0,0,1-.592-1.315c-.5-6.761-1.514-13.472-2-20.233-.379-5.32-1-10.612-1.645-15.9a41.449,41.449,0,0,1-.249-8.5,65.188,65.188,0,0,1,.959-7.9c.357-2.308.693-4.619,1.038-6.929.17-1.139.377-2.273.5-3.417a24.291,24.291,0,0,0-.276-7.368,116.981,116.981,0,0,0-3.312-11.78q-1.172-3.823-2.311-7.657c-.254-.855-.151-.989.75-.988,4.573,0,9.139-.319,13.712-.292.115,0,.23,0,.345,0-.208-.834-.315-.908-1.2-.858-1.576.089-3.148.257-4.724.333-4.569.223-9.11.791-13.676,1.039-.9.048-1,.187-.694,1.027q1.347,3.764,2.724,7.519a116.942,116.942,0,0,1,3.949,11.582,24.3,24.3,0,0,1,.678,7.342c-.064,1.148-.209,2.293-.318,3.439-.218,2.325-.428,4.652-.659,6.975a65.1,65.1,0,0,0-.527,7.941,41.381,41.381,0,0,0,.712,8.477c.931,5.249,1.84,10.5,2.51,15.791.85,6.724,2.233,13.37,3.1,20.094a1.972,1.972,0,0,0,.663,1.28c.76.681,1.5,1.385,2.273,2.05-.581-.577-1.15-1.166-1.73-1.744" transform="translate(-39.43 -53.735)" fill="#dd9080"/>
          <path id="Trazado_731383" data-name="Trazado 731383" d="M236.452,322.971c0-.164-.012-.328,0-.492a.888.888,0,0,1,.66-.878.867.867,0,0,1,.977.494,5.072,5.072,0,0,1,.557,1.361,20.833,20.833,0,0,0,1.2,3.327,2.144,2.144,0,0,1,.184.558.841.841,0,0,1-.342.866.8.8,0,0,1-.925.012,2.577,2.577,0,0,1-.953-.976,11.032,11.032,0,0,1-1.361-4.273" transform="translate(-43.723 -59.465)" fill="#dd9080"/>
          <path id="Trazado_731384" data-name="Trazado 731384" d="M226.781,394.414c1.884-.458,10.018-1.276,11.935-1.637.068.012.139.022.205.032.915,4.769,1.026,10.757,3.55,14.325,1.7,2.416,5.516,3.35,7.964,5.453a3.64,3.64,0,0,1,.747,2.453l-16.651,1.126c-.445-1.087-.709-2.382-.937-3.05-.64-1.875-.879-3.327-2.637-4.381.156,1.579.16,3.145.285,4.737.077.948.219,1.926.236,2.9l-3.132.211c-.143-.434-3.083-14.736-1.566-22.171" transform="translate(-41.856 -72.632)" fill="#a2273f"/>
          <path id="Trazado_731385" data-name="Trazado 731385" d="M124.029,377.332c-.351-.076-.421-.4-.538-.652a44.833,44.833,0,0,1-3.85-12.2,10.885,10.885,0,0,1,2.762-9.146c2.032-2.29,4.231-4.424,6.244-6.734,2.792-3.2,5.425-6.531,8-9.911,2.533-3.329,5.234-6.516,8.069-9.594a73.2,73.2,0,0,1,12.224-10.27c2.779-1.939,5.616-3.8,8.243-5.955.483-.4.939-.825,1.4-1.246A7,7,0,0,0,168.7,307.9a16.706,16.706,0,0,0,.44-3.816q-.017-3.063-.02-6.124c0-1.65.014-1.61,1.615-1.731,2.071-.157,4.144-.143,6.216-.21,2.959-.1,5.917-.227,8.875-.344.1,0,.2,0,.3-.007,1.122-.012,1.206.044,1.214,1.138.014,1.778.073,3.561-.038,5.332-.122,1.937-.082,3.879-.289,5.816a31.19,31.19,0,0,1-7.474,17.819,67,67,0,0,1-10.676,9.645c-5.084,3.758-10.259,7.392-15.567,10.824-5.972,3.86-11.877,7.822-17.829,11.713a68.857,68.857,0,0,0-6.208,4.555,16.632,16.632,0,0,0-3.324,3.494,8.594,8.594,0,0,0-1.38,3.355,19.863,19.863,0,0,0-.279,4.812c.059.787.048,1.579.048,2.369,0,.284.032.6-.286.788" transform="translate(-22.099 -54.675)" fill="#fda189"/>
          <path id="Trazado_731386" data-name="Trazado 731386" d="M124.145,356.15c2.139-2.284,4.443-4.4,6.564-6.7,2.941-3.2,5.725-6.524,8.449-9.908,2.682-3.333,5.531-6.514,8.511-9.581a74.624,74.624,0,0,1,12.751-10.136c2.887-1.9,5.828-3.718,8.567-5.84.5-.39.981-.815,1.464-1.233A7.22,7.22,0,0,0,172.72,309a17.29,17.29,0,0,0,.574-3.9q.084-3.143.183-6.286c.052-1.693.068-1.651,1.7-1.723,2.107-.093,4.211-.01,6.316-.011,1.948,0,3.9-.016,5.843-.033l0-.235c-.008-1.094-.093-1.15-1.214-1.138-.1,0-.2,0-.3.007-2.959.117-5.917.249-8.876.344-2.071.067-4.144.053-6.215.21-1.6.121-1.618.082-1.615,1.731q0,3.061.021,6.124a16.7,16.7,0,0,1-.44,3.815,7.009,7.009,0,0,1-2.113,3.719c-.461.421-.918.85-1.4,1.246-2.626,2.152-5.463,4.016-8.243,5.955a73.263,73.263,0,0,0-12.224,10.27c-2.834,3.079-5.536,6.266-8.068,9.594-2.573,3.379-5.206,6.707-8,9.911-2.013,2.31-4.212,4.443-6.244,6.734a10.887,10.887,0,0,0-2.761,9.146,44.8,44.8,0,0,0,3.85,12.2c.117.256.186.576.538.652a.55.55,0,0,0,.148-.127,45.127,45.127,0,0,1-3.141-11.759,11.262,11.262,0,0,1,3.109-9.3" transform="translate(-22.1 -54.675)" fill="#dd9080"/>
          <path id="Trazado_731387" data-name="Trazado 731387" d="M191.615,323.032c-.156.769-.315,1.537-.47,2.307-.129.642-.257,1.284-.378,1.928a1.687,1.687,0,0,1-.322.811.823.823,0,0,1-1.45-.128,2.382,2.382,0,0,1-.275-1.035,10.155,10.155,0,0,1,.681-4.236,2.472,2.472,0,0,1,.265-.524,1.006,1.006,0,0,1,1.142-.566,1.046,1.046,0,0,1,.748,1.042c.011.13,0,.262,0,.393l.059.01" transform="translate(-34.893 -59.461)" fill="#dd9080"/>
          <path id="Trazado_731388" data-name="Trazado 731388" d="M121.757,365.418c1.578,1.126,7.515,6.746,9.041,7.962.035.06.074.12.111.176-3.012,3.81-7.47,7.809-8.521,12.051-.714,2.869,1.071,6.364,1.081,9.592a3.64,3.64,0,0,1-1.369,2.168L110.362,385.5c.532-1.047,1.339-2.093,1.7-2.7,1-1.71,1.943-2.841,1.592-4.86-1.093,1.151-2.276,2.178-3.4,3.312-.667.679-1.314,1.426-2.041,2.076L106,381.1c.236-.393,9.135-11.966,15.754-15.679" transform="translate(-19.602 -67.572)" fill="#a2273f"/>
          <path id="Trazado_731389" data-name="Trazado 731389" d="M181.2,282.73c-1.262,0-2.524.01-3.786,0-1.047-.01-1.11-.062-1.32-1.065-.566-2.708-1.024-5.434-1.454-8.165-1.219-7.742-2.7-15.433-4.537-23.055a60.749,60.749,0,0,1-1.858-15.247,28.167,28.167,0,0,1,2.4-10.628c1.381-3.244,2.968-6.4,4.485-9.583a1.71,1.71,0,0,1,1.689-1.071c6.168-.293,12.334-.562,18.511-.645,2.255-.03,4.516-.049,6.77-.163,2.651-.134,5.3-.317,7.948-.5.919-.062,1.086-.008,1.335.919q1.077,4.007,2.1,8.029c2.673,10.566,5.382,21.124,7.986,31.707,1.959,7.961,3.688,15.976,5.446,23.983.288,1.312.236,1.352-1.115,1.559-5.512.847-11.045,1.539-16.591,2.11-4.158.428-8.317.865-12.5,1.079-3.447.176-6.894.354-10.336.608-1.726.127-3.449.116-5.175.128" transform="translate(-31.11 -39.312)" fill="#ea526f"/>
          <path id="Trazado_731390" data-name="Trazado 731390" d="M216.845,242.07c1.108,3.812.142,15-3.666,23.063-3.932,8.324-11.326,15.152-14.826,16.648a3.5,3.5,0,0,1,.829-1.271,93.631,93.631,0,0,0,15.261-28.1,48.059,48.059,0,0,0,2.151-9.759.764.764,0,0,1,.252-.578" transform="translate(-36.679 -44.763)" fill="#d12f4e"/>
          <path id="Trazado_731391" data-name="Trazado 731391" d="M185.495,285.716c1.709-2.033,3.358-3.855,4.856-5.8,1.54-2,3.045-4.014,4.467-6.094,1.4-2.049,2.8-4.1,4.048-6.247s2.423-4.292,3.694-6.55c.131,2.688-2.81,10.161-5.358,13.768-3.1,4.393-9.31,10.354-11.708,10.919" transform="translate(-34.301 -48.269)" fill="#d12f4e"/>
          <path id="Trazado_731392" data-name="Trazado 731392" d="M176.573,214.9a1.082,1.082,0,0,0,.994,1.145l34.942-.494a1.075,1.075,0,0,0,.955-1.172l-.04-2.451a1.084,1.084,0,0,0-.994-1.147l-34.942.494a1.077,1.077,0,0,0-.955,1.174Z" transform="translate(-32.644 -38.977)" fill="#9b1f36" fill-rule="evenodd"/>
          <path id="Trazado_731393" data-name="Trazado 731393" d="M197.974,211.159a.145.145,0,0,0,0,.02l0,0,0,.015.121,4.122c0,.026.006.048.01.073a.729.729,0,0,0-.012.148.624.624,0,0,0,.535.677l5.834-.072a.619.619,0,0,0,.518-.689c0-.007,0-.011,0-.02a.684.684,0,0,0,.015-.165l-.122-4.124a.151.151,0,0,1,0-.032c0-.009,0-.015,0-.02a.624.624,0,0,0-.536-.679l-5.836.072a.582.582,0,0,0-.509.562.753.753,0,0,0-.007.108m1.186,3.684-.026-.892,4.733-.061.028.893Zm4.644-3.052.024.73-4.735.06-.02-.729Z" transform="translate(-36.609 -38.91)" fill="#fff" fill-rule="evenodd"/>
          <path id="Trazado_731394" data-name="Trazado 731394" d="M120.575,155.84a7.23,7.23,0,0,1,3.544.99,21.2,21.2,0,0,1,4.813,4.028,83.641,83.641,0,0,1,10.3,13.944,87.851,87.851,0,0,0,8.7,12.058,19.4,19.4,0,0,0,6.762,5.009c3.1,1.4,6.222,2.765,9.272,4.278,5.87,2.911,11.793,5.722,17.506,8.941,1.853,1.043,1.545.869,1.06,2.559-.967,3.363-2.011,6.7-3.179,10-.1.27-.2.536-.3.8a.578.578,0,0,1-.747.411c-.217-.053-.436-.092-.652-.145a134.175,134.175,0,0,1-26.807-9.34,53.2,53.2,0,0,1-13.731-9.053,70,70,0,0,1-5.534-6.053,121.89,121.89,0,0,1-11.894-16.925,37.687,37.687,0,0,1-4.645-11.242,13.041,13.041,0,0,1-.29-5.018,6.113,6.113,0,0,1,5.822-5.248" transform="translate(-21.194 -28.818)" fill="#a4a4e4"/>
          <path id="Trazado_731395" data-name="Trazado 731395" d="M119.727,170.263a24.716,24.716,0,0,1-1.55-8.972c.091-2.343.887-4.285,2.957-5.419-.184-.017-.371-.029-.559-.031a6.11,6.11,0,0,0-5.821,5.248,13.02,13.02,0,0,0,.289,5.017,37.669,37.669,0,0,0,4.645,11.242,121.842,121.842,0,0,0,11.894,16.925c1.408,1.692,2.85,3.351,4.391,4.918a163.254,163.254,0,0,1-12.533-20.569,62.133,62.133,0,0,1-3.713-8.36" transform="translate(-21.194 -28.818)" fill="#a4a4e4"/>
          <path id="Trazado_731396" data-name="Trazado 731396" d="M154.406,201.465a1.066,1.066,0,0,0,.72-.4c1.275-1.179,2.55-2.358,3.81-3.552a19.073,19.073,0,0,1-2.108-1.675,45.841,45.841,0,0,0-2.243,4.606,1.292,1.292,0,0,0-.178,1.017" transform="translate(-28.543 -36.215)" fill="#cecef4"/>
          <path id="Trazado_731397" data-name="Trazado 731397" d="M96.152,211.162c-3.62,0-7.24.006-10.86-.006-.624,0-1.247-.082-1.871-.111-.447-.02-.667-.227-.635-.682.233-3.317.021-6.645.256-9.963.12-1.706.086-3.418.221-5.127.241-3.049.511-6.1.876-9.132.494-4.115,1.042-8.223,1.722-12.312a79.7,79.7,0,0,1,1.756-8.5,28.616,28.616,0,0,1,3.577-8.093,16.936,16.936,0,0,1,9.435-7.1,14.058,14.058,0,0,1,12.464,1.745c1.91,1.29,9.7,5.941,9.12,21.62-.1,2.8-4.252,13.145-4.782,15.521a94.78,94.78,0,0,0-1.674,11.017q-.482,4.711-1.012,9.417c-.163,1.46-.236,1.483-1.716,1.529-5.625.174-11.25.284-16.877.174" transform="translate(-15.308 -27.63)" fill="#bcbcea"/>
          <path id="Trazado_731398" data-name="Trazado 731398" d="M108.057,134.446c.413.955.092,2.492-.074,3.5a29.019,29.019,0,0,1-2.226,6.852c3.537.372,6.943,1.474,10.417,2.262.893.2,1.788.4,2.682.6l2.729-7.125a6.891,6.891,0,0,0,7.147-3.626c1.346-2.964.448-5.814-.248-9.208-.758-3.695-1.433-7.391-3.232-9.138-2.169-2.108-6.615-3.334-9.518-3.515-5.939-.371-8.805,3.06-9.906,8.057a10.776,10.776,0,0,0,.262,5.413c-1.646.791-.788,3.348.148,4.458.473.56,1.527.794,1.818,1.469" transform="translate(-19.446 -21.27)" fill="#935e45" fill-rule="evenodd"/>
          <path id="Trazado_731399" data-name="Trazado 731399" d="M122.527,148.818c-5.708-1.929-5.843-5.807-5.843-5.807a14.652,14.652,0,0,0,7.032,2.7Z" transform="translate(-21.577 -26.445)" fill="#5d382e" fill-rule="evenodd"/>
          <path id="Trazado_731400" data-name="Trazado 731400" d="M132.824,129.487a.891.891,0,0,1-.6,1.071c-.4.047-.771-.352-.837-.9s.2-1.021.6-1.07.769.355.835.9" transform="translate(-24.294 -23.778)" fill="#1e1e77" fill-rule="evenodd"/>
          <path id="Trazado_731401" data-name="Trazado 731401" d="M133.061,125.337c0,.32-.99.583-2.211.585s-2.215-.249-2.215-.569.989-.58,2.212-.585,2.215.25,2.215.569" transform="translate(-23.787 -23.072)" fill="#1e1e77" fill-rule="evenodd"/>
          <path id="Trazado_731402" data-name="Trazado 731402" d="M124.584,130.756c.068.573-.214,1.082-.632,1.132s-.815-.374-.883-.948a.933.933,0,0,1,.632-1.129c.418-.051.813.374.883.945" transform="translate(-22.756 -24.004)" fill="#1e1e77" fill-rule="evenodd"/>
          <path id="Trazado_731403" data-name="Trazado 731403" d="M125.129,125.76c.095.322-.835.875-2.074,1.234s-2.323.39-2.418.067.839-.878,2.078-1.239,2.32-.388,2.413-.062" transform="translate(-22.307 -23.213)" fill="#1e1e77" fill-rule="evenodd"/>
          <path id="Trazado_731404" data-name="Trazado 731404" d="M127.942,135.229a.454.454,0,0,0,.068-.015,1.764,1.764,0,0,0,1.134-.856c.412-.808.044-1.9-.426-3.282a19.68,19.68,0,0,1-.824-2.957.367.367,0,0,0-.723.126,20.341,20.341,0,0,0,.853,3.068c.4,1.167.739,2.179.469,2.71a1.091,1.091,0,0,1-.7.49.367.367,0,0,0,.149.715" transform="translate(-23.515 -23.635)" fill="#5d382e"/>
          <path id="Trazado_731405" data-name="Trazado 731405" d="M128.164,139.329a4.772,4.772,0,0,0,1.211-.327.371.371,0,0,0,.2-.48.367.367,0,0,0-.478-.2c-2,.81-2.806-.307-2.84-.355a.372.372,0,0,0-.509-.093c-.167.115-.132.511.016.675a2.437,2.437,0,0,0,2.4.78" transform="translate(-23.232 -25.484)" fill="#5d382e"/>
          <path id="Trazado_731406" data-name="Trazado 731406" d="M126.556,122.692s-.841-2.86-1.669-3.016c-2.4-.45-2.211-1.28-3.524-2.566a2.576,2.576,0,0,0-2.37-.61c-1.436.4-.606,1.991-.583,3.281.011.919-.289,1.9-1.069,2.08-1.338.308-2.9-1.585-4.529-1.134-1.949.54.692,3.7-.946,4.622-.831.3-1.676-.02-2.656.11-.97.417-.974,1.761-.736,2.889.435,1.693-.97,1.893-1.34.963-.569-1.323-.989-3.221-2.471-3.255a1.877,1.877,0,0,0-1.777,2.07c-3.476-.243-5.617-3.088-4.891-5.646.754-2.669,1.845-2.715,2.516-3.854,1.012-1.719-1.463-3.739.285-6.052,2.1-2.782,4.879-.324,6.563-.983,1.894-.735,1.171-2.594,2.36-3.965,2.032-2.34,5.872.032,7.631-.728,1.2-.519,1.845-2.443,2.62-3.061,2.266-1.816,5.939-.647,7.485.7a6.255,6.255,0,0,1,2.118,4.185c.086,1.162-.41,2.466.19,3.859.492,1.13,1.922,1.55,2.687,2.636,1.386,1.969.845,4.749-2.12,4.569.812,2.858-.755,3.707-3.774,2.9" transform="translate(-18.095 -19.029)" fill="#1e1e77" fill-rule="evenodd"/>
          <path id="Trazado_731407" data-name="Trazado 731407" d="M130.093,131.514c-1.386-.579-1.914-2.409-2.221-3.935a.394.394,0,0,1,.062-.3.407.407,0,0,1,.259-.167c.523-.1,1.056-.183,1.584-.254a23.227,23.227,0,0,1,4.717-.2.4.4,0,0,1,.362.315c.2.972.541,3.321-.591,4.174a3.284,3.284,0,0,1-1.488.474,6.67,6.67,0,0,1-2.683-.1m-.205-3.872c-.381.051-.762.11-1.141.176.275,1.241.725,2.58,1.663,2.971a6.228,6.228,0,0,0,2.256.048,2.5,2.5,0,0,0,1.107-.316c.489-.368.619-1.569.348-3.1a22.814,22.814,0,0,0-4.233.221" transform="translate(-23.645 -23.412)" fill="#fff"/>
          <path id="Trazado_731408" data-name="Trazado 731408" d="M120.013,133.385c-1.4-.549-1.738-3.024-1.82-4.065a.413.413,0,0,1,.275-.42,24.431,24.431,0,0,1,4.838-1.109c.557-.075,1.122-.136,1.679-.183a.433.433,0,0,1,.312.1.417.417,0,0,1,.15.284c.136,1.633.136,3.634-1.1,4.608a6.979,6.979,0,0,1-2.687.853,3.482,3.482,0,0,1-1.647-.064m3.409-4.771a23.978,23.978,0,0,0-4.353.957c.173,1.627.657,2.807,1.261,3.044a2.66,2.66,0,0,0,1.214.011,6.488,6.488,0,0,0,2.271-.677c.835-.658.9-2.14.815-3.474-.4.038-.808.086-1.208.139" transform="translate(-21.856 -23.597)" fill="#fff"/>
          <path id="Trazado_731409" data-name="Trazado 731409" d="M127.246,126.682c.024.249.061.495.108.74-5.547.4-16.156,2.4-20.108,3.16-2.087.391-1.827,1.416-1.827,1.416a2.958,2.958,0,0,0-.447,1.175c-.26-.035-1.133-2.543.93-3.045,3.819-.712,15.569-2.933,21.345-3.446" transform="translate(-19.336 -23.426)" fill="#fff"/>
          <path id="Trazado_731410" data-name="Trazado 731410" d="M104.18,134.5c.555,1.35,2.724,3.229,3.908,2.743s.937-3.152.381-4.506a2.339,2.339,0,1,0-4.29,1.763" transform="translate(-19.224 -24.227)" fill="#935e45" fill-rule="evenodd"/>
          <path id="Trazado_731411" data-name="Trazado 731411" d="M100.328,151.969a5.1,5.1,0,0,1-.76-.1c-1.191-.284-1.518-1.165-.762-2.034a2.666,2.666,0,0,1,.377-.358,21.494,21.494,0,0,1,5.908-3.185,4.308,4.308,0,0,1,3.193.278c1.3.546,10.46,5.572,10.682,5.783a.945.945,0,0,1-.434,1.668c-.343.119-15.027-1.795-18.2-2.056" transform="translate(-18.196 -27.016)" fill="#fff"/>
          <path id="Trazado_731412" data-name="Trazado 731412" d="M17.97,374.095l7.7,6.954-7.835,10.379-9.178-8.555Z" transform="translate(-1.601 -69.177)" fill="#935e45" fill-rule="evenodd"/>
          <path id="Trazado_731413" data-name="Trazado 731413" d="M24.438,385.34a11.642,11.642,0,0,1-7.356-8.363Z" transform="translate(-3.159 -69.71)" fill="#5d382e" fill-rule="evenodd"/>
          <path id="Trazado_731414" data-name="Trazado 731414" d="M21.065,387.391c-.383-.316-1.638-1.543-2.551-1.518-.945.024-1.557.938-2.538,1.92-2.325-2.379-.73-5.374-4.438-7.889a69.061,69.061,0,0,0-8.046,7.826C9.867,393.923,16.72,400.1,23.28,406.285a8.2,8.2,0,0,0,1.029-2.255c.514-2.136-.165-4.044-1.207-5.948-1.4-2.565-3.206-5.4-2.781-8.168a16.753,16.753,0,0,1,.744-2.523" transform="translate(-0.646 -70.251)" fill="#fff" fill-rule="evenodd"/>
          <path id="Trazado_731415" data-name="Trazado 731415" d="M20.136,391.193c-.182.528,1.126.915,1.9,1.436.455.308,1.372,1.225,1.783.932.737-.531-.714-1.831-1.459-2.238-.721-.4-1.958-.91-2.228-.13" transform="translate(-3.72 -72.263)" fill="#2f2fa7" fill-rule="evenodd"/>
          <path id="Trazado_731416" data-name="Trazado 731416" d="M19.648,394.076c-.09.772,1.358,1.112,2.162,1.587.425.25.863.569,1.252.844.366.262.938.866,1.184.569.526-.637-.421-1.607-1.188-2.178-.968-.719-3.28-1.97-3.411-.822" transform="translate(-3.633 -72.786)" fill="#2f2fa7" fill-rule="evenodd"/>
          <path id="Trazado_731417" data-name="Trazado 731417" d="M24.324,399.385c.4.769.837,1.522,1.236,2.255a8.112,8.112,0,0,1,1.208,5.948,8.217,8.217,0,0,1-1.029,2.255c-2.947-2.779-5.954-5.555-8.947-8.333a7.839,7.839,0,0,1,7.532-2.126" transform="translate(-3.105 -73.81)" fill="#2f2fa7"/>
          <path id="Trazado_731418" data-name="Trazado 731418" d="M7.444,392.094c-1.33-1.26-2.654-2.521-3.952-3.783,1.695-1.843,3.39-3.654,5.09-5.265a9.01,9.01,0,0,1-1.138,9.048" transform="translate(-0.646 -70.832)" fill="#2f2fa7"/>
          <path id="Trazado_731419" data-name="Trazado 731419" d="M70.118,231.892a1.466,1.466,0,0,1,.289.972A45.169,45.169,0,0,0,74.191,245.6a110.656,110.656,0,0,1,6.851,20.264,111.717,111.717,0,0,1,2.336,14.209c.478,4.846.913,9.69,1.014,14.565q.065,3.158.1,6.315A7.39,7.39,0,0,1,83.806,304a35.572,35.572,0,0,1-7.313,10.7A209.173,209.173,0,0,1,59.51,330.343c-6.985,5.754-13.979,11.5-20.816,17.431-3.9,3.385-7.714,6.874-11.568,10.316-.417.372-.843.736-1.272,1.094-.672.56-.741.553-1.35-.134-.349-.394-.684-.8-1.028-1.2q-3.576-4.152-7.151-8.3c-.619-.72-.613-.728-.138-1.536,2.754-4.688,5.871-9.134,9.042-13.546,3.6-5,7.425-9.818,11.41-14.512a90.8,90.8,0,0,1,9.9-9.9c3.882-3.357,7.8-6.676,11.458-10.289a18.079,18.079,0,0,0,4.913-8.744c1.132-4.6,2.054-9.247,2.867-13.918a162.452,162.452,0,0,1,3.447-16.216,22.7,22.7,0,0,0,.352-10.744c-.166-.839-.316-1.682-.491-2.519a35.22,35.22,0,0,1-.333-9.538,22.747,22.747,0,0,1,.937-5.236c.094-.3.082-.661.425-.954" transform="translate(-2.93 -42.881)" fill="#09131f"/>
          <path id="Trazado_731420" data-name="Trazado 731420" d="M95.406,293.786c-.13-2.167-.279-4.333-.465-6.5-.291-3.375-.665-6.742-1.1-10.1A92.857,92.857,0,0,0,91.965,266.5a162.8,162.8,0,0,0-6-19,69.822,69.822,0,0,1-3.807-12.442,2.906,2.906,0,0,0-.138-.473.566.566,0,0,0-.606-.43,23.113,23.113,0,0,0-.7,4.348c-.1,1.482-.169,2.964-.158,4.444.345,2.218.963,4.381,1.46,6.566.892,3.917,2.141,7.738,3.317,11.575a115.127,115.127,0,0,1,3.1,12.645c.689,3.691,1.1,7.417,1.521,11.143.227,1.993.46,3.987.606,5.988q.267,3.641.479,7.286c.219,3.841.543,7.678.514,11.53,0,.586.033,1.168.082,1.749a33.674,33.674,0,0,0,3.992-6.72c.077-1.245.117-2.563.123-4.007-.091-1.79-.2-4.353-.357-6.914" transform="translate(-14.898 -43.299)" fill="#111114"/>
          <path id="Trazado_731421" data-name="Trazado 731421" d="M73.318,319.314c-.063-.839-.092-1.558-.174-2.27-.286-2.515-.71-5.012-.925-7.535-.054-.637-.1-1.274-.181-1.907a17.727,17.727,0,0,1-2.365,4.2c.951,2.265,1.88,4.539,2.972,6.742a1.172,1.172,0,0,0,.673.767" transform="translate(-12.884 -56.881)" fill="#111114"/>
          <path id="Trazado_731422" data-name="Trazado 731422" d="M41.221,340.705c.231-8.465,1.338-16.71,4.65-24.534a60.831,60.831,0,0,1,9.7-15.829,75.282,75.282,0,0,1,20.746-16.786c4.594-2.581,9.255-5.035,13.931-7.462a33.009,33.009,0,0,0,6.32-4.03,31.356,31.356,0,0,0,7.763-10.039,77.815,77.815,0,0,0,5.014-14.032c1.277-4.606,2.33-9.272,3.656-13.865a74,74,0,0,1,9.2-20.157,78.221,78.221,0,0,1,7.829-10.328,46.97,46.97,0,0,1,14.356-10.433,61.29,61.29,0,0,1,19.113-5.569c3.744-.469,7.5-.764,11.266-.962,3.506-.184,7.013-.337,10.515-.575a118.257,118.257,0,0,0,22.031-3.445,57.5,57.5,0,0,0,16.818-7.6,108.286,108.286,0,0,0,13.114-10.127,116.74,116.74,0,0,0,13.748-15.022,157.836,157.836,0,0,0,13.982-20.784c2.676-4.8,5.123-9.724,7.49-14.685,3.024-6.34,6.093-12.658,9.081-19.015,2.435-5.181,4.589-10.486,6.883-15.729q3.83-8.76,7.614-17.54c.284-.657.538-1.326.834-1.977a6.315,6.315,0,0,1,11.79.219,6.129,6.129,0,0,1-.085,4.481c-.671,1.658-1.376,3.3-2.087,4.943q-5.68,13.114-11.374,26.224c-1.933,4.444-4.04,8.808-6.142,13.173-3.3,6.856-6.518,13.753-9.992,20.525a171.756,171.756,0,0,1-18.678,28.751,130.917,130.917,0,0,1-13.034,14.366A107.671,107.671,0,0,1,224.042,189.7a63.349,63.349,0,0,1-12.516,4.893,119.123,119.123,0,0,1-19.06,3.546c-3.459.377-6.925.616-10.4.78-4.869.229-9.738.49-14.592.965a52.36,52.36,0,0,0-14.586,3.37,36.489,36.489,0,0,0-13.3,8.659,67.256,67.256,0,0,0-15.7,30.33c-1.365,5.524-2.742,11.048-4.573,16.442a60.709,60.709,0,0,1-5.474,12.271,41.991,41.991,0,0,1-16.821,15.854c-5.233,2.694-10.445,5.428-15.555,8.353a61.425,61.425,0,0,0-14.522,11.413A45.958,45.958,0,0,0,54.53,332.342c-.358,2.678-.5,5.371-.705,8.06-.171,2.209-.558,4.384-.892,6.568-.093.61-.183,1.223-.3,1.828a5.582,5.582,0,0,1-11.013-.262,21.42,21.42,0,0,1-.206-2.525c-.04-1.787-.128-3.573-.194-5.305" transform="translate(-7.623 -10.397)" fill="#ff6e33"/>
          <path id="Trazado_731423" data-name="Trazado 731423" d="M327.167,67.773l33.2-15.091L370.52,83.824Z" transform="translate(-60.499 -9.742)" fill="#ff6e33" fill-rule="evenodd"/>
          <path id="Trazado_731424" data-name="Trazado 731424" d="M351.133,115.073a2.743,2.743,0,0,1,1.527-1.364,4.323,4.323,0,0,1-1.444-3.687c.063-.47.351-.814.39-1.218a4.85,4.85,0,0,0-2.127-.544c-.565-.087-1.9-.205-2.039-.721-.187-.681.9-1.182,1.377-1.3a5.5,5.5,0,0,1,3.084.246c.206.06.6.232.668.02.09-.264-.681-.468-1.076-.575s-.876-.24-1.32-.32c-.7-.127-2.332-.11-2.4-.895-.049-.6,1.1-1.023,1.624-1.109a7.219,7.219,0,0,1,3.394.483c.315.112.9.406.978.255.143-.27-1.514-.895-2.6-1.145-.558-.129-2.678-.262-2.738-.959-.03-.347.505-.725.939-.849a7.115,7.115,0,0,1,4.28.474c.512.214,1.435.866,1.589.672.185-.233-1.177-1.777-2-2.447-.333-.272-.745-.518-1.23-.887-.344-.262-1.075-.692-.955-1.313.077-.4.946-.544,1.271-.45,3.493,1,6.046,4.13,6.883,8.607a22.546,22.546,0,0,1-.461,9.272q-.086.389-.175.769Z" transform="translate(-64.244 -18.014)" fill="#bb8774" fill-rule="evenodd"/>
          <path id="Trazado_731425" data-name="Trazado 731425" d="M347.962,108.7c-.328.245-.679.474-.6.878.123.6,1.282.65,2.047.777a6.178,6.178,0,0,1,2.134.6,6.053,6.053,0,0,0-.284.76,4.234,4.234,0,0,0,1.386,4.083,10.275,10.275,0,0,1-.754-2.283,5.918,5.918,0,0,1,.418-3.052c-.859-.095-3.975-.18-4.35-1.76" transform="translate(-64.232 -20.101)" fill="#935e45" fill-rule="evenodd"/>
          <path id="Trazado_731426" data-name="Trazado 731426" d="M353.558,97.308c-1.014-.433-2.284-.14-1.59,1.027a6.1,6.1,0,0,0,1.546,1.177,11.609,11.609,0,0,1,1.717,1.47,5.807,5.807,0,0,0-1.459-1.616c-.713-.635-1.945-1.767-.214-2.058" transform="translate(-65.049 -17.959)" fill="#935e45" fill-rule="evenodd"/>
          <path id="Trazado_731427" data-name="Trazado 731427" d="M349.5,102.545c-.142-.253-.022-.394.184-.536-.768.156-1.434.82-.92,1.246a4.6,4.6,0,0,0,2.01.5,12.8,12.8,0,0,1,2.28.606c-.836-.578-2.952-.744-3.554-1.82" transform="translate(-64.459 -18.863)" fill="#935e45" fill-rule="evenodd"/>
          <path id="Trazado_731428" data-name="Trazado 731428" d="M348.524,105.153c-.226.087-.84.452-.668.9.229.6,1.439.72,2.292.847a7.513,7.513,0,0,1,2.393.619c-.319-.671-2.982-.806-3.995-1.787a.415.415,0,0,1-.023-.58" transform="translate(-64.319 -19.445)" fill="#935e45" fill-rule="evenodd"/>
          <path id="Trazado_731429" data-name="Trazado 731429" d="M150.041,261.413a3.323,3.323,0,0,0,2.66-2.419,2.428,2.428,0,0,0,1.787-2.259c.166.075.4-.117.488-.24.584-.751,1.186-1.332.633-2.5-.453-.958-3.3-2.752-4.027-1.533a.746.746,0,0,0,.181.937c-.774-.437-2.534.1-1.646,1.64a1.673,1.673,0,0,0-1.112-.329c-1.232.187-1.3,1.569-.558,2.731a2.581,2.581,0,0,0-.6.524c-.818,1.025-1.691,3.916-.895,5.663.455,1,1.832,1.779,2.671.5a6.411,6.411,0,0,0,.417-2.713" transform="translate(-27.116 -46.608)" fill="#fda189" fill-rule="evenodd"/>
          <path id="Trazado_731430" data-name="Trazado 731430" d="M148.605,266.113c-1.7-1.886-1.518-5.321-.706-6.9a6.166,6.166,0,0,0-1.082,5.415c.342.989.923,1.563,1.787,1.485" transform="translate(-27.106 -47.933)" fill="#bb78a2" fill-rule="evenodd"/>
          <path id="Trazado_731431" data-name="Trazado 731431" d="M150.331,262.014c.6-.447.771-1.6.2-2.924-.474-1.1-1.729-1.983-1.845-2.859-.076-.566.338-.794.7-.933-1.589.154-1.324,1.673-.648,2.739a.634.634,0,0,1,.469.177c.884.873.967,2.648,1.122,3.8" transform="translate(-27.406 -47.209)" fill="#bb78a2" fill-rule="evenodd"/>
          <path id="Trazado_731432" data-name="Trazado 731432" d="M153.429,259.26c1.214-1.8-1.637-3.336-1.908-4.692a.823.823,0,0,1,.971-.906c-1.245-.6-2.352.433-1.753,1.534a10.693,10.693,0,0,0,1.23,1.287,5.444,5.444,0,0,1,1.461,2.778" transform="translate(-27.843 -46.874)" fill="#bb78a2" fill-rule="evenodd"/>
          <path id="Trazado_731433" data-name="Trazado 731433" d="M155.579,256.73c.633-1.536-1.968-3.022-2.112-3.837a.693.693,0,0,1,.513-.787c-.792-.335-2.04.4-1.126,1.284a6.614,6.614,0,0,1,2.725,3.34" transform="translate(-28.206 -46.604)" fill="#bb78a2" fill-rule="evenodd"/>
          <path id="Trazado_731434" data-name="Trazado 731434" d="M198.209,232.35a3.323,3.323,0,0,0,3.595-.112,2.428,2.428,0,0,0,2.826-.557c.078.165.381.171.527.134.932-.191,1.766-.241,2.107-1.492.277-1.022-.72-4.233-2.066-3.781a.746.746,0,0,0-.471.83c-.3-.835-1.989-1.572-2.316.179a1.676,1.676,0,0,0-.633-.972c-1.058-.659-2.007.349-2.2,1.713a2.581,2.581,0,0,0-.8.009c-1.289.247-3.83,1.88-4.358,3.724-.3,1.055.238,2.542,1.7,2.118.784-.227,1.487-1.209,2.079-1.792" transform="translate(-35.938 -41.86)" fill="#935e45" fill-rule="evenodd"/>
          <path id="Trazado_731435" data-name="Trazado 731435" d="M194.925,234.425c-.069-2.541,2.3-5.032,3.944-5.706a6.164,6.164,0,0,0-4.339,3.415c-.382.974-.314,1.787.395,2.29" transform="translate(-35.93 -42.294)" fill="#5d382e" fill-rule="evenodd"/>
          <path id="Trazado_731436" data-name="Trazado 731436" d="M199.086,232.339c.746.049,1.626-.716,2.052-2.092.357-1.148-.025-2.631.454-3.372a.861.861,0,0,1,1.138-.256c-1.308-.915-2.093.412-2.272,1.662a.635.635,0,0,1,.242.44c.106,1.238-.985,2.642-1.615,3.618" transform="translate(-36.815 -41.85)" fill="#5d382e" fill-rule="evenodd"/>
          <path id="Trazado_731437" data-name="Trazado 731437" d="M203.5,232.256c2.092-.581.921-3.6,1.6-4.807a.823.823,0,0,1,1.327-.059c-.558-1.263-2.069-1.2-2.329.028a10.771,10.771,0,0,0,.1,1.778,5.447,5.447,0,0,1-.694,3.061" transform="translate(-37.63 -41.879)" fill="#5d382e" fill-rule="evenodd"/>
          <path id="Trazado_731438" data-name="Trazado 731438" d="M206.963,231.707c1.479-.756.466-3.577.886-4.289a.693.693,0,0,1,.9-.266c-.385-.769-1.812-1.02-1.69.245a6.61,6.61,0,0,1-.1,4.309" transform="translate(-38.271 -41.886)" fill="#5d382e" fill-rule="evenodd"/>
          <path id="Trazado_731439" data-name="Trazado 731439" d="M298.9,192.27a3.323,3.323,0,0,0,2.66-2.419,2.428,2.428,0,0,0,1.787-2.259c.166.075.4-.117.488-.24.584-.75,1.186-1.331.633-2.5-.453-.958-3.3-2.752-4.027-1.533a.746.746,0,0,0,.181.937c-.774-.437-2.534.1-1.646,1.64a1.673,1.673,0,0,0-1.112-.329c-1.232.187-1.3,1.569-.557,2.731a2.564,2.564,0,0,0-.6.524c-.818,1.025-1.691,3.916-.895,5.662.455,1,1.832,1.779,2.671.5a6.408,6.408,0,0,0,.417-2.713" transform="translate(-54.642 -33.823)" fill="#e2b1ce" fill-rule="evenodd"/>
          <path id="Trazado_731440" data-name="Trazado 731440" d="M297.46,196.971c-1.7-1.886-1.518-5.321-.706-6.9a6.166,6.166,0,0,0-1.082,5.415c.341.989.923,1.563,1.787,1.485" transform="translate(-54.632 -35.148)" fill="#bb78a2" fill-rule="evenodd"/>
          <path id="Trazado_731441" data-name="Trazado 731441" d="M299.186,192.871c.6-.447.771-1.6.2-2.925-.474-1.1-1.729-1.983-1.845-2.858-.076-.566.338-.794.7-.933-1.589.154-1.324,1.673-.648,2.74a.634.634,0,0,1,.469.177c.884.873.967,2.648,1.122,3.8" transform="translate(-54.932 -34.423)" fill="#bb78a2" fill-rule="evenodd"/>
          <path id="Trazado_731442" data-name="Trazado 731442" d="M302.284,190.117c1.214-1.8-1.637-3.336-1.908-4.692a.823.823,0,0,1,.971-.906c-1.245-.6-2.352.433-1.753,1.534a10.687,10.687,0,0,0,1.23,1.287,5.444,5.444,0,0,1,1.461,2.778" transform="translate(-55.369 -34.088)" fill="#bb78a2" fill-rule="evenodd"/>
          <path id="Trazado_731443" data-name="Trazado 731443" d="M304.434,187.588c.633-1.536-1.968-3.022-2.112-3.837a.694.694,0,0,1,.513-.787c-.792-.335-2.041.4-1.126,1.284a6.614,6.614,0,0,1,2.725,3.34" transform="translate(-55.732 -33.818)" fill="#bb78a2" fill-rule="evenodd"/>
          <path id="Trazado_731444" data-name="Trazado 731444" d="M91.6,399.283l10.376-.2,1.393,12.93-12.547.046Z" transform="translate(-16.795 -73.797)" fill="#935e45" fill-rule="evenodd"/>
          <path id="Trazado_731445" data-name="Trazado 731445" d="M102.523,405.688c-5.045,2.516-11.05-.123-11.05-.123Z" transform="translate(-16.915 -74.996)" fill="#5d382e" fill-rule="evenodd"/>
          <path id="Trazado_731446" data-name="Trazado 731446" d="M102.808,406.859c-.5.032-2.25,0-2.9.64-.673.664-.493,1.749-.537,3.136-3.324-.143-4.211-3.418-8.635-2.713a69.049,69.049,0,0,0-.508,11.213c8.886.151,18.109-.038,27.126-.019a8.219,8.219,0,0,0-.794-2.349,8.111,8.111,0,0,0-4.952-3.509c-2.778-.909-6.032-1.742-7.618-4.05a16.85,16.85,0,0,1-1.184-2.349" transform="translate(-16.682 -75.236)" fill="#fff" fill-rule="evenodd"/>
          <path id="Trazado_731447" data-name="Trazado 731447" d="M103.574,411.467c.229.509,1.448-.1,2.371-.256.542-.086,1.839-.046,1.937-.541.174-.891-1.774-.846-2.6-.633-.8.205-2.05.677-1.712,1.43" transform="translate(-19.142 -75.799)" fill="#2f2fa7" fill-rule="evenodd"/>
          <path id="Trazado_731448" data-name="Trazado 731448" d="M105.185,413.865c.462.624,1.75-.119,2.662-.324.481-.108,1.019-.175,1.49-.242.447-.059,1.276-.01,1.253-.4-.053-.824-1.407-.884-2.356-.774-1.2.139-3.739.809-3.048,1.736" transform="translate(-19.429 -76.202)" fill="#2f2fa7" fill-rule="evenodd"/>
          <path id="Trazado_731449" data-name="Trazado 731449" d="M112.548,413.731c.821.284,1.651.536,2.445.8a6.976,6.976,0,0,1,5.745,5.858c-4.049-.009-8.143.025-12.225.05a7.837,7.837,0,0,1,4.035-6.706" transform="translate(-20.066 -76.506)" fill="#2f2fa7"/>
          <path id="Trazado_731450" data-name="Trazado 731450" d="M95.7,420.311c-1.832-.008-3.661-.021-5.47-.052-.027-2.5-.031-4.984.106-7.323a9.009,9.009,0,0,1,5.364,7.375" transform="translate(-16.682 -76.359)" fill="#2f2fa7"/>
          <path id="Trazado_731451" data-name="Trazado 731451" d="M119.121,285.625a110.3,110.3,0,0,1-1.68,20.266c-.789,4.873-1.535,9.751-2.535,14.586-1.32,6.381-2.82,12.722-4.239,19.08-1.391,6.23-2.664,12.485-3.965,18.736-.872,4.188-1.7,8.383-2.554,12.576-.223,1.1-.226,1.068-1.34,1.135-3.255.195-6.513.232-9.77.134-2.268-.068-4.534-.222-6.8-.343-.849-.046-.963-.138-.938-1.015.052-1.841.132-3.682.229-5.522.08-1.51.216-3.018.3-4.529.184-3.251.5-6.493.753-9.739.239-3.017.525-6.029.831-9.04.448-4.419.976-8.829,1.67-13.216.561-3.543.988-7.1,1.467-10.656.492-3.653,1.122-7.284,1.709-10.921.571-3.541,1.246-7.065,1.625-10.634a64.193,64.193,0,0,0,.143-12.018c-.469-5.782-1.53-11.476-2.351-17.206a73.74,73.74,0,0,0-1.614-8.531,51.547,51.547,0,0,0-4.975-11.793,47.529,47.529,0,0,1-3.215-6.443,21.854,21.854,0,0,1-.28-14.058c.138-.474.267-.95.407-1.424.333-1.117.361-1.15,1.5-1.119,1.479.041,2.958.14,4.437.154,2.831.027,5.662.014,8.493.013q8.494,0,16.986,0c1.348,0,1.452.083,1.546,1.426.211,3.018.385,6.04.615,9.056.205,2.69.465,5.375.7,8.061q.335,3.784.676,7.568c.218,2.391.451,4.781.663,7.174.18,2.031.354,4.063.507,6.1.187,2.493.35,4.987.527,7.482.105,1.477.151,2.959.2,4.436.126,3.485.372,6.969.269,10.229" transform="translate(-14.899 -41.408)" fill="#12263f"/>
          <path id="Trazado_731452" data-name="Trazado 731452" d="M117.894,229.791a1.121,1.121,0,0,1,.4,1.21,60.206,60.206,0,0,1-.821,7.6,4.124,4.124,0,0,1-1.955,2.792,10.524,10.524,0,0,1-4.605,1.545c-.251.026-.536-.006-.639-.3a.543.543,0,0,1,.184-.549c3.271-3.43,5.288-7.606,7.1-11.907a1.954,1.954,0,0,1,.339-.4" transform="translate(-20.387 -42.493)" fill="#111114"/>
          <path id="Trazado_731453" data-name="Trazado 731453" d="M117.814,319.182A5.511,5.511,0,0,1,118.9,315.9c.06-.077.113-.161.179-.234.15-.166.281-.412.544-.351.289.067.24.353.262.571.128,1.3.24,2.607.377,3.909.1.944.231,1.884.346,2.826.028.227.086.483-.118.645-.258.2-.5.029-.716-.118a4.374,4.374,0,0,1-1.963-3.961" transform="translate(-21.786 -58.305)" fill="#111114"/>
          <path id="Trazado_731454" data-name="Trazado 731454" d="M81.523,225.652a1.12,1.12,0,0,0,1.152,1.087l31.918.1a1.12,1.12,0,0,0,1.157-1.081l.006-2.289a1.12,1.12,0,0,0-1.151-1.088l-31.918-.1a1.121,1.121,0,0,0-1.157,1.082Z" transform="translate(-15.075 -41.104)" fill="#af5091" fill-rule="evenodd"/>
          <path id="Trazado_731455" data-name="Trazado 731455" d="M119.981,226.489a.692.692,0,1,0,1.385-.021l-.06-4.172a.692.692,0,1,0-1.385.021Z" transform="translate(-22.176 -40.98)" fill="#fff" fill-rule="evenodd"/>
          <path id="Trazado_731456" data-name="Trazado 731456" d="M109.471,226.6a.692.692,0,1,0,1.385-.019l-.061-4.174a.692.692,0,0,0-1.384.02Z" transform="translate(-20.232 -41.001)" fill="#fff" fill-rule="evenodd"/>
          <path id="Trazado_731457" data-name="Trazado 731457" d="M112.355,222.223c0,.006,0,.012,0,.02l0,0,0,.014.052,3.852a.588.588,0,0,0,.011.069.565.565,0,0,0-.017.14.631.631,0,0,0,.619.641l3.761.018a.631.631,0,0,0,.628-.635.156.156,0,0,0,0-.017.49.49,0,0,0,.02-.155l-.055-3.856a.112.112,0,0,1,0-.029.17.17,0,0,0,0-.02.632.632,0,0,0-.621-.642l-3.764-.019a.625.625,0,0,0-.615.515.459.459,0,0,0-.011.1m1.325,3.462-.013-.835,2.457.014.012.835ZM116.1,222.9l.011.682-2.457-.011-.008-.683Z" transform="translate(-20.776 -40.979)" fill="#fff" fill-rule="evenodd"/>
          <path id="Trazado_731458" data-name="Trazado 731458" d="M176.947,237.942c-.507-.777-.607-1.677-1.126-2.451a14.8,14.8,0,0,1-5.79-3.057l4.358-8.338,0-.008.164.087c1.7.734,4.235.217,5.9-.443.733-.289,1.59-1.071,2.3-.627.747.468.461,1.852-.256,2.872a5.908,5.908,0,0,1-1.911,1.413,38.759,38.759,0,0,1,3.516,1.872c1.435.848,4.625,2.088,3.841,3.433-.818,1.4-4.494-.842-5.688-.831.7.8,1.435,1.64,2.17,2.658.593.824,1.666,2.133,1.065,3-.95,1.369-3.306-1.3-4.1-2.07.245,1.265.892,5.557-.381,5.929-.946.279-1.417-1.236-1.881-1.464-.143.815-.317,2.721-1.345,2.524-1.486-.284-.907-3.7-.844-4.5" transform="translate(-31.442 -41.231)" fill="#935e45"/>
          <path id="Trazado_731459" data-name="Trazado 731459" d="M176.936,238.2a6.191,6.191,0,0,1-1.126-2.451,9.181,9.181,0,0,1-2.355-.791,12.494,12.494,0,0,1-3.483-2.175l4.406-8.43a.22.22,0,0,1,.078.032c-.114,2.557-2.409,6.579-4.1,8.346a18.069,18.069,0,0,0,2.8,1.26,13.889,13.889,0,0,1,2.673.845,5.4,5.4,0,0,1,.92,1.531,6.017,6.017,0,0,1,.782,1.573c.059.608-.633,1.8-.28,4.453-.985-1.162-.446-2.9-.32-4.194" transform="translate(-31.431 -41.486)" fill="#5d382e"/>
          <path id="Trazado_731460" data-name="Trazado 731460" d="M179.781,226.378c2.093.424,4.007.026,5.169-2.593a3.03,3.03,0,0,1-.687,2.432,4.3,4.3,0,0,1-1.862,1.324c-.816-.529-2.039-.584-2.62-1.163" transform="translate(-33.245 -41.382)" fill="#5d382e"/>
          <path id="Trazado_731461" data-name="Trazado 731461" d="M181.361,230.929c1.668.4,3.7,1.751,5.463,2.563a14.419,14.419,0,0,0,2.841,1.021c-.581.518-3.954-.3-5.394-1.224a12.075,12.075,0,0,0-2.91-2.36" transform="translate(-33.537 -42.703)" fill="#5d382e"/>
          <path id="Trazado_731462" data-name="Trazado 731462" d="M183.522,237.359s-.506-1.542-.854-2.307a6.834,6.834,0,0,0-1.144-1.765c2.924,1.8,2.29,4.821,5.625,6.5-.784.267-1.61-.53-2.116-.925a8.52,8.52,0,0,1-1.511-1.5" transform="translate(-33.567 -43.139)" fill="#5d382e"/>
          <path id="Trazado_731463" data-name="Trazado 731463" d="M179.7,236.716c3.088,1.658,1.224,5.743,3.105,7.207-1.02.254-1.642-.84-1.929-1.374a6.605,6.605,0,0,0-1.176-5.833" transform="translate(-33.229 -43.773)" fill="#5d382e"/>
          <path id="Trazado_731464" data-name="Trazado 731464" d="M98.826,155.389a7.48,7.48,0,0,1,3.624,1.168,21.949,21.949,0,0,1,4.811,4.36,86.55,86.55,0,0,1,10.086,14.837,91.074,91.074,0,0,0,8.5,12.82,20.085,20.085,0,0,0,6.787,5.454c3.153,1.57,6.32,3.111,9.413,4.8,5.951,3.248,11.959,6.4,17.735,9.955,1.873,1.154,1.562.961.991,2.688-1.137,3.437-2.352,6.848-3.693,10.212-.11.275-.229.546-.346.818a.6.6,0,0,1-.789.394c-.222-.064-.447-.113-.668-.176a138.867,138.867,0,0,1-27.335-10.748,55.036,55.036,0,0,1-13.827-9.919,72.308,72.308,0,0,1-5.476-6.482,126.133,126.133,0,0,1-11.608-17.982,38.978,38.978,0,0,1-4.344-11.812,13.479,13.479,0,0,1-.1-5.2,6.323,6.323,0,0,1,6.232-5.189" transform="translate(-17.082 -28.734)" fill="#cecef4"/>
          <path id="Trazado_731465" data-name="Trazado 731465" d="M97.363,170.265a25.565,25.565,0,0,1-1.237-9.338c.19-2.418,1.091-4.394,3.277-5.483-.19-.024-.381-.045-.577-.055a6.323,6.323,0,0,0-6.232,5.189,13.5,13.5,0,0,0,.1,5.2,38.987,38.987,0,0,0,4.345,11.812,126.107,126.107,0,0,0,11.608,17.982c1.387,1.805,2.81,3.58,4.339,5.262a168.818,168.818,0,0,1-12.119-21.774,64.2,64.2,0,0,1-3.5-8.795" transform="translate(-17.082 -28.734)" fill="#a4a4e4"/>
          <path id="Trazado_731466" data-name="Trazado 731466" d="M131.963,203.9a1.1,1.1,0,0,0,.76-.381c1.365-1.167,2.731-2.334,4.083-3.517a19.816,19.816,0,0,1-2.111-1.817,47.229,47.229,0,0,0-2.506,4.67,1.333,1.333,0,0,0-.227,1.044" transform="translate(-24.395 -36.649)" fill="#a4a4e4"/>
        </g>
      </g>
    </g>
  </g>
</svg>
