<svg xmlns="http://www.w3.org/2000/svg" width="96.001" height="154" viewBox="0 0 96.001 154">
  <g id="Grupo_987230" data-name="Grupo 987230" transform="translate(-195 -3849.498)">
    <path id="Rectángulo_344924" data-name="Rectángulo 344924" d="M0,0H67a0,0,0,0,1,0,0V120.5A33.5,33.5,0,0,1,33.5,154h0A33.5,33.5,0,0,1,0,120.5V0A0,0,0,0,1,0,0Z" transform="translate(210 3849.498)" fill="#ff6e33"/>
    <g id="ropa_" data-name="ropa´" transform="translate(195 3879.498)">
      <path id="Trazado_731470" data-name="Trazado 731470" d="M25.69,67.134v64.314a3.865,3.865,0,0,0,3.528,3.9,3.78,3.78,0,0,0,4.031-3.771V66H26.824A1.134,1.134,0,0,0,25.69,67.134Z" transform="translate(-16.359 -42.566)" fill="#ffea92"/>
      <path id="Trazado_731471" data-name="Trazado 731471" d="M28.227,134.869c-.1,0-.2,0-.305-.01a4.611,4.611,0,0,1-4.235-4.656V65.89A1.892,1.892,0,0,1,25.577,64H32a.756.756,0,0,1,.756.756v65.577a4.553,4.553,0,0,1-1.436,3.31,4.493,4.493,0,0,1-3.095,1.226ZM25.578,65.512a.378.378,0,0,0-.378.378V130.2a3.1,3.1,0,0,0,2.821,3.147,3.024,3.024,0,0,0,3.227-3.017V65.512Z" transform="translate(-15.113 -41.322)" fill="#3762cc"/>
      <path id="Trazado_731472" data-name="Trazado 731472" d="M0,0H16.087V61.76a1.018,1.018,0,0,1-1.018,1.018H1.018A1.018,1.018,0,0,1,0,61.76V0Z" transform="translate(22.445 11.277) rotate(20.482)" fill="#4671c6"/>
      <path id="Trazado_731473" data-name="Trazado 731473" d="M1.019,0H15.069a1.018,1.018,0,0,1,1.018,1.018v61.76H0V1.018A1.018,1.018,0,0,1,1.018,0Z" transform="translate(95.52 70.069) rotate(159.518)" fill="#4671c6"/>
      <path id="Trazado_731474" data-name="Trazado 731474" d="M15.936,97.485a1.768,1.768,0,0,1-.619-.113L2.155,92.454a1.776,1.776,0,0,1-1.04-2.283l21.62-57.85a.756.756,0,0,1,.973-.443l15.069,5.632a.756.756,0,0,1,.443.973L17.6,96.331a1.776,1.776,0,0,1-1.665,1.153Zm-.09-1.529a.265.265,0,0,0,.338-.154L37.539,38.659l-13.653-5.1L2.531,90.7a.265.265,0,0,0,.154.338Z" transform="translate(-1.003 -21.31)" fill="#3762cc"/>
      <path id="Trazado_731475" data-name="Trazado 731475" d="M177.089,97.485a1.776,1.776,0,0,1-1.663-1.153L153.8,38.481a.756.756,0,0,1,.443-.973l15.069-5.632a.756.756,0,0,1,.973.443l21.62,57.85a1.776,1.776,0,0,1-1.041,2.283l-13.162,4.918a1.769,1.769,0,0,1-.618.113Zm-21.6-58.826L176.841,95.8a.265.265,0,0,0,.338.154l13.161-4.919a.265.265,0,0,0,.154-.338L169.139,33.557Z" transform="translate(-96.021 -21.31)" fill="#3762cc"/>
      <path id="Trazado_731476" data-name="Trazado 731476" d="M149.013,25.54h-21V92.772a3.371,3.371,0,0,0,3.372,3.371h20.07a2.036,2.036,0,0,0,2.03-2.169l-1.839-28.448,2.224-34.814a4.864,4.864,0,0,0-4.853-5.173Z" transform="translate(-80.005 -17.399)" fill="#4671c6"/>
      <path id="Trazado_731477" data-name="Trazado 731477" d="M85.436,25.54H64.431a4.864,4.864,0,0,0-4.854,5.174L61.8,65.528,59.962,93.975a2.037,2.037,0,0,0,2.032,2.168h20.07a3.371,3.371,0,0,0,3.371-3.371Z" transform="translate(-37.432 -17.399)" fill="#4671c6"/>
      <path id="Trazado_731478" data-name="Trazado 731478" d="M150.2,95.656h-20.07a4.132,4.132,0,0,1-4.127-4.127V24.3a.756.756,0,0,1,.756-.756h21a5.619,5.619,0,0,1,5.608,5.978l-2.221,34.765,1.836,28.4a2.792,2.792,0,0,1-2.787,2.973Zm-22.684-70.6V91.529a2.618,2.618,0,0,0,2.616,2.615H150.2a1.281,1.281,0,0,0,1.278-1.364l-1.839-28.448a.832.832,0,0,1,0-.1l2.223-34.814a4.108,4.108,0,0,0-4.1-4.369Z" transform="translate(-78.759 -16.155)" fill="#3762cc"/>
      <path id="Trazado_731479" data-name="Trazado 731479" d="M80.822,95.656H60.752a2.792,2.792,0,0,1-2.786-2.973l1.836-28.4L57.581,29.518a5.62,5.62,0,0,1,5.607-5.978H84.193a.756.756,0,0,1,.756.756V91.529A4.132,4.132,0,0,1,80.822,95.656Zm-17.634-70.6a4.108,4.108,0,0,0-4.1,4.369l2.225,34.814a.754.754,0,0,1,0,.1L59.475,92.78a1.281,1.281,0,0,0,1.278,1.364h20.07a2.618,2.618,0,0,0,2.615-2.615V25.052Z" transform="translate(-36.189 -16.155)" fill="#3762cc"/>
      <path id="Trazado_731480" data-name="Trazado 731480" d="M85.166,15.661,77.293,18.58a.612.612,0,0,0-.384.8l4.016,10.009h2.543a.621.621,0,0,1,.468,1.08l-2.621,2.295a.591.591,0,0,0-.117.772l15,23.452Z" transform="translate(-48.194 -11.254)" fill="#4671c6"/>
      <path id="Trazado_731481" data-name="Trazado 731481" d="M139.042,15.661l7.873,2.919a.612.612,0,0,1,.384.8l-4.016,10.011H140.74a.621.621,0,0,0-.468,1.08l2.619,2.295a.591.591,0,0,1,.117.772l-15,23.452Z" transform="translate(-80.004 -11.254)" fill="#4671c6"/>
      <path id="Trazado_731482" data-name="Trazado 731482" d="M98.821,15.661h22.064L109.853,56.987Z" transform="translate(-61.849 -11.254)" fill="#a4c9ff"/>
      <path id="Trazado_731483" data-name="Trazado 731483" d="M112.435,132.787a2.434,2.434,0,1,1,2.434-2.434A2.434,2.434,0,0,1,112.435,132.787Zm0-3.357a.923.923,0,1,0,.923.923.923.923,0,0,0-.923-.923Z" transform="translate(-68.803 -81.081)" fill="#3762cc"/>
      <path id="Trazado_731484" data-name="Trazado 731484" d="M112.434,157.51a2.434,2.434,0,1,1,2.434-2.434A2.434,2.434,0,0,1,112.434,157.51Zm0-3.357a.923.923,0,1,0,.923.923.923.923,0,0,0-.923-.923Z" transform="translate(-68.803 -96.46)" fill="#3762cc"/>
      <path id="Trazado_731485" data-name="Trazado 731485" d="M94.95,56.5a.756.756,0,0,1-.637-.348l-15-23.452a1.347,1.347,0,0,1,.256-1.748l2.34-2.05H79.676a.756.756,0,0,1-.7-.474L74.959,18.415a1.329,1.329,0,0,1,.019-1.042,1.4,1.4,0,0,1,.806-.746l7.873-2.919a.756.756,0,0,1,.993.514l11.03,41.326a.756.756,0,0,1-.73.951ZM80.662,32l12.3,19.233L83.4,15.415,76.422,18l3.764,9.387h2.031a1.421,1.421,0,0,1,1.35.912,1.344,1.344,0,0,1-.384,1.493Z" transform="translate(-46.946 -10.01)" fill="#3762cc"/>
      <path id="Trazado_731486" data-name="Trazado 731486" d="M126.764,56.5a.756.756,0,0,1-.73-.951l11.032-41.326a.756.756,0,0,1,.993-.514l7.873,2.919a1.4,1.4,0,0,1,.8.746,1.329,1.329,0,0,1,.019,1.042l-4.014,10.011a.756.756,0,0,1-.7.474h-2.233l2.34,2.05A1.347,1.347,0,0,1,142.4,32.7l-15,23.451A.756.756,0,0,1,126.764,56.5Zm11.549-41.085L128.75,51.236,141.052,32l-2.521-2.209a1.343,1.343,0,0,1-.384-1.493,1.42,1.42,0,0,1,1.349-.912h2.031L145.292,18Z" transform="translate(-78.76 -10.01)" fill="#3762cc"/>
      <path id="Trazado_731487" data-name="Trazado 731487" d="M108.609,56.5a.756.756,0,0,1-.73-.561L96.847,14.612a.756.756,0,0,1,.73-.951h22.065a.756.756,0,0,1,.73.951L109.339,55.938A.756.756,0,0,1,108.609,56.5ZM98.561,15.173l10.047,37.639,10.048-37.639Z" transform="translate(-60.605 -10.009)" fill="#3762cc"/>
      <path id="Trazado_731488" data-name="Trazado 731488" d="M160.626,179.822h-9.418a2.273,2.273,0,0,1-2.271-2.271v-1.474a1.454,1.454,0,0,1,1.452-1.452h11.056a1.454,1.454,0,0,1,1.452,1.452v1.474a2.273,2.273,0,0,1-2.271,2.271Zm-10.177-3.685v1.414a.759.759,0,0,0,.759.759h9.418a.76.76,0,0,0,.759-.759v-1.414Z" transform="translate(-93.023 -110.134)" fill="#3762cc"/>
      <path id="Trazado_731489" data-name="Trazado 731489" d="M81.835,179.822H72.417a2.273,2.273,0,0,1-2.271-2.271v-1.474a1.454,1.454,0,0,1,1.452-1.452H82.654a1.454,1.454,0,0,1,1.452,1.452v1.474a2.273,2.273,0,0,1-2.271,2.271Zm-10.177-3.685v1.414a.76.76,0,0,0,.759.759h9.417a.76.76,0,0,0,.759-.759v-1.414Z" transform="translate(-44.012 -110.134)" fill="#3762cc"/>
      <path id="Trazado_731490" data-name="Trazado 731490" d="M43.139,6H40.321a1.134,1.134,0,0,0-1.134,1.134V94.083a3.952,3.952,0,0,1-3.952,3.952h7.9a3.952,3.952,0,0,0,3.951-3.951V7.134A1.134,1.134,0,0,0,45.956,6Z" transform="translate(-22.296 -5.244)" fill="#ffea92"/>
      <g id="Grupo_987229" data-name="Grupo 987229" transform="translate(21.543 7.559)">
        <path id="Trazado_731491" data-name="Trazado 731491" d="M61.251,25.512H58.756a.756.756,0,0,1,0-1.512h2.495a.756.756,0,0,1,0,1.512Z" transform="translate(-58 -24)" fill="#3762cc"/>
        <path id="Trazado_731492" data-name="Trazado 731492" d="M61.251,45.512H58.756a.756.756,0,0,1,0-1.512h2.495a.756.756,0,0,1,0,1.512Z" transform="translate(-58 -36.441)" fill="#3762cc"/>
        <path id="Trazado_731493" data-name="Trazado 731493" d="M61.251,65.512H58.756a.756.756,0,1,1,0-1.512h2.495a.756.756,0,1,1,0,1.512Z" transform="translate(-58 -48.881)" fill="#3762cc"/>
        <path id="Trazado_731494" data-name="Trazado 731494" d="M61.251,85.512H58.756a.756.756,0,1,1,0-1.512h2.495a.756.756,0,1,1,0,1.512Z" transform="translate(-58 -61.322)" fill="#3762cc"/>
        <path id="Trazado_731495" data-name="Trazado 731495" d="M61.251,105.512H58.756a.756.756,0,1,1,0-1.512h2.495a.756.756,0,1,1,0,1.512Z" transform="translate(-58 -73.763)" fill="#3762cc"/>
        <path id="Trazado_731496" data-name="Trazado 731496" d="M61.251,125.512H58.756a.756.756,0,0,1,0-1.512h2.495a.756.756,0,0,1,0,1.512Z" transform="translate(-58 -86.203)" fill="#3762cc"/>
        <path id="Trazado_731497" data-name="Trazado 731497" d="M61.251,145.512H58.756a.756.756,0,0,1,0-1.512h2.495a.756.756,0,0,1,0,1.512Z" transform="translate(-58 -98.644)" fill="#3762cc"/>
        <path id="Trazado_731498" data-name="Trazado 731498" d="M61.251,165.512H58.756a.756.756,0,0,1,0-1.512h2.495a.756.756,0,0,1,0,1.512Z" transform="translate(-58 -111.085)" fill="#3762cc"/>
        <path id="Trazado_731499" data-name="Trazado 731499" d="M61.251,185.512H58.756a.756.756,0,0,1,0-1.512h2.495a.756.756,0,0,1,0,1.512Z" transform="translate(-58 -123.525)" fill="#3762cc"/>
        <path id="Trazado_731500" data-name="Trazado 731500" d="M61.251,205.512H58.756a.756.756,0,0,1,0-1.512h2.495a.756.756,0,0,1,0,1.512Z" transform="translate(-58 -135.966)" fill="#3762cc"/>
      </g>
      <path id="Trazado_731501" data-name="Trazado 731501" d="M94.646,167.555l1.739-3.591,13.363-27.608a4.011,4.011,0,0,1,2.085,4.9l-6.192,18.489a4.011,4.011,0,0,1-3.8,2.737H99.9l-3.515,8.108-1.611-1.935a1.64,1.64,0,0,0-.087-1.018c-.014-.028-.028-.055-.042-.081Z" transform="translate(-59.252 -86.33)" fill="#e0ebfc"/>
      <path id="Trazado_731502" data-name="Trazado 731502" d="M95.14,170.1a.756.756,0,0,1-.581-.272l-1.611-1.935a.756.756,0,0,1-.155-.657.889.889,0,0,0-.048-.552s-.021-.042-.022-.044a.756.756,0,0,1,0-.66l15.1-31.2a.756.756,0,0,1,1-.354,4.77,4.77,0,0,1,2.478,5.821l-6.193,18.489a4.762,4.762,0,0,1-4.52,3.253h-1.44l-3.319,7.653a.756.756,0,0,1-.586.447A.738.738,0,0,1,95.14,170.1Zm-.816-2.917.611.734,3.028-6.981a.756.756,0,0,1,.694-.454h1.936a3.251,3.251,0,0,0,3.086-2.221l6.193-18.489a3.258,3.258,0,0,0-1.053-3.576L94.227,166.343a2.381,2.381,0,0,1,.1.84Z" transform="translate(-58.009 -85.086)" fill="#3762cc"/>
      <path id="Trazado_731503" data-name="Trazado 731503" d="M98.49,167.555l-1.739-3.591L83.389,136.356a4.011,4.011,0,0,0-2.085,4.9L87.5,159.743a4.011,4.011,0,0,0,3.8,2.737h1.936l3.517,8.108,1.611-1.935a1.64,1.64,0,0,1,.087-1.018c.012-.028.026-.055.039-.081Z" transform="translate(-50.823 -86.33)" fill="#e0ebfc"/>
      <circle id="Elipse_4738" data-name="Elipse 4738" cx="1.231" cy="1.231" r="1.231" transform="translate(40.07 71.537)" fill="#4671c6"/>
      <path id="Trazado_731504" data-name="Trazado 731504" d="M95.51,170.1a.742.742,0,0,1-.108-.008.756.756,0,0,1-.586-.447L91.5,161.993h-1.44a4.762,4.762,0,0,1-4.52-3.253l-6.191-18.489a4.77,4.77,0,0,1,2.479-5.821.756.756,0,0,1,1,.354l15.1,31.2a.756.756,0,0,1,0,.657.348.348,0,0,1-.019.038.89.89,0,0,0-.053.562.756.756,0,0,1-.155.658l-1.611,1.935a.756.756,0,0,1-.579.272ZM81.831,136.2a3.258,3.258,0,0,0-1.053,3.576l6.193,18.488a3.25,3.25,0,0,0,3.086,2.221h1.936a.756.756,0,0,1,.694.454l3.028,6.981.611-.734a2.381,2.381,0,0,1,.1-.841Z" transform="translate(-49.58 -85.087)" fill="#3762cc"/>
      <path id="Trazado_731505" data-name="Trazado 731505" d="M107.006,195.241a1.987,1.987,0,1,1,1.987-1.987A1.987,1.987,0,0,1,107.006,195.241Zm0-2.461a.475.475,0,1,0,.475.475A.475.475,0,0,0,107.006,192.78Z" transform="translate(-65.704 -120.487)" fill="#3762cc"/>
      <path id="Trazado_731506" data-name="Trazado 731506" d="M115.4,210.9l2.716-1.257a.544.544,0,0,1,.722.265l2.058,4.445-3.7,1.715-2.058-4.445A.544.544,0,0,1,115.4,210.9Z" transform="translate(-71.963 -131.884)" fill="#f9a7a7"/>
      <path id="Trazado_731507" data-name="Trazado 731507" d="M115.946,215.575a.756.756,0,0,1-.687-.438l-2.057-4.446a1.3,1.3,0,0,1,.634-1.726l2.716-1.258a1.3,1.3,0,0,1,1.726.633l2.058,4.445a.756.756,0,0,1-.369,1l-3.7,1.715a.753.753,0,0,1-.317.07Zm-1.285-5.326,1.651,3.566,2.332-1.079-1.651-3.567Z" transform="translate(-70.719 -130.638)" fill="#3762cc"/>
      <path id="Trazado_731508" data-name="Trazado 731508" d="M125.58,221.717a5.956,5.956,0,1,0-3.312,7.745,5.956,5.956,0,0,0,3.312-7.745Zm-4.419,4.983a2.981,2.981,0,1,1,1.659-3.877,2.981,2.981,0,0,1-1.659,3.877Z" transform="translate(-71.35 -137.1)" fill="#f9a7a7"/>
      <path id="Trazado_731509" data-name="Trazado 731509" d="M118.8,229.4a6.72,6.72,0,1,1,5.557-2.955A6.714,6.714,0,0,1,118.8,229.4Zm0-11.918a5.2,5.2,0,1,0,4.826,3.268,5.2,5.2,0,0,0-4.826-3.268Zm0,8.942a3.742,3.742,0,1,1,1.389-.27,3.742,3.742,0,0,1-1.389.27Zm0-5.965a2.225,2.225,0,1,0,2.189,1.8A2.225,2.225,0,0,0,118.8,220.463Z" transform="translate(-70.101 -135.855)" fill="#3762cc"/>
      <path id="Trazado_731510" data-name="Trazado 731510" d="M96.8,210.9l-2.716-1.258a.544.544,0,0,0-.723.265l-2.058,4.445,3.7,1.715,2.058-4.445A.544.544,0,0,0,96.8,210.9Z" transform="translate(-57.174 -131.884)" fill="#f9a7a7"/>
      <path id="Trazado_731511" data-name="Trazado 731511" d="M93.763,215.578a.746.746,0,0,1-.317-.07l-3.7-1.715a.756.756,0,0,1-.369-1l2.058-4.445a1.3,1.3,0,0,1,1.726-.634l2.717,1.257a1.3,1.3,0,0,1,.633,1.727l-2.058,4.445a.756.756,0,0,1-.688.438Zm-2.7-2.839,2.332,1.079,1.652-3.566-2.332-1.08Z" transform="translate(-55.93 -130.64)" fill="#3762cc"/>
      <path id="Trazado_731512" data-name="Trazado 731512" d="M79.886,229.461a5.956,5.956,0,1,0-3.312-7.745,5.956,5.956,0,0,0,3.313,7.745Zm-.551-6.639a2.981,2.981,0,1,1,1.658,3.877A2.981,2.981,0,0,1,79.335,222.822Z" transform="translate(-47.743 -137.1)" fill="#f9a7a7"/>
      <path id="Trazado_731513" data-name="Trazado 731513" d="M80.849,229.4a6.713,6.713,0,1,1,6.69-6.068,6.682,6.682,0,0,1-6.69,6.068Zm-1.928-1.885a5.2,5.2,0,1,0-2.846-2.782,5.2,5.2,0,0,0,2.846,2.782Zm1.93-1.089a3.736,3.736,0,1,1,3.474-2.347,3.736,3.736,0,0,1-3.474,2.347Zm.008-5.963a2.227,2.227,0,1,0,2.127,1.575,2.23,2.23,0,0,0-2.127-1.575Z" transform="translate(-46.499 -135.857)" fill="#3762cc"/>
      <path id="Trazado_731514" data-name="Trazado 731514" d="M41.895,97.547h-7.9a.756.756,0,1,1,0-1.512,3.2,3.2,0,0,0,3.2-3.2V5.89A1.892,1.892,0,0,1,39.077,4h5.635A1.892,1.892,0,0,1,46.6,5.89V92.839A4.713,4.713,0,0,1,41.895,97.547Zm-4.449-1.512h4.449a3.2,3.2,0,0,0,3.2-3.2V5.89a.378.378,0,0,0-.378-.378H39.077a.378.378,0,0,0-.378.378V92.839a4.69,4.69,0,0,1-1.254,3.2Z" transform="translate(-21.052 -4)" fill="#3762cc"/>
    </g>
  </g>
</svg>
