<svg xmlns="http://www.w3.org/2000/svg" width="399.662" height="347.938" viewBox="0 0 399.662 347.938">
  <g id="Grupo_987312" data-name="Grupo 987312" transform="translate(-600 -6145)">
    <path id="Trazado_737746" data-name="Trazado 737746" d="M5,0H114.217a5,5,0,0,1,5,5V29.974a5,5,0,0,1-5,5H5a5,5,0,0,1-5-5V5A5,5,0,0,1,5,0Z" transform="translate(742 6307)" fill="#9b1f36"/>
    <path id="Trazado_737747" data-name="Trazado 737747" d="M-34.351,0V-7.874h1.59v3.1h3.115v-3.1h1.59V0h-1.59V-3.443h-3.115V0ZM-23.12-1.815l1.5.252A2.467,2.467,0,0,1-22.532-.3,2.69,2.69,0,0,1-24.1.129a2.552,2.552,0,0,1-2.2-.972,3.266,3.266,0,0,1-.564-1.966,3.15,3.15,0,0,1,.741-2.221,2.441,2.441,0,0,1,1.875-.8,2.532,2.532,0,0,1,2.009.841,3.719,3.719,0,0,1,.7,2.575h-3.781a1.527,1.527,0,0,0,.365,1.045,1.142,1.142,0,0,0,.87.373.924.924,0,0,0,.6-.193A1.194,1.194,0,0,0-23.12-1.815Zm.086-1.525a1.453,1.453,0,0,0-.338-1,1.038,1.038,0,0,0-.784-.341,1.048,1.048,0,0,0-.816.36,1.393,1.393,0,0,0-.317.978ZM-18.861,0H-20.37V-5.7h1.4v.811a2.438,2.438,0,0,1,.647-.757,1.191,1.191,0,0,1,.653-.183,1.916,1.916,0,0,1,.994.285l-.467,1.316a1.324,1.324,0,0,0-.709-.247.838.838,0,0,0-.537.175,1.193,1.193,0,0,0-.346.631,8.966,8.966,0,0,0-.126,1.912Zm4.281,0h-1.509V-5.7h1.4v.811a2.438,2.438,0,0,1,.647-.757,1.191,1.191,0,0,1,.653-.183,1.916,1.916,0,0,1,.994.285l-.467,1.316a1.324,1.324,0,0,0-.709-.247.838.838,0,0,0-.537.175,1.193,1.193,0,0,0-.346.631,8.966,8.966,0,0,0-.126,1.912Zm3.964-3.964-1.37-.247a2.133,2.133,0,0,1,.795-1.225,2.909,2.909,0,0,1,1.676-.4,3.612,3.612,0,0,1,1.5.239,1.5,1.5,0,0,1,.7.607,3.112,3.112,0,0,1,.2,1.351L-7.13-1.875A6.116,6.116,0,0,0-7.058-.765,3.237,3.237,0,0,0-6.786,0H-8.28q-.059-.15-.145-.446-.038-.134-.054-.177a2.721,2.721,0,0,1-.827.564,2.369,2.369,0,0,1-.94.188,1.944,1.944,0,0,1-1.388-.478,1.589,1.589,0,0,1-.508-1.208,1.622,1.622,0,0,1,.231-.862A1.509,1.509,0,0,1-11.263-3a5.058,5.058,0,0,1,1.2-.352A8.223,8.223,0,0,0-8.6-3.722v-.15a.781.781,0,0,0-.215-.62,1.287,1.287,0,0,0-.811-.185,1.08,1.08,0,0,0-.628.158A1.1,1.1,0,0,0-10.616-3.964ZM-8.6-2.739a9.434,9.434,0,0,1-.918.231,2.767,2.767,0,0,0-.822.263.629.629,0,0,0-.3.532.74.74,0,0,0,.236.548.825.825,0,0,0,.6.231A1.307,1.307,0,0,0-9.015-1.2a.945.945,0,0,0,.36-.5A2.98,2.98,0,0,0-8.6-2.438ZM-5.739-5.7h1.391v.779A2.238,2.238,0,0,1-2.57-5.833a1.915,1.915,0,0,1,.951.226,1.734,1.734,0,0,1,.661.682,2.635,2.635,0,0,1,.811-.682,1.99,1.99,0,0,1,.929-.226,2.07,2.07,0,0,1,1.063.255,1.563,1.563,0,0,1,.65.749,3.25,3.25,0,0,1,.156,1.182V0H1.141V-3.26a2.426,2.426,0,0,0-.156-1.1.715.715,0,0,0-.645-.322,1.029,1.029,0,0,0-.6.193,1.073,1.073,0,0,0-.4.567A4.077,4.077,0,0,0-.781-2.739V0H-2.291V-3.126A4.336,4.336,0,0,0-2.371-4.2a.686.686,0,0,0-.25-.36.79.79,0,0,0-.459-.118,1.1,1.1,0,0,0-.628.188,1.031,1.031,0,0,0-.4.542A4.032,4.032,0,0,0-4.23-2.771V0H-5.739Zm9.894-.773v-1.4H5.664v1.4ZM4.155,0V-5.7H5.664V0Zm6.359-1.815,1.5.252A2.467,2.467,0,0,1,11.1-.3,2.69,2.69,0,0,1,9.536.129a2.552,2.552,0,0,1-2.2-.972A3.266,3.266,0,0,1,6.77-2.809,3.15,3.15,0,0,1,7.511-5.03a2.441,2.441,0,0,1,1.875-.8,2.532,2.532,0,0,1,2.009.841,3.719,3.719,0,0,1,.7,2.575H8.317a1.527,1.527,0,0,0,.365,1.045A1.142,1.142,0,0,0,9.552-1a.924.924,0,0,0,.6-.193A1.194,1.194,0,0,0,10.514-1.815ZM10.6-3.341a1.453,1.453,0,0,0-.338-1,1.038,1.038,0,0,0-.784-.341,1.048,1.048,0,0,0-.816.36,1.393,1.393,0,0,0-.317.978ZM18.517,0H17.008V-2.911a4.5,4.5,0,0,0-.1-1.2.838.838,0,0,0-.314-.422.9.9,0,0,0-.524-.15,1.21,1.21,0,0,0-.7.215,1.082,1.082,0,0,0-.427.569,4.921,4.921,0,0,0-.115,1.311V0H13.318V-5.7h1.4v.838a2.284,2.284,0,0,1,1.88-.967,2.265,2.265,0,0,1,.913.18,1.53,1.53,0,0,1,.626.459,1.664,1.664,0,0,1,.3.634,4.714,4.714,0,0,1,.083,1.015Zm4.146-5.7v1.2H21.632v2.3a5.718,5.718,0,0,0,.03.814A.332.332,0,0,0,21.8-1.2a.426.426,0,0,0,.255.075,1.952,1.952,0,0,0,.607-.145L22.787-.1a3,3,0,0,1-1.192.226,1.891,1.891,0,0,1-.736-.137,1.074,1.074,0,0,1-.481-.354,1.4,1.4,0,0,1-.212-.588,7.316,7.316,0,0,1-.048-1.063V-4.5h-.693V-5.7h.693V-6.837l1.515-.881V-5.7Zm2.175,1.74-1.37-.247a2.133,2.133,0,0,1,.795-1.225,2.909,2.909,0,0,1,1.676-.4,3.612,3.612,0,0,1,1.5.239,1.5,1.5,0,0,1,.7.607,3.112,3.112,0,0,1,.2,1.351l-.016,1.762A6.116,6.116,0,0,0,28.4-.765,3.237,3.237,0,0,0,28.668,0H27.175q-.059-.15-.145-.446-.038-.134-.054-.177a2.721,2.721,0,0,1-.827.564,2.369,2.369,0,0,1-.94.188,1.944,1.944,0,0,1-1.388-.478,1.589,1.589,0,0,1-.508-1.208,1.622,1.622,0,0,1,.231-.862A1.509,1.509,0,0,1,24.191-3a5.058,5.058,0,0,1,1.2-.352,8.223,8.223,0,0,0,1.466-.371v-.15a.781.781,0,0,0-.215-.62,1.287,1.287,0,0,0-.811-.185,1.08,1.08,0,0,0-.628.158A1.1,1.1,0,0,0,24.839-3.964Zm2.02,1.225a9.434,9.434,0,0,1-.918.231,2.767,2.767,0,0,0-.822.263.629.629,0,0,0-.3.532.74.74,0,0,0,.236.548.825.825,0,0,0,.6.231,1.307,1.307,0,0,0,.779-.269.945.945,0,0,0,.36-.5,2.98,2.98,0,0,0,.059-.736ZM29.3-1.627l1.515-.231a1.11,1.11,0,0,0,.392.669,1.325,1.325,0,0,0,.827.228,1.493,1.493,0,0,0,.881-.215.48.48,0,0,0,.2-.4A.4.4,0,0,0,33-1.864a1.2,1.2,0,0,0-.5-.2A8.142,8.142,0,0,1,30.183-2.8a1.47,1.47,0,0,1-.677-1.284,1.582,1.582,0,0,1,.585-1.246,2.734,2.734,0,0,1,1.815-.5,3.167,3.167,0,0,1,1.74.381,1.949,1.949,0,0,1,.784,1.128l-1.423.263a.88.88,0,0,0-.346-.51,1.267,1.267,0,0,0-.728-.177,1.64,1.64,0,0,0-.854.167.358.358,0,0,0-.172.306.334.334,0,0,0,.15.274,5.663,5.663,0,0,0,1.41.424,4.2,4.2,0,0,1,1.684.671,1.4,1.4,0,0,1,.473,1.123,1.723,1.723,0,0,1-.655,1.348,2.9,2.9,0,0,1-1.939.564,3.182,3.182,0,0,1-1.845-.473A2.178,2.178,0,0,1,29.3-1.627ZM-51.409,12V4.19h1.59v6.483h3.953V12Zm9.969-1.815,1.5.252a2.467,2.467,0,0,1-.916,1.26,2.69,2.69,0,0,1-1.566.432,2.552,2.552,0,0,1-2.2-.972,3.266,3.266,0,0,1-.564-1.966,3.15,3.15,0,0,1,.741-2.221,2.441,2.441,0,0,1,1.875-.8,2.532,2.532,0,0,1,2.009.841,3.719,3.719,0,0,1,.7,2.575h-3.781a1.527,1.527,0,0,0,.365,1.045A1.142,1.142,0,0,0-42.4,11a.924.924,0,0,0,.6-.193A1.194,1.194,0,0,0-41.441,10.185Zm.086-1.525a1.453,1.453,0,0,0-.338-1,1.038,1.038,0,0,0-.784-.341,1.048,1.048,0,0,0-.816.36,1.393,1.393,0,0,0-.317.978Zm3.856-.623-1.37-.247a2.133,2.133,0,0,1,.795-1.225,2.909,2.909,0,0,1,1.676-.4,3.612,3.612,0,0,1,1.5.239,1.5,1.5,0,0,1,.7.607A3.112,3.112,0,0,1-34,8.364l-.016,1.762a6.116,6.116,0,0,0,.073,1.109,3.237,3.237,0,0,0,.271.765h-1.493q-.059-.15-.145-.446-.038-.134-.054-.177a2.721,2.721,0,0,1-.827.564,2.369,2.369,0,0,1-.94.188,1.944,1.944,0,0,1-1.388-.478,1.589,1.589,0,0,1-.508-1.208,1.622,1.622,0,0,1,.231-.862A1.509,1.509,0,0,1-38.146,9a5.058,5.058,0,0,1,1.2-.352,8.223,8.223,0,0,0,1.466-.371v-.15a.781.781,0,0,0-.215-.62,1.287,1.287,0,0,0-.811-.185,1.08,1.08,0,0,0-.628.158A1.1,1.1,0,0,0-37.5,8.036Zm2.02,1.225a9.434,9.434,0,0,1-.918.231,2.767,2.767,0,0,0-.822.263.629.629,0,0,0-.3.532.74.74,0,0,0,.236.548.825.825,0,0,0,.6.231A1.307,1.307,0,0,0-35.9,10.8a.945.945,0,0,0,.36-.5,2.98,2.98,0,0,0,.059-.736ZM-27.32,12h-1.509V9.089a4.5,4.5,0,0,0-.1-1.2.838.838,0,0,0-.314-.422.9.9,0,0,0-.524-.15,1.21,1.21,0,0,0-.7.215,1.082,1.082,0,0,0-.427.569,4.921,4.921,0,0,0-.115,1.311V12h-1.509V6.3h1.4v.838a2.284,2.284,0,0,1,1.88-.967,2.265,2.265,0,0,1,.913.18,1.53,1.53,0,0,1,.626.459,1.664,1.664,0,0,1,.3.634,4.714,4.714,0,0,1,.083,1.015Zm4.576,0V4.126h2.379L-18.936,9.5l1.413-5.371h2.385V12h-1.477V5.8L-18.178,12h-1.531l-1.558-6.2V12Zm10.3-3.964-1.37-.247a2.133,2.133,0,0,1,.795-1.225,2.909,2.909,0,0,1,1.676-.4,3.612,3.612,0,0,1,1.5.239,1.5,1.5,0,0,1,.7.607,3.112,3.112,0,0,1,.2,1.351l-.016,1.762a6.116,6.116,0,0,0,.073,1.109A3.237,3.237,0,0,0-8.613,12h-1.493q-.059-.15-.145-.446-.038-.134-.054-.177a2.721,2.721,0,0,1-.827.564,2.369,2.369,0,0,1-.94.188,1.944,1.944,0,0,1-1.388-.478,1.589,1.589,0,0,1-.508-1.208,1.622,1.622,0,0,1,.231-.862A1.509,1.509,0,0,1-13.089,9a5.058,5.058,0,0,1,1.2-.352,8.223,8.223,0,0,0,1.466-.371v-.15a.781.781,0,0,0-.215-.62,1.287,1.287,0,0,0-.811-.185,1.08,1.08,0,0,0-.628.158A1.1,1.1,0,0,0-12.442,8.036Zm2.02,1.225a9.434,9.434,0,0,1-.918.231,2.767,2.767,0,0,0-.822.263.629.629,0,0,0-.3.532.74.74,0,0,0,.236.548.825.825,0,0,0,.6.231,1.307,1.307,0,0,0,.779-.269.945.945,0,0,0,.36-.5,2.98,2.98,0,0,0,.059-.736ZM-2.264,12H-3.773V9.089a4.5,4.5,0,0,0-.1-1.2.838.838,0,0,0-.314-.422.9.9,0,0,0-.524-.15,1.21,1.21,0,0,0-.7.215,1.082,1.082,0,0,0-.427.569,4.921,4.921,0,0,0-.115,1.311V12H-7.463V6.3h1.4v.838a2.284,2.284,0,0,1,1.88-.967,2.265,2.265,0,0,1,.913.18,1.53,1.53,0,0,1,.626.459,1.664,1.664,0,0,1,.3.634,4.714,4.714,0,0,1,.083,1.015Zm5.285,0v-.854a2.2,2.2,0,0,1-.819.72,2.3,2.3,0,0,1-1.072.263A2.1,2.1,0,0,1,.1,11.876a1.49,1.49,0,0,1-.661-.709,3.164,3.164,0,0,1-.2-1.262V6.3H.744V8.917a7.269,7.269,0,0,0,.083,1.474.8.8,0,0,0,.3.43.933.933,0,0,0,.559.158,1.188,1.188,0,0,0,.693-.212,1.079,1.079,0,0,0,.419-.526A6.11,6.11,0,0,0,2.914,8.7V6.3H4.423V12Zm2.3-5.7h.838v-.43a2.854,2.854,0,0,1,.153-1.074,1.21,1.21,0,0,1,.564-.577A2.164,2.164,0,0,1,7.92,3.992a4.2,4.2,0,0,1,1.262.193l-.2,1.053a2.981,2.981,0,0,0-.693-.086.618.618,0,0,0-.47.153.887.887,0,0,0-.142.588v.4H8.8V7.483H7.673V12H6.163V7.483H5.325Zm5.452,1.74-1.37-.247A2.133,2.133,0,0,1,10.2,6.564a2.909,2.909,0,0,1,1.676-.4,3.612,3.612,0,0,1,1.5.239,1.5,1.5,0,0,1,.7.607,3.112,3.112,0,0,1,.2,1.351l-.016,1.762a6.116,6.116,0,0,0,.073,1.109,3.237,3.237,0,0,0,.271.765H13.114q-.059-.15-.145-.446-.038-.134-.054-.177a2.721,2.721,0,0,1-.827.564,2.369,2.369,0,0,1-.94.188,1.944,1.944,0,0,1-1.388-.478,1.589,1.589,0,0,1-.508-1.208,1.622,1.622,0,0,1,.231-.862A1.509,1.509,0,0,1,10.13,9a5.058,5.058,0,0,1,1.2-.352A8.223,8.223,0,0,0,12.8,8.278v-.15a.781.781,0,0,0-.215-.62,1.287,1.287,0,0,0-.811-.185,1.08,1.08,0,0,0-.628.158A1.1,1.1,0,0,0,10.777,8.036ZM12.8,9.261a9.434,9.434,0,0,1-.918.231,2.767,2.767,0,0,0-.822.263.629.629,0,0,0-.3.532.74.74,0,0,0,.236.548.825.825,0,0,0,.6.231,1.307,1.307,0,0,0,.779-.269.945.945,0,0,0,.36-.5,2.98,2.98,0,0,0,.059-.736ZM20.74,7.982l-1.488.269a1.08,1.08,0,0,0-.341-.671,1.03,1.03,0,0,0-.69-.226,1.128,1.128,0,0,0-.9.389,2,2,0,0,0-.336,1.3,2.308,2.308,0,0,0,.341,1.434,1.12,1.12,0,0,0,.916.419,1.017,1.017,0,0,0,.7-.244,1.47,1.47,0,0,0,.387-.841l1.482.252a2.631,2.631,0,0,1-.886,1.542,2.743,2.743,0,0,1-1.756.521,2.611,2.611,0,0,1-2-.79,3.061,3.061,0,0,1-.744-2.186,3.068,3.068,0,0,1,.747-2.2,2.652,2.652,0,0,1,2.02-.787,2.755,2.755,0,0,1,1.657.448A2.485,2.485,0,0,1,20.74,7.982ZM24.5,6.3V7.5H23.469V9.8a5.718,5.718,0,0,0,.03.814.332.332,0,0,0,.134.191.426.426,0,0,0,.255.075,1.952,1.952,0,0,0,.607-.145l.129,1.171a3,3,0,0,1-1.192.226,1.891,1.891,0,0,1-.736-.137,1.074,1.074,0,0,1-.481-.354A1.4,1.4,0,0,1,22,11.049a7.316,7.316,0,0,1-.048-1.063V7.5h-.693V6.3h.693V5.163l1.515-.881V6.3ZM29.3,12v-.854a2.2,2.2,0,0,1-.819.72,2.3,2.3,0,0,1-1.072.263,2.1,2.1,0,0,1-1.031-.252,1.49,1.49,0,0,1-.661-.709,3.164,3.164,0,0,1-.2-1.262V6.3h1.509V8.917a7.269,7.269,0,0,0,.083,1.474.8.8,0,0,0,.3.43.933.933,0,0,0,.559.158,1.188,1.188,0,0,0,.693-.212,1.079,1.079,0,0,0,.419-.526A6.11,6.11,0,0,0,29.195,8.7V6.3H30.7V12Zm4.41,0H32.2V6.3h1.4v.811a2.438,2.438,0,0,1,.647-.757,1.191,1.191,0,0,1,.653-.183,1.916,1.916,0,0,1,.994.285L35.43,7.768a1.324,1.324,0,0,0-.709-.247.838.838,0,0,0-.537.175,1.193,1.193,0,0,0-.346.631,8.965,8.965,0,0,0-.126,1.912Zm2.836-6.478v-1.4h1.509v1.4Zm0,6.478V6.3h1.509V12Zm8.245,0H43.283V9.089a4.5,4.5,0,0,0-.1-1.2.838.838,0,0,0-.314-.422.9.9,0,0,0-.524-.15,1.21,1.21,0,0,0-.7.215,1.082,1.082,0,0,0-.427.569A4.921,4.921,0,0,0,41.1,9.417V12H39.593V6.3h1.4v.838a2.338,2.338,0,0,1,2.793-.787,1.53,1.53,0,0,1,.626.459,1.664,1.664,0,0,1,.3.634,4.714,4.714,0,0,1,.083,1.015Zm1.391.376,1.724.209a.589.589,0,0,0,.2.414,1.135,1.135,0,0,0,.677.161,1.757,1.757,0,0,0,.886-.177.73.73,0,0,0,.3-.381,2.291,2.291,0,0,0,.07-.693v-.833A2.042,2.042,0,0,1,48.332,12a2.1,2.1,0,0,1-1.821-.972,3.3,3.3,0,0,1-.526-1.912,3.145,3.145,0,0,1,.69-2.191,2.227,2.227,0,0,1,1.716-.757,2.089,2.089,0,0,1,1.746.929V6.3h1.413v5.119a5.1,5.1,0,0,1-.167,1.509,1.87,1.87,0,0,1-.467.784,2.067,2.067,0,0,1-.8.446,4.227,4.227,0,0,1-1.27.161,3.288,3.288,0,0,1-2.057-.5,1.559,1.559,0,0,1-.607-1.26Q46.178,12.483,46.183,12.376ZM47.531,9.03a2.057,2.057,0,0,0,.352,1.329,1.088,1.088,0,0,0,.867.422,1.2,1.2,0,0,0,.935-.432,1.885,1.885,0,0,0,.381-1.281A2,2,0,0,0,49.7,7.751a1.161,1.161,0,0,0-.924-.43,1.114,1.114,0,0,0-.894.422A1.977,1.977,0,0,0,47.531,9.03Z" transform="translate(801 6322)" fill="#fff"/>
    <path id="Trazado_737748" data-name="Trazado 737748" d="M0,0H18.727V18.485H0Z" transform="translate(797.231 6257.681)" fill="#d2d7e3"/>
    <path id="Trazado_737749" data-name="Trazado 737749" d="M13.29,0,26.58,22.659H0Z" transform="translate(793.003 6239.794)" fill="#d2d7e3"/>
    <path id="Trazado_737750" data-name="Trazado 737750" d="M0,0H18.727V18.485H0Z" transform="translate(797.232 6367.1)" fill="#d2d7e3"/>
    <path id="Trazado_737751" data-name="Trazado 737751" d="M13.29,0,26.58,22.659H0Z" transform="translate(819.583 6403.473) rotate(180)" fill="#d2d7e3"/>
    <path id="Trazado_737752" data-name="Trazado 737752" d="M0,0H18.727V18.485H0Z" transform="translate(879.34 6315.368) rotate(90)" fill="#d2d7e3"/>
    <path id="Trazado_737753" data-name="Trazado 737753" d="M13.29,0,26.58,22.659H0Z" transform="translate(897.227 6311.14) rotate(90)" fill="#d2d7e3"/>
    <path id="Trazado_737754" data-name="Trazado 737754" d="M0,0H18.727V18.485H0Z" transform="translate(739.896 6315.368) rotate(90)" fill="#d2d7e3"/>
    <path id="Trazado_737755" data-name="Trazado 737755" d="M13.29,0,26.58,22.659H0Z" transform="translate(703.523 6337.72) rotate(-90)" fill="#d2d7e3"/>
    <path id="Trazado_737756" data-name="Trazado 737756" d="M0,0H18.727V18.485H0Z" transform="translate(846.41 6363.321) rotate(-45)" fill="#d2d7e3"/>
    <path id="Trazado_737757" data-name="Trazado 737757" d="M13.29,0,26.58,22.659H0Z" transform="translate(887.935 6373.235) rotate(135)" fill="#d2d7e3"/>
    <path id="Trazado_737758" data-name="Trazado 737758" d="M0,0H18.727V18.485H0Z" transform="translate(761.356 6380.462) rotate(-135)" fill="#d2d7e3"/>
    <path id="Trazado_737759" data-name="Trazado 737759" d="M13.29,0,26.58,22.659H0Z" transform="translate(751.698 6396.1) rotate(-135)" fill="#d2d7e3"/>
    <path id="Trazado_737760" data-name="Trazado 737760" d="M0,0H18.727V18.485H0Z" transform="translate(774.427 6282.618) rotate(135)" fill="#d2d7e3"/>
    <path id="Trazado_737761" data-name="Trazado 737761" d="M13.29,0,26.58,22.659H0Z" transform="translate(732.902 6272.703) rotate(-45)" fill="#d2d7e3"/>
    <path id="Trazado_737762" data-name="Trazado 737762" d="M0,0H18.727V18.485H0Z" transform="translate(859.481 6273.618) rotate(45)" fill="#d2d7e3"/>
    <path id="Trazado_737763" data-name="Trazado 737763" d="M13.29,0,26.58,22.659H0Z" transform="translate(869.14 6257.98) rotate(45)" fill="#d2d7e3"/>
    <path id="Trazado_737764" data-name="Trazado 737764" d="M41.969,0A41.969,41.969,0,1,1,0,41.969,41.969,41.969,0,0,1,41.969,0Z" transform="translate(600 6299.969) rotate(-30)" fill="#fad1d9"/>
    <path id="Trazado_737765" data-name="Trazado 737765" d="M41.969,0A41.969,41.969,0,1,1,0,41.969,41.969,41.969,0,0,1,41.969,0Z" transform="translate(655 6399.969) rotate(-30)" fill="#fad1d9"/>
    <path id="Trazado_737766" data-name="Trazado 737766" d="M41.969,0A41.969,41.969,0,1,1,0,41.969,41.969,41.969,0,0,1,41.969,0Z" transform="translate(696.969 6166) rotate(30)" fill="#fad1d9"/>
    <path id="Trazado_737767" data-name="Trazado 737767" d="M41.969,0A41.969,41.969,0,1,1,0,41.969,41.969,41.969,0,0,1,41.969,0Z" transform="translate(769 6409)" fill="#fad1d9"/>
    <path id="Trazado_737768" data-name="Trazado 737768" d="M41.969,0A41.969,41.969,0,1,1,0,41.969,41.969,41.969,0,0,1,41.969,0Z" transform="translate(769 6145)" fill="#fad1d9"/>
    <path id="Trazado_737769" data-name="Trazado 737769" d="M41.969,0A41.969,41.969,0,1,1,0,41.969,41.969,41.969,0,0,1,41.969,0Z" transform="translate(852 6399.969) rotate(-30)" fill="#fad1d9"/>
    <path id="Trazado_737770" data-name="Trazado 737770" d="M41.969,0A41.969,41.969,0,1,1,0,41.969,41.969,41.969,0,0,1,41.969,0Z" transform="translate(893.969 6166) rotate(30)" fill="#fad1d9"/>
    <path id="Trazado_737771" data-name="Trazado 737771" d="M41.969,0A41.969,41.969,0,1,1,0,41.969,41.969,41.969,0,0,1,41.969,0Z" transform="translate(885 6299.969) rotate(-30)" fill="#fad1d9"/>
    <path id="Trazado_737772" data-name="Trazado 737772" d="M-7.539-9.477h-3.484V0h-2.344V-9.477H-16.8v-1.9h9.266Zm3.68,5.469V0H-6.2V-11.375h4.438a5.134,5.134,0,0,1,2.254.469,3.454,3.454,0,0,1,1.5,1.332,3.714,3.714,0,0,1,.523,1.965A3.266,3.266,0,0,1,1.363-4.973,4.767,4.767,0,0,1-1.8-4.008Zm0-1.9h2.094A2.059,2.059,0,0,0-.348-6.344a1.591,1.591,0,0,0,.488-1.25A1.876,1.876,0,0,0-.352-8.945a1.839,1.839,0,0,0-1.359-.531H-3.859ZM7.18-11.375,10.1-3.125l2.906-8.25h3.078V0H13.734V-3.109l.234-5.367L10.9,0H9.289L6.227-8.469l.234,5.359V0H4.117V-11.375Z" transform="translate(811 6192)" fill="#9b1f36"/>
    <path id="Trazado_737773" data-name="Trazado 737773" d="M-2.922-2.984A1.2,1.2,0,0,0-3.391-4a6.148,6.148,0,0,0-1.687-.75,11.963,11.963,0,0,1-1.93-.777,3.153,3.153,0,0,1-1.937-2.82A2.747,2.747,0,0,1-8.426-10a3.389,3.389,0,0,1,1.492-1.129,5.616,5.616,0,0,1,2.184-.406,5.112,5.112,0,0,1,2.172.441A3.458,3.458,0,0,1-1.1-9.844,3.261,3.261,0,0,1-.57-8.016H-2.914A1.534,1.534,0,0,0-3.406-9.23a2.023,2.023,0,0,0-1.383-.434A2.162,2.162,0,0,0-6.125-9.3a1.146,1.146,0,0,0-.477.957,1.1,1.1,0,0,0,.559.93,6.311,6.311,0,0,0,1.645.7A7.106,7.106,0,0,1-1.484-5.219,2.972,2.972,0,0,1-.57-3,2.737,2.737,0,0,1-1.687-.684,4.891,4.891,0,0,1-4.7.156a5.808,5.808,0,0,1-2.391-.48A3.783,3.783,0,0,1-8.73-1.641,3.371,3.371,0,0,1-9.3-3.578h2.352Q-6.945-1.7-4.7-1.7a2.189,2.189,0,0,0,1.3-.34A1.106,1.106,0,0,0-2.922-2.984Zm9.836,0A1.2,1.2,0,0,0,6.445-4a6.148,6.148,0,0,0-1.687-.75,11.963,11.963,0,0,1-1.93-.777A3.153,3.153,0,0,1,.891-8.352,2.747,2.747,0,0,1,1.41-10,3.389,3.389,0,0,1,2.9-11.125a5.616,5.616,0,0,1,2.184-.406,5.112,5.112,0,0,1,2.172.441,3.458,3.458,0,0,1,1.48,1.246,3.261,3.261,0,0,1,.527,1.828H6.922A1.534,1.534,0,0,0,6.43-9.23a2.023,2.023,0,0,0-1.383-.434A2.162,2.162,0,0,0,3.711-9.3a1.146,1.146,0,0,0-.477.957,1.1,1.1,0,0,0,.559.93,6.311,6.311,0,0,0,1.645.7A7.106,7.106,0,0,1,8.352-5.219,2.972,2.972,0,0,1,9.266-3,2.737,2.737,0,0,1,8.148-.684a4.891,4.891,0,0,1-3.008.84A5.808,5.808,0,0,1,2.75-.324,3.783,3.783,0,0,1,1.105-1.641,3.371,3.371,0,0,1,.539-3.578H2.891q0,1.883,2.25,1.883a2.189,2.189,0,0,0,1.3-.34A1.106,1.106,0,0,0,6.914-2.984Z" transform="translate(909 6229)" fill="#9b1f36"/>
    <path id="Trazado_737774" data-name="Trazado 737774" d="M-14.711-2.984A1.2,1.2,0,0,0-15.18-4a6.148,6.148,0,0,0-1.687-.75,11.963,11.963,0,0,1-1.93-.777,3.153,3.153,0,0,1-1.937-2.82A2.747,2.747,0,0,1-20.215-10a3.389,3.389,0,0,1,1.492-1.129,5.616,5.616,0,0,1,2.184-.406,5.112,5.112,0,0,1,2.172.441,3.458,3.458,0,0,1,1.48,1.246,3.261,3.261,0,0,1,.527,1.828H-14.7A1.534,1.534,0,0,0-15.2-9.23a2.023,2.023,0,0,0-1.383-.434,2.162,2.162,0,0,0-1.336.363,1.146,1.146,0,0,0-.477.957,1.1,1.1,0,0,0,.559.93,6.311,6.311,0,0,0,1.645.7,7.106,7.106,0,0,1,2.914,1.492A2.972,2.972,0,0,1-12.359-3,2.737,2.737,0,0,1-13.477-.684a4.891,4.891,0,0,1-3.008.84,5.808,5.808,0,0,1-2.391-.48A3.783,3.783,0,0,1-20.52-1.641a3.371,3.371,0,0,1-.566-1.937h2.352q0,1.883,2.25,1.883a2.189,2.189,0,0,0,1.3-.34A1.106,1.106,0,0,0-14.711-2.984Zm7-8.391,2.922,8.25,2.906-8.25H1.2V0H-1.156V-3.109l.234-5.367L-3.992,0H-5.6L-8.664-8.469l.234,5.359V0h-2.344V-11.375Zm17.8,6.445h-4.5v3.047h5.281V0H3.242V-11.375h7.609v1.9H5.586v2.711h4.5ZM12.242,0V-11.375h3.5a5.315,5.315,0,0,1,2.684.676,4.712,4.712,0,0,1,1.848,1.922,5.928,5.928,0,0,1,.664,2.832v.523a5.945,5.945,0,0,1-.652,2.82,4.672,4.672,0,0,1-1.84,1.914A5.355,5.355,0,0,1,15.766,0Zm2.344-9.477v7.594h1.133a2.545,2.545,0,0,0,2.1-.9,4.06,4.06,0,0,0,.742-2.57v-.6a4.124,4.124,0,0,0-.719-2.629,2.537,2.537,0,0,0-2.1-.895Z" transform="translate(943 6321)" fill="#9b1f36"/>
    <path id="Trazado_737775" data-name="Trazado 737775" d="M-27.668-4.562-28.887-3.25V0H-31.23V-11.375h2.344v5.156l1.031-1.414,2.9-3.742h2.883L-26.113-6.32-21.957,0h-2.789Zm13.016,2.219h-4.109L-19.543,0h-2.492L-17.8-11.375h2.172L-11.371,0h-2.492Zm-3.477-1.9h2.844L-16.715-8.5ZM-1.059,0H-3.4L-7.965-7.484V0h-2.344V-11.375h2.344l4.57,7.5v-7.5h2.336ZM.988,0V-11.375H4.973a5.232,5.232,0,0,1,3.141.793,2.712,2.712,0,0,1,1.07,2.324,2.57,2.57,0,0,1-.43,1.473,2.482,2.482,0,0,1-1.2.934,2.4,2.4,0,0,1,1.379.883,2.61,2.61,0,0,1,.5,1.625A3,3,0,0,1,8.395-.859,4.713,4.713,0,0,1,5.41,0ZM3.332-4.953v3.07H5.34a1.938,1.938,0,0,0,1.293-.395A1.353,1.353,0,0,0,7.1-3.367,1.428,1.428,0,0,0,5.48-4.953Zm0-1.656H5.066Q6.84-6.641,6.84-8.023a1.307,1.307,0,0,0-.449-1.113,2.363,2.363,0,0,0-1.418-.34H3.332ZM17.621-2.344H13.512L12.73,0H10.238l4.234-11.375h2.172L20.9,0H18.41Zm-3.477-1.9h2.844L15.559-8.5ZM31.215,0H28.871L24.309-7.484V0H21.965V-11.375h2.344l4.57,7.5v-7.5h2.336Z" transform="translate(909 6421)" fill="#9b1f36"/>
    <path id="Trazado_737776" data-name="Trazado 737776" d="M-23.211-4.562-24.43-3.25V0h-2.344V-11.375h2.344v5.156L-23.4-7.633l2.9-3.742h2.883L-21.656-6.32-17.5,0h-2.789ZM-10.2-2.344H-14.3L-15.086,0h-2.492l4.234-11.375h2.172L-6.914,0H-9.406Zm-3.477-1.9h2.844L-12.258-8.5ZM-3.359,0H-5.7V-11.375h2.344ZM1.3-1.883H7.031V0H-1.633V-1.375l5.625-8.1H-1.625v-1.9H6.906v1.344ZM15.352-4.93h-4.5v3.047h5.281V0H8.508V-11.375h7.609v1.9H10.852v2.711h4.5ZM26.758,0H24.414L19.852-7.484V0H17.508V-11.375h2.344l4.57,7.5v-7.5h2.336Z" transform="translate(811 6457)" fill="#9b1f36"/>
    <path id="Trazado_737777" data-name="Trazado 737777" d="M-24.548,0H-26.6V-4.266h-4V0h-2.051V-9.953H-30.6V-5.92h4V-9.953h2.051Zm7.779-4.313h-3.937v2.666h4.621V0h-6.672V-9.953H-16.1v1.661h-4.607V-5.92h3.938ZM-12.7,0h-2.051V-9.953H-12.7Zm5.913-9.953h2.051v6.891a3.3,3.3,0,0,1-.42,1.678A2.853,2.853,0,0,1-6.344-.26a3.705,3.705,0,0,1-1.729.4,3.522,3.522,0,0,1-2.461-.8,2.918,2.918,0,0,1-.882-2.273h2.064a1.6,1.6,0,0,0,.308,1.08,1.231,1.231,0,0,0,.971.349,1.175,1.175,0,0,0,.937-.4,1.7,1.7,0,0,0,.349-1.148Zm11.341,0V-3.4A3.356,3.356,0,0,1,3.531-.813,3.94,3.94,0,0,1,.738.137,3.984,3.984,0,0,1-2.03-.786,3.3,3.3,0,0,1-3.076-3.322V-9.953h2.051v6.569A1.9,1.9,0,0,0-.557-1.958a1.8,1.8,0,0,0,1.3.448q1.729,0,1.757-1.818V-9.953ZM14.328,0H12.277L8.285-6.549V0H6.234V-9.953H8.285l4,6.563V-9.953h2.044Zm4.908-3.992L18.17-2.844V0H16.119V-9.953H18.17v4.512l.9-1.237,2.536-3.274h2.522L20.6-5.53,24.233,0h-2.44ZM30.625-2.051h-3.6L26.346,0H24.165L27.87-9.953h1.9L33.5,0H31.315ZM27.583-3.712h2.488L28.82-7.437Z" transform="translate(712 6420)" fill="#9b1f36"/>
    <path id="Trazado_737778" data-name="Trazado 737778" d="M-22.383-11.375h2.344V-3.5a3.766,3.766,0,0,1-.48,1.918A3.261,3.261,0,0,1-21.875-.3a4.235,4.235,0,0,1-1.977.453,4.025,4.025,0,0,1-2.812-.918,3.335,3.335,0,0,1-1.008-2.6h2.359a1.829,1.829,0,0,0,.352,1.234,1.407,1.407,0,0,0,1.109.4,1.343,1.343,0,0,0,1.07-.461,1.948,1.948,0,0,0,.4-1.312ZM-15.539,0h-2.344V-11.375h2.344Zm2.172,0V-11.375h3.5a5.315,5.315,0,0,1,2.684.676A4.712,4.712,0,0,1-5.336-8.777a5.928,5.928,0,0,1,.664,2.832v.523A5.945,5.945,0,0,1-5.324-2.6,4.672,4.672,0,0,1-7.164-.687,5.355,5.355,0,0,1-9.844,0Zm2.344-9.477v7.594h1.133a2.545,2.545,0,0,0,2.1-.9,4.06,4.06,0,0,0,.742-2.57v-.6a4.124,4.124,0,0,0-.719-2.629,2.537,2.537,0,0,0-2.1-.895ZM6.375-5.43a6.867,6.867,0,0,1-.594,2.945,4.472,4.472,0,0,1-1.7,1.953A4.7,4.7,0,0,1,1.547.156,4.732,4.732,0,0,1-.977-.523,4.515,4.515,0,0,1-2.7-2.465a6.67,6.67,0,0,1-.617-2.9V-5.93a6.831,6.831,0,0,1,.605-2.957A4.508,4.508,0,0,1-1-10.848a4.706,4.706,0,0,1,2.527-.684,4.706,4.706,0,0,1,2.527.684A4.508,4.508,0,0,1,5.77-8.887a6.811,6.811,0,0,1,.605,2.949ZM4-5.945a4.787,4.787,0,0,0-.641-2.719,2.088,2.088,0,0,0-1.828-.93,2.088,2.088,0,0,0-1.82.918A4.732,4.732,0,0,0-.937-5.984v.555A4.847,4.847,0,0,0-.3-2.727a2.082,2.082,0,0,0,1.844.961,2.064,2.064,0,0,0,1.813-.926A4.819,4.819,0,0,0,4-5.391Zm7.641,1.383L10.422-3.25V0H8.078V-11.375h2.344v5.156l1.031-1.414,2.9-3.742h2.883L13.2-6.32,17.352,0H14.563ZM24.656-2.344H20.547L19.766,0H17.273l4.234-11.375H23.68L27.938,0H25.445Zm-3.477-1.9h2.844L22.594-8.5Z" transform="translate(657 6321)" fill="#9b1f36"/>
    <path id="Trazado_737779" data-name="Trazado 737779" d="M-6.148-11.375H-3.8V-3.5a3.766,3.766,0,0,1-.48,1.918A3.261,3.261,0,0,1-5.641-.3,4.235,4.235,0,0,1-7.617.156,4.025,4.025,0,0,1-10.43-.762a3.335,3.335,0,0,1-1.008-2.6h2.359a1.829,1.829,0,0,0,.352,1.234,1.407,1.407,0,0,0,1.109.4,1.343,1.343,0,0,0,1.07-.461,1.948,1.948,0,0,0,.4-1.312ZM.7,0H-1.648V-11.375H.7ZM11.43-9.477H7.945V0H5.6V-9.477H2.164v-1.9H11.43Z" transform="translate(712 6229)" fill="#9b1f36"/>
  </g>
</svg>
