<svg xmlns="http://www.w3.org/2000/svg" xmlns:xlink="http://www.w3.org/1999/xlink" width="403.644" height="605" viewBox="0 0 403.644 605">
  <defs>
    <clipPath id="clip-path">
      <rect id="Rectángulo_345067" data-name="Rectángulo 345067" width="403.644" height="579.5" fill="none"/>
    </clipPath>
    <clipPath id="clip-path-3">
      <rect id="Rectángulo_345056" data-name="Rectángulo 345056" width="149.226" height="61.387" fill="none"/>
    </clipPath>
    <clipPath id="clip-path-4">
      <rect id="Rectángulo_345057" data-name="Rectángulo 345057" width="108.298" height="52.709" fill="none"/>
    </clipPath>
    <clipPath id="clip-path-5">
      <rect id="Rectángulo_345058" data-name="Rectángulo 345058" width="55.196" height="47.598" fill="none"/>
    </clipPath>
    <clipPath id="clip-path-6">
      <rect id="Rectángulo_345059" data-name="Rectángulo 345059" width="24.855" height="6.009" fill="none"/>
    </clipPath>
    <clipPath id="clip-path-7">
      <rect id="Rectángulo_345060" data-name="Rectángulo 345060" width="56.039" height="19.768" fill="none"/>
    </clipPath>
    <clipPath id="clip-path-8">
      <rect id="Rectángulo_345063" data-name="Rectángulo 345063" width="6.964" height="72.481" fill="none"/>
    </clipPath>
  </defs>
  <g id="Grupo_987300" data-name="Grupo 987300" transform="translate(-180 -3031)">
    <g id="Grupo_987091" data-name="Grupo 987091" transform="translate(180 3004)">
      <path id="Trazado_737630" data-name="Trazado 737630" d="M24,0H228a24,24,0,0,1,24,24V131a24,24,0,0,1-24,24H24A24,24,0,0,1,0,131V24A24,24,0,0,1,24,0Z" transform="translate(0 456)" fill="#9b1f36"/>
      <rect id="AdobeStock_31320034" width="335" height="584" rx="24" transform="translate(65 27)" fill="#dee9f0"/>
    </g>
    <g id="Grupo_987299" data-name="Grupo 987299" transform="translate(180 3056.5)">
      <g id="Grupo_987298" data-name="Grupo 987298" clip-path="url(#clip-path)">
        <g id="Grupo_987297" data-name="Grupo 987297">
          <g id="Grupo_987296" data-name="Grupo 987296" clip-path="url(#clip-path)">
            <path id="Trazado_737521" data-name="Trazado 737521" d="M163.695,153.942c-.43-16.371-2.785-93.092-2.818-93.09C69.415,64.23,0,80.714,0,100.541c0,15.52,43.277,71.136,104.88,59.428V158c18.117-1.959,37.911-3.347,58.815-4.055" transform="translate(0 5.604)" fill="#b5a392"/>
            <g id="Grupo_987280" data-name="Grupo 987280" transform="translate(13.317 105.793)" opacity="0.15">
              <g id="Grupo_987279" data-name="Grupo 987279">
                <g id="Grupo_987278" data-name="Grupo 987278" clip-path="url(#clip-path-3)">
                  <path id="Trazado_737522" data-name="Trazado 737522" d="M103.757,156.651v-1.972c17.782-1.922,37.185-3.29,57.663-4.01-.779-25.784-1.646-53.8-1.664-53.8-67.625,2.5-123.186,12.161-147.562,25.042,17.336,20.268,50.345,42.573,91.564,34.74" transform="translate(-12.194 -96.871)" fill="#2d2d30"/>
                </g>
              </g>
            </g>
            <path id="Trazado_737523" data-name="Trazado 737523" d="M129.28,70.277h-51.6a2.738,2.738,0,0,1-2.739-2.739V2.739A2.738,2.738,0,0,1,77.684,0h51.6a2.738,2.738,0,0,1,2.739,2.739v64.8a2.738,2.738,0,0,1-2.739,2.739" transform="translate(6.902)" fill="#111"/>
            <path id="Trazado_737524" data-name="Trazado 737524" d="M113.256,18.319V7.479a10.84,10.84,0,1,0,10.84,10.84Z" transform="translate(9.432 0.689)" fill="#f6eee3"/>
            <path id="Trazado_737525" data-name="Trazado 737525" d="M123.484,15.521a9.263,9.263,0,0,0-9.263-9.263v9.263Z" transform="translate(10.52 0.576)" fill="#eb8d2e"/>
            <path id="Trazado_737526" data-name="Trazado 737526" d="M98.934,10.213h-17.4a.429.429,0,0,1,0-.858h17.4a.429.429,0,0,1,0,.858" transform="translate(7.47 0.862)" fill="#f6eee3"/>
            <path id="Trazado_737527" data-name="Trazado 737527" d="M116,54.958H101.477a.429.429,0,1,1,0-.858H116a.429.429,0,0,1,0,.858" transform="translate(9.306 4.983)" fill="#f6eee3"/>
            <path id="Trazado_737528" data-name="Trazado 737528" d="M97.139,19.955h-15.6a.429.429,0,0,1,0-.858h15.6a.429.429,0,0,1,0,.858" transform="translate(7.47 1.759)" fill="#f6eee3"/>
            <path id="Trazado_737529" data-name="Trazado 737529" d="M101.478,27.8H81.535a.429.429,0,0,1,0-.858h19.943a.429.429,0,0,1,0,.858" transform="translate(7.47 2.481)" fill="#f6eee3"/>
            <path id="Trazado_737530" data-name="Trazado 737530" d="M117.833,35.715h-36.3a.429.429,0,0,1,0-.858h36.3a.429.429,0,0,1,0,.858" transform="translate(7.47 3.21)" fill="#f6eee3"/>
            <path id="Trazado_737531" data-name="Trazado 737531" d="M117.833,44.274h-36.3a.429.429,0,0,1,0-.858h36.3a.429.429,0,0,1,0,.858" transform="translate(7.47 3.999)" fill="#f6eee3"/>
            <path id="Trazado_737532" data-name="Trazado 737532" d="M47.772,107.621a1.288,1.288,0,0,1-.891-2.217L87.665,66.315a1.645,1.645,0,0,1,2.49.25l8.552,12.379L130.436,38.2a1.644,1.644,0,0,1,2.836.432l5.364,14.294L168.8,15.852a1.287,1.287,0,1,1,2,1.625L139.611,55.809a1.644,1.644,0,0,1-2.815-.461l-5.349-14.255L99.959,81.526a1.686,1.686,0,0,1-1.343.633,1.656,1.656,0,0,1-1.306-.709L88.659,68.93l-40,38.333a1.284,1.284,0,0,1-.891.358" transform="translate(4.281 1.416)" fill="#5c69ab"/>
            <path id="Trazado_737533" data-name="Trazado 737533" d="M160.936,26.922a1.5,1.5,0,0,1-.156-.009,1.288,1.288,0,0,1-1.125-1.432l1.122-9.375-9.086,2.98a1.287,1.287,0,0,1-.8-2.446l10.474-3.436a1.644,1.644,0,0,1,2.145,1.757l-1.3,10.825a1.286,1.286,0,0,1-1.276,1.135" transform="translate(13.815 1.208)" fill="#5c69ab"/>
            <path id="Trazado_737534" data-name="Trazado 737534" d="M91.975,78.267H58.493a3.016,3.016,0,0,1-3.016-3.016V46.184a3.015,3.015,0,0,1,3.016-3.015H91.975a3.015,3.015,0,0,1,3.015,3.015V75.25a3.015,3.015,0,0,1-3.015,3.016" transform="translate(5.109 3.976)" fill="#5c69ab"/>
            <path id="Trazado_737535" data-name="Trazado 737535" d="M92.657,78.731H57.883a2.8,2.8,0,0,1-2.8-2.8V45.574a2.8,2.8,0,0,1,2.8-2.8H92.657a2.8,2.8,0,0,1,2.8,2.8V75.932a2.8,2.8,0,0,1-2.8,2.8m-34.773-35.1a1.943,1.943,0,0,0-1.941,1.941V75.932a1.943,1.943,0,0,0,1.941,1.941H92.657A1.943,1.943,0,0,0,94.6,75.932V45.574a1.943,1.943,0,0,0-1.941-1.941Z" transform="translate(5.073 3.94)" fill="#5c69ab"/>
            <path id="Trazado_737536" data-name="Trazado 737536" d="M85.724,68.065H63.834a1.654,1.654,0,0,1-1.655-1.655V51.874a1.654,1.654,0,0,1,1.655-1.655h21.89a1.654,1.654,0,0,1,1.655,1.655V66.41a1.655,1.655,0,0,1-1.655,1.655" transform="translate(5.727 4.625)" fill="#f6eee3"/>
            <path id="Trazado_737537" data-name="Trazado 737537" d="M62.216,68.465a.429.429,0,0,1-.276-.758L74.215,57.433a.427.427,0,0,1,.544,0l12.6,10.153a.429.429,0,0,1-.538.668L74.495,58.318l-12,10.046a.426.426,0,0,1-.275.1" transform="translate(5.69 5.28)" fill="#5c69ab"/>
            <path id="Trazado_737538" data-name="Trazado 737538" d="M62.179,50.593l9.468,7.537a4.741,4.741,0,0,0,5.925-.014l9.48-7.623" transform="translate(5.727 4.65)" fill="#f6eee3"/>
            <path id="Trazado_737539" data-name="Trazado 737539" d="M74.637,59.635A5.159,5.159,0,0,1,71.416,58.5l-9.468-7.537a.429.429,0,1,1,.535-.672l9.468,7.538a4.289,4.289,0,0,0,5.388-.014l9.481-7.622a.429.429,0,1,1,.537.668l-9.479,7.623a5.165,5.165,0,0,1-3.241,1.149" transform="translate(5.69 4.614)" fill="#5c69ab"/>
            <path id="Trazado_737540" data-name="Trazado 737540" d="M368.5,100.357c0-17.026-51.189-31.588-123.57-37.5-.294-.024-.459,68.061-.44,88.59,21.27,1.72,40.716,4.188,57.594,7.244,40.4-10.174,66.416-46.3,66.416-58.333" transform="translate(22.517 5.789)" fill="#b5a392"/>
            <g id="Grupo_987283" data-name="Grupo 987283" transform="translate(267.078 111.771)" opacity="0.15">
              <g id="Grupo_987282" data-name="Grupo 987282">
                <g id="Grupo_987281" data-name="Grupo 987281" clip-path="url(#clip-path-4)">
                  <path id="Trazado_737541" data-name="Trazado 737541" d="M352.853,124.022c-20.445-9.868-59.428-17.714-107.93-21.677-.168-.013-.295,22.456-.368,45.471,21.241,1.721,40.663,4.186,57.522,7.238,21.66-5.455,39.178-18.37,50.776-31.032" transform="translate(-244.555 -102.345)" fill="#2d2d30"/>
                </g>
              </g>
            </g>
            <path id="Trazado_737542" data-name="Trazado 737542" d="M299.377,88.8H269.794a2.739,2.739,0,0,1-2.739-2.739V56.476a2.739,2.739,0,0,1,2.739-2.739h29.583a2.739,2.739,0,0,1,2.739,2.739V86.059a2.739,2.739,0,0,1-2.739,2.739" transform="translate(24.595 4.949)" fill="#111"/>
            <path id="Trazado_737543" data-name="Trazado 737543" d="M285.367,80.926a.817.817,0,0,1-.57-.232.84.84,0,0,1-.258-.6V70.128h-9.983a.822.822,0,0,1-.589-.251.8.8,0,0,1-.228-.59A11.236,11.236,0,1,1,285.4,80.926h-.032m-.4-11.657h.429V80.091a10.506,10.506,0,0,0,7.434-3.62A10.378,10.378,0,1,0,274.6,69.317Z" transform="translate(25.211 5.384)" fill="#f6eee3"/>
            <path id="Trazado_737544" data-name="Trazado 737544" d="M282.7,82.72h-.035a12.126,12.126,0,0,1-11.558-11.557.877.877,0,0,1,.248-.65.908.908,0,0,1,.653-.28H282.7a.9.9,0,0,1,.894.894V81.819a.909.909,0,0,1-.279.652.881.881,0,0,1-.615.249M272.006,71.092l-.043.036A11.261,11.261,0,0,0,282.7,81.862l.036-10.733Z" transform="translate(24.968 6.468)" fill="#eb8d2e"/>
            <path id="Trazado_737545" data-name="Trazado 737545" d="M345.706,64.568H297.722a3.016,3.016,0,0,1-3.016-3.016V18.09a3.016,3.016,0,0,1,3.016-3.015h47.984a3.016,3.016,0,0,1,3.016,3.015V61.551a3.016,3.016,0,0,1-3.016,3.016" transform="translate(27.142 1.388)" fill="#5c69ab"/>
            <path id="Trazado_737546" data-name="Trazado 737546" d="M346.388,65.034H297.112a2.8,2.8,0,0,1-2.8-2.8V17.482a2.8,2.8,0,0,1,2.8-2.8h49.275a2.8,2.8,0,0,1,2.8,2.8V62.234a2.8,2.8,0,0,1-2.8,2.8M297.112,15.54a1.943,1.943,0,0,0-1.941,1.942V62.234a1.944,1.944,0,0,0,1.941,1.942h49.275a1.944,1.944,0,0,0,1.942-1.942V17.482a1.944,1.944,0,0,0-1.942-1.942Z" transform="translate(27.106 1.352)" fill="#5c69ab"/>
            <path id="Trazado_737547" data-name="Trazado 737547" d="M336.568,39.067a15.8,15.8,0,1,1-15.8-15.8,15.8,15.8,0,0,1,15.8,15.8" transform="translate(28.087 2.143)" fill="#f6eee3"/>
            <path id="Trazado_737548" data-name="Trazado 737548" d="M324.905,38.943h-5.862V29.707a.429.429,0,0,1,.858,0v8.377h5a.429.429,0,0,1,0,.858" transform="translate(29.383 2.696)" fill="#5c69ab"/>
            <path id="Trazado_737549" data-name="Trazado 737549" d="M262.311,68.309a11.043,11.043,0,1,1-11.043-11.043,11.043,11.043,0,0,1,11.043,11.043" transform="translate(22.124 5.274)" fill="#eb8d2e"/>
            <path id="Trazado_737550" data-name="Trazado 737550" d="M250.537,71.2a1.048,1.048,0,0,1-.74-.3l-3.94-3.941a.429.429,0,0,1,.606-.607l3.941,3.941a.189.189,0,0,0,.266,0l10.323-10.323a.429.429,0,0,1,.607.606L251.278,70.89a1.044,1.044,0,0,1-.74.306" transform="translate(22.631 5.511)" fill="#111"/>
            <path id="Trazado_737551" data-name="Trazado 737551" d="M253.361,12.512a3.029,3.029,0,0,0-3.025,3.025V36.251a3.029,3.029,0,0,0,3.025,3.025h5.528a4.326,4.326,0,0,1,4.321,4.32v4.916a1.474,1.474,0,0,0,2.515,1.042l9.012-9.013a4.351,4.351,0,0,1,3.056-1.265h11.086a3.029,3.029,0,0,0,3.026-3.025V15.537a3.029,3.029,0,0,0-3.026-3.025Z" transform="translate(23.056 1.152)" fill="#eb8d2e"/>
            <path id="Trazado_737552" data-name="Trazado 737552" d="M261.122,28.69a2.908,2.908,0,1,1,2.907-2.907,2.911,2.911,0,0,1-2.907,2.907m0-4.957a2.049,2.049,0,1,0,2.05,2.05,2.052,2.052,0,0,0-2.05-2.05" transform="translate(23.781 2.107)" fill="#111"/>
            <path id="Trazado_737553" data-name="Trazado 737553" d="M269.571,28.69a2.908,2.908,0,1,1,2.907-2.907,2.911,2.911,0,0,1-2.907,2.907m0-4.957a2.049,2.049,0,1,0,2.05,2.05,2.052,2.052,0,0,0-2.05-2.05" transform="translate(24.559 2.107)" fill="#111"/>
            <path id="Trazado_737554" data-name="Trazado 737554" d="M277.923,28.69a2.908,2.908,0,1,1,2.908-2.907,2.91,2.91,0,0,1-2.908,2.907m0-4.957a2.049,2.049,0,1,0,2.05,2.05,2.051,2.051,0,0,0-2.05-2.05" transform="translate(25.329 2.107)" fill="#111"/>
            <path id="Trazado_737555" data-name="Trazado 737555" d="M35.005,64.7A1.757,1.757,0,0,0,33.25,66.45V78.462a1.757,1.757,0,0,0,1.755,1.754h6.429a2.522,2.522,0,0,1,1.771.734l5.227,5.226a.854.854,0,0,0,1.458-.6v-2.85A2.508,2.508,0,0,1,52.4,80.216H55.6a1.757,1.757,0,0,0,1.754-1.754V66.45A1.757,1.757,0,0,0,55.6,64.7Z" transform="translate(3.062 5.958)" fill="#eb8d2e"/>
            <path id="Trazado_737556" data-name="Trazado 737556" d="M49.368,74.273a1.866,1.866,0,1,1,1.866-1.866,1.868,1.868,0,0,1-1.866,1.866m0-2.874a1.009,1.009,0,1,0,1.008,1.008A1.009,1.009,0,0,0,49.368,71.4" transform="translate(4.375 6.497)" fill="#111"/>
            <path id="Trazado_737557" data-name="Trazado 737557" d="M44.469,74.273a1.866,1.866,0,1,1,1.866-1.866,1.868,1.868,0,0,1-1.866,1.866m0-2.874a1.009,1.009,0,1,0,1.008,1.008A1.009,1.009,0,0,0,44.469,71.4" transform="translate(3.924 6.497)" fill="#111"/>
            <path id="Trazado_737558" data-name="Trazado 737558" d="M39.625,74.273a1.866,1.866,0,1,1,1.866-1.866,1.868,1.868,0,0,1-1.866,1.866m0-2.874a1.009,1.009,0,1,0,1.008,1.008A1.009,1.009,0,0,0,39.625,71.4" transform="translate(3.478 6.497)" fill="#111"/>
            <path id="Trazado_737559" data-name="Trazado 737559" d="M336.117,522.958c1.994-30.127-7.853-59.975-28.058-85.04L297.17,424.409l-10.4-12.9-7.463-9.259L205.4,406.656,131.5,402.249l-7.463,9.259-10.4,12.9-10.889,13.509C88,456.2,78.777,477.03,75.638,498.655c-.143.981-1.821,19.659-4.146,42.466H335.6Z" transform="translate(6.584 37.046)" fill="#111"/>
            <path id="Trazado_737560" data-name="Trazado 737560" d="M104.589,539.558c-.045,0-.091,0-.137-.007a1.333,1.333,0,0,1-1.19-1.461c1.5-14.739,2.726-27.66,3.456-35.38.455-4.812.643-6.779.7-7.142,3.176-21.871,12.646-43.1,27.388-61.385a1.333,1.333,0,0,1,2.075,1.674c-14.441,17.916-23.717,38.7-26.824,60.093-.046.313-.312,3.123-.68,7.011-.732,7.723-1.955,20.649-3.459,35.4a1.333,1.333,0,0,1-1.325,1.2" transform="translate(9.51 39.942)" fill="#f6eee3"/>
            <path id="Trazado_737561" data-name="Trazado 737561" d="M300.152,161.414c-1.881-13.045-8.514-24.4-18.207-33.121-2.232-2.336-4.353-4.436-6.308-6.295-6.787-6.454-16.062-12.912-16.533-21.746-1.626-30.451-49.116-53.706-64.452-40.432-.412.357-13.479-6.449-31.612-2.617A29.585,29.585,0,1,0,120.73,91.522c-.43,1.3-.861,2.606-1.345,3.934-5.81,15.908-15.354,27.427-29.422,39.6l-1.91,1.653c-25.966,22.475-23.872,60.174-3.968,76.611l5.74,4.789q1.332,1.111,2.738,2.12a10.619,10.619,0,0,1,4.706,9.993,51.369,51.369,0,0,0,2.059,22.134c8.9,27.776,40.569,45.94,74.793,42.668,23.738-2.27,43.78-13.777,55.836-29.634,14.411-18.956,31.948-36.088,50.087-52.634,14.825-13.523,22.877-32.146,20.109-51.346" transform="translate(6.342 3.298)" fill="#111"/>
            <path id="Trazado_737562" data-name="Trazado 737562" d="M254.343,168.038l-4.8-52.922-23.486-.422L225.1,97.36l-7.131,16.456-20.683-2.39-4.763-8.2a5.364,5.364,0,0,0-5.15-2.691c-1.621,19.017-10.64,35.661-19.82,37.146l-12.392-2.7.016-.236-3.911.087A18.7,18.7,0,0,0,133.04,153.9l.01.425a18.7,18.7,0,0,0,19.062,18.227l7.606-.17-2.726,68.365c-.1,18.441,16.424,29.042,33.565,29.137l.711,0c17.14.1,31.248-14.915,31.351-33.355l.133-24.051a41.907,41.907,0,0,0,31.591-44.445" transform="translate(12.252 8.967)" fill="#ffa485"/>
            <path id="Trazado_737563" data-name="Trazado 737563" d="M148.419,156.015a1.332,1.332,0,0,1-.715-2.457l4.822-3.06-5.39-6.147a1.333,1.333,0,1,1,2-1.757l6.415,7.318a1.332,1.332,0,0,1-.287,2l-6.135,3.892a1.327,1.327,0,0,1-.713.208" transform="translate(13.521 13.091)" fill="#e06a4b"/>
            <path id="Trazado_737564" data-name="Trazado 737564" d="M218.982,204.7s-36.583,1.508-42.637-11.542h0s-1.777,19.854,42.261,30.459Z" transform="translate(15.993 17.255)" fill="#e06a4b"/>
            <path id="Trazado_737565" data-name="Trazado 737565" d="M148.324,176.2c-.238,0-.479-.009-.72-.026a9.665,9.665,0,1,1,.72.026m-.012-13.991a4.339,4.339,0,1,0,.321.012c-.108-.008-.214-.012-.321-.012" transform="translate(12.769 14.449)" fill="#f6eee3"/>
            <path id="Trazado_737566" data-name="Trazado 737566" d="M238.789,137.473a3.612,3.612,0,1,1-3.522-3.7,3.612,3.612,0,0,1,3.522,3.7" transform="translate(21.327 12.32)" fill="#111"/>
            <path id="Trazado_737567" data-name="Trazado 737567" d="M203.8,137.473a3.612,3.612,0,1,1-3.522-3.7,3.612,3.612,0,0,1,3.522,3.7" transform="translate(18.105 12.32)" fill="#111"/>
            <path id="Trazado_737568" data-name="Trazado 737568" d="M197.67,157.139c-9.482,0-17.234-8.907-17.3-19.908-.04-6.535,8.614-9.515,17.21-9.57s17.291,2.815,17.333,9.352h0c.069,11.036-7.623,20.064-17.145,20.125Zm.152-25.481h-.22c-7.442.046-13.257,2.483-13.237,5.547.055,8.8,6.017,15.935,13.305,15.935h.069c7.319-.047,13.229-7.27,13.173-16.1h0c-.02-3.034-5.752-5.381-13.09-5.381" transform="translate(16.611 11.757)" fill="#fff"/>
            <path id="Trazado_737569" data-name="Trazado 737569" d="M236.175,156.388a16.089,16.089,0,0,1-12.265-5.9,21.652,21.652,0,0,1-5.036-14c-.04-6.536,8.616-9.517,17.213-9.57A29.325,29.325,0,0,1,247.4,128.87c3.864,1.65,6,4.274,6.022,7.394a21.649,21.649,0,0,1-4.859,14.063,16.072,16.072,0,0,1-12.285,6.061Zm.154-25.48h-.217c-7.443.047-13.259,2.482-13.24,5.547a17.65,17.65,0,0,0,4.07,11.421,11.7,11.7,0,0,0,18.55-.116,17.658,17.658,0,0,0,3.926-11.474c-.02-3.033-5.751-5.38-13.09-5.38" transform="translate(20.158 11.688)" fill="#fff"/>
            <path id="Trazado_737570" data-name="Trazado 737570" d="M215.094,131.347l.237,11.975a2.674,2.674,0,0,0,2.727,2.621l2.659-.052a3.645,3.645,0,0,1,3.716,3.572,9.028,9.028,0,0,1-8.848,9.205l-4.162.082" transform="translate(19.472 12.097)" fill="#ffa485"/>
            <path id="Trazado_737571" data-name="Trazado 737571" d="M211.534,160.2a1.333,1.333,0,0,1-.026-2.666l4.163-.082a7.7,7.7,0,0,0,7.541-7.846,2.31,2.31,0,0,0-2.357-2.266l-2.66.052a4.009,4.009,0,0,1-4.086-3.928l-.237-11.974a1.334,1.334,0,0,1,1.307-1.36h.026a1.332,1.332,0,0,1,1.332,1.306l.237,11.975a1.325,1.325,0,0,0,.412.941,1.283,1.283,0,0,0,.956.375l2.66-.053a4.977,4.977,0,0,1,5.075,4.878,10.362,10.362,0,0,1-10.154,10.564l-4.163.083Z" transform="translate(19.359 11.984)" fill="#e06a4b"/>
            <path id="Trazado_737572" data-name="Trazado 737572" d="M184.581,140.706a2.009,2.009,0,0,1-.583-.087L155.983,132.1a2,2,0,1,1,1.163-3.825l28.017,8.517a2,2,0,0,1-.581,3.912" transform="translate(14.235 11.806)" fill="#fff"/>
            <path id="Trazado_737573" data-name="Trazado 737573" d="M210.164,141.265A2,2,0,0,1,209,137.644c2.61-1.862,8.951-4.26,14.273-.009a2,2,0,1,1-2.493,3.125c-4.277-3.415-9.254,0-9.464.144a2,2,0,0,1-1.148.361" transform="translate(19.171 12.458)" fill="#fff"/>
            <path id="Trazado_737574" data-name="Trazado 737574" d="M218.468,186.331a.748.748,0,0,1-.5-.032c-.167-.073-4.178-1.744-7.072,1.435a.752.752,0,1,1-1.113-1.012c3.632-3.987,8.735-1.824,8.786-1.8a.752.752,0,0,1-.1,1.412" transform="translate(19.302 16.975)" fill="#e06a4b"/>
            <path id="Trazado_737575" data-name="Trazado 737575" d="M188.172,125.13c1.432.292,3.1-.229,4.733-.639,1.641-.448,3.3-.856,4.753-1.161s3.141-.6,4.824-.85c1.664-.283,3.406-.479,4.581-1.317,1.138-.791,1.329-2.411-.542-3.962-1.769-1.52-5.818-2.727-10.639-1.727-4.812,1.021-7.973,3.743-8.928,5.835-1.029,2.16-.158,3.557,1.218,3.82" transform="translate(17.177 10.601)" fill="#111"/>
            <path id="Trazado_737576" data-name="Trazado 737576" d="M244.121,124.361a9.053,9.053,0,0,1-3.743-.356c-1.3-.3-2.62-.571-3.773-.766s-2.488-.375-3.818-.519a9.022,9.022,0,0,1-3.644-.893c-.92-.588-1.119-1.855.3-3.133,1.345-1.25,4.492-2.325,8.314-1.687,3.815.654,6.384,2.7,7.2,4.313.876,1.667.235,2.792-.839,3.041" transform="translate(21.037 10.759)" fill="#111"/>
            <path id="Trazado_737577" data-name="Trazado 737577" d="M212.553,171.173l-.083,0-10.4-.64A7.538,7.538,0,0,1,195,162.967l.007-1.419a1.333,1.333,0,0,1,1.332-1.327h.007a1.332,1.332,0,0,1,1.326,1.339l-.007,1.42a4.873,4.873,0,0,0,4.572,4.89l10.4.64a1.333,1.333,0,0,1-.081,2.663" transform="translate(17.959 14.756)" fill="#e06a4b"/>
            <path id="Trazado_737578" data-name="Trazado 737578" d="M157.986,286.5l74.933-.432.462-1.161,22.829-57.373a.707.707,0,0,1,.631-.432l-122.5-.02,23.009,57.825Z" transform="translate(12.373 20.914)" fill="#ffa485"/>
            <g id="Grupo_987286" data-name="Grupo 987286" transform="translate(211.212 253.912)" opacity="0.46">
              <g id="Grupo_987285" data-name="Grupo 987285">
                <g id="Grupo_987284" data-name="Grupo 987284" clip-path="url(#clip-path-5)">
                  <path id="Trazado_737579" data-name="Trazado 737579" d="M246.3,233.441,221.2,245.72a45.7,45.7,0,0,0-18.8,17.033l-9,14.57,2.977,2.775,8.922-14.445a45.7,45.7,0,0,1,18.8-17.033l22.451-10.982L248.6,232.5a20.55,20.55,0,0,0-2.292.942" transform="translate(-193.4 -232.499)" fill="#e06a4b"/>
                </g>
              </g>
            </g>
            <path id="Trazado_737580" data-name="Trazado 737580" d="M189.274,365.169a4.324,4.324,0,0,0,8.2,0l33.453-84.077-74.932.432Z" transform="translate(14.367 25.888)" fill="#eb8d2e"/>
            <path id="Trazado_737581" data-name="Trazado 737581" d="M378.629,328.576l-60.8-70.982c-17.521-19.957-25.89-29.877-52.012-30.492h-.06c-.132,0-.258-.01-.391-.013-.014,0-.026.012-.042.012a.709.709,0,0,0-.631.432L241.86,284.905l-.462,1.161-33.454,84.077a4.324,4.324,0,0,1-8.2,0L166.465,286.5l-.633-1.593L142.822,227.08h-.007l-.647.01-.155,0c-23.676.411-50.94,10.181-71.7,25.957a71.951,71.951,0,0,0-27.484,66.261,73.062,73.062,0,0,0,3.718,15.178l1.331,3.787q6.7,19.039,15.037,37.443c2.017,4.448,3.606,7.942,3.633,7.971l14.773,2.689a.7.7,0,0,0,1.042-.022l39.178,49.613a.7.7,0,0,0,.456.651l30.685,11.3a152.627,152.627,0,0,0,51.16,8.36,152.633,152.633,0,0,0,51.162-8.36L293.1,433.077a.7.7,0,0,0,.425-.817s32.563-45.581,32.846-45.89L378.612,329.5a.7.7,0,0,0,.016-.926" transform="translate(3.893 20.914)" fill="#1448d3"/>
            <path id="Trazado_737582" data-name="Trazado 737582" d="M202.6,457.008a152.82,152.82,0,0,1-50.075-8.4l-30.7-11.3a1.379,1.379,0,0,1-.866-1.01L82.253,387.275a1.354,1.354,0,0,1-.333.048,1.371,1.371,0,0,1-.837-.264l-14.6-2.656a.674.674,0,0,1-.363-.2c-.112-.118-.115-.121-3.758-8.157-5.545-12.232-10.61-24.846-15.059-37.5l-1.331-3.787a73.221,73.221,0,0,1-3.75-15.318c-3.209-25.806,7.421-51.431,27.741-66.874,20.634-15.68,48.258-25.678,72.09-26.092l.166.663-.012-.666.647-.01a.664.664,0,0,1,.639.42l56.925,143.064a3.658,3.658,0,0,0,6.958,0l56.745-142.612a1.37,1.37,0,0,1,1.14-.845.76.76,0,0,1,.213-.016l.343.01c26.138.615,34.741,10.418,51.881,29.946l.679.773,60.81,70.99a1.366,1.366,0,0,1-.033,1.812l-52.247,56.867c-.488.622-21.487,30-32.65,45.625a1.368,1.368,0,0,1-.868,1.252L255.3,448.6A152.657,152.657,0,0,1,203.9,457q-.65.007-1.3.005m1.3-1.338a151.107,151.107,0,0,0,50.949-8.324l38.065-14.833a.773.773,0,0,1,.123-.584c7.645-10.7,32.61-45.638,32.9-45.951l52.247-56.868.508-.476-.507.432L316.7,257.316c-16.884-19.236-25.357-28.891-50.847-29.492l-.368-.01-.053.007-23.359,58.547L208.62,370.446a4.99,4.99,0,0,1-9.436,0L142.43,227.81l-.193,0-.155,0c-23.564.408-50.887,10.3-71.306,25.822C50.831,268.793,40.4,293.949,43.549,319.285a71.869,71.869,0,0,0,3.685,15.039l1.332,3.787C53,350.726,58.052,363.3,63.582,375.5c2.343,5.169,3.193,7.029,3.481,7.651L81.5,385.78a.672.672,0,0,1,.368.2.728.728,0,0,1,.543-.234.717.717,0,0,1,.534.253l39.178,49.613a.666.666,0,0,1,.143.408l30.705,11.329A151.025,151.025,0,0,0,203.9,455.67" transform="translate(3.837 20.858)" fill="#5c69ab"/>
            <path id="Trazado_737583" data-name="Trazado 737583" d="M270.2,436.237H184.146a7.634,7.634,0,0,1-7.634-7.634V314.336a7.634,7.634,0,0,1,7.634-7.634H270.2a7.634,7.634,0,0,1,7.634,7.634V428.6a7.634,7.634,0,0,1-7.634,7.634" transform="translate(16.256 28.247)" fill="#231f20"/>
            <path id="Trazado_737584" data-name="Trazado 737584" d="M240.511,308.92H208.545a3.3,3.3,0,0,1-3.3-3.3V300.79a3.3,3.3,0,0,1,3.3-3.3h31.967a3.3,3.3,0,0,1,3.3,3.3v4.827a3.3,3.3,0,0,1-3.3,3.3" transform="translate(18.902 27.398)" fill="#f6eee3"/>
            <path id="Trazado_737585" data-name="Trazado 737585" d="M239.84,309.642H209.329a4.7,4.7,0,0,1-4.7-4.7v-3.371a4.7,4.7,0,0,1,4.7-4.7H239.84a4.7,4.7,0,0,1,4.7,4.7v3.371a4.7,4.7,0,0,1-4.7,4.7M209.329,298.21a3.369,3.369,0,0,0-3.365,3.365v3.371a3.369,3.369,0,0,0,3.365,3.364H239.84a3.369,3.369,0,0,0,3.365-3.364v-3.371a3.369,3.369,0,0,0-3.365-3.365Z" transform="translate(18.846 27.342)" fill="#231f20"/>
            <path id="Trazado_737586" data-name="Trazado 737586" d="M250.061,312.228H200.131a1.049,1.049,0,0,1-1.05-1.049v-3.264a1.049,1.049,0,0,1,1.05-1.049h49.931a1.049,1.049,0,0,1,1.05,1.049v3.264a1.049,1.049,0,0,1-1.05,1.049" transform="translate(18.335 28.262)" fill="#f6eee3"/>
            <path id="Trazado_737587" data-name="Trazado 737587" d="M249.885,312.951H200.417A1.95,1.95,0,0,1,198.47,311v-2.8a1.949,1.949,0,0,1,1.947-1.946h49.468a1.949,1.949,0,0,1,1.947,1.946V311a1.95,1.95,0,0,1-1.947,1.947m-49.468-5.363a.615.615,0,0,0-.614.614V311a.615.615,0,0,0,.614.615h49.468A.616.616,0,0,0,250.5,311v-2.8a.616.616,0,0,0-.615-.614Z" transform="translate(18.279 28.206)" fill="#231f20"/>
            <path id="Trazado_737588" data-name="Trazado 737588" d="M197.373,383.362c1.276,5.1,5.943,4.849,10.5,3.7-2.715,1.146-4.729,2.963-3.74,6.331,1.063,6.224,6.986,6.478,11.936,5.095-4.27,2.7,1.161,9.246,7.776,9.149,9.283.337,18.486.636,27.769,1.157,6.553.368,12.76.059,18.547-3.131l7.069.3-1.489-48.891-11.6,2.151c-1.365-.933-2.753-1.826-4.175-2.631,0,0-24.554-11-33.495-13.124a8.714,8.714,0,0,0-2.922-.331,3.187,3.187,0,0,0-2.457,1.438,4.233,4.233,0,0,0,.228,3.7c1.576,3.656,2.97,6.827,4.388,9.612-3.467.179-4.419.211-8.479.342-8.54.892-22.8.633-20.984,11.736.961,3.8,4.066,4.4,7.276,3.968-4.385,1.48-8.327,4.106-6.145,9.438m6.892,5.092c.736-.217,1.418-.4,2.018-.526-.586.178-1.276.348-2.018.526" transform="translate(18.059 31.599)" fill="#ffa485"/>
            <g id="Grupo_987289" data-name="Grupo 987289" transform="translate(241.177 383.987)" opacity="0.36">
              <g id="Grupo_987288" data-name="Grupo 987288">
                <g id="Grupo_987287" data-name="Grupo 987287" clip-path="url(#clip-path-6)">
                  <path id="Trazado_737589" data-name="Trazado 737589" d="M223.425,357.1l22.268.517s-21.321-6.2-24.855-6Z" transform="translate(-220.838 -351.605)" fill="#e06a4b"/>
                </g>
              </g>
            </g>
            <path id="Trazado_737590" data-name="Trazado 737590" d="M269.214,414.154l12.491.026a2.694,2.694,0,0,0,2.7-2.689l.127-59.744a2.693,2.693,0,0,0-2.689-2.7l-12.491-.027a2.7,2.7,0,0,0-2.7,2.689l-.127,59.744a2.694,2.694,0,0,0,2.689,2.7" transform="translate(24.547 32.144)" fill="#f2f1ec"/>
            <path id="Trazado_737591" data-name="Trazado 737591" d="M276.223,351.681v65.9a5.417,5.417,0,0,0,6.359,5.334l52.718-9.319c40.538-8.006,56.213-57.651,27.622-87.485l-5.085-5.305-76.05,23.349a7.876,7.876,0,0,0-5.564,7.529" transform="translate(25.44 29.545)" fill="#1448d3"/>
            <path id="Trazado_737592" data-name="Trazado 737592" d="M289.43,400.624A3.577,3.577,0,1,1,284.638,399a3.577,3.577,0,0,1,4.792,1.622" transform="translate(26.031 36.713)" fill="#f2f1ec"/>
            <path id="Trazado_737593" data-name="Trazado 737593" d="M281.691,423.717a6.085,6.085,0,0,1-6.078-6.083v-65.9a8.5,8.5,0,0,1,6.034-8.166L357.7,320.223a.659.659,0,0,1,.677.176l5.085,5.305a52.961,52.961,0,0,1-27.976,88.6l-52.729,9.321a6.163,6.163,0,0,1-1.065.094m76.007-102.1-75.659,23.228a7.174,7.174,0,0,0-5.092,6.893v65.9a4.752,4.752,0,0,0,5.577,4.677l52.717-9.319A51.627,51.627,0,0,0,362.5,326.626Z" transform="translate(25.383 29.489)" fill="#5c69ab"/>
            <line id="Línea_185" data-name="Línea 185" x1="13.651" y2="2" transform="translate(220.749 403.605)" fill="#c0644b"/>
            <path id="Trazado_737594" data-name="Trazado 737594" d="M202.188,372.291a.666.666,0,0,1-.1-1.326l13.651-2a.677.677,0,0,1,.756.564.665.665,0,0,1-.564.756l-13.651,2a.715.715,0,0,1-.1.007" transform="translate(18.56 33.981)" fill="#f16f5f"/>
            <line id="Línea_186" data-name="Línea 186" x1="11.191" y2="2.612" transform="translate(225.931 416.046)" fill="#c0644b"/>
            <path id="Trazado_737595" data-name="Trazado 737595" d="M206.934,384.3a.667.667,0,0,1-.151-1.316l11.191-2.612a.667.667,0,0,1,.3,1.3l-11.192,2.611a.651.651,0,0,1-.151.017" transform="translate(18.997 35.03)" fill="#f16f5f"/>
            <line id="Línea_187" data-name="Línea 187" x1="10.746" y2="2.938" transform="translate(233.528 427.614)" fill="#c0644b"/>
            <path id="Trazado_737596" data-name="Trazado 737596" d="M213.89,395.212a.666.666,0,0,1-.176-1.309l10.746-2.937a.666.666,0,0,1,.352,1.285l-10.746,2.938a.707.707,0,0,1-.176.023" transform="translate(19.638 36.005)" fill="#f16f5f"/>
            <path id="Trazado_737597" data-name="Trazado 737597" d="M276.279,362.141a.666.666,0,0,1-.666-.666V351.5a10.072,10.072,0,0,1,7.433-9.708l43.7-11.8a.666.666,0,0,1,.346,1.286l-43.7,11.8a8.739,8.739,0,0,0-6.448,8.421v9.972a.666.666,0,0,1-.666.666" transform="translate(25.383 30.39)" fill="#111"/>
            <path id="Trazado_737598" data-name="Trazado 737598" d="M290.638,342.664a.664.664,0,0,1-.573-.328l-16.409-27.766a.666.666,0,0,1,1.148-.677l16.409,27.766a.665.665,0,0,1-.236.912.657.657,0,0,1-.339.093" transform="translate(25.195 28.879)" fill="#111"/>
            <path id="Trazado_737599" data-name="Trazado 737599" d="M191.269,288.758,205.5,265.726a45.685,45.685,0,0,1,18.8-17.033l25.1-12.278a20.688,20.688,0,0,1,11.621-1.949l48.384-2.756a1.574,1.574,0,0,1,1.53,2.212c-.012.027-.025.056-.037.084a8.8,8.8,0,0,1-7.008,5.189l-22.736,2.79,1.119.1a7.953,7.953,0,0,1,6.744,5.194l1.872,5.13,1.591,1.688a8.211,8.211,0,0,1,1.664,8.64l-11.282,28.654a3.232,3.232,0,0,1-4.419,1.724,9.232,9.232,0,0,1-4.718-11.255l3.228-9.574-15.578,19.127a25.607,25.607,0,0,1-9.551,7.271l-12.005,5.277-8.462,23.711Z" transform="translate(17.616 21.34)" fill="#ffa485"/>
            <line id="Línea_188" data-name="Línea 188" y1="0.727" x2="16.541" transform="translate(282.072 263.896)" fill="#c0644b"/>
            <path id="Trazado_737600" data-name="Trazado 737600" d="M275.253,242.436a.843.843,0,0,1-.324.084l-16.541.728a.811.811,0,0,1-.071-1.621l16.542-.728a.811.811,0,0,1,.394,1.537" transform="translate(23.719 22.186)" fill="#e06a4b"/>
            <line id="Línea_189" data-name="Línea 189" y1="2.094" x2="20.12" transform="translate(287.747 273.822)" fill="#c0644b"/>
            <path id="Trazado_737601" data-name="Trazado 737601" d="M284.028,251.525a.82.82,0,0,1-.275.08l-20.12,2.094a.81.81,0,1,1-.167-1.611l20.119-2.095a.81.81,0,0,1,.443,1.532" transform="translate(24.198 23.023)" fill="#e06a4b"/>
            <line id="Línea_190" data-name="Línea 190" x1="2.182" y2="5.51" transform="translate(294.568 288.117)" fill="#c0644b"/>
            <path id="Trazado_737602" data-name="Trazado 737602" d="M270.155,270.123a.81.81,0,0,1-1.112-1.024l2.181-5.511a.81.81,0,0,1,1.506.6l-2.181,5.51a.811.811,0,0,1-.394.428" transform="translate(24.773 24.229)" fill="#e06a4b"/>
            <path id="Trazado_737603" data-name="Trazado 737603" d="M241.8,321.513l-9.15,9.815a2.693,2.693,0,0,1-3.808.133L182.67,288.418a2.694,2.694,0,0,1-.134-3.808l9.151-9.816a2.7,2.7,0,0,1,3.808-.133L241.665,317.7a2.694,2.694,0,0,1,.133,3.808" transform="translate(16.745 25.229)" fill="#f2f1ec"/>
            <path id="Trazado_737604" data-name="Trazado 737604" d="M70.457,389.852c2.353,4.455,5.748,10.34,9.6,16.8A51.562,51.562,0,0,0,157.776,419.6c11.038-9.365,22.881-19.763,34.436-30.07,24.033-21.438,46.822-42.487,58.546-53.051a5.83,5.83,0,0,0,.066-8.607l-51.572-47.846a4.339,4.339,0,0,0-5.8-.09l-62.631,54.629L54.422,349.493s9.378,27.76,16.035,40.36" transform="translate(5.012 25.683)" fill="#1448d3"/>
            <path id="Trazado_737605" data-name="Trazado 737605" d="M124.4,432.595a52.156,52.156,0,0,1-44.856-25.546c-4.21-7.054-7.447-12.714-9.619-16.827-6.606-12.5-15.984-40.179-16.078-40.458a.665.665,0,0,1,.5-.867l76.22-14.891,62.494-54.513a5,5,0,0,1,6.7.1l51.571,47.846a6.5,6.5,0,0,1-.071,9.59c-4.028,3.629-9.361,8.5-15.6,14.191-12.1,11.043-27.168,24.788-42.946,38.862-13.176,11.753-24.444,21.592-34.45,30.08A51.614,51.614,0,0,1,136.425,431.2a52.852,52.852,0,0,1-12.025,1.391M55.355,350.057C56.879,354.5,65.143,378.318,71.1,389.6c2.162,4.092,5.387,9.734,9.585,16.768A50.851,50.851,0,0,0,136.122,429.9,50.3,50.3,0,0,0,157.4,419.151c10-8.481,21.258-18.315,34.424-30.06,15.773-14.069,30.833-27.81,42.935-38.852,6.244-5.7,11.58-10.566,15.608-14.2a5.177,5.177,0,0,0,1.71-3.8,5.109,5.109,0,0,0-1.651-3.821l-51.571-47.846a3.666,3.666,0,0,0-4.916-.076l-62.629,54.63a.664.664,0,0,1-.311.151Z" transform="translate(4.956 25.627)" fill="#5c69ab"/>
            <path id="Trazado_737606" data-name="Trazado 737606" d="M116.49,422.443q-1.827,0-3.655-.1a.664.664,0,0,1-.628-.7.653.653,0,0,1,.7-.629,67.423,67.423,0,0,0,49.349-17.894l19.723-18.376a.666.666,0,0,1,.908.976L163.164,404.1a68.766,68.766,0,0,1-46.674,18.347" transform="translate(10.334 35.418)" fill="#111"/>
            <path id="Trazado_737607" data-name="Trazado 737607" d="M100.983,353.2a.667.667,0,0,1-.432-1.174l67.159-57.149a.667.667,0,0,1,.865,1.016l-67.159,57.15a.67.67,0,0,1-.432.158" transform="translate(9.239 27.143)" fill="#111"/>
            <path id="Trazado_737608" data-name="Trazado 737608" d="M119.55,338.333a.665.665,0,0,1-.578-.332L92.516,292.306a.667.667,0,1,1,1.153-.669l26.457,45.7a.665.665,0,0,1-.242.911.658.658,0,0,1-.333.09" transform="translate(8.512 26.829)" fill="#111"/>
            <path id="Trazado_737609" data-name="Trazado 737609" d="M221.553,326.023a3.577,3.577,0,1,1-4.792-1.622,3.577,3.577,0,0,1,4.792,1.622" transform="translate(19.78 29.843)" fill="#f2f1ec"/>
            <path id="Trazado_737610" data-name="Trazado 737610" d="M0,97.195V198.4c0,15.52,42.536,28.99,104.879,35.73v-101.2C42.536,126.184,0,112.715,0,97.195" transform="translate(0 8.952)" fill="#ff6e33"/>
            <path id="Trazado_737611" data-name="Trazado 737611" d="M93.053,152.094l-.047,0c-51.431-5.562-83.381-16.559-83.381-28.7a.429.429,0,1,1,.857,0c0,11.491,32.429,22.422,82.616,27.848a.429.429,0,0,1-.046.856" transform="translate(0.886 11.324)" fill="#f6eee3"/>
            <path id="Trazado_737612" data-name="Trazado 737612" d="M47.378,158.98a.421.421,0,0,1-.1-.011,158.91,158.91,0,0,1-20.67-6.118.429.429,0,1,1,.308-.8,157.736,157.736,0,0,0,20.557,6.083.429.429,0,0,1-.1.847" transform="translate(2.425 14.001)" fill="#f6eee3"/>
            <path id="Trazado_737613" data-name="Trazado 737613" d="M88.631,165.361l-.047,0c-10.974-1.187-21.268-2.648-30.591-4.343a.429.429,0,1,1,.153-.844c9.3,1.691,19.576,3.15,30.531,4.333a.429.429,0,0,1-.046.856" transform="translate(5.309 14.751)" fill="#111"/>
            <path id="Trazado_737614" data-name="Trazado 737614" d="M12.194,190.669l11.846,3.794V177.574l-11.846-4.552Z" transform="translate(1.123 15.935)" fill="#111"/>
            <path id="Trazado_737615" data-name="Trazado 737615" d="M24.5,195.975l-12.7-4.069V162.985l12.7,4.883ZM12.658,191.28,23.646,194.8V168.458l-10.988-4.223Z" transform="translate(1.087 15.011)" fill="#f6eee3"/>
            <path id="Trazado_737616" data-name="Trazado 737616" d="M40.137,199.72l-12.7-4.069V179.6l12.7,4.884Zm-11.846-4.695,10.988,3.519V185.077l-10.988-4.222Z" transform="translate(2.527 16.541)" fill="#f6eee3"/>
            <path id="Trazado_737617" data-name="Trazado 737617" d="M364.4,97.195V198.4c0,12.822-29.033,24.245-74.282,31.629-1.281.209-1.527-100.954-.438-101.13,45.5-7.383,74.72-18.838,74.72-31.7" transform="translate(26.616 8.952)" fill="#ff6e33"/>
            <path id="Trazado_737618" data-name="Trazado 737618" d="M329.23,136.673a.429.429,0,0,1-.1-.846c10.751-2.554,18.808-5.462,23.95-8.643a.429.429,0,0,1,.451.731c-5.219,3.228-13.362,6.173-24.2,8.747a.387.387,0,0,1-.1.012" transform="translate(30.282 11.708)" fill="#111"/>
            <path id="Trazado_737619" data-name="Trazado 737619" d="M329.793,149.314a.429.429,0,0,1-.1-.846c10.474-2.488,18.325-5.322,23.335-8.421a.429.429,0,0,1,.451.731c-5.087,3.147-13.023,6.016-23.587,8.525a.387.387,0,0,1-.1.012" transform="translate(30.334 12.892)" fill="#f6eee3"/>
            <g id="Grupo_987292" data-name="Grupo 987292" transform="translate(63.618 198.19)" opacity="0.69">
              <g id="Grupo_987291" data-name="Grupo 987291">
                <g id="Grupo_987290" data-name="Grupo 987290" clip-path="url(#clip-path-7)">
                  <path id="Trazado_737620" data-name="Trazado 737620" d="M75.273,201.244,58.616,184.062a1.287,1.287,0,0,1,1.849-1.792l14.893,15.364,17.225-16.158,21.211,16.448a1.287,1.287,0,0,1-1.578,2.035l-19.475-15.1Z" transform="translate(-58.253 -181.476)" fill="#1b1f38"/>
                </g>
              </g>
            </g>
            <path id="Trazado_737621" data-name="Trazado 737621" d="M64.115,183.388a4.319,4.319,0,1,1-4.319-4.319,4.32,4.32,0,0,1,4.319,4.319" transform="translate(5.109 16.492)" fill="#bcc5f6"/>
            <path id="Trazado_737622" data-name="Trazado 737622" d="M94.443,183.388a4.32,4.32,0,1,1-4.319-4.319,4.32,4.32,0,0,1,4.319,4.319" transform="translate(7.902 16.492)" fill="#bcc5f6"/>
            <path id="Trazado_737623" data-name="Trazado 737623" d="M78.56,197.833a4.319,4.319,0,1,1-4.319-4.319,4.32,4.32,0,0,1,4.319,4.319" transform="translate(6.44 17.822)" fill="#5f73d3"/>
            <path id="Trazado_737624" data-name="Trazado 737624" d="M113.071,197.833a4.32,4.32,0,1,1-4.319-4.319,4.32,4.32,0,0,1,4.319,4.319" transform="translate(9.618 17.822)" fill="#5f73d3"/>
            <rect id="Rectángulo_345061" data-name="Rectángulo 345061" width="6.964" height="49.524" transform="translate(287.027 212.212)" fill="#5c69ab"/>
            <path id="Trazado_737625" data-name="Trazado 737625" d="M270.252,244.306h-7.823V193.923h7.823Zm-6.964-.858h6.106V194.781h-6.106Z" transform="translate(24.169 17.86)" fill="#5c69ab"/>
            <path id="Trazado_737626" data-name="Trazado 737626" d="M282.413,245.437H274.59v-63.8h7.823Zm-6.964-.858h6.106V182.5h-6.106Z" transform="translate(25.289 16.729)" fill="#111"/>
            <path id="Trazado_737627" data-name="Trazado 737627" d="M307.688,245.437h-7.823v-63.8h7.823Zm-6.964-.858h6.106V182.5h-6.106Z" transform="translate(27.617 16.729)" fill="#111"/>
            <g id="Grupo_987295" data-name="Grupo 987295" transform="translate(340.808 189.255)" opacity="0.46">
              <g id="Grupo_987294" data-name="Grupo 987294">
                <g id="Grupo_987293" data-name="Grupo 987293" clip-path="url(#clip-path-8)">
                  <rect id="Rectángulo_345062" data-name="Rectángulo 345062" width="6.964" height="72.481" transform="translate(0 0)" fill="#fff"/>
                </g>
              </g>
            </g>
            <rect id="Rectángulo_345064" data-name="Rectángulo 345064" width="6.964" height="47.333" transform="translate(340.808 214.404)" fill="#5c69ab"/>
            <path id="Trazado_737628" data-name="Trazado 737628" d="M319.5,244.12h-7.823V195.93H319.5Zm-6.964-.857h6.106V196.788h-6.106Z" transform="translate(28.705 18.045)" fill="#5c69ab"/>
            <rect id="Rectángulo_345065" data-name="Rectángulo 345065" width="6.964" height="44.365" transform="translate(314.498 217.371)" fill="#5c69ab"/>
            <path id="Trazado_737629" data-name="Trazado 737629" d="M295.406,243.87h-7.823V198.646h7.823Zm-6.964-.857h6.106V199.505h-6.106Z" transform="translate(26.486 18.295)" fill="#5c69ab"/>
          </g>
        </g>
      </g>
    </g>
  </g>
</svg>
