<svg xmlns="http://www.w3.org/2000/svg" width="379.319" height="40.208" viewBox="0 0 379.319 40.208">
  <g id="Grupo_987313" data-name="Grupo 987313" transform="translate(1740.328 7634.96)">
    <path id="Trazado_737668" data-name="Trazado 737668" d="M12.064,6.3H3.072l-.064.368H3.6c.672,0,.944.24.944.672a1.6,1.6,0,0,1-.032.256l-1.84,8.064c-.144.624-.416.976-1.36.976H.736L.672,17h9.6l.976-3.3H10.9c-.672,1.9-1.856,2.576-4.192,2.576H5.664c-.5,0-.672-.1-.672-.32a2.042,2.042,0,0,1,.032-.272l.928-4.128h1.1c.464,0,1.36.048,1.36.736a6.4,6.4,0,0,1-.1,1.04h.368L9.552,9.32H9.2a1.9,1.9,0,0,1-2.192,1.52h-.88l.88-3.824h2.16c.736,0,1.92.192,1.936,1.36a3.12,3.12,0,0,1-.048.608h.368ZM15.7,9.8l-.208.752h1.264L15.5,16.008c-.224.976-.624,3.6-1.376,3.6-.112,0-.16-.048-.16-.112,0-.336.32-.16.32-.752a.813.813,0,0,0-.912-.848,1.045,1.045,0,0,0-.96,1.168c0,.608.464,1.232,1.5,1.232a3.133,3.133,0,0,0,2.672-1.888,7.7,7.7,0,0,0,.608-1.664l1.408-6.192h1.264l.192-.752h-1.28l.208-1.04c.224-1.088.624-2.032,1.12-2.032.112,0,.16.048.16.112,0,.336-.32.224-.32.8,0,.4.224.784.912.784a1.039,1.039,0,0,0,.96-1.152c0-.608-.464-1.232-1.5-1.232a3.073,3.073,0,0,0-2.672,1.9c-.48.992-.528,1.856-1.12,1.856Zm9.968-1.728a1.066,1.066,0,0,0-1.056-.992,1.09,1.09,0,0,0-1.056.992,1.066,1.066,0,0,0,1.056.992A1.043,1.043,0,0,0,25.664,8.072Zm-.72,7.264c-.3.368-.544.736-.864.736a.376.376,0,0,1-.336-.4,2.855,2.855,0,0,1,.128-.768l1.248-5.3-3.152.544.064.368a2.974,2.974,0,0,1,.592-.048c.24,0,.32.112.32.288a2.1,2.1,0,0,1-.08.432l-1.056,4.56a1.837,1.837,0,0,0-.064.5c0,.512.256.9,1.072.9a2.8,2.8,0,0,0,2.432-1.616Zm8.224-.16a3.229,3.229,0,0,1-2.416,1.264c-.816,0-1.616-.448-1.616-1.92,0-1.392,1.168-4.272,2.848-4.272.144,0,.24.08.24.32,0,.336-.368.272-.368.848,0,.224.128.688.832.688a1.149,1.149,0,0,0,1.248-1.184c0-.72-.8-1.312-1.952-1.312-2.944,0-4.7,2.848-4.7,4.96a2.372,2.372,0,0,0,2.592,2.592A4.483,4.483,0,0,0,33.456,15.3Zm9.5.144c-.336.432-.592.768-.9.768-.192,0-.256-.224-.256-.5a3.253,3.253,0,0,1,.1-.72L42.8,9.8H40.96l-.176.816h-.032a1.209,1.209,0,0,0-1.344-1.008c-2.64,0-4.5,3.376-4.5,5.6A1.832,1.832,0,0,0,36.96,17.16,3.269,3.269,0,0,0,39.3,16.04h.1a1.034,1.034,0,0,0,1.1,1.12,2.7,2.7,0,0,0,2.48-1.648ZM40.32,11.8c0,1.792-1.712,4.24-2.832,4.24-.288,0-.72-.16-.72-1.04,0-2.288,1.552-4.768,2.688-4.768C40,10.232,40.32,10.776,40.32,11.8ZM50.1,15.176A3.229,3.229,0,0,1,47.68,16.44c-.816,0-1.616-.448-1.616-1.92,0-1.392,1.168-4.272,2.848-4.272.144,0,.24.08.24.32,0,.336-.368.272-.368.848,0,.224.128.688.832.688a1.149,1.149,0,0,0,1.248-1.184c0-.72-.8-1.312-1.952-1.312-2.944,0-4.7,2.848-4.7,4.96A2.372,2.372,0,0,0,46.8,17.16,4.483,4.483,0,0,0,50.384,15.3Zm5.84-7.1A1.066,1.066,0,0,0,54.88,7.08a1.09,1.09,0,0,0-1.056.992,1.066,1.066,0,0,0,1.056.992A1.043,1.043,0,0,0,55.936,8.072Zm-.72,7.264c-.3.368-.544.736-.864.736a.376.376,0,0,1-.336-.4,2.855,2.855,0,0,1,.128-.768l1.248-5.3-3.152.544.064.368a2.974,2.974,0,0,1,.592-.048c.24,0,.32.112.32.288a2.1,2.1,0,0,1-.08.432l-1.056,4.56a1.837,1.837,0,0,0-.064.5c0,.512.256.9,1.072.9a2.8,2.8,0,0,0,2.432-1.616Zm10.1-.016c-.336.432-.592.768-.9.768-.192,0-.256-.224-.256-.5a3.253,3.253,0,0,1,.1-.72L65.44,9.8H63.6l-.176.816h-.032a1.209,1.209,0,0,0-1.344-1.008c-2.64,0-4.5,3.376-4.5,5.6A1.832,1.832,0,0,0,59.6,17.16a3.269,3.269,0,0,0,2.336-1.12h.1a1.034,1.034,0,0,0,1.1,1.12,2.7,2.7,0,0,0,2.48-1.648ZM62.96,11.8c0,1.792-1.712,4.24-2.832,4.24-.288,0-.72-.16-.72-1.04,0-2.288,1.552-4.768,2.688-4.768C62.64,10.232,62.96,10.776,62.96,11.8Zm10.887-1.23H67.331V9.289h6.516Zm0,3.25H67.331V12.539h6.516Z" transform="translate(-1741 -7630)" fill="#9b1f36"/>
    <path id="Trazado_737669" data-name="Trazado 737669" d="M12.96,6.3H8.176l-.064.368H8.7c.7,0,.9.16.912.544a1.376,1.376,0,0,1-.032.384L8.32,13.272c-.4,1.76-1.184,2.992-2.72,2.992A1.842,1.842,0,0,1,3.568,14.5a5.941,5.941,0,0,1,.112-1.072L5.008,7.624c.144-.656.288-.96,1.328-.96H6.96L7.024,6.3H1.216l-.064.368h.592c.8,0,.96.4.96.72a.968.968,0,0,1-.032.24l-1.12,4.912a9.226,9.226,0,0,0-.24,1.52c0,1.5,1.1,3.1,3.84,3.1a3.975,3.975,0,0,0,3.984-2.32,7.544,7.544,0,0,0,.5-1.472l1.28-5.744c.144-.672.4-.96,1.376-.96H12.9Zm6.864,9.024c-.32.416-.576.752-.864.752-.272,0-.336-.208-.336-.432a2.081,2.081,0,0,1,.048-.352l.8-3.408a6.507,6.507,0,0,0,.112-.976c0-.72-.32-1.3-1.424-1.3a3.194,3.194,0,0,0-2.72,1.7h-.064l.432-1.776-3.12.544.08.448a2.546,2.546,0,0,1,.752-.144c.16,0,.176.064.176.24a1.235,1.235,0,0,1-.032.24L12.256,17H14.1l.4-1.744c.4-1.76,1.744-4.448,2.656-4.448.256,0,.464.128.464.56a4.938,4.938,0,0,1-.048.752L16.7,15.688a2.44,2.44,0,0,0-.1.544c0,.56.352.928,1.088.928A2.775,2.775,0,0,0,20.144,15.5Zm5.648-7.248a1.066,1.066,0,0,0-1.056-.992,1.09,1.09,0,0,0-1.056.992,1.066,1.066,0,0,0,1.056.992A1.043,1.043,0,0,0,25.472,8.072Zm-.72,7.264c-.3.368-.544.736-.864.736a.376.376,0,0,1-.336-.4,2.855,2.855,0,0,1,.128-.768l1.248-5.3-3.152.544.064.368a2.974,2.974,0,0,1,.592-.048c.24,0,.32.112.32.288a2.1,2.1,0,0,1-.08.432l-1.056,4.56a1.837,1.837,0,0,0-.064.5c0,.512.256.9,1.072.9a2.8,2.8,0,0,0,2.432-1.616Zm11.056-9.3-3.264.5.064.368a3.677,3.677,0,0,1,.672-.112c.208,0,.272.16.272.352a1.621,1.621,0,0,1-.064.416L32.9,9.992a2.759,2.759,0,0,0-1.36-.336c-2.944,0-4.448,3.248-4.448,5.552A1.872,1.872,0,0,0,29.2,17.224a3.245,3.245,0,0,0,2.256-1.1h.08a1.083,1.083,0,0,0,1.056,1.1,2.862,2.862,0,0,0,2.544-1.68l-.3-.176c-.288.384-.56.752-.848.752a.345.345,0,0,1-.384-.384,3.169,3.169,0,0,1,.128-.656Zm-3.264,5.424a6.867,6.867,0,0,1-.336,1.728c-.432,1.52-1.664,2.928-2.512,2.928-.336,0-.768-.272-.768-1.072,0-2.3,1.408-4.752,2.656-4.752A1.045,1.045,0,0,1,32.544,11.464ZM44.368,15.32c-.336.432-.592.768-.9.768-.192,0-.256-.224-.256-.5a3.253,3.253,0,0,1,.1-.72L44.5,9.8h-1.84l-.176.816h-.032A1.209,1.209,0,0,0,41.1,9.608c-2.64,0-4.5,3.376-4.5,5.6a1.832,1.832,0,0,0,2.048,1.952,3.269,3.269,0,0,0,2.336-1.12h.1a1.034,1.034,0,0,0,1.1,1.12,2.7,2.7,0,0,0,2.48-1.648ZM42.016,11.8c0,1.792-1.712,4.24-2.832,4.24-.288,0-.72-.16-.72-1.04,0-2.288,1.552-4.768,2.688-4.768C41.7,10.232,42.016,10.776,42.016,11.8ZM54.624,6.04l-3.264.5.064.368a3.677,3.677,0,0,1,.672-.112c.208,0,.272.16.272.352a1.621,1.621,0,0,1-.064.416l-.592,2.432a2.759,2.759,0,0,0-1.36-.336c-2.944,0-4.448,3.248-4.448,5.552a1.872,1.872,0,0,0,2.112,2.016,3.245,3.245,0,0,0,2.256-1.1h.08a1.083,1.083,0,0,0,1.056,1.1,2.862,2.862,0,0,0,2.544-1.68l-.3-.176c-.288.384-.56.752-.848.752a.345.345,0,0,1-.384-.384,3.169,3.169,0,0,1,.128-.656ZM51.36,11.464a6.867,6.867,0,0,1-.336,1.728c-.432,1.52-1.664,2.928-2.512,2.928-.336,0-.768-.272-.768-1.072,0-2.3,1.408-4.752,2.656-4.752A1.045,1.045,0,0,1,51.36,11.464Zm9.952,3.712c-.944.912-1.488,1.264-2.4,1.264-.928,0-1.632-.656-1.632-1.968a.813.813,0,0,1,.064-.368c1.824-.144,4.72-1.248,4.72-3.152,0-1.184-1.264-1.344-1.968-1.344a4.98,4.98,0,0,0-4.576,4.08,3.862,3.862,0,0,0-.1.944,2.341,2.341,0,0,0,2.528,2.528,4.276,4.276,0,0,0,3.664-1.872Zm-.864-4.352c0,1.136-1.712,2.464-2.992,2.64.144-1.248,1.36-3.216,2.448-3.216C60.32,10.248,60.448,10.408,60.448,10.824Zm8.944-1.216h-.4a.652.652,0,0,1-.624.352,4.976,4.976,0,0,0-1.488-.352A1.916,1.916,0,0,0,64.8,11.48c0,.864.816,1.712,1.456,2.464a2.125,2.125,0,0,1,.752,1.36c0,.656-.272,1.28-1.008,1.28a2.063,2.063,0,0,1-1.7-2.048H63.92l-.352,2.64h.4a.967.967,0,0,1,.624-.352,9.987,9.987,0,0,0,1.76.336,2.223,2.223,0,0,0,2.48-2.064,3.39,3.39,0,0,0-1.2-2.384c-.544-.64-1.088-1.168-1.088-1.632,0-.672.3-.88.736-.88.608,0,1.392.8,1.408,1.968h.352ZM77.417,6.3l-.1.368h.592c.736,0,.944.208.96.592a1.218,1.218,0,0,1-.048.336l-1.84,8.064c-.144.624-.368.976-1.36.976h-.64L74.921,17H81l.064-.368h-.832c-.752,0-.928-.128-.96-.56a2.123,2.123,0,0,1,.064-.384l.816-3.536a7.663,7.663,0,0,0,1.072.048c3.44,0,4.752-1.744,4.752-3.3,0-1.888-1.36-2.608-4.016-2.608Zm3.888.736a4.653,4.653,0,0,1,.48-.016,1.538,1.538,0,0,1,1.7,1.648,2.57,2.57,0,0,1-2.512,2.816,3.045,3.045,0,0,1-.64-.08Zm6.848,2.5-3.088.544.048.448a1.976,1.976,0,0,1,.656-.176.229.229,0,0,1,.256.24,3.375,3.375,0,0,1-.048.336L84.569,17h1.824l.32-1.28c.1-.384,1.36-4.464,2.032-4.464.256,0,.128.608.784.608a1.329,1.329,0,0,0,1.3-1.376.907.907,0,0,0-.992-.88,2.585,2.585,0,0,0-2,1.376Zm11.568,2.72c0-1.712-1.312-2.64-3.2-2.64A4.656,4.656,0,0,0,91.8,14.28a2.721,2.721,0,0,0,2.992,2.88A4.816,4.816,0,0,0,99.721,12.248ZM97.865,12.2c0,2.048-1.328,4.32-2.8,4.32-.96,0-1.408-.5-1.408-2.048,0-1.808,1.376-4.224,2.784-4.224C97.177,10.248,97.865,10.744,97.865,12.2ZM109.5,6.04l-3.264.5.064.368a3.677,3.677,0,0,1,.672-.112c.208,0,.272.16.272.352a1.621,1.621,0,0,1-.064.416l-.592,2.432a2.759,2.759,0,0,0-1.36-.336c-2.944,0-4.448,3.248-4.448,5.552a1.872,1.872,0,0,0,2.112,2.016,3.245,3.245,0,0,0,2.256-1.1h.08a1.083,1.083,0,0,0,1.056,1.1,2.862,2.862,0,0,0,2.544-1.68l-.3-.176c-.288.384-.56.752-.848.752a.345.345,0,0,1-.384-.384,3.169,3.169,0,0,1,.128-.656Zm-3.264,5.424a6.866,6.866,0,0,1-.336,1.728c-.432,1.52-1.664,2.928-2.512,2.928-.336,0-.768-.272-.768-1.072,0-2.3,1.408-4.752,2.656-4.752A1.045,1.045,0,0,1,106.233,11.464ZM117.3,15.336c-.3.416-.576.736-.864.736-.24,0-.3-.288-.3-.56a1.611,1.611,0,0,1,.032-.3L117.417,9.8h-1.808l-.3,1.44c-.384,1.84-2.272,4.72-3.04,4.72-.192,0-.336-.064-.336-.352a2.244,2.244,0,0,1,.1-.512l1.264-5.5-3.1.528.048.384a4.605,4.605,0,0,1,.7-.112c.112,0,.208.048.208.336a3.083,3.083,0,0,1-.048.4l-.864,3.808a4.065,4.065,0,0,0-.112.912,1.147,1.147,0,0,0,1.264,1.312c1.52,0,2.464-1.344,2.912-2.064h.048a3.319,3.319,0,0,0-.272,1.312c.016.512.656.752,1.072.752a2.746,2.746,0,0,0,2.48-1.664Zm7.44-.16a3.229,3.229,0,0,1-2.416,1.264c-.816,0-1.616-.448-1.616-1.92,0-1.392,1.168-4.272,2.848-4.272.144,0,.24.08.24.32,0,.336-.368.272-.368.848,0,.224.128.688.832.688a1.149,1.149,0,0,0,1.248-1.184c0-.72-.8-1.312-1.952-1.312-2.944,0-4.7,2.848-4.7,4.96a2.372,2.372,0,0,0,2.592,2.592,4.483,4.483,0,0,0,3.584-1.856Zm5.84-7.1a1.066,1.066,0,0,0-1.056-.992,1.09,1.09,0,0,0-1.056.992,1.066,1.066,0,0,0,1.056.992A1.043,1.043,0,0,0,130.585,8.072Zm-.72,7.264c-.3.368-.544.736-.864.736a.376.376,0,0,1-.336-.4,2.855,2.855,0,0,1,.128-.768l1.248-5.3-3.152.544.064.368a2.974,2.974,0,0,1,.592-.048c.24,0,.32.112.32.288a2.1,2.1,0,0,1-.08.432l-1.056,4.56a1.837,1.837,0,0,0-.064.5c0,.512.256.9,1.072.9a2.8,2.8,0,0,0,2.432-1.616Zm11.056-9.3-3.264.5.064.368a3.677,3.677,0,0,1,.672-.112c.208,0,.272.16.272.352a1.621,1.621,0,0,1-.064.416l-.592,2.432a2.759,2.759,0,0,0-1.36-.336c-2.944,0-4.448,3.248-4.448,5.552a1.872,1.872,0,0,0,2.112,2.016,3.245,3.245,0,0,0,2.256-1.1h.08a1.083,1.083,0,0,0,1.056,1.1,2.862,2.862,0,0,0,2.544-1.68l-.3-.176c-.288.384-.56.752-.848.752a.345.345,0,0,1-.384-.384,3.17,3.17,0,0,1,.128-.656Zm-3.264,5.424a6.867,6.867,0,0,1-.336,1.728c-.432,1.52-1.664,2.928-2.512,2.928-.336,0-.768-.272-.768-1.072,0-2.3,1.408-4.752,2.656-4.752A1.045,1.045,0,0,1,137.657,11.464Zm11.824,3.856c-.336.432-.592.768-.9.768-.192,0-.256-.224-.256-.5a3.253,3.253,0,0,1,.1-.72L149.609,9.8h-1.84l-.176.816h-.032a1.209,1.209,0,0,0-1.344-1.008c-2.64,0-4.5,3.376-4.5,5.6a1.832,1.832,0,0,0,2.048,1.952,3.269,3.269,0,0,0,2.336-1.12h.1a1.034,1.034,0,0,0,1.1,1.12,2.7,2.7,0,0,0,2.48-1.648Zm-2.352-3.52c0,1.792-1.712,4.24-2.832,4.24-.288,0-.72-.16-.72-1.04,0-2.288,1.552-4.768,2.688-4.768C146.809,10.232,147.129,10.776,147.129,11.8Zm9.888-2.192h-.4a.652.652,0,0,1-.624.352,4.976,4.976,0,0,0-1.488-.352,1.916,1.916,0,0,0-2.08,1.872c0,.864.816,1.712,1.456,2.464a2.125,2.125,0,0,1,.752,1.36c0,.656-.272,1.28-1.008,1.28a2.063,2.063,0,0,1-1.7-2.048h-.384l-.352,2.64h.4a.967.967,0,0,1,.624-.352,9.987,9.987,0,0,0,1.76.336,2.223,2.223,0,0,0,2.48-2.064,3.39,3.39,0,0,0-1.2-2.384c-.544-.64-1.088-1.168-1.088-1.632,0-.672.3-.88.736-.88.608,0,1.392.8,1.408,1.968h.352Zm16.441,7.024h-.592a.687.687,0,0,1-.752-.608l-1.5-9.984h-.784l-5.536,9.392a1.978,1.978,0,0,1-1.728,1.2L162.5,17h4.16l.1-.368h-.9c-.208,0-.352-.112-.352-.416a.848.848,0,0,1,.1-.352l1.28-2.224h2.544l.24,1.728a4.985,4.985,0,0,1,.032.544c0,.448-.288.72-.816.72h-.5l-.064.368h5.1ZM169.329,12.9h-2.016l1.648-2.848Zm11.28,2.272a3.229,3.229,0,0,1-2.416,1.264c-.816,0-1.616-.448-1.616-1.92,0-1.392,1.168-4.272,2.848-4.272.144,0,.24.08.24.32,0,.336-.368.272-.368.848,0,.224.128.688.832.688a1.149,1.149,0,0,0,1.248-1.184c0-.72-.8-1.312-1.952-1.312-2.944,0-4.7,2.848-4.7,4.96a2.372,2.372,0,0,0,2.592,2.592A4.483,4.483,0,0,0,180.9,15.3Zm7.632,0c-.944.912-1.488,1.264-2.4,1.264-.928,0-1.632-.656-1.632-1.968a.813.813,0,0,1,.064-.368c1.824-.144,4.72-1.248,4.72-3.152,0-1.184-1.264-1.344-1.968-1.344a4.98,4.98,0,0,0-4.576,4.08,3.862,3.862,0,0,0-.1.944,2.341,2.341,0,0,0,2.528,2.528,4.276,4.276,0,0,0,3.664-1.872Zm-.864-4.352c0,1.136-1.712,2.464-2.992,2.64.144-1.248,1.36-3.216,2.448-3.216C187.249,10.248,187.377,10.408,187.377,10.824Zm6.944-.688.144-.64-3.168.64.1.272a1.54,1.54,0,0,1,.4-.064c.256,0,.368.192.368.512a3.328,3.328,0,0,1-.08.624l-1.648,7.04c-.176.736-.336,1.3-1.232,1.424l-.112.336h4.272l.112-.336H192.9c-.544,0-.656-.448-.656-.864a1.951,1.951,0,0,1,.064-.512l.4-1.68a3,3,0,0,0,1.408.3c2.112,0,4.368-2.208,4.368-4.848a2.473,2.473,0,0,0-2.624-2.736,2.158,2.158,0,0,0-1.456.528Zm-.8,3.008c.3-1.408,1.056-2.736,1.9-2.736.768,0,1.232.464,1.232,1.968,0,1.92-1.424,4.176-2.592,4.176a.946.946,0,0,1-1.072-.944Zm10.32-3.5h-1.088l.464-2.112h-.864c-.528,1.408-.784,2.112-2.672,2.112l-.128.752h1.184l-1.216,5.264a2.069,2.069,0,0,0-.064.528c0,.7.464.976,1.056.976a2.916,2.916,0,0,0,2.416-1.664l-.32-.16c-.3.432-.576.7-.864.7-.208,0-.32-.208-.32-.512a2,2,0,0,1,.048-.3l1.1-4.832h1.072Zm8.992,5.68c-.336.432-.592.768-.9.768-.192,0-.256-.224-.256-.5a3.253,3.253,0,0,1,.1-.72L212.961,9.8h-1.84l-.176.816h-.032a1.209,1.209,0,0,0-1.344-1.008c-2.64,0-4.5,3.376-4.5,5.6a1.832,1.832,0,0,0,2.048,1.952,3.269,3.269,0,0,0,2.336-1.12h.1a1.034,1.034,0,0,0,1.1,1.12,2.7,2.7,0,0,0,2.48-1.648Zm-2.352-3.52c0,1.792-1.712,4.24-2.832,4.24-.288,0-.72-.16-.72-1.04,0-2.288,1.552-4.768,2.688-4.768C210.161,10.232,210.481,10.776,210.481,11.8Zm12.608-5.76-3.264.5.064.368a3.677,3.677,0,0,1,.672-.112c.208,0,.272.16.272.352a1.621,1.621,0,0,1-.064.416l-.592,2.432a2.759,2.759,0,0,0-1.36-.336c-2.944,0-4.448,3.248-4.448,5.552a1.872,1.872,0,0,0,2.112,2.016,3.245,3.245,0,0,0,2.256-1.1h.08a1.083,1.083,0,0,0,1.056,1.1,2.862,2.862,0,0,0,2.544-1.68l-.3-.176c-.288.384-.56.752-.848.752a.345.345,0,0,1-.384-.384,3.17,3.17,0,0,1,.128-.656Zm-3.264,5.424a6.867,6.867,0,0,1-.336,1.728c-.432,1.52-1.664,2.928-2.512,2.928-.336,0-.768-.272-.768-1.072,0-2.3,1.408-4.752,2.656-4.752A1.045,1.045,0,0,1,219.825,11.464Zm11.824,3.856c-.336.432-.592.768-.9.768-.192,0-.256-.224-.256-.5a3.253,3.253,0,0,1,.1-.72L231.777,9.8h-1.84l-.176.816h-.032a1.209,1.209,0,0,0-1.344-1.008c-2.64,0-4.5,3.376-4.5,5.6a1.832,1.832,0,0,0,2.048,1.952,3.269,3.269,0,0,0,2.336-1.12h.1a1.034,1.034,0,0,0,1.1,1.12,2.7,2.7,0,0,0,2.48-1.648ZM229.3,11.8c0,1.792-1.712,4.24-2.832,4.24-.288,0-.72-.16-.72-1.04,0-2.288,1.552-4.768,2.688-4.768C228.977,10.232,229.3,10.776,229.3,11.8Zm9.888-2.192h-.4a.652.652,0,0,1-.624.352,4.976,4.976,0,0,0-1.488-.352,1.916,1.916,0,0,0-2.08,1.872c0,.864.816,1.712,1.456,2.464a2.125,2.125,0,0,1,.752,1.36c0,.656-.272,1.28-1.008,1.28a2.063,2.063,0,0,1-1.7-2.048h-.384l-.352,2.64h.4a.967.967,0,0,1,.624-.352,9.987,9.987,0,0,0,1.76.336,2.223,2.223,0,0,0,2.48-2.064,3.39,3.39,0,0,0-1.2-2.384c-.544-.64-1.088-1.168-1.088-1.632,0-.672.3-.88.736-.88.608,0,1.392.8,1.408,1.968h.352Z" transform="translate(-1664 -7641)" fill="#9b1f36"/>
    <path id="Trazado_737670" data-name="Trazado 737670" d="M12.96,6.3H8.176l-.064.368H8.7c.7,0,.9.16.912.544a1.376,1.376,0,0,1-.032.384L8.32,13.272c-.4,1.76-1.184,2.992-2.72,2.992A1.842,1.842,0,0,1,3.568,14.5a5.941,5.941,0,0,1,.112-1.072L5.008,7.624c.144-.656.288-.96,1.328-.96H6.96L7.024,6.3H1.216l-.064.368h.592c.8,0,.96.4.96.72a.968.968,0,0,1-.032.24l-1.12,4.912a9.226,9.226,0,0,0-.24,1.52c0,1.5,1.1,3.1,3.84,3.1a3.975,3.975,0,0,0,3.984-2.32,7.544,7.544,0,0,0,.5-1.472l1.28-5.744c.144-.672.4-.96,1.376-.96H12.9Zm6.864,9.024c-.32.416-.576.752-.864.752-.272,0-.336-.208-.336-.432a2.081,2.081,0,0,1,.048-.352l.8-3.408a6.507,6.507,0,0,0,.112-.976c0-.72-.32-1.3-1.424-1.3a3.194,3.194,0,0,0-2.72,1.7h-.064l.432-1.776-3.12.544.08.448a2.546,2.546,0,0,1,.752-.144c.16,0,.176.064.176.24a1.235,1.235,0,0,1-.032.24L12.256,17H14.1l.4-1.744c.4-1.76,1.744-4.448,2.656-4.448.256,0,.464.128.464.56a4.938,4.938,0,0,1-.048.752L16.7,15.688a2.44,2.44,0,0,0-.1.544c0,.56.352.928,1.088.928A2.775,2.775,0,0,0,20.144,15.5Zm5.648-7.248a1.066,1.066,0,0,0-1.056-.992,1.09,1.09,0,0,0-1.056.992,1.066,1.066,0,0,0,1.056.992A1.043,1.043,0,0,0,25.472,8.072Zm-.72,7.264c-.3.368-.544.736-.864.736a.376.376,0,0,1-.336-.4,2.855,2.855,0,0,1,.128-.768l1.248-5.3-3.152.544.064.368a2.974,2.974,0,0,1,.592-.048c.24,0,.32.112.32.288a2.1,2.1,0,0,1-.08.432l-1.056,4.56a1.837,1.837,0,0,0-.064.5c0,.512.256.9,1.072.9a2.8,2.8,0,0,0,2.432-1.616Zm11.056-9.3-3.264.5.064.368a3.677,3.677,0,0,1,.672-.112c.208,0,.272.16.272.352a1.621,1.621,0,0,1-.064.416L32.9,9.992a2.759,2.759,0,0,0-1.36-.336c-2.944,0-4.448,3.248-4.448,5.552A1.872,1.872,0,0,0,29.2,17.224a3.245,3.245,0,0,0,2.256-1.1h.08a1.083,1.083,0,0,0,1.056,1.1,2.862,2.862,0,0,0,2.544-1.68l-.3-.176c-.288.384-.56.752-.848.752a.345.345,0,0,1-.384-.384,3.169,3.169,0,0,1,.128-.656Zm-3.264,5.424a6.867,6.867,0,0,1-.336,1.728c-.432,1.52-1.664,2.928-2.512,2.928-.336,0-.768-.272-.768-1.072,0-2.3,1.408-4.752,2.656-4.752A1.045,1.045,0,0,1,32.544,11.464ZM44.368,15.32c-.336.432-.592.768-.9.768-.192,0-.256-.224-.256-.5a3.253,3.253,0,0,1,.1-.72L44.5,9.8h-1.84l-.176.816h-.032A1.209,1.209,0,0,0,41.1,9.608c-2.64,0-4.5,3.376-4.5,5.6a1.832,1.832,0,0,0,2.048,1.952,3.269,3.269,0,0,0,2.336-1.12h.1a1.034,1.034,0,0,0,1.1,1.12,2.7,2.7,0,0,0,2.48-1.648ZM42.016,11.8c0,1.792-1.712,4.24-2.832,4.24-.288,0-.72-.16-.72-1.04,0-2.288,1.552-4.768,2.688-4.768C41.7,10.232,42.016,10.776,42.016,11.8ZM54.624,6.04l-3.264.5.064.368a3.677,3.677,0,0,1,.672-.112c.208,0,.272.16.272.352a1.621,1.621,0,0,1-.064.416l-.592,2.432a2.759,2.759,0,0,0-1.36-.336c-2.944,0-4.448,3.248-4.448,5.552a1.872,1.872,0,0,0,2.112,2.016,3.245,3.245,0,0,0,2.256-1.1h.08a1.083,1.083,0,0,0,1.056,1.1,2.862,2.862,0,0,0,2.544-1.68l-.3-.176c-.288.384-.56.752-.848.752a.345.345,0,0,1-.384-.384,3.169,3.169,0,0,1,.128-.656ZM51.36,11.464a6.867,6.867,0,0,1-.336,1.728c-.432,1.52-1.664,2.928-2.512,2.928-.336,0-.768-.272-.768-1.072,0-2.3,1.408-4.752,2.656-4.752A1.045,1.045,0,0,1,51.36,11.464Zm9.952,3.712c-.944.912-1.488,1.264-2.4,1.264-.928,0-1.632-.656-1.632-1.968a.813.813,0,0,1,.064-.368c1.824-.144,4.72-1.248,4.72-3.152,0-1.184-1.264-1.344-1.968-1.344a4.98,4.98,0,0,0-4.576,4.08,3.862,3.862,0,0,0-.1.944,2.341,2.341,0,0,0,2.528,2.528,4.276,4.276,0,0,0,3.664-1.872Zm-.864-4.352c0,1.136-1.712,2.464-2.992,2.64.144-1.248,1.36-3.216,2.448-3.216C60.32,10.248,60.448,10.408,60.448,10.824Zm8.944-1.216h-.4a.652.652,0,0,1-.624.352,4.976,4.976,0,0,0-1.488-.352A1.916,1.916,0,0,0,64.8,11.48c0,.864.816,1.712,1.456,2.464a2.125,2.125,0,0,1,.752,1.36c0,.656-.272,1.28-1.008,1.28a2.063,2.063,0,0,1-1.7-2.048H63.92l-.352,2.64h.4a.967.967,0,0,1,.624-.352,9.987,9.987,0,0,0,1.76.336,2.223,2.223,0,0,0,2.48-2.064,3.39,3.39,0,0,0-1.2-2.384c-.544-.64-1.088-1.168-1.088-1.632,0-.672.3-.88.736-.88.608,0,1.392.8,1.408,1.968h.352ZM77.417,6.3l-.1.368h.592c.736,0,.944.208.96.592a1.218,1.218,0,0,1-.048.336l-1.84,8.064c-.144.624-.368.976-1.36.976h-.64L74.921,17H81l.064-.368h-.832c-.752,0-.928-.128-.96-.56a2.123,2.123,0,0,1,.064-.384l.816-3.536a7.663,7.663,0,0,0,1.072.048c3.44,0,4.752-1.744,4.752-3.3,0-1.888-1.36-2.608-4.016-2.608Zm3.888.736a4.653,4.653,0,0,1,.48-.016,1.538,1.538,0,0,1,1.7,1.648,2.57,2.57,0,0,1-2.512,2.816,3.045,3.045,0,0,1-.64-.08Zm6.848,2.5-3.088.544.048.448a1.976,1.976,0,0,1,.656-.176.229.229,0,0,1,.256.24,3.375,3.375,0,0,1-.048.336L84.569,17h1.824l.32-1.28c.1-.384,1.36-4.464,2.032-4.464.256,0,.128.608.784.608a1.329,1.329,0,0,0,1.3-1.376.907.907,0,0,0-.992-.88,2.585,2.585,0,0,0-2,1.376Zm11.568,2.72c0-1.712-1.312-2.64-3.2-2.64A4.656,4.656,0,0,0,91.8,14.28a2.721,2.721,0,0,0,2.992,2.88A4.816,4.816,0,0,0,99.721,12.248ZM97.865,12.2c0,2.048-1.328,4.32-2.8,4.32-.96,0-1.408-.5-1.408-2.048,0-1.808,1.376-4.224,2.784-4.224C97.177,10.248,97.865,10.744,97.865,12.2Zm10.64-2.16-2.112.064a2.6,2.6,0,0,0-1.568-.5,2.934,2.934,0,0,0-3.072,2.816,1.952,1.952,0,0,0,1.488,1.84,1.529,1.529,0,0,0-1.264,1.392,1.067,1.067,0,0,0,.352.816c-1.04.368-1.9,1.008-1.9,1.888,0,.864.9,1.888,3.216,1.888,2.576,0,3.664-1.488,3.664-2.592,0-1.936-3.7-1.632-3.7-2.48,0-.416.384-.7,1.184-.784a2.629,2.629,0,0,0,2.464-2.624,1.327,1.327,0,0,0-.208-.768h1.232Zm-3.088,1.184c0,.96-.4,2.656-1.216,2.656-.368,0-.56-.512-.56-1.28,0-1.136.608-2.352,1.264-2.352C105.257,10.248,105.417,10.616,105.417,11.224Zm.192,7.072c0,.736-.5,1.376-1.68,1.376-1.3,0-1.872-.688-1.872-1.472a1.815,1.815,0,0,1,.608-1.216l.272-.208c.352.1.96.224,1.232.272C105,17.224,105.609,17.512,105.609,18.3Zm7.008-8.768-3.088.544.048.448a1.976,1.976,0,0,1,.656-.176.229.229,0,0,1,.256.24,3.375,3.375,0,0,1-.048.336L109.033,17h1.824l.32-1.28c.1-.384,1.36-4.464,2.032-4.464.256,0,.128.608.784.608a1.329,1.329,0,0,0,1.3-1.376.907.907,0,0,0-.992-.88,2.585,2.585,0,0,0-2,1.376Zm11.408,5.792c-.336.432-.592.768-.9.768-.192,0-.256-.224-.256-.5a3.253,3.253,0,0,1,.1-.72L124.153,9.8h-1.84l-.176.816H122.1a1.209,1.209,0,0,0-1.344-1.008c-2.64,0-4.5,3.376-4.5,5.6a1.832,1.832,0,0,0,2.048,1.952,3.269,3.269,0,0,0,2.336-1.12h.1a1.034,1.034,0,0,0,1.1,1.12,2.7,2.7,0,0,0,2.48-1.648Zm-2.352-3.52c0,1.792-1.712,4.24-2.832,4.24-.288,0-.72-.16-.72-1.04,0-2.288,1.552-4.768,2.688-4.768C121.353,10.232,121.673,10.776,121.673,11.8Zm14.512,3.5c-.192.288-.544.72-.816.72-.288,0-.368-.16-.368-.384a3.943,3.943,0,0,1,.128-.736l.656-2.976a4.845,4.845,0,0,0,.128-1.088,1.124,1.124,0,0,0-1.2-1.232c-1.072,0-1.84.9-2.5,1.664a1.611,1.611,0,0,0,.032-.3,1.286,1.286,0,0,0-1.232-1.36c-.544,0-1.392.24-2.448,1.7h-.032l.432-1.776-3.152.544.08.448a3.3,3.3,0,0,1,.72-.144c.128,0,.192.1.192.416L125.385,17h1.872l.512-2.24c.24-1.04,1.728-3.968,2.3-3.968.224,0,.272.128.288.336a7.635,7.635,0,0,1-.128.96L129.065,17h1.9l.464-2.24c.224-1.056,1.808-3.984,2.368-3.984.256,0,.256.192.256.352a9.4,9.4,0,0,1-.144.96l-.736,3.232A4.828,4.828,0,0,0,133,16.376c.016.5.56.768.976.768a2.837,2.837,0,0,0,2.512-1.6Zm9.3.016c-.336.432-.592.768-.9.768-.192,0-.256-.224-.256-.5a3.253,3.253,0,0,1,.1-.72L145.609,9.8h-1.84l-.176.816h-.032a1.209,1.209,0,0,0-1.344-1.008c-2.64,0-4.5,3.376-4.5,5.6a1.832,1.832,0,0,0,2.048,1.952,3.269,3.269,0,0,0,2.336-1.12h.1a1.034,1.034,0,0,0,1.1,1.12,2.7,2.7,0,0,0,2.48-1.648Zm-2.352-3.52c0,1.792-1.712,4.24-2.832,4.24-.288,0-.72-.16-.72-1.04,0-2.288,1.552-4.768,2.688-4.768C142.809,10.232,143.129,10.776,143.129,11.8Zm12.608-5.76-3.264.5.064.368a3.677,3.677,0,0,1,.672-.112c.208,0,.272.16.272.352a1.621,1.621,0,0,1-.064.416l-.592,2.432a2.759,2.759,0,0,0-1.36-.336c-2.944,0-4.448,3.248-4.448,5.552a1.872,1.872,0,0,0,2.112,2.016,3.245,3.245,0,0,0,2.256-1.1h.08a1.083,1.083,0,0,0,1.056,1.1,2.862,2.862,0,0,0,2.544-1.68l-.3-.176c-.288.384-.56.752-.848.752a.345.345,0,0,1-.384-.384,3.17,3.17,0,0,1,.128-.656Zm-3.264,5.424a6.867,6.867,0,0,1-.336,1.728c-.432,1.52-1.664,2.928-2.512,2.928-.336,0-.768-.272-.768-1.072,0-2.3,1.408-4.752,2.656-4.752A1.045,1.045,0,0,1,152.473,11.464ZM164.3,15.32c-.336.432-.592.768-.9.768-.192,0-.256-.224-.256-.5a3.253,3.253,0,0,1,.1-.72L164.425,9.8h-1.84l-.176.816h-.032a1.209,1.209,0,0,0-1.344-1.008c-2.64,0-4.5,3.376-4.5,5.6a1.832,1.832,0,0,0,2.048,1.952,3.269,3.269,0,0,0,2.336-1.12h.1a1.034,1.034,0,0,0,1.1,1.12,2.7,2.7,0,0,0,2.48-1.648Zm-2.352-3.52c0,1.792-1.712,4.24-2.832,4.24-.288,0-.72-.16-.72-1.04,0-2.288,1.552-4.768,2.688-4.768C161.625,10.232,161.945,10.776,161.945,11.8Zm9.888-2.192h-.4a.652.652,0,0,1-.624.352,4.976,4.976,0,0,0-1.488-.352,1.916,1.916,0,0,0-2.08,1.872c0,.864.816,1.712,1.456,2.464a2.125,2.125,0,0,1,.752,1.36c0,.656-.272,1.28-1.008,1.28a2.063,2.063,0,0,1-1.7-2.048h-.384l-.352,2.64h.4a.967.967,0,0,1,.624-.352,9.987,9.987,0,0,0,1.76.336,2.223,2.223,0,0,0,2.48-2.064,3.39,3.39,0,0,0-1.2-2.384c-.544-.64-1.088-1.168-1.088-1.632,0-.672.3-.88.736-.88.608,0,1.392.8,1.408,1.968h.352Z" transform="translate(-1627 -7615)" fill="#9b1f36"/>
    <path id="Trazado_737671" data-name="Trazado 737671" d="M4.516,13.172A6.524,6.524,0,0,0,5.625,12.2a.951.951,0,0,1,.594-.359A.4.4,0,0,1,6.531,12a.511.511,0,0,1,.148.355q0,.422-.727.586a9.26,9.26,0,0,0-1.312.477,9.1,9.1,0,0,0,1.227.461,2,2,0,0,1,.652.234.422.422,0,0,1,.176.367.494.494,0,0,1-.156.359.5.5,0,0,1-.367.156q-.219,0-.727-.57a5.23,5.23,0,0,0-.5-.437L4.5,13.633A8.316,8.316,0,0,0,4.773,15a1.675,1.675,0,0,1,.109.539q0,.484-.43.484a.494.494,0,0,1-.375-.168.58.58,0,0,1-.156-.41,1.756,1.756,0,0,1,.086-.508q.055-.2.141-.633l.125-.648a4.038,4.038,0,0,0-1.078.891Q2.813,15,2.563,15a.412.412,0,0,1-.312-.184A.607.607,0,0,1,2.1,14.43q0-.344.563-.5l.688-.2q.2-.055.8-.312-.578-.227-.8-.289l-.7-.164q-.586-.148-.586-.547a.57.57,0,0,1,.156-.387.456.456,0,0,1,.344-.176.893.893,0,0,1,.6.352l.391.422a5.169,5.169,0,0,0,.727.57,7.466,7.466,0,0,0-.172-.914l-.2-.664a1.339,1.339,0,0,1-.062-.375.418.418,0,0,1,.477-.469.48.48,0,0,1,.539.547,1.217,1.217,0,0,1-.047.336l-.187.648A4.719,4.719,0,0,0,4.516,13.172ZM15.431,17v-.384c-1.456-.032-1.712-.288-1.712-1.5V5.992h-.288L9.415,7.736v.416l.32-.128a3.266,3.266,0,0,1,1.04-.256c.4,0,.576.368.576,1.12v6.048c0,1.392-.3,1.664-1.888,1.68V17Zm8.56-5.392c0-2.656-1.024-5.616-3.568-5.616-2.736,0-3.664,3.056-3.664,5.664,0,3.328,1.536,5.552,3.632,5.552C22.471,17.208,23.991,14.984,23.991,11.608Zm-2.528,1.808c0,2.384-.272,3.344-1.072,3.344s-1.1-.96-1.1-3.344v-3.6c0-2.432.288-3.376,1.072-3.376s1.1,1.024,1.1,3.376Zm10.528-1.808c0-2.656-1.024-5.616-3.568-5.616-2.736,0-3.664,3.056-3.664,5.664,0,3.328,1.536,5.552,3.632,5.552C30.471,17.208,31.991,14.984,31.991,11.608Zm-2.528,1.808c0,2.384-.272,3.344-1.072,3.344s-1.1-.96-1.1-3.344v-3.6c0-2.432.288-3.376,1.072-3.376s1.1,1.024,1.1,3.376Z" transform="translate(-1393 -7628)" fill="#9b1f36"/>
    <path id="Trazado_737672" data-name="Trazado 737672" d="M0,0H261" transform="translate(-1658.5 -7617.5)" fill="none" stroke="#12263f" stroke-width="1"/>
  </g>
</svg>
