<svg xmlns="http://www.w3.org/2000/svg" width="338.43" height="39.68" viewBox="0 0 338.43 39.68">
  <g id="Grupo_987315" data-name="Grupo 987315" transform="translate(-338.445 -3998.813)">
    <path id="Trazado_737825" data-name="Trazado 737825" d="M10.18,6.336,9.625,8.852h-1a4.343,4.343,0,0,0-.141-1.039.783.783,0,0,0-.312-.43,1.115,1.115,0,0,0-.594-.133H5.617L4.789,11H5.875a1.229,1.229,0,0,0,.527-.1,1.115,1.115,0,0,0,.4-.34,3.065,3.065,0,0,0,.363-.66h.859l-.75,3.172h-.8a3.358,3.358,0,0,0-.055-.7.573.573,0,0,0-.2-.352.884.884,0,0,0-.508-.109H4.594l-.922,4.172H5.43a2.368,2.368,0,0,0,.535-.047,1.172,1.172,0,0,0,.352-.148,2.079,2.079,0,0,0,.371-.324A3.357,3.357,0,0,0,7.105,15a7.993,7.993,0,0,0,.426-.816H8.594L7.875,17H.445l.109-.516a1.12,1.12,0,0,0,.656-.437,3.7,3.7,0,0,0,.4-1.156L3.031,8.445a4.238,4.238,0,0,0,.1-.914.657.657,0,0,0-.152-.48.852.852,0,0,0-.5-.2l.109-.516Zm2.414,3.891.141-.633a2.991,2.991,0,0,0,.762-.078.732.732,0,0,0,.367-.258,2.1,2.1,0,0,0,.277-.7,4.654,4.654,0,0,1,.492-1.23,3.075,3.075,0,0,1,.773-.852,3.131,3.131,0,0,1,1.113-.531,5.492,5.492,0,0,1,1.4-.168,7.323,7.323,0,0,1,1.469.141l-.352,1.563H18.031a1.585,1.585,0,0,0-.156-.687.426.426,0,0,0-.391-.2.649.649,0,0,0-.508.219,1.772,1.772,0,0,0-.328.594,8.416,8.416,0,0,0-.266.984l-.2.859h1.672l-.211.977h-1.68l-1.414,6.531a5.576,5.576,0,0,1-1.336,2.816,3.134,3.134,0,0,1-2.3.918,2.971,2.971,0,0,1-.539-.039l.188-.875a1.914,1.914,0,0,0,.281.023.854.854,0,0,0,.738-.492,5.342,5.342,0,0,0,.52-1.477l1.672-7.406ZM24.7,6.133l-.406,1.914H22.266l.43-1.914Zm-1.789,8.406q-.078.328-.105.508a2.72,2.72,0,0,0-.027.406.657.657,0,0,0,.1.422.362.362,0,0,0,.289.117.871.871,0,0,0,.508-.215,4.879,4.879,0,0,0,.664-.652l.563.563A6.133,6.133,0,0,1,23.527,16.8a2.75,2.75,0,0,1-1.332.328,1.6,1.6,0,0,1-1.211-.406,1.731,1.731,0,0,1-.383-1.227,5.263,5.263,0,0,1,.172-1.227l.656-2.719a5.3,5.3,0,0,0,.18-1.172.557.557,0,0,0-.145-.434,1.154,1.154,0,0,0-.605-.176l.117-.516,2.289-.086h.891Zm8.688.391.633.68a5.291,5.291,0,0,1-1.641,1.168,4.579,4.579,0,0,1-1.8.348,2.348,2.348,0,0,1-1.855-.746,3.023,3.023,0,0,1-.66-2.074,6.336,6.336,0,0,1,.559-2.531A4.218,4.218,0,0,1,28.477,9.8a4.755,4.755,0,0,1,2.563-.68,8.526,8.526,0,0,1,1.133.082,6.434,6.434,0,0,1,1.078.23l-.437,1.906H31.406q.016-.164.016-.336a1.494,1.494,0,0,0-.172-.816.574.574,0,0,0-.508-.254,1.444,1.444,0,0,0-1.1.664,5.53,5.53,0,0,0-.875,1.844,7.382,7.382,0,0,0-.352,2.07q0,1.469,1.07,1.469a2.235,2.235,0,0,0,1.02-.242A4.931,4.931,0,0,0,31.594,14.93Zm7.117-8.8L38.3,8.047H36.281l.43-1.914Zm-1.789,8.406q-.078.328-.105.508a2.719,2.719,0,0,0-.027.406.657.657,0,0,0,.1.422.362.362,0,0,0,.289.117.871.871,0,0,0,.508-.215,4.879,4.879,0,0,0,.664-.652l.563.563A6.133,6.133,0,0,1,37.543,16.8a2.75,2.75,0,0,1-1.332.328A1.6,1.6,0,0,1,35,16.719a1.731,1.731,0,0,1-.383-1.227,5.263,5.263,0,0,1,.172-1.227l.656-2.719a5.3,5.3,0,0,0,.18-1.172.557.557,0,0,0-.145-.434,1.154,1.154,0,0,0-.605-.176l.117-.516,2.289-.086h.891Zm9.875.836a5.328,5.328,0,0,1-1.7,1.32,4.562,4.562,0,0,1-1.973.43,3.448,3.448,0,0,1-1.555-.32,2.128,2.128,0,0,1-.965-.949,3.245,3.245,0,0,1-.324-1.5,6.345,6.345,0,0,1,.109-1.039,6.294,6.294,0,0,1,.453-1.531,4.667,4.667,0,0,1,1-1.422,4.287,4.287,0,0,1,1.449-.914,5.037,5.037,0,0,1,1.824-.32q2.391,0,2.391,1.727A2.217,2.217,0,0,1,47.27,11.9a2.291,2.291,0,0,1-.793.82,4.758,4.758,0,0,1-1.566.594,12.6,12.6,0,0,1-2.441.258,4.417,4.417,0,0,0-.1.953,1.681,1.681,0,0,0,.3,1.094,1.129,1.129,0,0,0,.922.367,2.739,2.739,0,0,0,1.242-.277,5.816,5.816,0,0,0,1.3-.988ZM42.656,12.75a4.149,4.149,0,0,0,2.2-.551,1.645,1.645,0,0,0,.762-1.449.886.886,0,0,0-.184-.605.648.648,0,0,0-.512-.207,1.673,1.673,0,0,0-1.309.719A5.735,5.735,0,0,0,42.656,12.75ZM49,11.125l-.562-.562a6.021,6.021,0,0,1,1.387-1.117,2.694,2.694,0,0,1,1.277-.32,1.451,1.451,0,0,1,1.035.363,1.252,1.252,0,0,1,.387.957,1.48,1.48,0,0,1-.047.375l.078.063a6.107,6.107,0,0,1,1.395-1.336,2.8,2.8,0,0,1,1.543-.422,1.714,1.714,0,0,1,1.262.453,1.66,1.66,0,0,1,.457,1.234,4.809,4.809,0,0,1-.051.625,6.56,6.56,0,0,1-.121.664l-.617,2.438a3.786,3.786,0,0,0-.133.914.657.657,0,0,0,.1.422.362.362,0,0,0,.289.117.871.871,0,0,0,.508-.215,4.879,4.879,0,0,0,.664-.652l.563.563A6.133,6.133,0,0,1,57.043,16.8a2.75,2.75,0,0,1-1.332.328,1.586,1.586,0,0,1-1.211-.41,1.709,1.709,0,0,1-.383-1.207,6.186,6.186,0,0,1,.227-1.461l.344-1.3q.133-.5.227-.988a4.422,4.422,0,0,0,.094-.8.785.785,0,0,0-.148-.523.527.527,0,0,0-.422-.172,1.392,1.392,0,0,0-.875.453,4.222,4.222,0,0,0-.789.957,4.405,4.405,0,0,0-.469,1.316L51.43,17H49.188l1.258-5.43a3.751,3.751,0,0,0,.117-.773.767.767,0,0,0-.086-.4.32.32,0,0,0-.3-.141.876.876,0,0,0-.523.219A5,5,0,0,0,49,11.125Zm15.75,3.8.633.68a5.291,5.291,0,0,1-1.641,1.168,4.579,4.579,0,0,1-1.8.348,2.348,2.348,0,0,1-1.855-.746,3.023,3.023,0,0,1-.66-2.074,6.336,6.336,0,0,1,.559-2.531A4.218,4.218,0,0,1,61.633,9.8a4.755,4.755,0,0,1,2.563-.68,8.526,8.526,0,0,1,1.133.082,6.434,6.434,0,0,1,1.078.23l-.437,1.906H64.563q.016-.164.016-.336a1.494,1.494,0,0,0-.172-.816.574.574,0,0,0-.508-.254,1.444,1.444,0,0,0-1.1.664,5.53,5.53,0,0,0-.875,1.844,7.382,7.382,0,0,0-.352,2.07q0,1.469,1.07,1.469a2.235,2.235,0,0,0,1.02-.242A4.931,4.931,0,0,0,64.75,14.93Zm7.117-8.8-.406,1.914H69.438l.43-1.914Zm-1.789,8.406q-.078.328-.105.508a2.72,2.72,0,0,0-.027.406.657.657,0,0,0,.1.422.362.362,0,0,0,.289.117.871.871,0,0,0,.508-.215,4.879,4.879,0,0,0,.664-.652l.563.563A6.132,6.132,0,0,1,70.7,16.8a2.75,2.75,0,0,1-1.332.328,1.6,1.6,0,0,1-1.211-.406,1.731,1.731,0,0,1-.383-1.227,5.263,5.263,0,0,1,.172-1.227l.656-2.719a5.3,5.3,0,0,0,.18-1.172.557.557,0,0,0-.145-.434,1.154,1.154,0,0,0-.605-.176l.117-.516,2.289-.086h.891Zm10.281.023a3.88,3.88,0,0,0-.117.891.767.767,0,0,0,.086.4.32.32,0,0,0,.3.141.876.876,0,0,0,.523-.219,5,5,0,0,0,.656-.648l.563.563a6.246,6.246,0,0,1-1.414,1.129,2.674,2.674,0,0,1-1.25.309,1.448,1.448,0,0,1-1.039-.363,1.258,1.258,0,0,1-.383-.957,1.48,1.48,0,0,1,.047-.375l-.109-.016a8.434,8.434,0,0,1-.98,1.012,3.164,3.164,0,0,1-.871.52,2.8,2.8,0,0,1-1.023.18,1.676,1.676,0,0,1-1.422-.637,3.026,3.026,0,0,1-.484-1.855,7.406,7.406,0,0,1,.3-2.094,5.51,5.51,0,0,1,.875-1.793,4.05,4.05,0,0,1,1.434-1.187,4.3,4.3,0,0,1,1.957-.434,3.424,3.424,0,0,1,1.984.563l.758-.562.875.125Zm-1.547-2.422a5.457,5.457,0,0,0,.125-1.156,1.31,1.31,0,0,0-.2-.781.742.742,0,0,0-.641-.266,1.614,1.614,0,0,0-1.289.73,5.725,5.725,0,0,0-.906,1.965,8.341,8.341,0,0,0-.344,2.211,1.7,1.7,0,0,0,.168.852.563.563,0,0,0,.52.281,1.564,1.564,0,0,0,1.051-.5,4,4,0,0,0,.863-1.184,8.652,8.652,0,0,0,.586-1.859Zm15.406-1.5H87.7V9.383h6.516Zm0,3.242H87.7v-1.25h6.516Z" transform="translate(338 4003)" fill="#9b1f36"/>
    <path id="Trazado_737826" data-name="Trazado 737826" d="M8.992,13.281a7.507,7.507,0,0,1-.605,1.8,3.674,3.674,0,0,1-.91,1.191,3.37,3.37,0,0,1-1.234.645,6.269,6.269,0,0,1-1.719.2,4.558,4.558,0,0,1-1.254-.168,2.877,2.877,0,0,1-1.027-.52,2.5,2.5,0,0,1-.691-.879A2.865,2.865,0,0,1,1.3,14.3a7.07,7.07,0,0,1,.055-.844q.055-.453.266-1.414l.813-3.6a4.167,4.167,0,0,0,.1-.914.657.657,0,0,0-.152-.48.852.852,0,0,0-.5-.2l.109-.516h3.93l-.109.516a1.12,1.12,0,0,0-.656.438,3.7,3.7,0,0,0-.4,1.156L3.7,13.234a8.449,8.449,0,0,0-.156.871,5.987,5.987,0,0,0-.039.668,1.5,1.5,0,0,0,.348,1.07,1.338,1.338,0,0,0,1.02.367,2,2,0,0,0,1.109-.289A2.059,2.059,0,0,0,6.7,15.1a6,6,0,0,0,.457-1.379L8.32,8.445a3.5,3.5,0,0,0,.086-.52q.016-.215.016-.395a.657.657,0,0,0-.152-.48.852.852,0,0,0-.5-.2l.109-.516h3.328l-.109.516a1.127,1.127,0,0,0-.668.445,3.513,3.513,0,0,0-.387,1.148Zm3.383-2.156-.562-.562A6.021,6.021,0,0,1,13.2,9.445a2.694,2.694,0,0,1,1.277-.32,1.451,1.451,0,0,1,1.035.363,1.252,1.252,0,0,1,.387.957,1.48,1.48,0,0,1-.047.375l.078.063a6.108,6.108,0,0,1,1.395-1.336,2.8,2.8,0,0,1,1.543-.422,1.714,1.714,0,0,1,1.262.453,1.66,1.66,0,0,1,.457,1.234,4.81,4.81,0,0,1-.051.625,6.559,6.559,0,0,1-.121.664L19.8,14.539a3.786,3.786,0,0,0-.133.914.657.657,0,0,0,.1.422.362.362,0,0,0,.289.117.871.871,0,0,0,.508-.215,4.879,4.879,0,0,0,.664-.652l.563.563A6.133,6.133,0,0,1,20.418,16.8a2.75,2.75,0,0,1-1.332.328,1.586,1.586,0,0,1-1.211-.41,1.709,1.709,0,0,1-.383-1.207,6.186,6.186,0,0,1,.227-1.461l.344-1.3q.133-.5.227-.988a4.422,4.422,0,0,0,.094-.8.785.785,0,0,0-.148-.523.527.527,0,0,0-.422-.172,1.392,1.392,0,0,0-.875.453,4.222,4.222,0,0,0-.789.957,4.405,4.405,0,0,0-.469,1.316L14.8,17H12.563l1.258-5.43a3.751,3.751,0,0,0,.117-.773.767.767,0,0,0-.086-.4.32.32,0,0,0-.3-.141.876.876,0,0,0-.523.219A5,5,0,0,0,12.375,11.125ZM27.164,6.133l-.406,1.914H24.734l.43-1.914Zm-1.789,8.406q-.078.328-.105.508a2.72,2.72,0,0,0-.027.406.657.657,0,0,0,.1.422.362.362,0,0,0,.289.117.871.871,0,0,0,.508-.215,4.879,4.879,0,0,0,.664-.652l.563.563A6.133,6.133,0,0,1,26,16.8a2.75,2.75,0,0,1-1.332.328,1.6,1.6,0,0,1-1.211-.406,1.731,1.731,0,0,1-.383-1.227,5.263,5.263,0,0,1,.172-1.227l.656-2.719a5.3,5.3,0,0,0,.18-1.172.557.557,0,0,0-.145-.434,1.154,1.154,0,0,0-.605-.176l.117-.516,2.289-.086h.891Zm11.727.586.563.563a6.246,6.246,0,0,1-1.414,1.129,2.674,2.674,0,0,1-1.25.309,1.448,1.448,0,0,1-1.039-.363,1.258,1.258,0,0,1-.383-.957,1.48,1.48,0,0,1,.047-.375l-.1-.023a6.275,6.275,0,0,1-1.387,1.309,2.814,2.814,0,0,1-1.543.41,1.624,1.624,0,0,1-1.371-.641,3.011,3.011,0,0,1-.488-1.852,7.406,7.406,0,0,1,.3-2.094,5.51,5.51,0,0,1,.875-1.793,4.05,4.05,0,0,1,1.434-1.187A4.283,4.283,0,0,1,33.3,9.125a3.81,3.81,0,0,1,1.344.242l.266-1.2q.047-.2.109-.562a3.613,3.613,0,0,0,.063-.555.823.823,0,0,0-.035-.27.383.383,0,0,0-.105-.16.49.49,0,0,0-.187-.1,3.671,3.671,0,0,0-.461-.082l.125-.508,2.336-.125h.883l-1.977,8.75a4.106,4.106,0,0,0-.117.891.767.767,0,0,0,.086.4.32.32,0,0,0,.3.141.876.876,0,0,0,.523-.219A5,5,0,0,0,37.1,15.125Zm-2.992-2.984a5.421,5.421,0,0,0,.125-1.148,1.325,1.325,0,0,0-.2-.789.742.742,0,0,0-.641-.266,1.614,1.614,0,0,0-1.289.73,5.725,5.725,0,0,0-.906,1.965,8.341,8.341,0,0,0-.344,2.211,1.7,1.7,0,0,0,.168.852.563.563,0,0,0,.52.281,1.564,1.564,0,0,0,1.051-.5,4,4,0,0,0,.863-1.184,8.652,8.652,0,0,0,.586-1.859Zm11.844,2.422a3.88,3.88,0,0,0-.117.891.767.767,0,0,0,.086.4.32.32,0,0,0,.3.141.876.876,0,0,0,.523-.219,5,5,0,0,0,.656-.648l.563.563a6.246,6.246,0,0,1-1.414,1.129,2.674,2.674,0,0,1-1.25.309,1.448,1.448,0,0,1-1.039-.363,1.258,1.258,0,0,1-.383-.957,1.48,1.48,0,0,1,.047-.375l-.109-.016a8.434,8.434,0,0,1-.98,1.012,3.164,3.164,0,0,1-.871.52,2.8,2.8,0,0,1-1.023.18,1.676,1.676,0,0,1-1.422-.637,3.026,3.026,0,0,1-.484-1.855,7.406,7.406,0,0,1,.3-2.094,5.51,5.51,0,0,1,.875-1.793,4.05,4.05,0,0,1,1.434-1.187A4.3,4.3,0,0,1,43.6,9.125a3.424,3.424,0,0,1,1.984.563l.758-.562.875.125Zm-1.547-2.422a5.457,5.457,0,0,0,.125-1.156,1.31,1.31,0,0,0-.2-.781.742.742,0,0,0-.641-.266,1.614,1.614,0,0,0-1.289.73,5.725,5.725,0,0,0-.906,1.965,8.341,8.341,0,0,0-.344,2.211,1.7,1.7,0,0,0,.168.852.563.563,0,0,0,.52.281,1.564,1.564,0,0,0,1.051-.5,4,4,0,0,0,.863-1.184,8.652,8.652,0,0,0,.586-1.859Zm12.93,2.984.563.563a6.246,6.246,0,0,1-1.414,1.129,2.674,2.674,0,0,1-1.25.309,1.448,1.448,0,0,1-1.039-.363,1.258,1.258,0,0,1-.383-.957,1.48,1.48,0,0,1,.047-.375l-.1-.023a6.275,6.275,0,0,1-1.387,1.309,2.814,2.814,0,0,1-1.543.41,1.624,1.624,0,0,1-1.371-.641,3.011,3.011,0,0,1-.488-1.852,7.406,7.406,0,0,1,.3-2.094,5.51,5.51,0,0,1,.875-1.793,4.05,4.05,0,0,1,1.434-1.187,4.283,4.283,0,0,1,1.949-.434,3.81,3.81,0,0,1,1.344.242l.266-1.2q.047-.2.109-.562a3.613,3.613,0,0,0,.063-.555.823.823,0,0,0-.035-.27.383.383,0,0,0-.105-.16.49.49,0,0,0-.187-.1,3.671,3.671,0,0,0-.461-.082l.125-.508,2.336-.125h.883l-1.977,8.75a4.106,4.106,0,0,0-.117.891.767.767,0,0,0,.086.4.32.32,0,0,0,.3.141.876.876,0,0,0,.523-.219A5,5,0,0,0,57.336,15.125Zm-2.992-2.984a5.421,5.421,0,0,0,.125-1.148,1.325,1.325,0,0,0-.2-.789.742.742,0,0,0-.641-.266,1.614,1.614,0,0,0-1.289.73,5.725,5.725,0,0,0-.906,1.965,8.341,8.341,0,0,0-.344,2.211,1.7,1.7,0,0,0,.168.852.563.563,0,0,0,.52.281,1.564,1.564,0,0,0,1.051-.5,4,4,0,0,0,.863-1.184,8.652,8.652,0,0,0,.586-1.859Zm11.438,3.234a5.328,5.328,0,0,1-1.7,1.32,4.562,4.562,0,0,1-1.973.43,3.448,3.448,0,0,1-1.555-.32,2.128,2.128,0,0,1-.965-.949,3.245,3.245,0,0,1-.324-1.5,6.345,6.345,0,0,1,.109-1.039,6.294,6.294,0,0,1,.453-1.531,4.667,4.667,0,0,1,1-1.422,4.287,4.287,0,0,1,1.449-.914,5.037,5.037,0,0,1,1.824-.32q2.391,0,2.391,1.727a2.217,2.217,0,0,1-.238,1.047,2.291,2.291,0,0,1-.793.82,4.758,4.758,0,0,1-1.566.594,12.6,12.6,0,0,1-2.441.258,4.417,4.417,0,0,0-.1.953,1.681,1.681,0,0,0,.3,1.094,1.129,1.129,0,0,0,.922.367,2.739,2.739,0,0,0,1.242-.277,5.816,5.816,0,0,0,1.3-.988ZM61.641,12.75a4.149,4.149,0,0,0,2.2-.551A1.645,1.645,0,0,0,64.6,10.75a.886.886,0,0,0-.184-.605.648.648,0,0,0-.512-.207,1.673,1.673,0,0,0-1.309.719A5.735,5.735,0,0,0,61.641,12.75Zm7.414,2.063a1.87,1.87,0,0,0,.363,1.1,1.209,1.209,0,0,0,1,.4,1.381,1.381,0,0,0,.953-.3,1.079,1.079,0,0,0,.336-.848,1.269,1.269,0,0,0-.109-.555,1.4,1.4,0,0,0-.359-.441,6.68,6.68,0,0,0-.812-.559,3.688,3.688,0,0,1-1.137-.973,1.913,1.913,0,0,1-.355-1.129,2.043,2.043,0,0,1,.859-1.766A4.07,4.07,0,0,1,72.2,9.125a10.016,10.016,0,0,1,2.555.359l-.406,1.867h-.992a1.884,1.884,0,0,0-.371-1.07,1.086,1.086,0,0,0-.863-.344,1.251,1.251,0,0,0-.84.27.91.91,0,0,0-.316.73,1.048,1.048,0,0,0,.266.711,4.625,4.625,0,0,0,1.031.766,3.716,3.716,0,0,1,1.188,1.016,2.114,2.114,0,0,1,.359,1.227,2.187,2.187,0,0,1-.426,1.359,2.512,2.512,0,0,1-1.164.836,4.827,4.827,0,0,1-1.684.273,11.115,11.115,0,0,1-2.906-.375l.438-1.937ZM85.719,6.336q.82,0,1.328.051a3.823,3.823,0,0,1,.988.234,2.5,2.5,0,0,1,.809.484,1.974,1.974,0,0,1,.5.727,2.582,2.582,0,0,1,.172.973,3.647,3.647,0,0,1-.324,1.566,3.465,3.465,0,0,1-.918,1.191,3.945,3.945,0,0,1-1.512.754,7.69,7.69,0,0,1-2.051.254h-.227a6.762,6.762,0,0,1-.8-.039l-.523,2.359q-.055.25-.078.434a3.949,3.949,0,0,0-.023.48.619.619,0,0,0,.184.508,1.008,1.008,0,0,0,.574.172L83.711,17H79.672l.109-.516a1.12,1.12,0,0,0,.656-.437,3.7,3.7,0,0,0,.4-1.156l1.422-6.445a4.238,4.238,0,0,0,.1-.914.657.657,0,0,0-.152-.48.852.852,0,0,0-.5-.2l.109-.516Zm-1.43,5.328a3.315,3.315,0,0,0,1.648-.336,2.156,2.156,0,0,0,.883-1,3.584,3.584,0,0,0,.3-1.5,1.656,1.656,0,0,0-.371-1.18A1.523,1.523,0,0,0,85.6,7.25q-.437,0-.758.016l-.961,4.4ZM94.461,11a5.409,5.409,0,0,1,1.375-1.4,2.822,2.822,0,0,1,1.594-.477,4.4,4.4,0,0,1,1.094.148l-.461,2.1h-1.4a1.629,1.629,0,0,0-.113-.727.406.406,0,0,0-.387-.2.916.916,0,0,0-.461.148,2.527,2.527,0,0,0-.6.578,3.822,3.822,0,0,0-.523.82,5.155,5.155,0,0,0-.309,1L93.391,17H91.148l1.258-5.43a3.751,3.751,0,0,0,.117-.773.767.767,0,0,0-.086-.4.32.32,0,0,0-.3-.141.876.876,0,0,0-.523.219,5,5,0,0,0-.656.648l-.562-.562a6.021,6.021,0,0,1,1.387-1.117,2.694,2.694,0,0,1,1.277-.32,1.451,1.451,0,0,1,1.035.363,1.252,1.252,0,0,1,.387.957,2.131,2.131,0,0,1-.086.531Zm8.109,6.125a3.5,3.5,0,0,1-1.512-.309,2.313,2.313,0,0,1-1.023-.937,2.972,2.972,0,0,1-.371-1.535,7.037,7.037,0,0,1,.289-1.934,5.085,5.085,0,0,1,.9-1.781,3.712,3.712,0,0,1,1.473-1.137,4.894,4.894,0,0,1,1.934-.367,3.378,3.378,0,0,1,1.625.355,2.255,2.255,0,0,1,.973.988,3.244,3.244,0,0,1,.316,1.469,6.559,6.559,0,0,1-.344,2.07,5.079,5.079,0,0,1-.949,1.742,3.716,3.716,0,0,1-1.434,1.039A4.951,4.951,0,0,1,102.57,17.125Zm-.8-2.273a2.026,2.026,0,0,0,.238,1.1.836.836,0,0,0,.754.363,1.421,1.421,0,0,0,1.152-.645,5.5,5.5,0,0,0,.816-1.949,9.479,9.479,0,0,0,.328-2.266,2.158,2.158,0,0,0-.238-1.148.818.818,0,0,0-.738-.367,1.4,1.4,0,0,0-1.137.637,5.759,5.759,0,0,0-.828,1.969A9.337,9.337,0,0,0,101.766,14.852Zm15.453.273.563.563a6.246,6.246,0,0,1-1.414,1.129,2.674,2.674,0,0,1-1.25.309,1.448,1.448,0,0,1-1.039-.363,1.258,1.258,0,0,1-.383-.957,1.48,1.48,0,0,1,.047-.375l-.1-.023a6.274,6.274,0,0,1-1.387,1.309,2.814,2.814,0,0,1-1.543.41,1.624,1.624,0,0,1-1.371-.641,3.011,3.011,0,0,1-.488-1.852,7.406,7.406,0,0,1,.3-2.094,5.51,5.51,0,0,1,.875-1.793,4.05,4.05,0,0,1,1.434-1.187,4.283,4.283,0,0,1,1.949-.434,3.81,3.81,0,0,1,1.344.242l.266-1.2q.047-.2.109-.562a3.614,3.614,0,0,0,.063-.555.823.823,0,0,0-.035-.27.383.383,0,0,0-.105-.16.49.49,0,0,0-.187-.1,3.671,3.671,0,0,0-.461-.082l.125-.508,2.336-.125h.883l-1.977,8.75a4.106,4.106,0,0,0-.117.891.767.767,0,0,0,.086.4.32.32,0,0,0,.3.141.876.876,0,0,0,.523-.219A5,5,0,0,0,117.219,15.125Zm-2.992-2.984a5.421,5.421,0,0,0,.125-1.148,1.325,1.325,0,0,0-.2-.789.742.742,0,0,0-.641-.266,1.614,1.614,0,0,0-1.289.73,5.725,5.725,0,0,0-.906,1.965,8.341,8.341,0,0,0-.344,2.211,1.7,1.7,0,0,0,.168.852.563.563,0,0,0,.52.281,1.564,1.564,0,0,0,1.051-.5,4,4,0,0,0,.863-1.184,8.652,8.652,0,0,0,.586-1.859Zm11.25-2.891h2.234l-1.273,5.414a3.436,3.436,0,0,0-.094.789.767.767,0,0,0,.086.4.32.32,0,0,0,.3.141.876.876,0,0,0,.523-.219,5,5,0,0,0,.656-.648l.563.563a6.246,6.246,0,0,1-1.414,1.129,2.674,2.674,0,0,1-1.25.309,1.448,1.448,0,0,1-1.039-.363,1.258,1.258,0,0,1-.383-.957,1.48,1.48,0,0,1,.047-.375l-.078-.062a6.183,6.183,0,0,1-1.395,1.328,2.789,2.789,0,0,1-1.543.43,1.561,1.561,0,0,1-1.7-1.687,4.81,4.81,0,0,1,.051-.625,6.558,6.558,0,0,1,.121-.664l.617-2.437a3.786,3.786,0,0,0,.133-.914.657.657,0,0,0-.1-.422.362.362,0,0,0-.289-.117.855.855,0,0,0-.5.215,5.361,5.361,0,0,0-.668.652l-.562-.562a6.371,6.371,0,0,1,1.4-1.121,2.73,2.73,0,0,1,1.3-.316,1.58,1.58,0,0,1,1.207.414,1.7,1.7,0,0,1,.387,1.2,6.153,6.153,0,0,1-.227,1.445l-.344,1.313a8.04,8.04,0,0,0-.32,1.789q0,.7.547.7a1,1,0,0,0,.539-.187,3.874,3.874,0,0,0,1.227-1.43,5.036,5.036,0,0,0,.367-1.109Zm9.328,5.68.633.68a5.291,5.291,0,0,1-1.641,1.168,4.579,4.579,0,0,1-1.8.348,2.348,2.348,0,0,1-1.855-.746,3.023,3.023,0,0,1-.66-2.074,6.336,6.336,0,0,1,.559-2.531A4.218,4.218,0,0,1,131.688,9.8a4.755,4.755,0,0,1,2.563-.68,8.527,8.527,0,0,1,1.133.082,6.434,6.434,0,0,1,1.078.23l-.437,1.906h-1.406q.016-.164.016-.336a1.494,1.494,0,0,0-.172-.816.574.574,0,0,0-.508-.254,1.444,1.444,0,0,0-1.1.664,5.53,5.53,0,0,0-.875,1.844,7.382,7.382,0,0,0-.352,2.07q0,1.469,1.07,1.469a2.235,2.235,0,0,0,1.02-.242A4.931,4.931,0,0,0,134.8,14.93Zm7.117-8.8-.406,1.914h-2.023l.43-1.914Zm-1.789,8.406q-.078.328-.105.508a2.719,2.719,0,0,0-.027.406.657.657,0,0,0,.1.422.362.362,0,0,0,.289.117.871.871,0,0,0,.508-.215,4.879,4.879,0,0,0,.664-.652l.563.563a6.133,6.133,0,0,1-1.371,1.109,2.75,2.75,0,0,1-1.332.328,1.6,1.6,0,0,1-1.211-.406,1.731,1.731,0,0,1-.383-1.227A5.263,5.263,0,0,1,138,14.266l.656-2.719a5.3,5.3,0,0,0,.18-1.172.557.557,0,0,0-.145-.434,1.154,1.154,0,0,0-.605-.176l.117-.516,2.289-.086h.891Zm11.727.586.563.563a6.246,6.246,0,0,1-1.414,1.129,2.674,2.674,0,0,1-1.25.309,1.448,1.448,0,0,1-1.039-.363,1.258,1.258,0,0,1-.383-.957,1.48,1.48,0,0,1,.047-.375l-.1-.023a6.275,6.275,0,0,1-1.387,1.309,2.814,2.814,0,0,1-1.543.41,1.624,1.624,0,0,1-1.371-.641,3.011,3.011,0,0,1-.488-1.852,7.406,7.406,0,0,1,.3-2.094,5.51,5.51,0,0,1,.875-1.793,4.05,4.05,0,0,1,1.434-1.187,4.283,4.283,0,0,1,1.949-.434,3.81,3.81,0,0,1,1.344.242l.266-1.2q.047-.2.109-.562a3.613,3.613,0,0,0,.063-.555.823.823,0,0,0-.035-.27.383.383,0,0,0-.105-.16.49.49,0,0,0-.187-.1,3.671,3.671,0,0,0-.461-.082l.125-.508,2.336-.125h.883l-1.977,8.75a4.106,4.106,0,0,0-.117.891.767.767,0,0,0,.086.4.32.32,0,0,0,.3.141.876.876,0,0,0,.523-.219A5,5,0,0,0,151.859,15.125Zm-2.992-2.984a5.422,5.422,0,0,0,.125-1.148,1.325,1.325,0,0,0-.2-.789.742.742,0,0,0-.641-.266,1.614,1.614,0,0,0-1.289.73,5.725,5.725,0,0,0-.906,1.965,8.341,8.341,0,0,0-.344,2.211,1.7,1.7,0,0,0,.168.852.563.563,0,0,0,.52.281,1.564,1.564,0,0,0,1.051-.5,4,4,0,0,0,.863-1.184,8.652,8.652,0,0,0,.586-1.859Zm11.844,2.422a3.88,3.88,0,0,0-.117.891.767.767,0,0,0,.086.4.32.32,0,0,0,.3.141.876.876,0,0,0,.523-.219,5,5,0,0,0,.656-.648l.563.563a6.246,6.246,0,0,1-1.414,1.129,2.674,2.674,0,0,1-1.25.309,1.448,1.448,0,0,1-1.039-.363,1.258,1.258,0,0,1-.383-.957,1.48,1.48,0,0,1,.047-.375l-.109-.016a8.434,8.434,0,0,1-.98,1.012,3.164,3.164,0,0,1-.871.52,2.8,2.8,0,0,1-1.023.18,1.676,1.676,0,0,1-1.422-.637,3.026,3.026,0,0,1-.484-1.855,7.406,7.406,0,0,1,.3-2.094,5.51,5.51,0,0,1,.875-1.793A4.05,4.05,0,0,1,156.4,9.559a4.3,4.3,0,0,1,1.957-.434,3.424,3.424,0,0,1,1.984.563l.758-.562.875.125Zm-1.547-2.422a5.457,5.457,0,0,0,.125-1.156,1.31,1.31,0,0,0-.2-.781.742.742,0,0,0-.641-.266,1.614,1.614,0,0,0-1.289.73,5.725,5.725,0,0,0-.906,1.965,8.341,8.341,0,0,0-.344,2.211,1.7,1.7,0,0,0,.168.852.563.563,0,0,0,.52.281,1.564,1.564,0,0,0,1.051-.5,4,4,0,0,0,.863-1.184,8.652,8.652,0,0,0,.586-1.859Zm5.563,2.672a1.87,1.87,0,0,0,.363,1.1,1.209,1.209,0,0,0,1,.4,1.381,1.381,0,0,0,.953-.3,1.079,1.079,0,0,0,.336-.848,1.269,1.269,0,0,0-.109-.555,1.4,1.4,0,0,0-.359-.441,6.681,6.681,0,0,0-.812-.559,3.689,3.689,0,0,1-1.137-.973,1.912,1.912,0,0,1-.355-1.129,2.043,2.043,0,0,1,.859-1.766,4.07,4.07,0,0,1,2.406-.617,10.016,10.016,0,0,1,2.555.359l-.406,1.867h-.992a1.884,1.884,0,0,0-.371-1.07,1.086,1.086,0,0,0-.863-.344,1.251,1.251,0,0,0-.84.27.91.91,0,0,0-.316.73,1.048,1.048,0,0,0,.266.711,4.625,4.625,0,0,0,1.031.766,3.716,3.716,0,0,1,1.188,1.016,2.114,2.114,0,0,1,.359,1.227,2.187,2.187,0,0,1-.426,1.359,2.512,2.512,0,0,1-1.164.836,4.827,4.827,0,0,1-1.684.273,11.115,11.115,0,0,1-2.906-.375l.438-1.937Z" transform="translate(447 3993)" fill="#9b1f36"/>
    <path id="Trazado_737827" data-name="Trazado 737827" d="M8.992,13.281a7.507,7.507,0,0,1-.605,1.8,3.674,3.674,0,0,1-.91,1.191,3.37,3.37,0,0,1-1.234.645,6.269,6.269,0,0,1-1.719.2,4.558,4.558,0,0,1-1.254-.168,2.877,2.877,0,0,1-1.027-.52,2.5,2.5,0,0,1-.691-.879A2.865,2.865,0,0,1,1.3,14.3a7.07,7.07,0,0,1,.055-.844q.055-.453.266-1.414l.813-3.6a4.167,4.167,0,0,0,.1-.914.657.657,0,0,0-.152-.48.852.852,0,0,0-.5-.2l.109-.516h3.93l-.109.516a1.12,1.12,0,0,0-.656.438,3.7,3.7,0,0,0-.4,1.156L3.7,13.234a8.449,8.449,0,0,0-.156.871,5.987,5.987,0,0,0-.039.668,1.5,1.5,0,0,0,.348,1.07,1.338,1.338,0,0,0,1.02.367,2,2,0,0,0,1.109-.289A2.059,2.059,0,0,0,6.7,15.1a6,6,0,0,0,.457-1.379L8.32,8.445a3.5,3.5,0,0,0,.086-.52q.016-.215.016-.395a.657.657,0,0,0-.152-.48.852.852,0,0,0-.5-.2l.109-.516h3.328l-.109.516a1.127,1.127,0,0,0-.668.445,3.513,3.513,0,0,0-.387,1.148Zm3.383-2.156-.562-.562A6.021,6.021,0,0,1,13.2,9.445a2.694,2.694,0,0,1,1.277-.32,1.451,1.451,0,0,1,1.035.363,1.252,1.252,0,0,1,.387.957,1.48,1.48,0,0,1-.047.375l.078.063a6.108,6.108,0,0,1,1.395-1.336,2.8,2.8,0,0,1,1.543-.422,1.714,1.714,0,0,1,1.262.453,1.66,1.66,0,0,1,.457,1.234,4.81,4.81,0,0,1-.051.625,6.559,6.559,0,0,1-.121.664L19.8,14.539a3.786,3.786,0,0,0-.133.914.657.657,0,0,0,.1.422.362.362,0,0,0,.289.117.871.871,0,0,0,.508-.215,4.879,4.879,0,0,0,.664-.652l.563.563A6.133,6.133,0,0,1,20.418,16.8a2.75,2.75,0,0,1-1.332.328,1.586,1.586,0,0,1-1.211-.41,1.709,1.709,0,0,1-.383-1.207,6.186,6.186,0,0,1,.227-1.461l.344-1.3q.133-.5.227-.988a4.422,4.422,0,0,0,.094-.8.785.785,0,0,0-.148-.523.527.527,0,0,0-.422-.172,1.392,1.392,0,0,0-.875.453,4.222,4.222,0,0,0-.789.957,4.405,4.405,0,0,0-.469,1.316L14.8,17H12.563l1.258-5.43a3.751,3.751,0,0,0,.117-.773.767.767,0,0,0-.086-.4.32.32,0,0,0-.3-.141.876.876,0,0,0-.523.219A5,5,0,0,0,12.375,11.125ZM27.164,6.133l-.406,1.914H24.734l.43-1.914Zm-1.789,8.406q-.078.328-.105.508a2.72,2.72,0,0,0-.027.406.657.657,0,0,0,.1.422.362.362,0,0,0,.289.117.871.871,0,0,0,.508-.215,4.879,4.879,0,0,0,.664-.652l.563.563A6.133,6.133,0,0,1,26,16.8a2.75,2.75,0,0,1-1.332.328,1.6,1.6,0,0,1-1.211-.406,1.731,1.731,0,0,1-.383-1.227,5.263,5.263,0,0,1,.172-1.227l.656-2.719a5.3,5.3,0,0,0,.18-1.172.557.557,0,0,0-.145-.434,1.154,1.154,0,0,0-.605-.176l.117-.516,2.289-.086h.891Zm11.727.586.563.563a6.246,6.246,0,0,1-1.414,1.129,2.674,2.674,0,0,1-1.25.309,1.448,1.448,0,0,1-1.039-.363,1.258,1.258,0,0,1-.383-.957,1.48,1.48,0,0,1,.047-.375l-.1-.023a6.275,6.275,0,0,1-1.387,1.309,2.814,2.814,0,0,1-1.543.41,1.624,1.624,0,0,1-1.371-.641,3.011,3.011,0,0,1-.488-1.852,7.406,7.406,0,0,1,.3-2.094,5.51,5.51,0,0,1,.875-1.793,4.05,4.05,0,0,1,1.434-1.187A4.283,4.283,0,0,1,33.3,9.125a3.81,3.81,0,0,1,1.344.242l.266-1.2q.047-.2.109-.562a3.613,3.613,0,0,0,.063-.555.823.823,0,0,0-.035-.27.383.383,0,0,0-.105-.16.49.49,0,0,0-.187-.1,3.671,3.671,0,0,0-.461-.082l.125-.508,2.336-.125h.883l-1.977,8.75a4.106,4.106,0,0,0-.117.891.767.767,0,0,0,.086.4.32.32,0,0,0,.3.141.876.876,0,0,0,.523-.219A5,5,0,0,0,37.1,15.125Zm-2.992-2.984a5.421,5.421,0,0,0,.125-1.148,1.325,1.325,0,0,0-.2-.789.742.742,0,0,0-.641-.266,1.614,1.614,0,0,0-1.289.73,5.725,5.725,0,0,0-.906,1.965,8.341,8.341,0,0,0-.344,2.211,1.7,1.7,0,0,0,.168.852.563.563,0,0,0,.52.281,1.564,1.564,0,0,0,1.051-.5,4,4,0,0,0,.863-1.184,8.652,8.652,0,0,0,.586-1.859Zm11.844,2.422a3.88,3.88,0,0,0-.117.891.767.767,0,0,0,.086.4.32.32,0,0,0,.3.141.876.876,0,0,0,.523-.219,5,5,0,0,0,.656-.648l.563.563a6.246,6.246,0,0,1-1.414,1.129,2.674,2.674,0,0,1-1.25.309,1.448,1.448,0,0,1-1.039-.363,1.258,1.258,0,0,1-.383-.957,1.48,1.48,0,0,1,.047-.375l-.109-.016a8.434,8.434,0,0,1-.98,1.012,3.164,3.164,0,0,1-.871.52,2.8,2.8,0,0,1-1.023.18,1.676,1.676,0,0,1-1.422-.637,3.026,3.026,0,0,1-.484-1.855,7.406,7.406,0,0,1,.3-2.094,5.51,5.51,0,0,1,.875-1.793,4.05,4.05,0,0,1,1.434-1.187A4.3,4.3,0,0,1,43.6,9.125a3.424,3.424,0,0,1,1.984.563l.758-.562.875.125Zm-1.547-2.422a5.457,5.457,0,0,0,.125-1.156,1.31,1.31,0,0,0-.2-.781.742.742,0,0,0-.641-.266,1.614,1.614,0,0,0-1.289.73,5.725,5.725,0,0,0-.906,1.965,8.341,8.341,0,0,0-.344,2.211,1.7,1.7,0,0,0,.168.852.563.563,0,0,0,.52.281,1.564,1.564,0,0,0,1.051-.5,4,4,0,0,0,.863-1.184,8.652,8.652,0,0,0,.586-1.859Zm12.93,2.984.563.563a6.246,6.246,0,0,1-1.414,1.129,2.674,2.674,0,0,1-1.25.309,1.448,1.448,0,0,1-1.039-.363,1.258,1.258,0,0,1-.383-.957,1.48,1.48,0,0,1,.047-.375l-.1-.023a6.275,6.275,0,0,1-1.387,1.309,2.814,2.814,0,0,1-1.543.41,1.624,1.624,0,0,1-1.371-.641,3.011,3.011,0,0,1-.488-1.852,7.406,7.406,0,0,1,.3-2.094,5.51,5.51,0,0,1,.875-1.793,4.05,4.05,0,0,1,1.434-1.187,4.283,4.283,0,0,1,1.949-.434,3.81,3.81,0,0,1,1.344.242l.266-1.2q.047-.2.109-.562a3.613,3.613,0,0,0,.063-.555.823.823,0,0,0-.035-.27.383.383,0,0,0-.105-.16.49.49,0,0,0-.187-.1,3.671,3.671,0,0,0-.461-.082l.125-.508,2.336-.125h.883l-1.977,8.75a4.106,4.106,0,0,0-.117.891.767.767,0,0,0,.086.4.32.32,0,0,0,.3.141.876.876,0,0,0,.523-.219A5,5,0,0,0,57.336,15.125Zm-2.992-2.984a5.421,5.421,0,0,0,.125-1.148,1.325,1.325,0,0,0-.2-.789.742.742,0,0,0-.641-.266,1.614,1.614,0,0,0-1.289.73,5.725,5.725,0,0,0-.906,1.965,8.341,8.341,0,0,0-.344,2.211,1.7,1.7,0,0,0,.168.852.563.563,0,0,0,.52.281,1.564,1.564,0,0,0,1.051-.5,4,4,0,0,0,.863-1.184,8.652,8.652,0,0,0,.586-1.859Zm11.438,3.234a5.328,5.328,0,0,1-1.7,1.32,4.562,4.562,0,0,1-1.973.43,3.448,3.448,0,0,1-1.555-.32,2.128,2.128,0,0,1-.965-.949,3.245,3.245,0,0,1-.324-1.5,6.345,6.345,0,0,1,.109-1.039,6.294,6.294,0,0,1,.453-1.531,4.667,4.667,0,0,1,1-1.422,4.287,4.287,0,0,1,1.449-.914,5.037,5.037,0,0,1,1.824-.32q2.391,0,2.391,1.727a2.217,2.217,0,0,1-.238,1.047,2.291,2.291,0,0,1-.793.82,4.758,4.758,0,0,1-1.566.594,12.6,12.6,0,0,1-2.441.258,4.417,4.417,0,0,0-.1.953,1.681,1.681,0,0,0,.3,1.094,1.129,1.129,0,0,0,.922.367,2.739,2.739,0,0,0,1.242-.277,5.816,5.816,0,0,0,1.3-.988ZM61.641,12.75a4.149,4.149,0,0,0,2.2-.551A1.645,1.645,0,0,0,64.6,10.75a.886.886,0,0,0-.184-.605.648.648,0,0,0-.512-.207,1.673,1.673,0,0,0-1.309.719A5.735,5.735,0,0,0,61.641,12.75Zm7.414,2.063a1.87,1.87,0,0,0,.363,1.1,1.209,1.209,0,0,0,1,.4,1.381,1.381,0,0,0,.953-.3,1.079,1.079,0,0,0,.336-.848,1.269,1.269,0,0,0-.109-.555,1.4,1.4,0,0,0-.359-.441,6.68,6.68,0,0,0-.812-.559,3.688,3.688,0,0,1-1.137-.973,1.913,1.913,0,0,1-.355-1.129,2.043,2.043,0,0,1,.859-1.766A4.07,4.07,0,0,1,72.2,9.125a10.016,10.016,0,0,1,2.555.359l-.406,1.867h-.992a1.884,1.884,0,0,0-.371-1.07,1.086,1.086,0,0,0-.863-.344,1.251,1.251,0,0,0-.84.27.91.91,0,0,0-.316.73,1.048,1.048,0,0,0,.266.711,4.625,4.625,0,0,0,1.031.766,3.716,3.716,0,0,1,1.188,1.016,2.114,2.114,0,0,1,.359,1.227,2.187,2.187,0,0,1-.426,1.359,2.512,2.512,0,0,1-1.164.836,4.827,4.827,0,0,1-1.684.273,11.115,11.115,0,0,1-2.906-.375l.438-1.937ZM85.719,6.336q.82,0,1.328.051a3.823,3.823,0,0,1,.988.234,2.5,2.5,0,0,1,.809.484,1.974,1.974,0,0,1,.5.727,2.582,2.582,0,0,1,.172.973,3.647,3.647,0,0,1-.324,1.566,3.465,3.465,0,0,1-.918,1.191,3.945,3.945,0,0,1-1.512.754,7.69,7.69,0,0,1-2.051.254h-.227a6.762,6.762,0,0,1-.8-.039l-.523,2.359q-.055.25-.078.434a3.949,3.949,0,0,0-.023.48.619.619,0,0,0,.184.508,1.008,1.008,0,0,0,.574.172L83.711,17H79.672l.109-.516a1.12,1.12,0,0,0,.656-.437,3.7,3.7,0,0,0,.4-1.156l1.422-6.445a4.238,4.238,0,0,0,.1-.914.657.657,0,0,0-.152-.48.852.852,0,0,0-.5-.2l.109-.516Zm-1.43,5.328a3.315,3.315,0,0,0,1.648-.336,2.156,2.156,0,0,0,.883-1,3.584,3.584,0,0,0,.3-1.5,1.656,1.656,0,0,0-.371-1.18A1.523,1.523,0,0,0,85.6,7.25q-.437,0-.758.016l-.961,4.4ZM94.461,11a5.409,5.409,0,0,1,1.375-1.4,2.822,2.822,0,0,1,1.594-.477,4.4,4.4,0,0,1,1.094.148l-.461,2.1h-1.4a1.629,1.629,0,0,0-.113-.727.406.406,0,0,0-.387-.2.916.916,0,0,0-.461.148,2.527,2.527,0,0,0-.6.578,3.822,3.822,0,0,0-.523.82,5.155,5.155,0,0,0-.309,1L93.391,17H91.148l1.258-5.43a3.751,3.751,0,0,0,.117-.773.767.767,0,0,0-.086-.4.32.32,0,0,0-.3-.141.876.876,0,0,0-.523.219,5,5,0,0,0-.656.648l-.562-.562a6.021,6.021,0,0,1,1.387-1.117,2.694,2.694,0,0,1,1.277-.32,1.451,1.451,0,0,1,1.035.363,1.252,1.252,0,0,1,.387.957,2.131,2.131,0,0,1-.086.531Zm8.109,6.125a3.5,3.5,0,0,1-1.512-.309,2.313,2.313,0,0,1-1.023-.937,2.972,2.972,0,0,1-.371-1.535,7.037,7.037,0,0,1,.289-1.934,5.085,5.085,0,0,1,.9-1.781,3.712,3.712,0,0,1,1.473-1.137,4.894,4.894,0,0,1,1.934-.367,3.378,3.378,0,0,1,1.625.355,2.255,2.255,0,0,1,.973.988,3.244,3.244,0,0,1,.316,1.469,6.559,6.559,0,0,1-.344,2.07,5.079,5.079,0,0,1-.949,1.742,3.716,3.716,0,0,1-1.434,1.039A4.951,4.951,0,0,1,102.57,17.125Zm-.8-2.273a2.026,2.026,0,0,0,.238,1.1.836.836,0,0,0,.754.363,1.421,1.421,0,0,0,1.152-.645,5.5,5.5,0,0,0,.816-1.949,9.479,9.479,0,0,0,.328-2.266,2.158,2.158,0,0,0-.238-1.148.818.818,0,0,0-.738-.367,1.4,1.4,0,0,0-1.137.637,5.759,5.759,0,0,0-.828,1.969A9.337,9.337,0,0,0,101.766,14.852Zm8.672,2.8a1.7,1.7,0,0,0-.293.484,1.435,1.435,0,0,0-.082.492.905.905,0,0,0,.371.793,1.936,1.936,0,0,0,1.113.262,2.267,2.267,0,0,0,1.891-.895,8.468,8.468,0,0,0,1.188-3.27l-.1-.07a5.576,5.576,0,0,1-1.32,1.277,2.766,2.766,0,0,1-1.516.4,1.638,1.638,0,0,1-1.371-.641,2.976,2.976,0,0,1-.5-1.852,7.326,7.326,0,0,1,.313-2.113,5.527,5.527,0,0,1,.887-1.793,4.047,4.047,0,0,1,1.43-1.176,4.335,4.335,0,0,1,1.957-.426,4.039,4.039,0,0,1,1.02.121,3.192,3.192,0,0,1,.949.441l.7-.562.875.125-.672,3.055q-.164.75-.3,1.438-.422,2.141-.586,2.852a9.145,9.145,0,0,1-.594,1.828,3.634,3.634,0,0,1-.828,1.105,3.329,3.329,0,0,1-1.273.691,7.19,7.19,0,0,1-2.125.273,5.452,5.452,0,0,1-2.484-.441,1.419,1.419,0,0,1-.828-1.324,1.439,1.439,0,0,1,.344-.914,3.6,3.6,0,0,1,1.016-.82Zm4.758-5.516a5.317,5.317,0,0,0,.125-1.125,1.357,1.357,0,0,0-.2-.8.742.742,0,0,0-.641-.266,1.612,1.612,0,0,0-1.266.7,5.549,5.549,0,0,0-.918,1.953,8.316,8.316,0,0,0-.355,2.25,1.7,1.7,0,0,0,.168.852.563.563,0,0,0,.52.281,1.277,1.277,0,0,0,.68-.215,3.227,3.227,0,0,0,.723-.664,4.01,4.01,0,0,0,.637-1.082,9.517,9.517,0,0,0,.461-1.594ZM123.1,11a5.409,5.409,0,0,1,1.375-1.4,2.822,2.822,0,0,1,1.594-.477,4.4,4.4,0,0,1,1.094.148l-.461,2.1h-1.4a1.629,1.629,0,0,0-.113-.727.406.406,0,0,0-.387-.2.916.916,0,0,0-.461.148,2.527,2.527,0,0,0-.6.578,3.822,3.822,0,0,0-.523.82,5.155,5.155,0,0,0-.309,1L122.031,17h-2.242l1.258-5.43a3.751,3.751,0,0,0,.117-.773.767.767,0,0,0-.086-.4.32.32,0,0,0-.3-.141.876.876,0,0,0-.523.219,5,5,0,0,0-.656.648l-.562-.562a6.021,6.021,0,0,1,1.387-1.117,2.694,2.694,0,0,1,1.277-.32,1.451,1.451,0,0,1,1.035.363,1.252,1.252,0,0,1,.387.957,2.131,2.131,0,0,1-.086.531Zm12.086,3.563a3.88,3.88,0,0,0-.117.891.767.767,0,0,0,.086.4.32.32,0,0,0,.3.141.876.876,0,0,0,.523-.219,5,5,0,0,0,.656-.648l.563.563a6.246,6.246,0,0,1-1.414,1.129,2.674,2.674,0,0,1-1.25.309,1.448,1.448,0,0,1-1.039-.363,1.258,1.258,0,0,1-.383-.957,1.48,1.48,0,0,1,.047-.375l-.109-.016a8.434,8.434,0,0,1-.98,1.012,3.164,3.164,0,0,1-.871.52,2.8,2.8,0,0,1-1.023.18,1.676,1.676,0,0,1-1.422-.637,3.026,3.026,0,0,1-.484-1.855,7.406,7.406,0,0,1,.3-2.094,5.51,5.51,0,0,1,.875-1.793,4.05,4.05,0,0,1,1.434-1.187,4.3,4.3,0,0,1,1.957-.434,3.424,3.424,0,0,1,1.984.563l.758-.562.875.125Zm-1.547-2.422a5.457,5.457,0,0,0,.125-1.156,1.31,1.31,0,0,0-.2-.781.742.742,0,0,0-.641-.266,1.614,1.614,0,0,0-1.289.73,5.725,5.725,0,0,0-.906,1.965,8.341,8.341,0,0,0-.344,2.211,1.7,1.7,0,0,0,.168.852.563.563,0,0,0,.52.281,1.564,1.564,0,0,0,1.051-.5,4,4,0,0,0,.863-1.184,8.652,8.652,0,0,0,.586-1.859Zm16.4,2.4a4.419,4.419,0,0,0-.109.508,3.166,3.166,0,0,0-.023.406.657.657,0,0,0,.1.422.362.362,0,0,0,.289.117.871.871,0,0,0,.508-.215,4.879,4.879,0,0,0,.664-.652l.563.563A6.133,6.133,0,0,1,150.66,16.8a2.75,2.75,0,0,1-1.332.328,1.607,1.607,0,0,1-1.2-.4,1.68,1.68,0,0,1-.391-1.219,4.429,4.429,0,0,1,.055-.629,7.614,7.614,0,0,1,.156-.77l.359-1.359q.125-.461.223-.973a4.545,4.545,0,0,0,.1-.793q0-.719-.562-.719a1.373,1.373,0,0,0-.82.43,4.238,4.238,0,0,0-.8.941,4.173,4.173,0,0,0-.488,1.355L145.1,17h-2.25l1.141-4.969q.086-.359.117-.59a3.046,3.046,0,0,0,.031-.4.978.978,0,0,0-.141-.59.525.525,0,0,0-.445-.184,1.377,1.377,0,0,0-.848.445,4.34,4.34,0,0,0-.789.938,4.316,4.316,0,0,0-.48,1.344L140.563,17H138.32l1.258-5.43a3.751,3.751,0,0,0,.117-.773.767.767,0,0,0-.086-.4.32.32,0,0,0-.3-.141.876.876,0,0,0-.523.219,5,5,0,0,0-.656.648l-.562-.562a6.021,6.021,0,0,1,1.387-1.117,2.694,2.694,0,0,1,1.277-.32,1.451,1.451,0,0,1,1.035.363,1.252,1.252,0,0,1,.387.957,1.48,1.48,0,0,1-.047.375l.094.047a5.783,5.783,0,0,1,1.379-1.32,2.842,2.842,0,0,1,1.551-.422,1.707,1.707,0,0,1,1.23.43,1.64,1.64,0,0,1,.473,1.188,4.946,4.946,0,0,1,1.309-1.223,2.86,2.86,0,0,1,1.5-.395,1.55,1.55,0,0,1,1.688,1.688,5.062,5.062,0,0,1-.039.57,4.82,4.82,0,0,1-.117.641Zm9.922.023a3.88,3.88,0,0,0-.117.891.767.767,0,0,0,.086.4.32.32,0,0,0,.3.141.876.876,0,0,0,.523-.219,5,5,0,0,0,.656-.648l.563.563a6.246,6.246,0,0,1-1.414,1.129,2.674,2.674,0,0,1-1.25.309,1.448,1.448,0,0,1-1.039-.363,1.258,1.258,0,0,1-.383-.957,1.48,1.48,0,0,1,.047-.375l-.109-.016a8.434,8.434,0,0,1-.98,1.012,3.164,3.164,0,0,1-.871.52,2.8,2.8,0,0,1-1.023.18,1.676,1.676,0,0,1-1.422-.637,3.026,3.026,0,0,1-.484-1.855,7.406,7.406,0,0,1,.3-2.094,5.51,5.51,0,0,1,.875-1.793,4.05,4.05,0,0,1,1.434-1.187,4.3,4.3,0,0,1,1.957-.434,3.424,3.424,0,0,1,1.984.563l.758-.562.875.125Zm-1.547-2.422a5.457,5.457,0,0,0,.125-1.156,1.31,1.31,0,0,0-.2-.781.742.742,0,0,0-.641-.266,1.614,1.614,0,0,0-1.289.73,5.725,5.725,0,0,0-.906,1.965,8.341,8.341,0,0,0-.344,2.211,1.7,1.7,0,0,0,.168.852.563.563,0,0,0,.52.281,1.564,1.564,0,0,0,1.051-.5,4,4,0,0,0,.863-1.184,8.652,8.652,0,0,0,.586-1.859Zm12.93,2.984.563.563a6.246,6.246,0,0,1-1.414,1.129,2.674,2.674,0,0,1-1.25.309,1.448,1.448,0,0,1-1.039-.363,1.258,1.258,0,0,1-.383-.957,1.48,1.48,0,0,1,.047-.375l-.1-.023a6.275,6.275,0,0,1-1.387,1.309,2.814,2.814,0,0,1-1.543.41,1.624,1.624,0,0,1-1.371-.641,3.011,3.011,0,0,1-.488-1.852,7.406,7.406,0,0,1,.3-2.094,5.51,5.51,0,0,1,.875-1.793,4.05,4.05,0,0,1,1.434-1.187,4.283,4.283,0,0,1,1.949-.434,3.81,3.81,0,0,1,1.344.242l.266-1.2q.047-.2.109-.562a3.613,3.613,0,0,0,.063-.555.823.823,0,0,0-.035-.27.383.383,0,0,0-.105-.16.49.49,0,0,0-.187-.1,3.671,3.671,0,0,0-.461-.082l.125-.508,2.336-.125h.883l-1.977,8.75a4.106,4.106,0,0,0-.117.891.767.767,0,0,0,.086.4.32.32,0,0,0,.3.141.876.876,0,0,0,.523-.219A5,5,0,0,0,171.344,15.125Zm-2.992-2.984a5.422,5.422,0,0,0,.125-1.148,1.325,1.325,0,0,0-.2-.789.742.742,0,0,0-.641-.266,1.614,1.614,0,0,0-1.289.73,5.725,5.725,0,0,0-.906,1.965,8.341,8.341,0,0,0-.344,2.211,1.7,1.7,0,0,0,.168.852.563.563,0,0,0,.52.281,1.564,1.564,0,0,0,1.051-.5,4,4,0,0,0,.863-1.184,8.652,8.652,0,0,0,.586-1.859ZM180.2,14.563a3.88,3.88,0,0,0-.117.891.767.767,0,0,0,.086.4.32.32,0,0,0,.3.141.876.876,0,0,0,.523-.219,5,5,0,0,0,.656-.648l.563.563a6.246,6.246,0,0,1-1.414,1.129,2.674,2.674,0,0,1-1.25.309,1.448,1.448,0,0,1-1.039-.363,1.258,1.258,0,0,1-.383-.957,1.48,1.48,0,0,1,.047-.375l-.109-.016a8.434,8.434,0,0,1-.98,1.012,3.164,3.164,0,0,1-.871.52,2.8,2.8,0,0,1-1.023.18,1.676,1.676,0,0,1-1.422-.637,3.026,3.026,0,0,1-.484-1.855,7.406,7.406,0,0,1,.3-2.094,5.51,5.51,0,0,1,.875-1.793,4.05,4.05,0,0,1,1.434-1.187,4.3,4.3,0,0,1,1.957-.434,3.424,3.424,0,0,1,1.984.563l.758-.562.875.125Zm-1.547-2.422a5.457,5.457,0,0,0,.125-1.156,1.31,1.31,0,0,0-.2-.781.742.742,0,0,0-.641-.266,1.614,1.614,0,0,0-1.289.73,5.725,5.725,0,0,0-.906,1.965,8.341,8.341,0,0,0-.344,2.211,1.7,1.7,0,0,0,.168.852.563.563,0,0,0,.52.281,1.564,1.564,0,0,0,1.051-.5A4,4,0,0,0,178,14.289a8.652,8.652,0,0,0,.586-1.859Zm5.563,2.672a1.87,1.87,0,0,0,.363,1.1,1.209,1.209,0,0,0,1,.4,1.381,1.381,0,0,0,.953-.3,1.079,1.079,0,0,0,.336-.848,1.269,1.269,0,0,0-.109-.555,1.4,1.4,0,0,0-.359-.441,6.681,6.681,0,0,0-.812-.559,3.689,3.689,0,0,1-1.137-.973,1.912,1.912,0,0,1-.355-1.129,2.043,2.043,0,0,1,.859-1.766,4.07,4.07,0,0,1,2.406-.617,10.016,10.016,0,0,1,2.555.359l-.406,1.867h-.992a1.884,1.884,0,0,0-.371-1.07,1.086,1.086,0,0,0-.863-.344,1.251,1.251,0,0,0-.84.27.91.91,0,0,0-.316.73,1.048,1.048,0,0,0,.266.711,4.625,4.625,0,0,0,1.031.766A3.716,3.716,0,0,1,188.6,13.43a2.114,2.114,0,0,1,.359,1.227,2.187,2.187,0,0,1-.426,1.359,2.512,2.512,0,0,1-1.164.836,4.827,4.827,0,0,1-1.684.273,11.115,11.115,0,0,1-2.906-.375l.438-1.937Z" transform="translate(436 4018)" fill="#9b1f36"/>
    <path id="Trazado_737828" data-name="Trazado 737828" d="M7.3,12l-2.141.438,1.484,1.9-.859.594-1.219-2.07L3.328,14.93l-.859-.594,1.484-1.9L1.8,12l.352-.977L4.2,11.8l-.18-2.375H5.094L4.914,11.8l2.055-.773Zm8.109,2.82a3.42,3.42,0,0,0,.051.684.815.815,0,0,0,.18.375.851.851,0,0,0,.371.227,3.035,3.035,0,0,0,.609.125q.367.043.969.059V17H10.844v-.711a10.709,10.709,0,0,0,1.238-.105,1.484,1.484,0,0,0,.566-.2.757.757,0,0,0,.285-.375,2.479,2.479,0,0,0,.09-.789V9.172a.7.7,0,0,0-.121-.461.415.415,0,0,0-.332-.141,1.357,1.357,0,0,0-.551.18,12.259,12.259,0,0,0-1.168.734l-.477-.828,4.078-2.445h1q-.047.75-.047,2.078Zm7.945,2.3a3.21,3.21,0,0,1-2.84-1.332,7.144,7.144,0,0,1-.918-4.027,7.028,7.028,0,0,1,1.023-4.129,3.335,3.335,0,0,1,2.875-1.426A3.3,3.3,0,0,1,26.359,7.52a6.863,6.863,0,0,1,.945,4,7.225,7.225,0,0,1-1,4.184A3.383,3.383,0,0,1,23.352,17.125Zm-1.383-5.586a19.321,19.321,0,0,0,.152,2.734,3.7,3.7,0,0,0,.48,1.5,1.012,1.012,0,0,0,.875.48.933.933,0,0,0,.52-.145,1.279,1.279,0,0,0,.4-.453,3.229,3.229,0,0,0,.3-.82,7.855,7.855,0,0,0,.18-1.273q.055-.762.055-1.7a21.931,21.931,0,0,0-.105-2.352,6.3,6.3,0,0,0-.3-1.469,1.731,1.731,0,0,0-.461-.734.942.942,0,0,0-.617-.219,1,1,0,0,0-.875.488,3.662,3.662,0,0,0-.461,1.453A18.081,18.081,0,0,0,21.969,11.539Zm10.953,5.586a3.21,3.21,0,0,1-2.84-1.332,7.144,7.144,0,0,1-.918-4.027,7.028,7.028,0,0,1,1.023-4.129,3.335,3.335,0,0,1,2.875-1.426A3.3,3.3,0,0,1,35.93,7.52a6.863,6.863,0,0,1,.945,4,7.225,7.225,0,0,1-1,4.184A3.383,3.383,0,0,1,32.922,17.125Zm-1.383-5.586a19.321,19.321,0,0,0,.152,2.734,3.7,3.7,0,0,0,.48,1.5,1.012,1.012,0,0,0,.875.48.933.933,0,0,0,.52-.145,1.279,1.279,0,0,0,.4-.453,3.229,3.229,0,0,0,.3-.82,7.855,7.855,0,0,0,.18-1.273q.055-.762.055-1.7a21.931,21.931,0,0,0-.105-2.352,6.3,6.3,0,0,0-.3-1.469,1.731,1.731,0,0,0-.461-.734.942.942,0,0,0-.617-.219,1,1,0,0,0-.875.488,3.662,3.662,0,0,0-.461,1.453A18.081,18.081,0,0,0,31.539,11.539Z" transform="translate(640 4005)" fill="#9b1f36"/>
    <path id="Trazado_737829" data-name="Trazado 737829" d="M0,0H201" transform="translate(433.5 4015.5)" fill="none" stroke="#12263f" stroke-width="1"/>
  </g>
</svg>
