<svg xmlns="http://www.w3.org/2000/svg" width="262.305" height="14.711" viewBox="0 0 262.305 14.711">
  <g id="Grupo_987317" data-name="Grupo 987317" transform="translate(-378.977 -4285.781)">
    <path id="Trazado_737835" data-name="Trazado 737835" d="M28.711,6.336l-.555,2.516h-1a4.342,4.342,0,0,0-.141-1.039.783.783,0,0,0-.312-.43,1.115,1.115,0,0,0-.594-.133H24.148L23.32,11h1.086a1.229,1.229,0,0,0,.527-.1,1.115,1.115,0,0,0,.4-.34A3.065,3.065,0,0,0,25.7,9.9h.859L25.8,13.07H25a3.357,3.357,0,0,0-.055-.7.573.573,0,0,0-.2-.352.884.884,0,0,0-.508-.109H23.125L22.2,16.086h1.758a2.368,2.368,0,0,0,.535-.047,1.172,1.172,0,0,0,.352-.148,2.079,2.079,0,0,0,.371-.324A3.357,3.357,0,0,0,25.637,15a7.993,7.993,0,0,0,.426-.816h1.063L26.406,17h-7.43l.109-.516a1.12,1.12,0,0,0,.656-.437,3.7,3.7,0,0,0,.4-1.156l1.422-6.445a4.238,4.238,0,0,0,.1-.914.657.657,0,0,0-.152-.48.852.852,0,0,0-.5-.2l.109-.516Zm2.414,3.891.141-.633a2.991,2.991,0,0,0,.762-.078.732.732,0,0,0,.367-.258,2.1,2.1,0,0,0,.277-.7,4.654,4.654,0,0,1,.492-1.23,3.075,3.075,0,0,1,.773-.852,3.131,3.131,0,0,1,1.113-.531,5.492,5.492,0,0,1,1.4-.168,7.323,7.323,0,0,1,1.469.141L37.57,7.484H36.563a1.585,1.585,0,0,0-.156-.687.426.426,0,0,0-.391-.2.649.649,0,0,0-.508.219,1.772,1.772,0,0,0-.328.594,8.416,8.416,0,0,0-.266.984l-.2.859h1.672l-.211.977H34.5l-1.414,6.531a5.576,5.576,0,0,1-1.336,2.816,3.134,3.134,0,0,1-2.3.918,2.971,2.971,0,0,1-.539-.039l.188-.875a1.914,1.914,0,0,0,.281.023.854.854,0,0,0,.738-.492,5.342,5.342,0,0,0,.52-1.477L32.3,10.227Zm14.25,5.148a5.328,5.328,0,0,1-1.7,1.32,4.562,4.562,0,0,1-1.973.43,3.448,3.448,0,0,1-1.555-.32,2.128,2.128,0,0,1-.965-.949,3.245,3.245,0,0,1-.324-1.5,6.345,6.345,0,0,1,.109-1.039,6.294,6.294,0,0,1,.453-1.531,4.667,4.667,0,0,1,1-1.422,4.287,4.287,0,0,1,1.449-.914,5.037,5.037,0,0,1,1.824-.32q2.391,0,2.391,1.727a2.217,2.217,0,0,1-.238,1.047,2.291,2.291,0,0,1-.793.82,4.758,4.758,0,0,1-1.566.594,12.6,12.6,0,0,1-2.441.258,4.417,4.417,0,0,0-.1.953,1.681,1.681,0,0,0,.3,1.094,1.129,1.129,0,0,0,.922.367,2.739,2.739,0,0,0,1.242-.277,5.816,5.816,0,0,0,1.3-.988ZM41.234,12.75a4.149,4.149,0,0,0,2.2-.551A1.645,1.645,0,0,0,44.2,10.75a.886.886,0,0,0-.184-.605.648.648,0,0,0-.512-.207,1.673,1.673,0,0,0-1.309.719A5.735,5.735,0,0,0,41.234,12.75Zm11.742,2.18.633.68a5.291,5.291,0,0,1-1.641,1.168,4.579,4.579,0,0,1-1.8.348,2.348,2.348,0,0,1-1.855-.746,3.023,3.023,0,0,1-.66-2.074,6.336,6.336,0,0,1,.559-2.531A4.218,4.218,0,0,1,49.859,9.8a4.755,4.755,0,0,1,2.563-.68,8.526,8.526,0,0,1,1.133.082,6.434,6.434,0,0,1,1.078.23L54.2,11.344H52.789q.016-.164.016-.336a1.494,1.494,0,0,0-.172-.816.574.574,0,0,0-.508-.254,1.444,1.444,0,0,0-1.1.664,5.53,5.53,0,0,0-.875,1.844,7.382,7.382,0,0,0-.352,2.07q0,1.469,1.07,1.469a2.235,2.235,0,0,0,1.02-.242A4.931,4.931,0,0,0,52.977,14.93Zm7.828.648a5.479,5.479,0,0,1-1.449,1.207,3.363,3.363,0,0,1-1.559.34,1.9,1.9,0,0,1-1.367-.457,1.666,1.666,0,0,1-.477-1.262,4.3,4.3,0,0,1,.055-.7q.055-.332.227-1.09l.8-3.391H55.82l.148-.633a2.572,2.572,0,0,0,.828-.1,1.2,1.2,0,0,0,.473-.3,2.167,2.167,0,0,0,.371-.617A10.855,10.855,0,0,0,58.063,7.3h1.875L59.484,9.25h1.9l-.211.977H59.258L58.5,13.352q-.2.8-.27,1.223a4.156,4.156,0,0,0-.074.707.864.864,0,0,0,.133.535.468.468,0,0,0,.391.168,1.3,1.3,0,0,0,.723-.25,3.95,3.95,0,0,0,.8-.773Zm6-9.445L66.4,8.047H64.375l.43-1.914Zm-1.789,8.406q-.078.328-.105.508a2.72,2.72,0,0,0-.027.406.657.657,0,0,0,.1.422.362.362,0,0,0,.289.117.871.871,0,0,0,.508-.215,4.879,4.879,0,0,0,.664-.652l.563.563A6.132,6.132,0,0,1,65.637,16.8a2.75,2.75,0,0,1-1.332.328,1.6,1.6,0,0,1-1.211-.406,1.731,1.731,0,0,1-.383-1.227,5.263,5.263,0,0,1,.172-1.227l.656-2.719a5.3,5.3,0,0,0,.18-1.172.557.557,0,0,0-.145-.434,1.154,1.154,0,0,0-.605-.176l.117-.516,2.289-.086h.891Zm5.648,2.586a1.746,1.746,0,0,1-.68-.113.786.786,0,0,1-.387-.32,1.312,1.312,0,0,1-.16-.484A4.355,4.355,0,0,1,69.4,15.6a8.885,8.885,0,0,1,.055-.957q.055-.5.141-1.012l.477-2.211q.047-.2.078-.371a1.55,1.55,0,0,0,.031-.27.627.627,0,0,0-.1-.371.472.472,0,0,0-.4-.137,2.533,2.533,0,0,0-1.383.82l-.484-.547a4.7,4.7,0,0,1,1.1-.941,2.887,2.887,0,0,1,1.621-.48,1.592,1.592,0,0,1,1.184.422,1.448,1.448,0,0,1,.418,1.063,4.07,4.07,0,0,1-.086.813L71.539,13.8q-.07.414-.117.8a5.905,5.905,0,0,0-.047.7,2.451,2.451,0,0,0,.039.484q.039.188.1.188a1.215,1.215,0,0,0,.566-.2,4.753,4.753,0,0,0,.75-.562,7.878,7.878,0,0,0,.8-.844,7.481,7.481,0,0,0,.727-1.047,6.016,6.016,0,0,0,.523-1.191,4.182,4.182,0,0,0,.2-1.27.832.832,0,0,0-.121-.484.432.432,0,0,0-.379-.172.8.8,0,0,0-.535.215,3.364,3.364,0,0,0-.5.574L73,10.555A3.916,3.916,0,0,1,74.1,9.5a2.508,2.508,0,0,1,1.348-.375,1.262,1.262,0,0,1,1.039.379,1.567,1.567,0,0,1,.3,1.012,3.068,3.068,0,0,1-.141.848,6.123,6.123,0,0,1-.406,1.012,12.039,12.039,0,0,1-.625,1.094,10.885,10.885,0,0,1-.8,1.09,11.262,11.262,0,0,1-.934,1,7.27,7.27,0,0,1-1.031.816,5.467,5.467,0,0,1-1.086.551A3.175,3.175,0,0,1,70.664,17.125ZM82.344,6.133l-.406,1.914H79.914l.43-1.914Zm-1.789,8.406q-.078.328-.105.508a2.72,2.72,0,0,0-.027.406.657.657,0,0,0,.1.422.362.362,0,0,0,.289.117.871.871,0,0,0,.508-.215,4.879,4.879,0,0,0,.664-.652l.563.563A6.132,6.132,0,0,1,81.176,16.8a2.75,2.75,0,0,1-1.332.328,1.6,1.6,0,0,1-1.211-.406,1.731,1.731,0,0,1-.383-1.227,5.263,5.263,0,0,1,.172-1.227l.656-2.719a5.3,5.3,0,0,0,.18-1.172.557.557,0,0,0-.145-.434,1.154,1.154,0,0,0-.605-.176l.117-.516,2.289-.086H81.8Zm11.727.586.563.563a6.246,6.246,0,0,1-1.414,1.129,2.674,2.674,0,0,1-1.25.309,1.448,1.448,0,0,1-1.039-.363,1.258,1.258,0,0,1-.383-.957,1.48,1.48,0,0,1,.047-.375l-.1-.023a6.274,6.274,0,0,1-1.387,1.309,2.814,2.814,0,0,1-1.543.41,1.624,1.624,0,0,1-1.371-.641,3.011,3.011,0,0,1-.488-1.852,7.406,7.406,0,0,1,.3-2.094,5.51,5.51,0,0,1,.875-1.793,4.05,4.05,0,0,1,1.434-1.187,4.283,4.283,0,0,1,1.949-.434,3.81,3.81,0,0,1,1.344.242l.266-1.2q.047-.2.109-.562a3.614,3.614,0,0,0,.063-.555.823.823,0,0,0-.035-.27.383.383,0,0,0-.105-.16.49.49,0,0,0-.187-.1,3.671,3.671,0,0,0-.461-.082l.125-.508,2.336-.125h.883l-1.977,8.75a4.106,4.106,0,0,0-.117.891.767.767,0,0,0,.086.4.32.32,0,0,0,.3.141.876.876,0,0,0,.523-.219A5,5,0,0,0,92.281,15.125Zm-2.992-2.984a5.421,5.421,0,0,0,.125-1.148,1.325,1.325,0,0,0-.2-.789.742.742,0,0,0-.641-.266,1.614,1.614,0,0,0-1.289.73,5.725,5.725,0,0,0-.906,1.965,8.341,8.341,0,0,0-.344,2.211,1.7,1.7,0,0,0,.168.852.563.563,0,0,0,.52.281,1.564,1.564,0,0,0,1.051-.5,4,4,0,0,0,.863-1.184,8.652,8.652,0,0,0,.586-1.859Zm11.844,2.422a3.88,3.88,0,0,0-.117.891.767.767,0,0,0,.086.4.32.32,0,0,0,.3.141.876.876,0,0,0,.523-.219,5,5,0,0,0,.656-.648l.563.563a6.246,6.246,0,0,1-1.414,1.129,2.674,2.674,0,0,1-1.25.309,1.448,1.448,0,0,1-1.039-.363,1.258,1.258,0,0,1-.383-.957,1.48,1.48,0,0,1,.047-.375l-.109-.016a8.434,8.434,0,0,1-.98,1.012,3.164,3.164,0,0,1-.871.52,2.8,2.8,0,0,1-1.023.18,1.676,1.676,0,0,1-1.422-.637,3.026,3.026,0,0,1-.484-1.855,7.406,7.406,0,0,1,.3-2.094,5.51,5.51,0,0,1,.875-1.793,4.05,4.05,0,0,1,1.434-1.187,4.3,4.3,0,0,1,1.957-.434,3.424,3.424,0,0,1,1.984.563l.758-.562.875.125Zm-1.547-2.422a5.457,5.457,0,0,0,.125-1.156,1.31,1.31,0,0,0-.2-.781.742.742,0,0,0-.641-.266,1.614,1.614,0,0,0-1.289.73,5.725,5.725,0,0,0-.906,1.965,8.341,8.341,0,0,0-.344,2.211,1.7,1.7,0,0,0,.168.852.563.563,0,0,0,.52.281,1.564,1.564,0,0,0,1.051-.5,4,4,0,0,0,.863-1.184,8.652,8.652,0,0,0,.586-1.859Zm12.93,2.984.563.563a6.246,6.246,0,0,1-1.414,1.129,2.674,2.674,0,0,1-1.25.309,1.448,1.448,0,0,1-1.039-.363,1.258,1.258,0,0,1-.383-.957,1.48,1.48,0,0,1,.047-.375l-.1-.023a6.274,6.274,0,0,1-1.387,1.309,2.814,2.814,0,0,1-1.543.41,1.624,1.624,0,0,1-1.371-.641,3.011,3.011,0,0,1-.488-1.852,7.406,7.406,0,0,1,.3-2.094,5.51,5.51,0,0,1,.875-1.793,4.05,4.05,0,0,1,1.434-1.187,4.283,4.283,0,0,1,1.949-.434,3.81,3.81,0,0,1,1.344.242l.266-1.2q.047-.2.109-.562a3.614,3.614,0,0,0,.063-.555.823.823,0,0,0-.035-.27.383.383,0,0,0-.105-.16.49.49,0,0,0-.187-.1,3.671,3.671,0,0,0-.461-.082l.125-.508,2.336-.125h.883l-1.977,8.75a4.106,4.106,0,0,0-.117.891.767.767,0,0,0,.086.4.32.32,0,0,0,.3.141.876.876,0,0,0,.523-.219A5,5,0,0,0,112.516,15.125Zm-2.992-2.984a5.421,5.421,0,0,0,.125-1.148,1.325,1.325,0,0,0-.2-.789.742.742,0,0,0-.641-.266,1.614,1.614,0,0,0-1.289.73,5.725,5.725,0,0,0-.906,1.965,8.341,8.341,0,0,0-.344,2.211,1.7,1.7,0,0,0,.168.852.563.563,0,0,0,.52.281,1.564,1.564,0,0,0,1.051-.5,4,4,0,0,0,.863-1.184,8.652,8.652,0,0,0,.586-1.859Zm11.8-1.5h-6.516V9.383h6.516Zm0,3.242h-6.516v-1.25h6.516Zm11.258-7.547-.555,2.516h-1a4.343,4.343,0,0,0-.141-1.039.783.783,0,0,0-.312-.43,1.115,1.115,0,0,0-.594-.133h-1.961L127.2,11h1.086a1.229,1.229,0,0,0,.527-.1,1.114,1.114,0,0,0,.4-.34,3.066,3.066,0,0,0,.363-.66h.859l-.75,3.172h-.8a3.358,3.358,0,0,0-.055-.7.573.573,0,0,0-.2-.352.884.884,0,0,0-.508-.109H127l-.922,4.172h1.758a2.368,2.368,0,0,0,.535-.047,1.172,1.172,0,0,0,.352-.148,2.079,2.079,0,0,0,.371-.324,3.357,3.357,0,0,0,.418-.562,7.993,7.993,0,0,0,.426-.816H131L130.281,17h-7.43l.109-.516a1.12,1.12,0,0,0,.656-.437,3.7,3.7,0,0,0,.4-1.156l1.422-6.445a4.238,4.238,0,0,0,.1-.914.657.657,0,0,0-.152-.48.852.852,0,0,0-.5-.2L125,6.336ZM135,10.227l.141-.633a2.991,2.991,0,0,0,.762-.078.732.732,0,0,0,.367-.258,2.1,2.1,0,0,0,.277-.7,4.654,4.654,0,0,1,.492-1.23,3.075,3.075,0,0,1,.773-.852,3.131,3.131,0,0,1,1.113-.531,5.492,5.492,0,0,1,1.4-.168,7.323,7.323,0,0,1,1.469.141l-.352,1.563h-1.008a1.585,1.585,0,0,0-.156-.687.426.426,0,0,0-.391-.2.649.649,0,0,0-.508.219,1.772,1.772,0,0,0-.328.594,8.416,8.416,0,0,0-.266.984l-.2.859h1.672l-.211.977h-1.68l-1.414,6.531a5.576,5.576,0,0,1-1.336,2.816,3.134,3.134,0,0,1-2.3.918,2.971,2.971,0,0,1-.539-.039l.188-.875a1.914,1.914,0,0,0,.281.023.854.854,0,0,0,.738-.492,5.342,5.342,0,0,0,.52-1.477l1.672-7.406Zm12.1-4.094L146.7,8.047h-2.023l.43-1.914Zm-1.789,8.406q-.078.328-.105.508a2.719,2.719,0,0,0-.027.406.657.657,0,0,0,.1.422.362.362,0,0,0,.289.117.871.871,0,0,0,.508-.215,4.879,4.879,0,0,0,.664-.652l.563.563a6.133,6.133,0,0,1-1.371,1.109,2.75,2.75,0,0,1-1.332.328,1.6,1.6,0,0,1-1.211-.406,1.731,1.731,0,0,1-.383-1.227,5.263,5.263,0,0,1,.172-1.227l.656-2.719a5.3,5.3,0,0,0,.18-1.172.557.557,0,0,0-.145-.434,1.154,1.154,0,0,0-.605-.176l.117-.516,2.289-.086h.891ZM154,14.93l.633.68a5.291,5.291,0,0,1-1.641,1.168,4.579,4.579,0,0,1-1.8.348,2.348,2.348,0,0,1-1.855-.746,3.023,3.023,0,0,1-.66-2.074,6.336,6.336,0,0,1,.559-2.531A4.218,4.218,0,0,1,150.883,9.8a4.755,4.755,0,0,1,2.563-.68,8.527,8.527,0,0,1,1.133.082,6.434,6.434,0,0,1,1.078.23l-.437,1.906h-1.406q.016-.164.016-.336a1.494,1.494,0,0,0-.172-.816.574.574,0,0,0-.508-.254,1.444,1.444,0,0,0-1.1.664,5.53,5.53,0,0,0-.875,1.844,7.382,7.382,0,0,0-.352,2.07q0,1.469,1.07,1.469a2.235,2.235,0,0,0,1.02-.242A4.931,4.931,0,0,0,154,14.93Zm7.117-8.8-.406,1.914h-2.023l.43-1.914Zm-1.789,8.406q-.078.328-.105.508a2.719,2.719,0,0,0-.027.406.657.657,0,0,0,.1.422.362.362,0,0,0,.289.117.871.871,0,0,0,.508-.215,4.879,4.879,0,0,0,.664-.652l.563.563a6.133,6.133,0,0,1-1.371,1.109,2.75,2.75,0,0,1-1.332.328,1.6,1.6,0,0,1-1.211-.406,1.731,1.731,0,0,1-.383-1.227,5.263,5.263,0,0,1,.172-1.227l.656-2.719a5.3,5.3,0,0,0,.18-1.172.557.557,0,0,0-.145-.434,1.154,1.154,0,0,0-.605-.176l.117-.516,2.289-.086h.891Zm9.875.836a5.328,5.328,0,0,1-1.7,1.32,4.562,4.562,0,0,1-1.973.43,3.448,3.448,0,0,1-1.555-.32,2.128,2.128,0,0,1-.965-.949,3.245,3.245,0,0,1-.324-1.5,6.345,6.345,0,0,1,.109-1.039,6.294,6.294,0,0,1,.453-1.531,4.667,4.667,0,0,1,1-1.422,4.286,4.286,0,0,1,1.449-.914,5.037,5.037,0,0,1,1.824-.32q2.391,0,2.391,1.727a2.217,2.217,0,0,1-.238,1.047,2.291,2.291,0,0,1-.793.82,4.758,4.758,0,0,1-1.566.594,12.6,12.6,0,0,1-2.441.258,4.417,4.417,0,0,0-.1.953,1.681,1.681,0,0,0,.3,1.094,1.129,1.129,0,0,0,.922.367,2.739,2.739,0,0,0,1.242-.277,5.816,5.816,0,0,0,1.3-.988Zm-4.141-2.625a4.149,4.149,0,0,0,2.2-.551,1.645,1.645,0,0,0,.762-1.449.886.886,0,0,0-.184-.605.648.648,0,0,0-.512-.207,1.673,1.673,0,0,0-1.309.719A5.735,5.735,0,0,0,165.063,12.75Zm6.344-1.625-.562-.562a6.021,6.021,0,0,1,1.387-1.117,2.694,2.694,0,0,1,1.277-.32,1.451,1.451,0,0,1,1.035.363,1.252,1.252,0,0,1,.387.957,1.48,1.48,0,0,1-.047.375l.078.063a6.107,6.107,0,0,1,1.395-1.336,2.8,2.8,0,0,1,1.543-.422,1.714,1.714,0,0,1,1.262.453,1.66,1.66,0,0,1,.457,1.234,4.809,4.809,0,0,1-.051.625,6.561,6.561,0,0,1-.121.664l-.617,2.438a3.786,3.786,0,0,0-.133.914.657.657,0,0,0,.1.422.362.362,0,0,0,.289.117.871.871,0,0,0,.508-.215,4.879,4.879,0,0,0,.664-.652l.563.563a6.133,6.133,0,0,1-1.371,1.109,2.75,2.75,0,0,1-1.332.328,1.586,1.586,0,0,1-1.211-.41,1.709,1.709,0,0,1-.383-1.207,6.186,6.186,0,0,1,.227-1.461l.344-1.3q.133-.5.227-.988a4.422,4.422,0,0,0,.094-.8.785.785,0,0,0-.148-.523.527.527,0,0,0-.422-.172,1.392,1.392,0,0,0-.875.453,4.222,4.222,0,0,0-.789.957,4.405,4.405,0,0,0-.469,1.316L173.836,17h-2.242l1.258-5.43a3.751,3.751,0,0,0,.117-.773.767.767,0,0,0-.086-.4.32.32,0,0,0-.3-.141.876.876,0,0,0-.523.219A5,5,0,0,0,171.406,11.125Zm15.75,3.8.633.68a5.291,5.291,0,0,1-1.641,1.168,4.579,4.579,0,0,1-1.8.348,2.348,2.348,0,0,1-1.855-.746,3.023,3.023,0,0,1-.66-2.074,6.336,6.336,0,0,1,.559-2.531A4.218,4.218,0,0,1,184.039,9.8a4.755,4.755,0,0,1,2.563-.68,8.527,8.527,0,0,1,1.133.082,6.434,6.434,0,0,1,1.078.23l-.437,1.906h-1.406q.016-.164.016-.336a1.494,1.494,0,0,0-.172-.816.574.574,0,0,0-.508-.254,1.444,1.444,0,0,0-1.1.664,5.53,5.53,0,0,0-.875,1.844,7.382,7.382,0,0,0-.352,2.07q0,1.469,1.07,1.469a2.235,2.235,0,0,0,1.02-.242A4.931,4.931,0,0,0,187.156,14.93Zm7.117-8.8-.406,1.914h-2.023l.43-1.914Zm-1.789,8.406q-.078.328-.105.508a2.719,2.719,0,0,0-.027.406.657.657,0,0,0,.1.422.362.362,0,0,0,.289.117.871.871,0,0,0,.508-.215,4.879,4.879,0,0,0,.664-.652l.563.563a6.133,6.133,0,0,1-1.371,1.109,2.75,2.75,0,0,1-1.332.328,1.6,1.6,0,0,1-1.211-.406,1.731,1.731,0,0,1-.383-1.227,5.263,5.263,0,0,1,.172-1.227l.656-2.719a5.3,5.3,0,0,0,.18-1.172.557.557,0,0,0-.145-.434,1.154,1.154,0,0,0-.605-.176l.117-.516,2.289-.086h.891Zm10.281.023a3.88,3.88,0,0,0-.117.891.767.767,0,0,0,.086.4.32.32,0,0,0,.3.141.876.876,0,0,0,.523-.219,5,5,0,0,0,.656-.648l.563.563a6.246,6.246,0,0,1-1.414,1.129,2.674,2.674,0,0,1-1.25.309,1.448,1.448,0,0,1-1.039-.363,1.258,1.258,0,0,1-.383-.957,1.48,1.48,0,0,1,.047-.375l-.109-.016a8.434,8.434,0,0,1-.98,1.012,3.164,3.164,0,0,1-.871.52,2.8,2.8,0,0,1-1.023.18,1.676,1.676,0,0,1-1.422-.637,3.026,3.026,0,0,1-.484-1.855,7.406,7.406,0,0,1,.3-2.094,5.51,5.51,0,0,1,.875-1.793,4.05,4.05,0,0,1,1.434-1.187,4.3,4.3,0,0,1,1.957-.434,3.424,3.424,0,0,1,1.984.563l.758-.562.875.125Zm-1.547-2.422a5.457,5.457,0,0,0,.125-1.156,1.31,1.31,0,0,0-.2-.781.742.742,0,0,0-.641-.266,1.614,1.614,0,0,0-1.289.73,5.725,5.725,0,0,0-.906,1.965,8.341,8.341,0,0,0-.344,2.211,1.7,1.7,0,0,0,.168.852.563.563,0,0,0,.52.281,1.564,1.564,0,0,0,1.051-.5,4,4,0,0,0,.863-1.184,8.652,8.652,0,0,0,.586-1.859ZM212.258,12l-2.141.438,1.484,1.9-.859.594-1.219-2.07-1.234,2.07-.859-.594,1.484-1.9L206.758,12l.352-.977,2.047.773-.18-2.375h1.078l-.18,2.375,2.055-.773Zm11.977-5.664-.555,2.516h-1a4.343,4.343,0,0,0-.141-1.039.783.783,0,0,0-.312-.43,1.115,1.115,0,0,0-.594-.133h-1.961L218.844,11h1.086a1.229,1.229,0,0,0,.527-.1,1.114,1.114,0,0,0,.4-.34,3.066,3.066,0,0,0,.363-.66h.859l-.75,3.172h-.8a3.358,3.358,0,0,0-.055-.7.573.573,0,0,0-.2-.352.884.884,0,0,0-.508-.109h-1.109l-.922,4.172h1.758a2.368,2.368,0,0,0,.535-.047,1.172,1.172,0,0,0,.352-.148,2.079,2.079,0,0,0,.371-.324A3.357,3.357,0,0,0,221.16,15a7.993,7.993,0,0,0,.426-.816h1.063L221.93,17H214.5l.109-.516a1.12,1.12,0,0,0,.656-.437,3.7,3.7,0,0,0,.4-1.156l1.422-6.445a4.238,4.238,0,0,0,.1-.914.657.657,0,0,0-.152-.48.852.852,0,0,0-.5-.2l.109-.516Zm2.414,3.891.141-.633a2.991,2.991,0,0,0,.762-.078.732.732,0,0,0,.367-.258,2.1,2.1,0,0,0,.277-.7,4.654,4.654,0,0,1,.492-1.23,3.075,3.075,0,0,1,.773-.852,3.131,3.131,0,0,1,1.113-.531,5.492,5.492,0,0,1,1.4-.168,7.323,7.323,0,0,1,1.469.141l-.352,1.563h-1.008a1.585,1.585,0,0,0-.156-.687.426.426,0,0,0-.391-.2.649.649,0,0,0-.508.219,1.772,1.772,0,0,0-.328.594,8.416,8.416,0,0,0-.266.984l-.2.859h1.672l-.211.977h-1.68l-1.414,6.531a5.576,5.576,0,0,1-1.336,2.816,3.134,3.134,0,0,1-2.3.918,2.971,2.971,0,0,1-.539-.039l.188-.875a1.914,1.914,0,0,0,.281.023.854.854,0,0,0,.738-.492,5.342,5.342,0,0,0,.52-1.477l1.672-7.406Zm12.1-4.094-.406,1.914H236.32l.43-1.914Zm-1.789,8.406q-.078.328-.105.508a2.719,2.719,0,0,0-.027.406.657.657,0,0,0,.1.422.362.362,0,0,0,.289.117.871.871,0,0,0,.508-.215,4.879,4.879,0,0,0,.664-.652l.563.563a6.133,6.133,0,0,1-1.371,1.109,2.75,2.75,0,0,1-1.332.328,1.6,1.6,0,0,1-1.211-.406,1.731,1.731,0,0,1-.383-1.227,5.263,5.263,0,0,1,.172-1.227l.656-2.719a5.3,5.3,0,0,0,.18-1.172.557.557,0,0,0-.145-.434,1.154,1.154,0,0,0-.605-.176l.117-.516,2.289-.086h.891Zm8.688.391.633.68a5.291,5.291,0,0,1-1.641,1.168,4.579,4.579,0,0,1-1.8.348,2.348,2.348,0,0,1-1.855-.746,3.023,3.023,0,0,1-.66-2.074,6.336,6.336,0,0,1,.559-2.531A4.218,4.218,0,0,1,242.531,9.8a4.755,4.755,0,0,1,2.563-.68,8.527,8.527,0,0,1,1.133.082,6.434,6.434,0,0,1,1.078.23l-.437,1.906h-1.406q.016-.164.016-.336a1.494,1.494,0,0,0-.172-.816.574.574,0,0,0-.508-.254,1.444,1.444,0,0,0-1.1.664,5.53,5.53,0,0,0-.875,1.844,7.382,7.382,0,0,0-.352,2.07q0,1.469,1.07,1.469a2.235,2.235,0,0,0,1.02-.242A4.931,4.931,0,0,0,245.648,14.93Zm9.672-.367a3.88,3.88,0,0,0-.117.891.767.767,0,0,0,.086.4.32.32,0,0,0,.3.141.876.876,0,0,0,.523-.219,5,5,0,0,0,.656-.648l.563.563a6.246,6.246,0,0,1-1.414,1.129,2.674,2.674,0,0,1-1.25.309,1.448,1.448,0,0,1-1.039-.363,1.258,1.258,0,0,1-.383-.957,1.48,1.48,0,0,1,.047-.375l-.109-.016a8.434,8.434,0,0,1-.98,1.012,3.164,3.164,0,0,1-.871.52,2.8,2.8,0,0,1-1.023.18,1.676,1.676,0,0,1-1.422-.637,3.026,3.026,0,0,1-.484-1.855,7.406,7.406,0,0,1,.3-2.094,5.51,5.51,0,0,1,.875-1.793,4.05,4.05,0,0,1,1.434-1.187,4.3,4.3,0,0,1,1.957-.434,3.424,3.424,0,0,1,1.984.563l.758-.562.875.125Zm-1.547-2.422a5.457,5.457,0,0,0,.125-1.156,1.31,1.31,0,0,0-.2-.781.742.742,0,0,0-.641-.266,1.614,1.614,0,0,0-1.289.73,5.725,5.725,0,0,0-.906,1.965,8.341,8.341,0,0,0-.344,2.211,1.7,1.7,0,0,0,.168.852.563.563,0,0,0,.52.281,1.564,1.564,0,0,0,1.051-.5,4,4,0,0,0,.863-1.184,8.652,8.652,0,0,0,.586-1.859Zm9.891,2.789.633.68a5.291,5.291,0,0,1-1.641,1.168,4.579,4.579,0,0,1-1.8.348A2.348,2.348,0,0,1,259,16.379a3.023,3.023,0,0,1-.66-2.074,6.336,6.336,0,0,1,.559-2.531A4.218,4.218,0,0,1,260.547,9.8a4.755,4.755,0,0,1,2.563-.68,8.526,8.526,0,0,1,1.133.082,6.434,6.434,0,0,1,1.078.23l-.437,1.906h-1.406q.016-.164.016-.336a1.494,1.494,0,0,0-.172-.816.574.574,0,0,0-.508-.254,1.444,1.444,0,0,0-1.1.664,5.53,5.53,0,0,0-.875,1.844,7.382,7.382,0,0,0-.352,2.07q0,1.469,1.07,1.469a2.235,2.235,0,0,0,1.02-.242A4.931,4.931,0,0,0,263.664,14.93Zm7.117-8.8-.406,1.914h-2.023l.43-1.914Zm-1.789,8.406q-.078.328-.105.508a2.721,2.721,0,0,0-.027.406.657.657,0,0,0,.1.422.362.362,0,0,0,.289.117.871.871,0,0,0,.508-.215,4.88,4.88,0,0,0,.664-.652l.563.563a6.132,6.132,0,0,1-1.371,1.109,2.75,2.75,0,0,1-1.332.328,1.6,1.6,0,0,1-1.211-.406,1.731,1.731,0,0,1-.383-1.227,5.262,5.262,0,0,1,.172-1.227l.656-2.719a5.3,5.3,0,0,0,.18-1.172.557.557,0,0,0-.145-.434,1.154,1.154,0,0,0-.605-.176l.117-.516,2.289-.086h.891Zm10.281.023a3.88,3.88,0,0,0-.117.891.767.767,0,0,0,.086.4.32.32,0,0,0,.3.141.876.876,0,0,0,.523-.219,5,5,0,0,0,.656-.648l.563.563a6.246,6.246,0,0,1-1.414,1.129,2.674,2.674,0,0,1-1.25.309,1.448,1.448,0,0,1-1.039-.363,1.258,1.258,0,0,1-.383-.957,1.48,1.48,0,0,1,.047-.375l-.109-.016a8.435,8.435,0,0,1-.98,1.012,3.164,3.164,0,0,1-.871.52,2.8,2.8,0,0,1-1.023.18,1.676,1.676,0,0,1-1.422-.637,3.026,3.026,0,0,1-.484-1.855,7.406,7.406,0,0,1,.3-2.094,5.51,5.51,0,0,1,.875-1.793,4.05,4.05,0,0,1,1.434-1.187,4.3,4.3,0,0,1,1.957-.434,3.424,3.424,0,0,1,1.984.563l.758-.562.875.125Zm-1.547-2.422a5.456,5.456,0,0,0,.125-1.156,1.309,1.309,0,0,0-.2-.781.742.742,0,0,0-.641-.266,1.614,1.614,0,0,0-1.289.73,5.725,5.725,0,0,0-.906,1.965,8.341,8.341,0,0,0-.344,2.211,1.7,1.7,0,0,0,.168.852.563.563,0,0,0,.52.281,1.564,1.564,0,0,0,1.051-.5,4,4,0,0,0,.863-1.184,8.652,8.652,0,0,0,.586-1.859Z" transform="translate(360 4280)" fill="#9b1f36"/>
  </g>
</svg>
