<svg xmlns="http://www.w3.org/2000/svg" xmlns:xlink="http://www.w3.org/1999/xlink" width="295" height="199" viewBox="0 0 295 199">
  <defs>
    <clipPath id="clip-path">
      <rect id="Rectángulo_345003" data-name="Rectángulo 345003" width="186.411" height="161.866" fill="none"/>
    </clipPath>
    <clipPath id="clip-path-2">
      <rect id="Rectángulo_345002" data-name="Rectángulo 345002" width="186.41" height="161.866" fill="none"/>
    </clipPath>
    <clipPath id="clip-path-3">
      <rect id="Rectángulo_345001" data-name="Rectángulo 345001" width="21.768" height="45.636" fill="none"/>
    </clipPath>
  </defs>
  <g id="Grupo_987234" data-name="Grupo 987234" transform="translate(-600 -1511)">
    <rect id="Rectángulo_344859" data-name="Rectángulo 344859" width="295" height="199" transform="translate(600 1511)" fill="#f5e6e9"/>
    <g id="Grupo_987186" data-name="Grupo 987186" transform="translate(654 1530)">
      <g id="Grupo_987185" data-name="Grupo 987185" clip-path="url(#clip-path)">
        <g id="Grupo_987184" data-name="Grupo 987184">
          <g id="Grupo_987183" data-name="Grupo 987183" clip-path="url(#clip-path-2)">
            <path id="Trazado_731162" data-name="Trazado 731162" d="M100.651,42.691C97.146,17.826,76.906-.035,53.82,0V10.25C72.18,10.226,88.277,24.438,91.064,44.2,94.132,65.962,79.946,86.23,59.375,89.472a35.453,35.453,0,0,1-5.555.439v10.242a44.6,44.6,0,0,0,6.985-.541c25.867-4.081,43.705-29.566,39.847-56.92" transform="translate(83.08 0)" fill="#cc2221"/>
            <path id="Trazado_731163" data-name="Trazado 731163" d="M45.315,55.957C42.25,34.2,56.431,13.933,77.007,10.7a36.049,36.049,0,0,1,5.553-.447V0a45.009,45.009,0,0,0-6.985.546C49.711,4.63,31.872,30.117,35.726,57.474c3.508,24.869,23.745,42.713,46.834,42.681V89.91C64.2,89.935,48.106,75.736,45.315,55.957" transform="translate(54.34)" fill="#cc2221"/>
            <path id="Trazado_731164" data-name="Trazado 731164" d="M81.475,39.283c2.279,16.141-8.254,31.193-23.526,33.606a26.248,26.248,0,0,1-4.128.326V83.471a35.453,35.453,0,0,0,5.555-.439c20.571-3.242,34.757-23.51,31.689-45.266C88.277,18,72.18,3.786,53.82,3.81V14.063C67.457,14.044,79.4,24.584,81.475,39.283" transform="translate(83.08 6.44)" fill="#fefeff"/>
            <path id="Trazado_731165" data-name="Trazado 731165" d="M39.431,49.517C42.221,69.3,58.318,83.495,76.675,83.471V73.218c-13.637.019-25.584-10.53-27.655-25.213C46.739,31.848,57.28,16.8,72.552,14.4a25.249,25.249,0,0,1,4.123-.334V3.81a36.049,36.049,0,0,0-5.553.447c-20.576,3.236-34.757,23.5-31.692,45.261" transform="translate(60.225 6.44)" fill="#fefeff"/>
            <path id="Trazado_731166" data-name="Trazado 731166" d="M54.93,39.7c-1.3-9.273,4.736-17.893,13.5-19.281a16.775,16.775,0,0,1,2.361-.18V7.621a25.3,25.3,0,0,0-4.123.334C51.394,10.362,40.856,25.406,43.135,41.561,45.208,56.247,57.156,66.8,70.79,66.777V54.154c-7.814.016-14.667-6.037-15.86-14.449" transform="translate(66.108 12.881)" fill="#cc2221"/>
            <path id="Trazado_731167" data-name="Trazado 731167" d="M81.475,32.842C79.4,18.143,67.457,7.6,53.82,7.621v12.62c7.819-.005,14.667,6.029,15.857,14.463,1.307,9.257-4.734,17.89-13.489,19.27a15.1,15.1,0,0,1-2.368.18v12.62a26.248,26.248,0,0,0,4.128-.326c15.272-2.413,25.805-17.465,23.526-33.606" transform="translate(83.08 12.881)" fill="#cc2221"/>
            <path id="Trazado_731168" data-name="Trazado 731168" d="M61.932,28a8.612,8.612,0,0,1-6.9,9.852,7.045,7.045,0,0,1-1.208.089v8.286a15.059,15.059,0,0,0,2.366-.178c8.758-1.383,14.8-10.016,13.492-19.27-1.193-8.437-8.038-14.468-15.857-14.463v8.281A8.368,8.368,0,0,1,61.932,28" transform="translate(83.08 20.812)" fill="#fefeff"/>
            <path id="Trazado_731169" data-name="Trazado 731169" d="M47.691,31.774c1.193,8.412,8.046,14.465,15.86,14.449V37.938a8.351,8.351,0,0,1-8.107-7.387,8.618,8.618,0,0,1,6.9-9.868,8.744,8.744,0,0,1,1.206-.089V12.313a16.775,16.775,0,0,0-2.361.18c-8.763,1.388-14.8,10.008-13.5,19.281" transform="translate(73.347 20.812)" fill="#fefeff"/>
            <path id="Trazado_731170" data-name="Trazado 731170" d="M57.589,15.48a8.618,8.618,0,0,0-6.9,9.868A8.352,8.352,0,0,0,58.8,32.735V15.391a8.751,8.751,0,0,0-1.208.089" transform="translate(78.103 26.014)" fill="#cc2221"/>
            <path id="Trazado_731171" data-name="Trazado 731171" d="M61.932,22.795a8.368,8.368,0,0,0-8.112-7.4V32.735a7.045,7.045,0,0,0,1.208-.089,8.612,8.612,0,0,0,6.9-9.852" transform="translate(83.08 26.014)" fill="#cc2221"/>
            <path id="Trazado_731172" data-name="Trazado 731172" d="M73.573,26.472l-6.5-4.719-5.708,2.01,6.321,4.6Z" transform="translate(94.729 36.769)" fill="#fdb813"/>
            <path id="Trazado_731173" data-name="Trazado 731173" d="M86.575,32l-11.65-8.488L64.674,27.137l11.342,8.246Z" transform="translate(99.836 39.734)" fill="#fdb813"/>
            <path id="Trazado_731174" data-name="Trazado 731174" d="M75.648,46.426,64,37.941l-.468-11.423,11.34,8.256Z" transform="translate(98.072 44.822)" fill="#fdb813"/>
            <path id="Trazado_731175" data-name="Trazado 731175" d="M67.063,35.407l-6.5-4.724-.252-6.37,6.318,4.611Z" transform="translate(93.106 41.094)" fill="#fdb813"/>
            <path id="Trazado_731176" data-name="Trazado 731176" d="M98.971,52.065a3.008,3.008,0,0,0-.71-4.049L56.924,18.082s-1.821-1.431-3.406.847a2.678,2.678,0,0,0,.476,3.661L95.13,52.81a2.666,2.666,0,0,0,3.841-.745" transform="translate(81.772 29.813)" fill="#1e2d4f"/>
            <path id="Rectángulo_344996" data-name="Rectángulo 344996" d="M2.751,0H122.394a2.749,2.749,0,0,1,2.749,2.749V129.611a2.749,2.749,0,0,1-2.749,2.749H2.751A2.751,2.751,0,0,1,0,129.609V2.751A2.751,2.751,0,0,1,2.751,0Z" transform="translate(35.836 29.506)" fill="#c5d5e6"/>
            <path id="Rectángulo_344997" data-name="Rectángulo 344997" d="M2.749,0H122.393a2.75,2.75,0,0,1,2.75,2.75V129.61a2.75,2.75,0,0,1-2.75,2.75H2.749A2.749,2.749,0,0,1,0,129.611V2.749A2.749,2.749,0,0,1,2.749,0Z" transform="translate(28.379 29.506)" fill="#fff"/>
            <rect id="Rectángulo_344998" data-name="Rectángulo 344998" width="26.332" height="41.136" transform="translate(51.062 105.309)" fill="#f4cd25"/>
            <rect id="Rectángulo_344999" data-name="Rectángulo 344999" width="26.337" height="59.051" transform="translate(82.6 87.395)" fill="#ff4140"/>
            <rect id="Rectángulo_345000" data-name="Rectángulo 345000" width="26.335" height="78.595" transform="translate(114.147 67.85)" fill="#14b0bf"/>
            <path id="Trazado_731177" data-name="Trazado 731177" d="M128.434,129.608H17.113a2.515,2.515,0,0,1-2.439-2.58V17.689a2.443,2.443,0,1,1,4.879,0V124.454H128.434a2.581,2.581,0,0,1,0,5.154" transform="translate(22.652 25.538)" fill="#17283d"/>
            <path id="Trazado_731178" data-name="Trazado 731178" d="M21.822,61.834,19.647,59.37,48.541,30.9,66.723,46.188l31.259-30.6,2.167,2.475L66.881,50.624,48.7,35.346Z" transform="translate(30.329 26.35)" fill="#ff4140"/>
            <path id="Trazado_731179" data-name="Trazado 731179" d="M57.273,26.453,61.035,13.6l-12.4,2.975Z" transform="translate(75.075 22.995)" fill="#ff4140"/>
            <path id="Trazado_731180" data-name="Trazado 731180" d="M9.67,52.483l.585.592,2.46,2.464.928.931c.183.175.537.075.8-.237l.277-.331.6-.708,1.2-1.426.321-.379.132-.159h.005l3.447-4.084.3-.347,2.689-3.185.435-.519a.539.539,0,0,0,.074-.7l-.672-.673L20.8,41.259l-.28-.28a.484.484,0,0,0-.659.113l-.689.729-1.257,1.318L16.22,44.923,13.6,47.675l-1.056,1.114-.478.506-1.282,1.353-.641.67-.3.309c-.275.293-.351.678-.176.855" transform="translate(14.782 69.116)" fill="#1a222b"/>
            <path id="Trazado_731181" data-name="Trazado 731181" d="M8.532,48.856l.982.982,2.457,2.47,1.313,1.313c.163.164.527.043.806-.269l.348-.39,2.406-2.682.114-.132c.275-.309.369-.7.209-.858l-.109-.108-1.213-1.219-2.457-2.47-.867-.855-.107-.116c-.16-.164-.524-.04-.8.272l-.114.124-1.035,1.159-1.72,1.915c-.277.312-.374.7-.211.864" transform="translate(13.048 75.129)" fill="#4f5f70"/>
            <path id="Trazado_731182" data-name="Trazado 731182" d="M.1,70.782,1.814,72.5l2.457,2.467h.005l2.093,2.106c.28.272,1.023-.086,1.646-.81l19.93-22.9L29.5,51.5c.465-.543.649-1.184.4-1.426l-.015-.016-.384-.39-1.234-1.232-.053-.054L25.813,45.97l-.048-.051-.834-.834-.387-.387-.018-.019c-.239-.242-.829-.027-1.313.49l-.01.016L.773,69c-.646.7-.949,1.5-.669,1.781" transform="translate(0 75.349)" fill="#cc2221"/>
            <path id="Trazado_731183" data-name="Trazado 731183" d="M10.557,47.077l.824.829,2.455,2.464,1.178,1.178.321-.379.132-.156h.005l3.447-4.086.3-.347.158-.191-.7-.7-.343-.344-2.46-2.462-.672-.673-.481.5-2.62,2.755-1.058,1.108Z" transform="translate(16.296 71.336)" fill="#4f5f70"/>
            <path id="Trazado_731184" data-name="Trazado 731184" d="M10.586,46.166l.588.6.809.807,2.462,2.462.42.422.748.751.59.6c.193.191.562.113.817-.172L19.644,48.7a.66.66,0,0,0,.12-.869l-.7-.7L18,46.061l-2.457-2.467-.687-.689,0,0-.7-.708c-.193-.191-.56-.121-.819.169l-1.7,1.894L10.7,45.3a.65.65,0,0,0-.112.864" transform="translate(16.156 71.139)" fill="#cc2221"/>
            <path id="Trazado_731185" data-name="Trazado 731185" d="M.713,71.654l2.457,2.47h.005L27.119,47.541l-2.4-2.41-.051-.054Z" transform="translate(1.101 76.191)" fill="#ff4140"/>
            <path id="Trazado_731186" data-name="Trazado 731186" d="M15.209,59.188c-.076-.269-.148-.543-.209-.812-.1-.428-.2-.864-.275-1.3-.061-.3-.114-.6-.158-.907-.01-.073-.02-.143-.025-.213a.246.246,0,0,1-.01-.07,26.627,26.627,0,0,1-.229-5.033v-.005c.013-.285.036-.573.061-.864s.043-.562.079-.842a26.43,26.43,0,0,1,.605-3.39c.094-.374.191-.753.3-1.127.122-.4.247-.8.387-1.2.226-.643.465-1.272.74-1.88.041-.1.081-.2.127-.3.089-.2.181-.39.272-.581.048-.1.1-.2.145-.3A24.718,24.718,0,0,1,18.3,38.1c.053-.078.1-.156.148-.226.074-.118.153-.229.226-.342.066-.091.13-.188.193-.282a2.518,2.518,0,0,1,.206-.288,24.437,24.437,0,0,1,3.091-3.581A23.928,23.928,0,0,1,27.734,29.4a22.714,22.714,0,0,1,12.517-2.448,22.466,22.466,0,0,1,3.658.632A23.98,23.98,0,0,1,58.131,38.167c.031.054.069.108.1.161.117.191.229.379.338.568.181.315.359.635.529.955.043.078.086.159.125.242.16.307.313.613.455.939.041.073.079.156.117.242.188.42.369.853.537,1.289.145.363.272.726.4,1.095.178.522.338,1.055.486,1.585a26.686,26.686,0,0,1,.9,6.669v.156c.008.237,0,.468-.005.7s-.013.473-.025.7c-.008.091-.01.175-.018.264s-.008.156-.01.231c-.01.121-.018.242-.028.369-.008.089-.018.178-.028.269-.074.8-.176,1.582-.321,2.357-.089.5-.193,1-.31,1.48-.013.043-.023.083-.033.124a25.05,25.05,0,0,1-1.03,3.255,2.724,2.724,0,0,1-.107.266v.005l-.01.019c0,.013-.005.016-.01.027-.079.2-.155.4-.242.589-.043.1-.094.213-.14.32-.028.048-.048.1-.074.148-.2.43-.4.855-.623,1.27-.249.476-.516.947-.8,1.4-.211.352-.438.694-.664,1.03-.178.264-.356.519-.544.772-.041.062-.086.116-.127.172l-.018.03q-.549.726-1.142,1.412c-.076.089-.153.172-.231.253-.043.056-.084.1-.13.153-.14.156-.282.307-.432.457a23.638,23.638,0,0,1-2.147,1.985c-.29.25-.593.487-.9.713a.788.788,0,0,1-.094.07,5.211,5.211,0,0,1-.376.277c-.529.371-1.071.716-1.62,1.049a.235.235,0,0,0-.056.032c-.1.059-.2.118-.3.169-.338.2-.687.379-1.033.557-.094.046-.193.1-.3.143s-.188.094-.285.14q-.813.387-1.658.7c-.168.07-.336.129-.5.186l-.031.008c-.155.056-.305.108-.46.167-.176.051-.351.108-.529.156-.059.022-.125.035-.178.059-.094.022-.193.051-.29.078-.127.035-.257.07-.387.11-.1.019-.2.046-.293.07a21.354,21.354,0,0,1-2.116.406.235.235,0,0,1-.069.013h-.025c-.211.027-.425.056-.646.083-.13.013-.257.03-.384.038-.1.008-.2.019-.293.03-.282.022-.567.038-.857.054-.315.011-.626.019-.939.019-.1,0-.2,0-.3,0-.247,0-.5-.013-.75-.024-.282-.016-.562-.032-.839-.054-.076-.005-.148-.013-.224-.016l-.036-.008c-.45-.043-.9-.1-1.351-.167-.661-.1-1.3-.229-1.943-.379-.328-.086-.651-.169-.972-.261a.591.591,0,0,1-.089-.03c-.486-.14-.962-.3-1.432-.468-.064-.03-.127-.046-.191-.075h0a.2.2,0,0,0-.064-.016c-.089-.04-.181-.075-.272-.118a2.331,2.331,0,0,1-.257-.1c-.493-.2-.977-.417-1.455-.654A1.48,1.48,0,0,1,27.9,75c-.1-.048-.211-.1-.313-.153-.076-.048-.158-.081-.234-.126-.448-.245-.89-.5-1.323-.767-.148-.094-.3-.188-.44-.282-.074-.048-.142-.091-.211-.14-.412-.282-.822-.57-1.211-.874-.086-.065-.176-.129-.262-.2-.046-.04-.1-.075-.14-.11-.066-.054-.13-.11-.193-.164-.28-.223-.549-.457-.822-.7-.092-.083-.191-.169-.282-.261-.043-.038-.084-.078-.127-.116l-.237-.231c-.041-.032-.081-.075-.117-.108a.772.772,0,0,1-.064-.067c-.346-.331-.682-.681-1-1.044-.114-.126-.221-.247-.333-.371-.053-.059-.109-.124-.163-.188-.313-.366-.613-.742-.908-1.133-.1-.135-.2-.264-.3-.4-.051-.062-.1-.137-.148-.2-.282-.4-.555-.8-.814-1.219-.061-.1-.12-.2-.178-.288-.025-.051-.061-.1-.086-.143l-.01-.019c-.038-.062-.079-.135-.117-.2-.066-.118-.137-.234-.2-.355-.094-.161-.186-.331-.272-.5q-.191-.343-.366-.694c-.092-.183-.176-.366-.265-.546-.071-.156-.148-.317-.216-.476-.211-.473-.407-.947-.588-1.439a22.547,22.547,0,0,1-.753-2.311m.384,10.374a30.521,30.521,0,0,0,2.554,3.2c.186.2.382.412.575.613A28.825,28.825,0,0,0,21.3,75.709c.361.3.722.568,1.1.842.221.156.438.315.661.465a27.06,27.06,0,0,0,2.409,1.466c.753.412,1.536.786,2.333,1.13a27.618,27.618,0,0,0,3.79,1.278c.145.032.287.073.432.1.216.054.432.1.651.151q.817.165,1.648.3l.051.011c.323.046.651.083.982.121.145.016.293.03.438.043.079.005.155.008.231.019.45.035.9.062,1.346.078.127,0,.262.011.392.011s.239,0,.351,0c.059,0,.109,0,.16,0,.478,0,.951-.016,1.43-.038.033,0,.066,0,.1-.008.206-.013.407-.032.616-.048.051,0,.1-.008.148-.011.109-.011.224-.019.328-.032.7-.065,1.386-.169,2.06-.285.038-.011.076-.019.117-.027.209-.038.425-.083.628-.121.1-.027.211-.046.308-.075a2.808,2.808,0,0,0,.3-.067h.018c.7-.169,1.386-.36,2.063-.581.1-.03.188-.059.282-.094.216-.067.432-.148.644-.221.1-.043.206-.073.3-.113.28-.1.552-.213.824-.331.125-.051.254-.1.379-.156.239-.1.476-.215.71-.326.542-.256,1.071-.519,1.592-.812.338-.183.674-.379,1-.584a25.616,25.616,0,0,0,2.409-1.644c.061-.043.122-.094.181-.137v-.005c.247-.191.483-.379.722-.576a26.866,26.866,0,0,0,2.149-1.977c.206-.207.4-.412.6-.63.071-.07.135-.148.209-.221a28.822,28.822,0,0,0,1.885-2.314c.239-.326.471-.648.7-.985.575-.855,1.112-1.754,1.608-2.674.2-.377.392-.759.575-1.149a30.023,30.023,0,0,0,1.272-3.1c.155-.439.3-.88.432-1.332.122-.422.242-.845.348-1.272.1-.387.188-.775.265-1.168A31.171,31.171,0,0,0,66.05,54.7a31.946,31.946,0,0,0-.061-5.779c-.053-.5-.114-1-.193-1.49-.1-.664-.226-1.329-.364-1.975l0,0c-.01-.046-.015-.075-.028-.118a30.911,30.911,0,0,0-1.87-5.7A30.052,30.052,0,0,0,58,31.3a28.366,28.366,0,0,0-5.766-4.716A26.767,26.767,0,0,0,40.6,22.7a26.312,26.312,0,0,0-9.188.764,26.833,26.833,0,0,0-5.988,2.386,28.673,28.673,0,0,0-9.607,8.576,29.882,29.882,0,0,0-2.383,3.987c-.285.573-.555,1.154-.8,1.751-.089.207-.173.422-.252.632a30.468,30.468,0,0,0-1.829,6.968c-.084.611-.16,1.224-.206,1.848-.025.288-.043.576-.059.864-.018.256-.028.517-.036.777-.008.328-.013.659-.013.993,0,.718.025,1.447.081,2.163a30.536,30.536,0,0,0,.392,3.185c.158.893.351,1.773.588,2.636a30.431,30.431,0,0,0,4.294,9.33" transform="translate(15.806 38.179)" fill="#4f5f70"/>
            <path id="Trazado_731187" data-name="Trazado 731187" d="M13.288,59.462h0c.1.28.2.56.315.839.051.137.1.264.155.4.2.479.412.955.636,1.415A24.805,24.805,0,0,0,32.836,76.161c.481.073.962.135,1.447.183.089.005.168.013.249.016.618.051,1.231.075,1.844.073a21.492,21.492,0,0,0,2.5-.126,23.543,23.543,0,0,0,2.854-.482,24.079,24.079,0,0,0,2.338-.675c.2-.073.407-.14.608-.223a23.829,23.829,0,0,0,6.044-3.341,25.978,25.978,0,0,0,8.8-12.093c.165-.455.318-.915.45-1.388a26.429,26.429,0,0,0,.847-3.869V54.23q.114-.763.178-1.544c.008-.062.015-.116.018-.167.008-.094.015-.18.018-.272.025-.291.043-.57.051-.855A27.546,27.546,0,0,0,59.9,42.145l-.005,0c-.031-.1-.064-.207-.1-.312v0c-.071-.218-.15-.439-.219-.659-.176-.487-.356-.974-.56-1.453-.059-.143-.122-.293-.183-.441a.462.462,0,0,1-.038-.081c-.1-.218-.2-.433-.3-.651-.231-.487-.471-.958-.735-1.426A24.928,24.928,0,0,0,43.151,25.095a23.511,23.511,0,0,0-17.7,1.733A25.311,25.311,0,0,0,16.165,35.3c-.048.07-.1.148-.148.226a24.186,24.186,0,0,0-1.338,2.324c-.069.126-.13.25-.2.382A26.692,26.692,0,0,0,13.392,40.8a27.774,27.774,0,0,0-.608,17.1c.153.527.318,1.047.5,1.56M37.313,25.181h0c.2.013.389.024.585.048a22.714,22.714,0,0,1,16.333,9.448q.542.738,1.023,1.517l.028.048c.244.39.476.794.7,1.2.041.075.086.153.13.239.2.377.4.769.575,1.168a25.349,25.349,0,0,1,2.287,8.91c.036.508.053,1.022.061,1.536v.449c0,.242-.008.482-.015.721-.013.406-.038.81-.071,1.227a25.714,25.714,0,0,1-.532,3.519c-.183.812-.4,1.609-.654,2.389a22.567,22.567,0,0,1-.88,2.279,18.979,18.979,0,0,1-.872,1.8c-.2.39-.42.756-.641,1.125a23.849,23.849,0,0,1-2.617,3.538,23.436,23.436,0,0,1-1.775,1.794c-.5.455-1.012.882-1.552,1.291-.13.1-.262.2-.4.3-.605.438-1.224.845-1.862,1.221q-.9.533-1.844.977c-.6.282-1.2.533-1.821.761-.221.083-.438.161-.654.226-.486.161-.969.3-1.463.43A21.629,21.629,0,0,1,34.533,74c-.2-.011-.407-.03-.608-.043a22.424,22.424,0,0,1-12.95-5.7c-.376-.342-.743-.691-1.1-1.057A24.705,24.705,0,0,1,14.4,58.564c-.186-.487-.354-.985-.5-1.488-.064-.2-.125-.414-.181-.621l-.005,0c-.033-.143-.079-.282-.107-.428v0c-.13-.49-.242-.982-.343-1.485a25.943,25.943,0,0,1-.382-7.051,25.358,25.358,0,0,1,1.2-5.945A24.753,24.753,0,0,1,16.4,36.455c.277-.465.572-.912.878-1.353.071-.113.15-.218.226-.328h0a22.621,22.621,0,0,1,19.8-9.593" transform="translate(18.091 40.749)" fill="#243242"/>
            <g id="Grupo_987182" data-name="Grupo 987182" transform="translate(54.446 67.216)" opacity="0.34">
              <g id="Grupo_987181" data-name="Grupo 987181">
                <g id="Grupo_987180" data-name="Grupo 987180" clip-path="url(#clip-path-3)">
                  <path id="Trazado_731188" data-name="Trazado 731188" d="M41.385,57.093a23.9,23.9,0,0,0,1.048-14.912c-1.4-5.251-3.645-10.094-7.951-13.249a21.12,21.12,0,0,0-6.433-3.185,20.023,20.023,0,0,0-3.391-.683c-.862-.089-2.506.256-3.253-.078a25.411,25.411,0,0,1,10.238,7.627,19.585,19.585,0,0,1,3.037,15.926,18.158,18.158,0,0,1-3.52,7.355c-1.9,2.324-4.713,3.274-6.614,5.485a8.777,8.777,0,0,0-2.366,5.146c-.31,5.881,6.354,4.221,9.376,2.41a24.239,24.239,0,0,0,9.829-11.842" transform="translate(-21.405 -24.986)" fill="#f0f1f1"/>
                </g>
              </g>
            </g>
          </g>
        </g>
      </g>
    </g>
  </g>
</svg>
