<svg xmlns="http://www.w3.org/2000/svg" xmlns:xlink="http://www.w3.org/1999/xlink" width="399.934" height="592.417" viewBox="0 0 399.934 592.417">
  <defs>
    <clipPath id="clip-path">
      <rect id="Rectángulo_345004" data-name="Rectángulo 345004" width="389.725" height="531.203" fill="none"/>
    </clipPath>
  </defs>
  <g id="Grupo_987193" data-name="Grupo 987193" transform="translate(-180 -1754)">
    <rect id="Rectángulo_33816" data-name="Rectángulo 33816" width="252" height="286" rx="24" transform="translate(180 1754)" fill="#fed8c7"/>
    <rect id="AdobeStock_31320034" width="303" height="549" rx="24" transform="translate(244 1797)" fill="#dee9f0"/>
    <g id="Grupo_987191" data-name="Grupo 987191" transform="translate(228.109 1780.312)">
      <g id="Grupo_987190" data-name="Grupo 987190">
        <g id="Grupo_987192" data-name="Grupo 987192">
          <path id="Trazado_731231" data-name="Trazado 731231" d="M329.324,259.787H10.875A10.875,10.875,0,0,1,0,248.911V17.625A10.876,10.876,0,0,1,10.875,6.75H329.324A10.876,10.876,0,0,1,340.2,17.625V248.911a10.875,10.875,0,0,1-10.875,10.876" transform="translate(0 0.591)" fill="#ff6e33"/>
          <path id="Trazado_731232" data-name="Trazado 731232" d="M339.324,253.787H20.875A10.875,10.875,0,0,1,10,242.911V11.625A10.876,10.876,0,0,1,20.875.75H339.324A10.876,10.876,0,0,1,350.2,11.625V242.911a10.875,10.875,0,0,1-10.875,10.875" transform="translate(0.875 0.066)" fill="#fcfbff"/>
          <rect id="Rectángulo_345005" data-name="Rectángulo 345005" width="340.199" height="253.037" rx="10" transform="translate(10.875 0.816)" fill="none" stroke="#ff6e33" stroke-linecap="round" stroke-linejoin="round" stroke-width="1.5"/>
          <rect id="Rectángulo_345006" data-name="Rectángulo 345006" width="35.345" height="58.931" transform="translate(128.448 108.031)" fill="#1574dd"/>
          <rect id="Rectángulo_345007" data-name="Rectángulo 345007" width="35.345" height="87.374" transform="translate(260.925 79.588)" fill="#1574dd"/>
          <rect id="Rectángulo_345008" data-name="Rectángulo 345008" width="35.345" height="75.879" transform="translate(192.432 91.082)" fill="#ffac00"/>
          <line id="Línea_162" data-name="Línea 162" x2="192.102" transform="translate(116.621 166.962)" fill="none" stroke="#1574dd" stroke-miterlimit="10" stroke-width="1.5"/>
          <path id="Trazado_731233" data-name="Trazado 731233" d="M102.951,55A37.518,37.518,0,0,0,68.98,33.417v37.52Z" transform="translate(6.039 2.926)" fill="#ffac00"/>
          <path id="Trazado_731234" data-name="Trazado 731234" d="M102.951,55A37.518,37.518,0,0,0,68.98,33.417v37.52Z" transform="translate(6.039 2.926)" fill="none" stroke="#b5e1ff" stroke-linecap="round" stroke-linejoin="round" stroke-width="1.5"/>
          <circle id="Elipse_4731" data-name="Elipse 4731" cx="37.52" cy="37.52" r="37.52" transform="translate(37.498 36.343)" fill="none" stroke="#b5e1ff" stroke-linecap="round" stroke-linejoin="round" stroke-width="1.5"/>
          <rect id="Rectángulo_345009" data-name="Rectángulo 345009" width="37.116" height="5.71" transform="translate(126.678 27.098)" fill="#ffac00"/>
          <rect id="Rectángulo_345010" data-name="Rectángulo 345010" width="58.867" height="5.71" transform="translate(126.678 38.518)" fill="#b5e1ff"/>
          <rect id="Rectángulo_345011" data-name="Rectángulo 345011" width="58.867" height="5.71" transform="translate(126.678 48.034)" fill="#b5e1ff"/>
          <rect id="Rectángulo_345012" data-name="Rectángulo 345012" width="37.116" height="5.71" transform="translate(128.448 179.559)" fill="#ffac00"/>
          <rect id="Rectángulo_345013" data-name="Rectángulo 345013" width="58.867" height="5.71" transform="translate(128.448 190.978)" fill="#b5e1ff"/>
          <rect id="Rectángulo_345014" data-name="Rectángulo 345014" width="37.116" height="5.71" transform="translate(128.448 200.494)" fill="#b5e1ff"/>
          <rect id="Rectángulo_345015" data-name="Rectángulo 345015" width="37.116" height="5.71" transform="translate(219.731 179.559)" fill="#ffac00"/>
          <rect id="Rectángulo_345016" data-name="Rectángulo 345016" width="58.867" height="5.71" transform="translate(219.731 190.978)" fill="#b5e1ff"/>
          <rect id="Rectángulo_345017" data-name="Rectángulo 345017" width="37.116" height="5.71" transform="translate(219.731 200.494)" fill="#b5e1ff"/>
          <rect id="Rectángulo_345018" data-name="Rectángulo 345018" width="21.257" height="5.71" transform="translate(37.498 121.375)" fill="#1574dd"/>
          <rect id="Rectángulo_345019" data-name="Rectángulo 345019" width="33.714" height="5.71" transform="translate(37.499 132.794)" fill="#b5e1ff"/>
          <rect id="Rectángulo_345020" data-name="Rectángulo 345020" width="21.257" height="5.71" transform="translate(37.498 149.833)" fill="#1574dd"/>
          <rect id="Rectángulo_345021" data-name="Rectángulo 345021" width="33.714" height="5.71" transform="translate(37.499 161.252)" fill="#b5e1ff"/>
          <rect id="Rectángulo_345022" data-name="Rectángulo 345022" width="21.257" height="5.71" transform="translate(37.498 178.291)" fill="#1574dd"/>
          <rect id="Rectángulo_345023" data-name="Rectángulo 345023" width="33.714" height="5.71" transform="translate(37.499 189.71)" fill="#b5e1ff"/>
        </g>
      </g>
      <text id="_50_100" data-name="50 / 100" transform="translate(260.084 43.642)" fill="#ffac00" font-size="15" font-family="Poppins-SemiBold, Poppins" font-weight="600"><tspan x="0" y="0">50 / 100</tspan></text>
    </g>
    <g id="Grupo_987188" data-name="Grupo 987188" transform="translate(180 1815.214)">
      <g id="Grupo_987187" data-name="Grupo 987187" clip-path="url(#clip-path)">
        <path id="Trazado_731189" data-name="Trazado 731189" d="M213.219,309.164s-74.332,72.181-186.07,12.548l2.981-18.046,180.835-11.012Z" transform="translate(11.785 127.032)" fill="#d2552a"/>
        <path id="Trazado_731190" data-name="Trazado 731190" d="M55.879,265.417,17.4,414.919H196.3s16.546-97.517,7.735-149.5Z" transform="translate(7.552 115.209)" fill="#7040bf"/>
        <path id="Trazado_731191" data-name="Trazado 731191" d="M195.523,272.511c-.293-2.442-.627-4.814-1.014-7.094H46.355l-7.013,27.247Z" transform="translate(17.077 115.209)" fill="#492994"/>
        <path id="Trazado_731192" data-name="Trazado 731192" d="M88.774,400.935l21.69-98.951,13.784-4.352" transform="translate(38.534 129.192)" fill="none" stroke="#492994" stroke-linecap="round" stroke-linejoin="round" stroke-width="1.5"/>
        <path id="Trazado_731193" data-name="Trazado 731193" d="M57.737,199.656A42.612,42.612,0,0,1,44.83,161.294c3.944-24.379,22.587-28.323,22.587-28.323S45.547,110.385,71,80.987c0,0,7.887-7.529,17.567-8.6,0,0,7.887-36.569,49.475-32.625S166.9,84.213,155.163,89.591c0,0,7.047,19-3.6,28.323v12.548s28.43,7.17,32.016,37.286-28.413,40.871-28.413,40.871-82.013,6.7-97.426-8.963" transform="translate(19.2 17.128)" fill="#00184c"/>
        <path id="Trazado_731194" data-name="Trazado 731194" d="M110.967,130.948l-60.509,16.32A12.89,12.89,0,0,0,42.11,154.3C33.748,172.347,7.474,230.573,2.365,260.328c0,0-10.536,36.348,12.869,49.9a32.344,32.344,0,0,0,20.854,3.71L52.2,311.6,38.934,391.9s57.721,7.529,69.194-32.984l7.17-35.135H187s-5.019,40.512,38,55.57l-12.19-89.271,6.3-34.5L242.081,275.6a59.029,59.029,0,0,0,23.87,12.832c14.239,3.681,33.4,2.626,44.739-22.73,19.718-44.1,30.832-102.177,30.832-102.177L315.35,136.64l-51.268,74.93-44.534-61.4a12.915,12.915,0,0,0-7.41-4.966L153.3,130.948Z" transform="translate(0 56.84)" fill="#ffac00"/>
        <path id="Trazado_731195" data-name="Trazado 731195" d="M160.344,218.5c-2.25-25.773-29.159-71.226-40.631-87.553H77.379S99.157,250.767,81.71,323.786h71.7s8.559-86.632,6.931-105.285" transform="translate(33.588 56.84)" fill="#fcfbff"/>
        <path id="Trazado_731196" data-name="Trazado 731196" d="M158.161,214.644c-22.495,7.238-50.21,10.847-71.1,12.637-.442,21.239-2.356,42.136-6.667,60.175h71.7s4.064-41.13,6.059-72.812" transform="translate(34.899 93.17)" fill="#b5e1ff"/>
        <path id="Trazado_731197" data-name="Trazado 731197" d="M119.713,155.486l-1.127-16.031a24.382,24.382,0,0,0,7.939-1.222c19.36-6.453,14.319-30.062,11.473-43.022a91.926,91.926,0,0,0-5.772-18.395c-15.23,5.756-30.8-2.4-30.8-2.4C95.692,86.607,84.937,88.4,84.937,88.4c.48,9.118-2.568,14.768-4.641,17.517.783,2.488-2.917,49.57-2.917,49.57S81.82,183.4,83.88,201.9c5.9.49,11.954.762,18.15.762a205.989,205.989,0,0,0,42.758-4.35,363.592,363.592,0,0,0-25.075-42.83" transform="translate(33.588 32.302)" fill="#ffa189"/>
        <path id="Trazado_731198" data-name="Trazado 731198" d="M104.241,82.663s17.675,5.576,26.632-3.714c-.3-.717-.6-1.43-.925-2.131-15.23,5.755-30.8-2.4-30.8-2.4C93.415,86.607,82.66,88.4,82.66,88.4a34.607,34.607,0,0,1-.036,4.193c6.161.192,16.842-.9,21.617-9.929" transform="translate(35.864 32.302)" fill="#f8756a"/>
        <path id="Trazado_731199" data-name="Trazado 731199" d="M87.191,94.112c4.357,4.737,4.461,11.726.235,15.614s-11.184,3.2-15.54-1.537-4.463-11.728-.235-15.614,11.183-3.2,15.54,1.537" transform="translate(29.755 39.09)" fill="#ffa189"/>
        <path id="Trazado_731200" data-name="Trazado 731200" d="M15.4,237.141s5.019-21.87,34.418-25.455,61.665-1.076,74.213-5.019l2.53,36.569s-52.934,33.342-81.045,35.493Z" transform="translate(6.684 89.708)" fill="#ffac00"/>
        <path id="Trazado_731201" data-name="Trazado 731201" d="M40,221.034s3.432-8.584,9.984-36.517l-1.154,35.932Z" transform="translate(17.362 80.093)" fill="#d2552a"/>
        <path id="Trazado_731202" data-name="Trazado 731202" d="M113.64,124.642a32.44,32.44,0,0,1-24.865-16.1s1.365,19.856,25.6,26.489Z" transform="translate(38.534 47.115)" fill="#f8756a"/>
        <line id="Línea_158" data-name="Línea 158" x2="10.397" y2="7.17" transform="translate(104.901 135.58)" fill="none" stroke="#f8756a" stroke-linecap="round" stroke-linejoin="round" stroke-width="1.5"/>
        <path id="Trazado_731203" data-name="Trazado 731203" d="M155.07,240.086s5.807-21.059,5.89-37.208c.054-10.612-10.4-23.662-13.417-36.21" transform="translate(64.044 72.345)" fill="none" stroke="#d2552a" stroke-linecap="round" stroke-linejoin="round" stroke-width="1.5"/>
        <path id="Trazado_731204" data-name="Trazado 731204" d="M182.329,268.792H107.4l13.624-97.875h74.93Z" transform="translate(46.619 74.19)" fill="#1574dd"/>
        <path id="Trazado_731205" data-name="Trazado 731205" d="M91.295,215.407s11.8-5.363,15.565-10.2S123.5,193.519,123.5,193.519l-1.225,10.6s39.616-12.362,44.635-10.39-4.661,7.887-4.661,7.887,9.321-3.36,9.68-1.411-2.868,7.147-4.84,8.581c0,0,2.51-.717,2.689,1.793s-12.907,13.086-23.662,17.209c0,0,12.01-2.51,15.416,0,0,0-17.567,8.784-24.021,10.755s-44.184,6.268-44.184,6.268Z" transform="translate(39.628 84)" fill="#ffa189"/>
        <line id="Línea_159" data-name="Línea 159" x1="32.446" y2="10.756" transform="translate(169.434 285.619)" fill="none" stroke="#f8756a" stroke-linecap="round" stroke-linejoin="round" stroke-width="1.5"/>
        <path id="Trazado_731206" data-name="Trazado 731206" d="M154.4,204.167s-21.87,8.6-33.88,11.831" transform="translate(52.316 88.622)" fill="none" stroke="#f8756a" stroke-linecap="round" stroke-linejoin="round" stroke-width="1.5"/>
        <line id="Línea_160" data-name="Línea 160" x1="10.756" y2="3.047" transform="translate(174.991 311.791)" fill="none" stroke="#f8756a" stroke-linecap="round" stroke-linejoin="round" stroke-width="1.5"/>
        <path id="Trazado_731207" data-name="Trazado 731207" d="M104.159,233.465A377.947,377.947,0,0,1,60.03,256.77" transform="translate(26.057 101.34)" fill="none" stroke="#d2552a" stroke-linecap="round" stroke-linejoin="round" stroke-width="1.5"/>
        <path id="Trazado_731208" data-name="Trazado 731208" d="M15.4,237.141s5.019-21.87,34.418-25.455,61.665-1.076,74.213-5.019" transform="translate(6.684 89.708)" fill="none" stroke="#d2552a" stroke-linecap="round" stroke-linejoin="round" stroke-width="1.5"/>
        <path id="Trazado_731209" data-name="Trazado 731209" d="M188.273,187.167a53.952,53.952,0,0,0-13.624,24.379" transform="translate(75.81 81.243)" fill="none" stroke="#d2552a" stroke-linecap="round" stroke-linejoin="round" stroke-width="1.5"/>
        <path id="Trazado_731210" data-name="Trazado 731210" d="M91.3,208.782l2.035,29.407,6.772-.8Z" transform="translate(39.628 90.625)" fill="#f8756a"/>
        <path id="Trazado_731211" data-name="Trazado 731211" d="M221.132,154.056l20.143-26.78A65.959,65.959,0,0,1,260.1,113.294c13.419-6.317,31.012-18.284,31.012-18.284s5.916,3.764,0,9.321l-15.954,15.416,9.924,7.365c3.939,2.66,4.182,8.593.234,11.239-.206.138-.424.271-.657.4,0,0,2.151,6.453-4.3,9.5a7.215,7.215,0,0,1-4.481,6.633c-4.661,1.972-12.626-1.076-12.626-1.076s-1.721,9.594-15.7,12.283l-6.167,8.766Z" transform="translate(95.986 41.241)" fill="#ffa189"/>
        <path id="Trazado_731212" data-name="Trazado 731212" d="M245.584,116.2l28.681-2.689s2.689,7.887-4.661,9.68a144.741,144.741,0,0,0-14.878,4.661s1.19,11.293-10.07,14.341Z" transform="translate(106.197 49.271)" fill="#ffa189"/>
        <path id="Trazado_731213" data-name="Trazado 731213" d="M250.66,115.723l23.606-2.213s2.689,7.887-4.661,9.68a144.738,144.738,0,0,0-14.878,4.661s1.19,11.293-10.071,14.341" transform="translate(106.197 49.271)" fill="none" stroke="#f8756a" stroke-linecap="round" stroke-linejoin="round" stroke-width="1.5"/>
        <path id="Trazado_731214" data-name="Trazado 731214" d="M251.678,123.51s14.52,4.661,19.718,2.868" transform="translate(109.245 53.612)" fill="none" stroke="#f8756a" stroke-linecap="round" stroke-linejoin="round" stroke-width="1.5"/>
        <path id="Trazado_731215" data-name="Trazado 731215" d="M250.5,129.1s8.5,5.242,17.107,4.345" transform="translate(108.734 56.04)" fill="none" stroke="#f8756a" stroke-linecap="round" stroke-linejoin="round" stroke-width="1.5"/>
        <path id="Trazado_731216" data-name="Trazado 731216" d="M251.75,137.661s-4.523-3.379-4.1-5.454" transform="translate(107.483 57.387)" fill="none" stroke="#f8756a" stroke-linecap="round" stroke-linejoin="round" stroke-width="1.5"/>
        <path id="Trazado_731217" data-name="Trazado 731217" d="M221.132,136.184l25,14.364-4.76,6.436Z" transform="translate(95.986 59.113)" fill="#f8756a"/>
        <path id="Trazado_731218" data-name="Trazado 731218" d="M105.527,92.361c.115,1.53-.674,2.837-1.76,2.917s-2.059-1.093-2.173-2.623.673-2.837,1.76-2.918,2.058,1.094,2.173,2.624" transform="translate(44.094 38.95)" fill="#00184c"/>
        <path id="Trazado_731219" data-name="Trazado 731219" d="M119.464,90.986c.115,1.53-.674,2.837-1.76,2.917s-2.059-1.093-2.173-2.623.673-2.837,1.76-2.918,2.058,1.094,2.173,2.624" transform="translate(50.144 38.353)" fill="#00184c"/>
        <path id="Trazado_731220" data-name="Trazado 731220" d="M97.034,87.065a8.986,8.986,0,0,1,10.149-2.571" transform="translate(42.119 36.39)" fill="none" stroke="#00184c" stroke-linecap="round" stroke-linejoin="round" stroke-width="3"/>
        <path id="Trazado_731221" data-name="Trazado 731221" d="M112.759,84.332a9.282,9.282,0,0,1,6.894-3.23" transform="translate(48.945 35.204)" fill="none" stroke="#00184c" stroke-linecap="round" stroke-linejoin="round" stroke-width="3"/>
        <path id="Trazado_731222" data-name="Trazado 731222" d="M114.466,94.89c0,5.8-4.13,10.493-9.225,10.493s-9.227-4.7-9.227-10.493S100.146,84.4,105.241,84.4,114.466,89.1,114.466,94.89Z" transform="translate(41.677 36.634)" fill="none" stroke="#fcfbff" stroke-linecap="round" stroke-linejoin="round" stroke-width="1.5"/>
        <path id="Trazado_731223" data-name="Trazado 731223" d="M128.991,93.046c0,5.8-3.407,10.493-7.611,10.493s-7.609-4.7-7.609-10.493,3.407-10.493,7.609-10.493S128.991,87.251,128.991,93.046Z" transform="translate(49.384 35.834)" fill="none" stroke="#fcfbff" stroke-linecap="round" stroke-linejoin="round" stroke-width="1.5"/>
        <line id="Línea_161" data-name="Línea 161" y1="1.213" x2="7.103" transform="translate(156.054 128.88)" fill="none" stroke="#fcfbff" stroke-linecap="round" stroke-linejoin="round" stroke-width="1.5"/>
        <path id="Trazado_731224" data-name="Trazado 731224" d="M111.842,91.6s7.36,8.341,8.148,12.284-6.633,3.406-6.633,3.406" transform="translate(48.547 39.761)" fill="none" stroke="#f8756a" stroke-linecap="round" stroke-linejoin="round" stroke-width="1.5"/>
        <path id="Trazado_731225" data-name="Trazado 731225" d="M106.127,105.042l10.6,1.434s-.35,4.78-6.151,4.063-4.453-5.5-4.453-5.5" transform="translate(46.007 45.595)" fill="#fcfbff"/>
        <circle id="Elipse_4730" data-name="Elipse 4730" cx="15.416" cy="15.416" r="15.416" transform="translate(90.919 149.263)" fill="none" stroke="#fcfbff" stroke-linecap="round" stroke-linejoin="round" stroke-width="1.5"/>
        <path id="Trazado_731226" data-name="Trazado 731226" d="M137.178,170.917l-1.164,7.768h26.5l1.061-7.768" transform="translate(59.039 74.19)" fill="none" stroke="#00184c" stroke-linecap="round" stroke-linejoin="round" stroke-width="1.5"/>
        <path id="Trazado_731227" data-name="Trazado 731227" d="M107.342,0H34.159a8.071,8.071,0,0,0-8.071,8.071V34.977a8.072,8.072,0,0,0,8.071,8.072H81.442l15,16.883V43.049h10.9a8.071,8.071,0,0,0,8.071-8.072V8.071A8.07,8.07,0,0,0,107.342,0" transform="translate(11.324)" fill="#fcfbff"/>
        <path id="Trazado_731228" data-name="Trazado 731228" d="M49.532,15.6a4.266,4.266,0,1,1-4.266-4.266A4.266,4.266,0,0,1,49.532,15.6" transform="translate(17.796 4.92)" fill="#b5e1ff"/>
        <path id="Trazado_731229" data-name="Trazado 731229" d="M63.791,15.6a4.267,4.267,0,1,1-4.268-4.266A4.268,4.268,0,0,1,63.791,15.6" transform="translate(23.985 4.92)" fill="#b5e1ff"/>
        <path id="Trazado_731230" data-name="Trazado 731230" d="M76.732,15.6a4.266,4.266,0,1,1-4.266-4.266A4.266,4.266,0,0,1,76.732,15.6" transform="translate(29.603 4.92)" fill="#b5e1ff"/>
      </g>
    </g>
  </g>
</svg>
