<svg xmlns="http://www.w3.org/2000/svg" width="715" height="194" viewBox="0 0 715 194">
  <g id="Grupo_987310" data-name="Grupo 987310" transform="translate(-443 -566)">
    <path id="Trazado_737669" data-name="Trazado 737669" d="M0,0H715V194H0Z" transform="translate(443 566)" fill="#f5e6e9"/>
    <path id="Trazado_737670" data-name="Trazado 737670" d="M3.359,15.117H8.336V17H1.016V5.625H3.359Zm10.063,2.039a4.15,4.15,0,0,1-3.027-1.141,4.054,4.054,0,0,1-1.168-3.039v-.219a5.106,5.106,0,0,1,.492-2.277,3.612,3.612,0,0,1,1.395-1.547,3.914,3.914,0,0,1,2.059-.543A3.508,3.508,0,0,1,15.9,9.484a4.444,4.444,0,0,1,1,3.1v.922H11.516a2.1,2.1,0,0,0,.66,1.328,2,2,0,0,0,1.395.5,2.437,2.437,0,0,0,2.039-.945l1.109,1.242a3.389,3.389,0,0,1-1.375,1.121A4.511,4.511,0,0,1,13.422,17.156Zm-.258-6.945a1.411,1.411,0,0,0-1.09.455,2.357,2.357,0,0,0-.535,1.3H14.68v-.181a1.681,1.681,0,0,0-.406-1.165A1.456,1.456,0,0,0,13.164,10.211ZM23.078,17a2.507,2.507,0,0,1-.227-.758,2.732,2.732,0,0,1-2.133.914,3,3,0,0,1-2.059-.719,2.312,2.312,0,0,1-.816-1.812,2.389,2.389,0,0,1,1-2.062,4.915,4.915,0,0,1,2.879-.727h1.039v-.484a1.393,1.393,0,0,0-.3-.937,1.183,1.183,0,0,0-.949-.352,1.345,1.345,0,0,0-.895.273.929.929,0,0,0-.324.75H18.031a2.268,2.268,0,0,1,.453-1.359,3,3,0,0,1,1.281-.98,4.669,4.669,0,0,1,1.859-.355,3.689,3.689,0,0,1,2.48.785,2.747,2.747,0,0,1,.918,2.207v3.664a4.041,4.041,0,0,0,.336,1.82V17Zm-1.867-1.57a1.945,1.945,0,0,0,.922-.223,1.462,1.462,0,0,0,.625-.6V13.156h-.844q-1.7,0-1.8,1.172l-.008.133a.9.9,0,0,0,.3.7A1.153,1.153,0,0,0,21.211,15.43Zm7.625-6.883.07.977a2.951,2.951,0,0,1,2.43-1.133,2.453,2.453,0,0,1,2,.789,3.682,3.682,0,0,1,.672,2.359V17H31.75V11.594a1.465,1.465,0,0,0-.312-1.043,1.4,1.4,0,0,0-1.039-.324,1.553,1.553,0,0,0-1.43.813V17H26.711V8.547ZM45.75,14.016A1.2,1.2,0,0,0,45.281,13a6.148,6.148,0,0,0-1.687-.75,11.963,11.963,0,0,1-1.93-.777,3.153,3.153,0,0,1-1.937-2.82A2.747,2.747,0,0,1,40.246,7a3.389,3.389,0,0,1,1.492-1.129,5.616,5.616,0,0,1,2.184-.406,5.112,5.112,0,0,1,2.172.441,3.458,3.458,0,0,1,1.48,1.246A3.261,3.261,0,0,1,48.1,8.984H45.758a1.534,1.534,0,0,0-.492-1.215,2.023,2.023,0,0,0-1.383-.434,2.162,2.162,0,0,0-1.336.363,1.146,1.146,0,0,0-.477.957,1.1,1.1,0,0,0,.559.93,6.311,6.311,0,0,0,1.645.7,7.106,7.106,0,0,1,2.914,1.492A2.972,2.972,0,0,1,48.1,14a2.737,2.737,0,0,1-1.117,2.316,4.891,4.891,0,0,1-3.008.84,5.808,5.808,0,0,1-2.391-.48,3.783,3.783,0,0,1-1.645-1.316,3.371,3.371,0,0,1-.566-1.937h2.352q0,1.883,2.25,1.883a2.189,2.189,0,0,0,1.3-.34A1.106,1.106,0,0,0,45.75,14.016ZM51.922,17H49.656V8.547h2.266Zm-2.4-10.641a1.112,1.112,0,0,1,.34-.836,1.465,1.465,0,0,1,1.848,0,1.105,1.105,0,0,1,.344.836,1.108,1.108,0,0,1-.348.844,1.448,1.448,0,0,1-1.836,0A1.108,1.108,0,0,1,49.523,6.359ZM57,11.07l1.422-2.523h2.414L58.43,12.688,60.938,17H58.516l-1.508-2.656L55.508,17h-2.43l2.508-4.312-2.4-4.141h2.422Zm14.953,2.945A1.2,1.2,0,0,0,71.484,13a6.148,6.148,0,0,0-1.687-.75,11.963,11.963,0,0,1-1.93-.777,3.153,3.153,0,0,1-1.937-2.82A2.747,2.747,0,0,1,66.449,7a3.389,3.389,0,0,1,1.492-1.129,5.616,5.616,0,0,1,2.184-.406A5.112,5.112,0,0,1,72.3,5.91a3.458,3.458,0,0,1,1.48,1.246A3.261,3.261,0,0,1,74.3,8.984H71.961a1.534,1.534,0,0,0-.492-1.215,2.023,2.023,0,0,0-1.383-.434A2.162,2.162,0,0,0,68.75,7.7a1.146,1.146,0,0,0-.477.957,1.1,1.1,0,0,0,.559.93,6.311,6.311,0,0,0,1.645.7,7.106,7.106,0,0,1,2.914,1.492A2.972,2.972,0,0,1,74.3,14a2.737,2.737,0,0,1-1.117,2.316,4.891,4.891,0,0,1-3.008.84,5.808,5.808,0,0,1-2.391-.48,3.783,3.783,0,0,1-1.645-1.316,3.371,3.371,0,0,1-.566-1.937H67.93q0,1.883,2.25,1.883a2.189,2.189,0,0,0,1.3-.34A1.106,1.106,0,0,0,71.953,14.016ZM78.125,17H75.859V8.547h2.266Zm-2.4-10.641a1.112,1.112,0,0,1,.34-.836,1.465,1.465,0,0,1,1.848,0,1.105,1.105,0,0,1,.344.836,1.108,1.108,0,0,1-.348.844,1.448,1.448,0,0,1-1.836,0A1.108,1.108,0,0,1,75.727,6.359Zm3.93,6.352a4.954,4.954,0,0,1,.926-3.133,3,3,0,0,1,2.5-1.187,2.631,2.631,0,0,1,2.164.953l.094-.8h2.047v8.172a3.613,3.613,0,0,1-.5,1.93,3.236,3.236,0,0,1-1.418,1.25,4.985,4.985,0,0,1-2.141.43,4.635,4.635,0,0,1-1.812-.371A3.217,3.217,0,0,1,80.172,19l1-1.375a2.645,2.645,0,0,0,2.047.945,1.936,1.936,0,0,0,1.4-.48,1.8,1.8,0,0,0,.5-1.363v-.453a2.612,2.612,0,0,1-2.055.883A2.992,2.992,0,0,1,80.6,15.965a4.953,4.953,0,0,1-.941-3.16Zm2.258.168a3.085,3.085,0,0,0,.461,1.8,1.466,1.466,0,0,0,1.266.653,1.568,1.568,0,0,0,1.477-.775V11a1.564,1.564,0,0,0-1.461-.775,1.476,1.476,0,0,0-1.277.665A3.477,3.477,0,0,0,81.914,12.879Zm9.32-4.332.07.945a2.971,2.971,0,0,1,2.43-1.1A2.255,2.255,0,0,1,95.977,9.68a2.9,2.9,0,0,1,2.539-1.289,2.521,2.521,0,0,1,2.047.8,3.681,3.681,0,0,1,.672,2.41V17H98.969V11.609a1.61,1.61,0,0,0-.281-1.051,1.246,1.246,0,0,0-.992-.332,1.409,1.409,0,0,0-1.406.969L96.3,17H94.039V11.617a1.59,1.59,0,0,0-.289-1.062,1.259,1.259,0,0,0-.984-.328,1.463,1.463,0,0,0-1.391.8V17H89.117V8.547ZM107.867,17a2.507,2.507,0,0,1-.227-.758,2.732,2.732,0,0,1-2.133.914,3,3,0,0,1-2.059-.719,2.312,2.312,0,0,1-.816-1.812,2.389,2.389,0,0,1,1-2.062,4.915,4.915,0,0,1,2.879-.727h1.039v-.484a1.393,1.393,0,0,0-.3-.937,1.183,1.183,0,0,0-.949-.352,1.345,1.345,0,0,0-.895.273.929.929,0,0,0-.324.75H102.82a2.268,2.268,0,0,1,.453-1.359,3,3,0,0,1,1.281-.98,4.669,4.669,0,0,1,1.859-.355,3.689,3.689,0,0,1,2.48.785,2.747,2.747,0,0,1,.918,2.207v3.664a4.041,4.041,0,0,0,.336,1.82V17ZM106,15.43a1.945,1.945,0,0,0,.922-.223,1.462,1.462,0,0,0,.625-.6V13.156H106.7q-1.7,0-1.8,1.172l-.008.133a.9.9,0,0,0,.3.7A1.153,1.153,0,0,0,106,15.43Z" transform="translate(758.34 579)" fill="#12263f"/>
    <path id="Trazado_731235" data-name="Trazado 731235" d="M-7683.539-11061.5h-284.8v83.719h679.3v-83.719h-264.754" transform="translate(8429.34 11650)" fill="none" stroke="#9b1f36" stroke-width="2"/>
    <path id="Trazado_737671" data-name="Trazado 737671" d="M41.605,17V5.625h3.5a5.315,5.315,0,0,1,2.684.676,4.712,4.712,0,0,1,1.848,1.922,5.928,5.928,0,0,1,.664,2.832v.523a5.945,5.945,0,0,1-.652,2.82,4.672,4.672,0,0,1-1.84,1.914,5.355,5.355,0,0,1-2.68.688Zm2.344-9.477v7.594h1.133a2.545,2.545,0,0,0,2.1-.9,4.06,4.06,0,0,0,.742-2.57v-.6a4.124,4.124,0,0,0-.719-2.629,2.537,2.537,0,0,0-2.1-.895Zm11.8,9.633a4.15,4.15,0,0,1-3.027-1.141,4.054,4.054,0,0,1-1.168-3.039v-.219a5.106,5.106,0,0,1,.492-2.277,3.612,3.612,0,0,1,1.395-1.547A3.914,3.914,0,0,1,55.5,8.391a3.508,3.508,0,0,1,2.73,1.094,4.444,4.444,0,0,1,1,3.1v.922H53.84a2.1,2.1,0,0,0,.66,1.328,2,2,0,0,0,1.395.5,2.437,2.437,0,0,0,2.039-.945l1.109,1.242a3.389,3.389,0,0,1-1.375,1.121A4.511,4.511,0,0,1,55.746,17.156Zm-.258-6.945a1.411,1.411,0,0,0-1.09.455,2.357,2.357,0,0,0-.535,1.3H57v-.181a1.681,1.681,0,0,0-.406-1.165A1.456,1.456,0,0,0,55.488,10.211ZM61.051,17V10.2H59.793V8.547h1.258V8.156a3.17,3.17,0,0,1,.98-2.457,3.945,3.945,0,0,1,2.723-.863,9.031,9.031,0,0,1,2.563.461l-.328,1.867A10,10,0,0,0,65.8,6.871a5.835,5.835,0,0,0-.906-.066q-1.578,0-1.578,1.4v.344H64.98V10.2H63.316V17Zm7.32,0H66.105V8.547h2.266Zm3.945-8.453.07.977a2.951,2.951,0,0,1,2.43-1.133,2.453,2.453,0,0,1,2,.789,3.682,3.682,0,0,1,.672,2.359V17H75.23V11.594a1.465,1.465,0,0,0-.312-1.043,1.4,1.4,0,0,0-1.039-.324,1.553,1.553,0,0,0-1.43.813V17H70.191V8.547ZM81.582,17H79.316V8.547h2.266Zm-2.4-10.641a1.112,1.112,0,0,1,.34-.836,1.465,1.465,0,0,1,1.848,0,1.105,1.105,0,0,1,.344.836,1.108,1.108,0,0,1-.348.844,1.448,1.448,0,0,1-1.836,0A1.108,1.108,0,0,1,79.184,6.359Zm9.008,4.3a6.134,6.134,0,0,0-.812-.062,1.654,1.654,0,0,0-1.68.867V17H83.441V8.547h2.133l.063,1.008A2.092,2.092,0,0,1,87.52,8.391a2.366,2.366,0,0,1,.7.1Z" transform="translate(478.34 728)" fill="#12263f"/>
    <path id="Trazado_737672" data-name="Trazado 737672" d="M47.7,5.625l2.922,8.25,2.906-8.25h3.078V17H54.254V13.891l.234-5.367L51.418,17H49.809L46.746,8.531l.234,5.359V17H44.637V5.625Zm14.7,11.531a4.15,4.15,0,0,1-3.027-1.141A4.054,4.054,0,0,1,58.2,12.977v-.219a5.106,5.106,0,0,1,.492-2.277,3.612,3.612,0,0,1,1.395-1.547,3.914,3.914,0,0,1,2.059-.543,3.508,3.508,0,0,1,2.73,1.094,4.444,4.444,0,0,1,1,3.1v.922H60.488a2.1,2.1,0,0,0,.66,1.328,2,2,0,0,0,1.395.5,2.437,2.437,0,0,0,2.039-.945l1.109,1.242a3.389,3.389,0,0,1-1.375,1.121A4.511,4.511,0,0,1,62.395,17.156Zm-.258-6.945a1.411,1.411,0,0,0-1.09.455,2.357,2.357,0,0,0-.535,1.3h3.141v-.181a1.681,1.681,0,0,0-.406-1.165A1.456,1.456,0,0,0,62.137,10.211Zm4.664,2.5a5.094,5.094,0,0,1,.887-3.148,2.877,2.877,0,0,1,2.426-1.172,2.589,2.589,0,0,1,2.039.922V5h2.266V17H72.379l-.109-.9A2.657,2.657,0,0,1,70.1,17.156,2.869,2.869,0,0,1,67.7,15.98,5.258,5.258,0,0,1,66.8,12.711Zm2.258.168a3.337,3.337,0,0,0,.414,1.823,1.349,1.349,0,0,0,1.2.634,1.511,1.511,0,0,0,1.477-.884V11.111a1.489,1.489,0,0,0-1.461-.884Q69.059,10.227,69.059,12.879ZM78.551,17H76.285V8.547h2.266Zm-2.4-10.641a1.112,1.112,0,0,1,.34-.836,1.465,1.465,0,0,1,1.848,0,1.105,1.105,0,0,1,.344.836,1.108,1.108,0,0,1-.348.844,1.448,1.448,0,0,1-1.836,0A1.108,1.108,0,0,1,76.152,6.359Zm9.008,4.3a6.134,6.134,0,0,0-.812-.062,1.654,1.654,0,0,0-1.68.867V17H80.41V8.547h2.133l.063,1.008a2.092,2.092,0,0,1,1.883-1.164,2.366,2.366,0,0,1,.7.1Z" transform="translate(609.34 728)" fill="#12263f"/>
    <path id="Trazado_737673" data-name="Trazado 737673" d="M42.453,14.656H38.344L37.563,17H35.07L39.3,5.625h2.172L45.734,17H43.242Zm-3.477-1.9H41.82L40.391,8.5Zm9.375-4.211.07.977a2.951,2.951,0,0,1,2.43-1.133,2.453,2.453,0,0,1,2,.789,3.682,3.682,0,0,1,.672,2.359V17H51.266V11.594a1.465,1.465,0,0,0-.312-1.043,1.4,1.4,0,0,0-1.039-.324,1.553,1.553,0,0,0-1.43.813V17H46.227V8.547ZM60.133,17a2.507,2.507,0,0,1-.227-.758,2.732,2.732,0,0,1-2.133.914,3,3,0,0,1-2.059-.719,2.312,2.312,0,0,1-.816-1.812,2.389,2.389,0,0,1,1-2.062,4.915,4.915,0,0,1,2.879-.727h1.039v-.484a1.393,1.393,0,0,0-.3-.937,1.183,1.183,0,0,0-.949-.352,1.345,1.345,0,0,0-.895.273.929.929,0,0,0-.324.75H55.086a2.268,2.268,0,0,1,.453-1.359,3,3,0,0,1,1.281-.98,4.669,4.669,0,0,1,1.859-.355,3.689,3.689,0,0,1,2.48.785,2.747,2.747,0,0,1,.918,2.207v3.664a4.041,4.041,0,0,0,.336,1.82V17Zm-1.867-1.57a1.945,1.945,0,0,0,.922-.223,1.462,1.462,0,0,0,.625-.6V13.156h-.844q-1.7,0-1.8,1.172l-.008.133a.9.9,0,0,0,.3.7A1.153,1.153,0,0,0,58.266,15.43ZM66.2,17H63.93V5H66.2Zm4.242,0H68.172V8.547h2.266Zm-2.4-10.641a1.112,1.112,0,0,1,.34-.836,1.465,1.465,0,0,1,1.848,0,1.105,1.105,0,0,1,.344.836,1.108,1.108,0,0,1-.348.844,1.448,1.448,0,0,1-1.836,0A1.108,1.108,0,0,1,68.039,6.359Zm6.852,8.82h4.133V17H72.008V15.625l3.977-5.258H72.125V8.547H78.9v1.33ZM85.336,17a2.507,2.507,0,0,1-.227-.758,2.732,2.732,0,0,1-2.133.914,3,3,0,0,1-2.059-.719,2.312,2.312,0,0,1-.816-1.812,2.389,2.389,0,0,1,1-2.062,4.915,4.915,0,0,1,2.879-.727h1.039v-.484a1.393,1.393,0,0,0-.3-.937,1.183,1.183,0,0,0-.949-.352,1.345,1.345,0,0,0-.895.273.929.929,0,0,0-.324.75H80.289a2.268,2.268,0,0,1,.453-1.359,3,3,0,0,1,1.281-.98,4.669,4.669,0,0,1,1.859-.355,3.689,3.689,0,0,1,2.48.785,2.747,2.747,0,0,1,.918,2.207v3.664a4.041,4.041,0,0,0,.336,1.82V17Zm-1.867-1.57a1.945,1.945,0,0,0,.922-.223,1.462,1.462,0,0,0,.625-.6V13.156h-.844q-1.7,0-1.8,1.172l-.008.133a.9.9,0,0,0,.3.7A1.153,1.153,0,0,0,83.469,15.43Zm10.3-4.766a6.134,6.134,0,0,0-.812-.062,1.654,1.654,0,0,0-1.68.867V17H89.016V8.547h2.133l.063,1.008a2.092,2.092,0,0,1,1.883-1.164,2.366,2.366,0,0,1,.7.1Z" transform="translate(739.34 728)" fill="#12263f"/>
    <path id="Trazado_737674" data-name="Trazado 737674" d="M40.637,5.625l2.922,8.25,2.906-8.25h3.078V17H47.191V13.891l.234-5.367L44.355,17H42.746L39.684,8.531l.234,5.359V17H37.574V5.625Zm14.7,11.531A4.15,4.15,0,0,1,52.3,16.016a4.054,4.054,0,0,1-1.168-3.039v-.219a5.106,5.106,0,0,1,.492-2.277,3.612,3.612,0,0,1,1.395-1.547,3.914,3.914,0,0,1,2.059-.543,3.508,3.508,0,0,1,2.73,1.094,4.444,4.444,0,0,1,1,3.1v.922H53.426a2.1,2.1,0,0,0,.66,1.328,2,2,0,0,0,1.395.5,2.437,2.437,0,0,0,2.039-.945l1.109,1.242a3.389,3.389,0,0,1-1.375,1.121A4.511,4.511,0,0,1,55.332,17.156Zm-.258-6.945a1.411,1.411,0,0,0-1.09.455,2.357,2.357,0,0,0-.535,1.3H56.59v-.181a1.681,1.681,0,0,0-.406-1.165A1.456,1.456,0,0,0,55.074,10.211ZM62.48,8.547v8.914a3.024,3.024,0,0,1-.742,2.176,2.821,2.821,0,0,1-2.141.777,4.591,4.591,0,0,1-1.117-.133V18.492a4.238,4.238,0,0,0,.711.07q1.023,0,1.023-1.086V8.547ZM60.035,6.359a1.112,1.112,0,0,1,.34-.836,1.47,1.47,0,0,1,1.852,0,1.112,1.112,0,0,1,.34.836,1.108,1.108,0,0,1-.348.844,1.448,1.448,0,0,1-1.836,0A1.108,1.108,0,0,1,60.035,6.359ZM63.895,12.7a5.013,5.013,0,0,1,.484-2.242A3.546,3.546,0,0,1,65.773,8.93a4.069,4.069,0,0,1,2.113-.539A3.849,3.849,0,0,1,70.68,9.438a4.2,4.2,0,0,1,1.207,2.844l.016.578a4.418,4.418,0,0,1-1.086,3.121,4.209,4.209,0,0,1-5.832,0,4.5,4.5,0,0,1-1.09-3.187Zm2.258.16a3.16,3.16,0,0,0,.453,1.843,1.628,1.628,0,0,0,2.578.008,3.457,3.457,0,0,0,.461-2.015,3.128,3.128,0,0,0-.461-1.831,1.5,1.5,0,0,0-1.3-.649,1.474,1.474,0,0,0-1.281.646A3.516,3.516,0,0,0,66.152,12.856Zm11.891-2.192a6.134,6.134,0,0,0-.812-.062,1.654,1.654,0,0,0-1.68.867V17H73.293V8.547h2.133l.063,1.008a2.092,2.092,0,0,1,1.883-1.164,2.366,2.366,0,0,1,.7.1ZM83.793,17a2.507,2.507,0,0,1-.227-.758,2.732,2.732,0,0,1-2.133.914,3,3,0,0,1-2.059-.719,2.312,2.312,0,0,1-.816-1.812,2.389,2.389,0,0,1,1-2.062,4.915,4.915,0,0,1,2.879-.727h1.039v-.484a1.393,1.393,0,0,0-.3-.937,1.183,1.183,0,0,0-.949-.352,1.345,1.345,0,0,0-.895.273.929.929,0,0,0-.324.75H78.746A2.268,2.268,0,0,1,79.2,9.727a3,3,0,0,1,1.281-.98,4.669,4.669,0,0,1,1.859-.355,3.689,3.689,0,0,1,2.48.785,2.747,2.747,0,0,1,.918,2.207v3.664a4.041,4.041,0,0,0,.336,1.82V17Zm-1.867-1.57a1.945,1.945,0,0,0,.922-.223,1.462,1.462,0,0,0,.625-.6V13.156h-.844q-1.7,0-1.8,1.172l-.008.133a.9.9,0,0,0,.3.7A1.153,1.153,0,0,0,81.926,15.43Zm10.3-4.766a6.134,6.134,0,0,0-.812-.062,1.654,1.654,0,0,0-1.68.867V17H87.473V8.547h2.133l.063,1.008a2.092,2.092,0,0,1,1.883-1.164,2.366,2.366,0,0,1,.7.1Z" transform="translate(870.34 728)" fill="#12263f"/>
    <path id="Trazado_737675" data-name="Trazado 737675" d="M40.875,13.211A4.025,4.025,0,0,1,39.52,16.1,4.76,4.76,0,0,1,36.3,17.156a4.28,4.28,0,0,1-3.441-1.473A6.038,6.038,0,0,1,31.6,11.641v-.7a6.819,6.819,0,0,1,.578-2.891,4.332,4.332,0,0,1,1.652-1.918,5.164,5.164,0,0,1,5.668.387,4.326,4.326,0,0,1,1.391,2.961H38.547a2.376,2.376,0,0,0-.613-1.6,2.271,2.271,0,0,0-1.605-.5,1.991,1.991,0,0,0-1.754.84,4.707,4.707,0,0,0-.6,2.605V11.7a5.038,5.038,0,0,0,.559,2.7,1.954,1.954,0,0,0,1.762.852,2.314,2.314,0,0,0,1.621-.5,2.241,2.241,0,0,0,.613-1.535Zm1.039-.516a5.013,5.013,0,0,1,.484-2.242A3.546,3.546,0,0,1,43.793,8.93a4.069,4.069,0,0,1,2.113-.539A3.849,3.849,0,0,1,48.7,9.438a4.2,4.2,0,0,1,1.207,2.844l.016.578a4.418,4.418,0,0,1-1.086,3.121,4.209,4.209,0,0,1-5.832,0,4.5,4.5,0,0,1-1.09-3.187Zm2.258.16a3.16,3.16,0,0,0,.453,1.843,1.628,1.628,0,0,0,2.578.008,3.457,3.457,0,0,0,.461-2.015A3.128,3.128,0,0,0,47.2,10.86a1.5,1.5,0,0,0-1.3-.649,1.474,1.474,0,0,0-1.281.646A3.516,3.516,0,0,0,44.172,12.856Zm9.219-4.309.07.977a2.951,2.951,0,0,1,2.43-1.133,2.453,2.453,0,0,1,2,.789,3.682,3.682,0,0,1,.672,2.359V17H56.3V11.594a1.465,1.465,0,0,0-.312-1.043,1.4,1.4,0,0,0-1.039-.324,1.553,1.553,0,0,0-1.43.813V17H51.266V8.547Zm9.586-2.078V8.547h1.445V10.2H62.977v4.219a1.007,1.007,0,0,0,.18.672.9.9,0,0,0,.688.2,3.6,3.6,0,0,0,.664-.055v1.711a4.648,4.648,0,0,1-1.367.2,2.156,2.156,0,0,1-2.422-2.4V10.2H59.484V8.547h1.234V6.469Zm7.453,4.2a6.134,6.134,0,0,0-.812-.062,1.654,1.654,0,0,0-1.68.867V17H65.68V8.547h2.133l.063,1.008a2.092,2.092,0,0,1,1.883-1.164,2.366,2.366,0,0,1,.7.1Zm.453,2.031a5.013,5.013,0,0,1,.484-2.242A3.546,3.546,0,0,1,72.762,8.93a4.069,4.069,0,0,1,2.113-.539,3.849,3.849,0,0,1,2.793,1.047,4.2,4.2,0,0,1,1.207,2.844l.016.578A4.418,4.418,0,0,1,77.8,15.98a4.209,4.209,0,0,1-5.832,0,4.5,4.5,0,0,1-1.09-3.187Zm2.258.16a3.16,3.16,0,0,0,.453,1.843,1.628,1.628,0,0,0,2.578.008,3.457,3.457,0,0,0,.461-2.015,3.128,3.128,0,0,0-.461-1.831,1.5,1.5,0,0,0-1.3-.649,1.474,1.474,0,0,0-1.281.646A3.516,3.516,0,0,0,73.141,12.856ZM82.664,17H80.4V5h2.266Zm6.758,0a2.507,2.507,0,0,1-.227-.758,2.732,2.732,0,0,1-2.133.914A3,3,0,0,1,85,16.438a2.312,2.312,0,0,1-.816-1.812,2.389,2.389,0,0,1,1-2.062,4.915,4.915,0,0,1,2.879-.727H89.1v-.484a1.393,1.393,0,0,0-.3-.937,1.183,1.183,0,0,0-.949-.352,1.345,1.345,0,0,0-.895.273.929.929,0,0,0-.324.75H84.375a2.268,2.268,0,0,1,.453-1.359,3,3,0,0,1,1.281-.98,4.669,4.669,0,0,1,1.859-.355,3.689,3.689,0,0,1,2.48.785,2.747,2.747,0,0,1,.918,2.207v3.664a4.041,4.041,0,0,0,.336,1.82V17Zm-1.867-1.57a1.945,1.945,0,0,0,.922-.223,1.462,1.462,0,0,0,.625-.6V13.156h-.844q-1.7,0-1.8,1.172l-.008.133a.9.9,0,0,0,.3.7A1.153,1.153,0,0,0,87.555,15.43Zm10.3-4.766a6.134,6.134,0,0,0-.812-.062,1.654,1.654,0,0,0-1.68.867V17H93.1V8.547h2.133L95.3,9.555A2.092,2.092,0,0,1,97.18,8.391a2.366,2.366,0,0,1,.7.1Z" transform="translate(1000.34 728)" fill="#12263f"/>
    <path id="Trazado_737676" data-name="Trazado 737676" d="M6.5,0,13,11H0Z" transform="translate(615.34 666) rotate(90)" fill="#9b1f36"/>
    <path id="Trazado_737677" data-name="Trazado 737677" d="M6.5,0,13,11H0Z" transform="translate(746.34 666) rotate(90)" fill="#9b1f36"/>
    <path id="Trazado_737678" data-name="Trazado 737678" d="M6.5,0,13,11H0Z" transform="translate(876.34 666) rotate(90)" fill="#9b1f36"/>
    <path id="Trazado_737679" data-name="Trazado 737679" d="M6.5,0,13,11H0Z" transform="translate(1007.34 666) rotate(90)" fill="#9b1f36"/>
    <g id="Grupo_987196" data-name="Grupo 987196" transform="translate(22 2)">
      <circle id="Elipse_4732" data-name="Elipse 4732" cx="42" cy="42" r="42" transform="translate(479 628)" fill="#ff6e33"/>
      <g id="Outline" transform="translate(489.479 637.984)">
        <g id="Outline-2" data-name="Outline">
          <path id="Trazado_731236" data-name="Trazado 731236" d="M23.565,40.2l-.692,4.253a1.076,1.076,0,0,0,1.345,1.161l.314,3.04H23.86a1,1,0,0,0-1,1V54.7a1,1,0,0,0,1,1h1.389l.131,1.255a4.7,4.7,0,0,0,1.849,3.621A6.64,6.64,0,0,0,31.42,62c3.314,0,6.015-2.258,6.05-5.044L37.6,55.7h1.39a1,1,0,0,0,1-1V49.65a1,1,0,0,0-1-1h-.672l.314-3.04a1.075,1.075,0,0,0,1.345-1.161L39.285,40.2A20.037,20.037,0,0,0,51.34,21.91a19.693,19.693,0,0,0-3.159-10.723L52.2,7.178a1,1,0,0,0-.71-1.708H49.21V3.18a1,1,0,0,0-1.71-.707L43.711,6.265A19.9,19.9,0,1,0,23.565,40.2ZM35.476,56.8a.907.907,0,0,0-.006.1c0,1.709-1.817,3.1-4.05,3.1a4.647,4.647,0,0,1-2.934-.979A2.734,2.734,0,0,1,27.38,56.9v-.1l-.115-1.1H35.6Zm2.514-3.1H24.86V50.65H37.99Zm-1.682-5.05H26.542l-.313-3.04H36.622ZM48.21,7.47h.862L46.2,10.34h0l-.867.867H43.46V9.344l3.75-3.75V6.47A1,1,0,0,0,48.21,7.47Zm-8.3,14.462a8.328,8.328,0,0,0-1.733-4.171l2.213-2.212a11.437,11.437,0,0,1,2.646,6.383Zm-3.147-5.585a8.337,8.337,0,0,0-4.17-1.733V11.488a11.437,11.437,0,0,1,6.383,2.647ZM30.6,14.614a8.4,8.4,0,0,0-7.318,7.318H20.151A11.5,11.5,0,0,1,30.6,11.488Zm-7.318,9.318A8.393,8.393,0,0,0,30.6,31.249v3.126A11.5,11.5,0,0,1,20.151,23.932ZM31.6,29.314a6.383,6.383,0,1,1,3.744-11.541L33.5,19.616a3.8,3.8,0,0,0-1.9-.524,3.84,3.84,0,1,0,3.839,3.84,3.8,3.8,0,0,0-.524-1.9l1.843-1.842A6.37,6.37,0,0,1,31.6,29.314Zm1.839-6.382a1.836,1.836,0,1,0-.005,0ZM31.42,4A17.919,17.919,0,0,1,42.3,7.677l-.546.546a1,1,0,0,0-.293.707v2.722l-1.069,1.069a13.42,13.42,0,0,0-7.8-3.233V7.553a1,1,0,1,0-2,0V9.488A13.5,13.5,0,0,0,18.151,21.932H16.215a1,1,0,0,0,0,2h1.936A13.5,13.5,0,0,0,30.6,36.375v1.936a1,1,0,1,0,2,0V36.386a13.45,13.45,0,0,0,5.912-1.863,1,1,0,1,0-1.026-1.717A11.436,11.436,0,0,1,32.6,34.359v-3.11a8.391,8.391,0,0,0,7.317-7.317h3.125a11.355,11.355,0,0,1-.972,3.748,1,1,0,1,0,1.822.827,13.344,13.344,0,0,0,1.149-4.575h1.938a1,1,0,0,0,0-2H45.038a13.414,13.414,0,0,0-3.233-7.8l.925-.925h3.01a1,1,0,0,0,.707-.293l.293-.292a17.726,17.726,0,0,1,2.6,9.285A18.018,18.018,0,0,1,37.813,38.636a1,1,0,0,0-.63,1.094l.631,3.88H25.036l.631-3.88a1,1,0,0,0-.629-1.094A17.9,17.9,0,0,1,31.42,4Z"/>
          <circle id="Elipse_4737" data-name="Elipse 4737" cx="1" cy="1" r="1" transform="translate(40 30)"/>
        </g>
      </g>
    </g>
    <g id="Grupo_987205" data-name="Grupo 987205" transform="translate(22 2)">
      <circle id="Elipse_4733" data-name="Elipse 4733" cx="42" cy="42" r="42" transform="translate(610 628)" fill="#ff6e33"/>
      <g id="medida" transform="translate(623 549.6)">
        <g id="Grupo_987198" data-name="Grupo 987198" transform="translate(0 124.045)">
          <g id="Grupo_987197" data-name="Grupo 987197">
            <path id="Trazado_731237" data-name="Trazado 731237" d="M58.049,290.133H.984a.983.983,0,0,0-.984.984v11.806a.983.983,0,0,0,.984.984H58.048a.983.983,0,0,0,.984-.984V291.117A.983.983,0,0,0,58.049,290.133Zm-.984,11.806H1.968V292.1H4.919v1.968a.984.984,0,0,0,1.968,0V292.1h3.935v3.935a.984.984,0,0,0,1.968,0V292.1h3.935v1.968a.984.984,0,0,0,1.968,0V292.1h3.935v3.935a.984.984,0,0,0,1.968,0V292.1h3.935v1.968a.984.984,0,0,0,1.968,0V292.1h3.935v3.935a.984.984,0,0,0,1.968,0V292.1h3.935v1.968a.984.984,0,0,0,1.968,0V292.1h3.935v3.935a.984.984,0,0,0,1.968,0V292.1h3.937v1.968a.984.984,0,0,0,1.968,0V292.1h2.95v9.839Z" transform="translate(0 -290.133)"/>
          </g>
        </g>
        <g id="Grupo_987200" data-name="Grupo 987200" transform="translate(0 102.4)">
          <g id="Grupo_987199" data-name="Grupo 987199">
            <path id="Trazado_731238" data-name="Trazado 731238" d="M.984,102.4a.983.983,0,0,0-.984.984V120.11a.984.984,0,0,0,1.968,0V103.384A.983.983,0,0,0,.984,102.4Z" transform="translate(0 -102.4)"/>
          </g>
        </g>
        <g id="Grupo_987202" data-name="Grupo 987202" transform="translate(57.065 102.4)">
          <g id="Grupo_987201" data-name="Grupo 987201">
            <path id="Trazado_731239" data-name="Trazado 731239" d="M495.918,102.4a.983.983,0,0,0-.984.984V120.11a.984.984,0,0,0,1.968,0V103.384A.983.983,0,0,0,495.918,102.4Z" transform="translate(-494.934 -102.4)"/>
          </g>
        </g>
        <g id="Grupo_987204" data-name="Grupo 987204" transform="translate(3.936 105.351)">
          <g id="Grupo_987203" data-name="Grupo 987203">
            <path id="Trazado_731240" data-name="Trazado 731240" d="M85.084,134.25l-4.568-5.9a.876.876,0,0,0-1.013-.3.985.985,0,0,0-.6.926V133.9H40.529v-4.92a.983.983,0,0,0-.6-.925.873.873,0,0,0-1.013.3l-4.568,5.9a1.044,1.044,0,0,0,0,1.26l4.568,5.9a.889.889,0,0,0,.7.353.86.86,0,0,0,.311-.059.985.985,0,0,0,.6-.925v-4.919H78.9v4.919a.983.983,0,0,0,.6.925.86.86,0,0,0,.311.059.893.893,0,0,0,.7-.353l4.568-5.9a1.044,1.044,0,0,0,0-1.261ZM38.7,138.067l-2.466-3.186,2.466-3.186Zm42.025,0v-6.372l2.466,3.186Z" transform="translate(-34.134 -127.993)"/>
          </g>
        </g>
      </g>
    </g>
    <g id="Grupo_987206" data-name="Grupo 987206" transform="translate(22 2)">
      <circle id="Elipse_4734" data-name="Elipse 4734" cx="42" cy="42" r="42" transform="translate(740 628)" fill="#ff6e33"/>
      <g id="analizando" transform="translate(750.2 637.4)">
        <path id="Trazado_731241" data-name="Trazado 731241" d="M40.838,32a.653.653,0,0,0-.653.653v5.21a2.34,2.34,0,0,1-2.332,2.332h-5.2a.653.653,0,0,0-.653.653.645.645,0,0,0,.653.643h5.21A3.641,3.641,0,0,0,41.5,37.853v-5.2A.674.674,0,0,0,40.838,32Z" transform="translate(-20.974 -21.155)"/>
        <path id="Trazado_731242" data-name="Trazado 731242" d="M265.677,261.664l-4.644-4.644a10.461,10.461,0,1,0-19.633-5.038,10.467,10.467,0,0,0,10.469,10.459,10.5,10.5,0,0,0,5.038-1.3l4.644,4.644a2.914,2.914,0,0,0,2.063.854,2.874,2.874,0,0,0,2.063-.854A2.913,2.913,0,0,0,265.677,261.664Zm-20.285-3.2a9.16,9.16,0,0,1,12.954-12.954,9.16,9.16,0,1,1-12.954,12.954Zm19.364,6.4a1.628,1.628,0,0,1-2.284,0l-4.443-4.443a10.505,10.505,0,0,0,1.238-1.046,10.653,10.653,0,0,0,1.046-1.238l4.443,4.443A1.61,1.61,0,0,1,264.756,264.869Z" transform="translate(-210.28 -210.574)"/>
        <path id="Trazado_731243" data-name="Trazado 731243" d="M48.153,225.91a.653.653,0,0,0-.653.653v14.893a.653.653,0,0,0,.653.653h2.975a.653.653,0,0,0,.653-.653v-14.9a.653.653,0,0,0-.653-.653Zm2.332,14.883H48.805V227.215h1.679Z" transform="translate(-34.986 -196.448)"/>
        <path id="Trazado_731244" data-name="Trazado 731244" d="M109.6,257.653v11.908a.653.653,0,0,0,.653.652h2.975a.653.653,0,0,0,.653-.652V257.653a.653.653,0,0,0-.653-.653h-2.975A.647.647,0,0,0,109.6,257.653Zm1.305.652h1.679v10.6h-1.679Z" transform="translate(-91.128 -224.564)"/>
        <path id="Trazado_731245" data-name="Trazado 731245" d="M175.98,288.653a.653.653,0,0,0-.653-.652h-2.975a.653.653,0,0,0-.653.652v8.934a.653.653,0,0,0,.653.652h2.975a.653.653,0,0,0,.653-.652Zm-1.305,8.281H173v-7.629h1.679Z" transform="translate(-147.269 -252.59)"/>
        <path id="Trazado_731246" data-name="Trazado 731246" d="M63.7,412.753a.653.653,0,0,0-.653-.653H48.153a.653.653,0,1,0,0,1.305H63.045A.659.659,0,0,0,63.7,412.753Z" transform="translate(-34.986 -364.781)"/>
        <path id="Trazado_731247" data-name="Trazado 731247" d="M48.153,443.11a.653.653,0,0,0-.653.653.645.645,0,0,0,.653.643h8.934a.652.652,0,1,0,0-1.3Z" transform="translate(-34.986 -392.807)"/>
        <path id="Trazado_731248" data-name="Trazado 731248" d="M201.9,54.85a7.342,7.342,0,1,0-7.35,7.36A7.357,7.357,0,0,0,201.9,54.85Zm-7.35,6.055a6.007,6.007,0,0,1-3.838-1.372c.825-.806,1.66-1.622,2.476-2.428.672-.662,1.113-1.084,1.622-1.593h5.748A6.051,6.051,0,0,1,194.55,60.905Zm6.007-6.7h-5.364V48.843A6.044,6.044,0,0,1,200.557,54.207ZM193.9,48.834v5.738c-.585.566-2.37,2.322-4.1,4.021A6,6,0,0,1,188.5,54.85a6.082,6.082,0,0,1,5.4-6.017Z" transform="translate(-161.281 -35.167)"/>
        <path id="Trazado_731249" data-name="Trazado 731249" d="M286.081,315.58a2.14,2.14,0,1,0-2.14-2.14,2.083,2.083,0,0,0,.345,1.151l-1.247,1.276a2.183,2.183,0,0,0-1.746.2l-1.507-1.612a2.136,2.136,0,1,0-4.011-1.017,2.113,2.113,0,0,0,.47,1.315l-.422.451a2.239,2.239,0,0,0-.883-.192,2.14,2.14,0,1,0,2.14,2.14,2.176,2.176,0,0,0-.3-1.075l.557-.595a2.209,2.209,0,0,0,1.526-.144l1.574,1.679a2.176,2.176,0,0,0-.182.864,2.14,2.14,0,1,0,4.28,0,2.071,2.071,0,0,0-.413-1.247l1.209-1.228A1.54,1.54,0,0,0,286.081,315.58Zm0-2.975a.844.844,0,1,1-.844.844A.846.846,0,0,1,286.081,312.605Zm-8.195,0a.839.839,0,0,1,.355,1.6.858.858,0,0,1-.72-.029.827.827,0,0,1-.451-.729A.81.81,0,0,1,277.886,312.605ZM274.911,318a.844.844,0,1,1,.844-.844A.846.846,0,0,1,274.911,318Zm7.446.748a.846.846,0,0,1-.844-.844.836.836,0,0,1,1.228-.729.833.833,0,0,1-.384,1.574Z" transform="translate(-238.667 -273.654)"/>
        <path id="Trazado_731250" data-name="Trazado 731250" d="M43.738,52.664a.657.657,0,0,0-.816.441,2.309,2.309,0,0,1-2.217,1.67H12.418a2.34,2.34,0,0,1-2.332-2.332V19.952L20.133,9.915H40.706a2.34,2.34,0,0,1,2.332,2.332V29.557a.653.653,0,1,0,1.305,0V12.237A3.641,3.641,0,0,0,40.706,8.6H19.864a.63.63,0,0,0-.461.192L8.982,19.222a.679.679,0,0,0-.182.461v32.75a3.641,3.641,0,0,0,3.637,3.637H40.725a3.616,3.616,0,0,0,3.474-2.6.683.683,0,0,0-.461-.806Z"/>
      </g>
    </g>
    <g id="Grupo_987207" data-name="Grupo 987207" transform="translate(22 2)">
      <circle id="Elipse_4735" data-name="Elipse 4735" cx="42" cy="42" r="42" transform="translate(871 628)" fill="#ff6e33"/>
      <g id="ventas" transform="translate(888.501 643)">
        <path id="Trazado_731251" data-name="Trazado 731251" d="M51.377,78.446c-2.508-2.5-5.407-.16-5.407-.16V65.145a.8.8,0,1,0-1.6,0V79.411a43.569,43.569,0,0,1-5.45,3.739V59.488a2,2,0,0,1,1.995-1.995h1.461a2,2,0,0,1,1.995,1.995v2.384a.8.8,0,1,0,1.6,0V59.488a3.6,3.6,0,0,0-3.593-3.593H40.916a3.6,3.6,0,0,0-3.594,3.593v24.3a8.4,8.4,0,0,1-1.463.272V67.2a3.615,3.615,0,0,0-3.611-3.611H30.824A3.615,3.615,0,0,0,27.213,67.2v8.145l-1.463.777v-2.71A3.255,3.255,0,0,0,22.5,70.164H20.353A3.255,3.255,0,0,0,17.1,73.415v7.3L14.492,82.1,7.163,84.2a5.052,5.052,0,0,0-3.5,6.128l.82,3.154a.8.8,0,1,0,1.547-.4l-.82-3.154A3.433,3.433,0,0,1,7.6,85.732l6.7-1.915L19.34,97.259a3.58,3.58,0,0,1-2.38,4.415l-5.064,1.15a3.315,3.315,0,0,1-3.959-2.409L6.908,96.459a.8.8,0,1,0-1.548.4l1.028,3.956a4.9,4.9,0,0,0,4.75,3.691,39.187,39.187,0,0,0,6.175-1.276,4.926,4.926,0,0,0,3.729-5.822l17.52-4.289a10.081,10.081,0,0,0,3.977-1.991l8.526-7.005A3.792,3.792,0,0,0,51.377,78.446ZM30.824,65.191h1.425A2.015,2.015,0,0,1,34.261,67.2V84.1l-5.044,0c-.463,0-.143-.31-.117-.331l1.453-1.177a7.6,7.6,0,0,0,2.63-4.537,3.17,3.17,0,0,0-4.371-3.539V67.2A2.015,2.015,0,0,1,30.824,65.191ZM18.7,73.415a1.654,1.654,0,0,1,1.652-1.652H22.5a1.655,1.655,0,0,1,1.652,1.652v3.559L18.7,79.867V73.415Zm31.351,9.476L41.525,89.9a8.464,8.464,0,0,1-3.342,1.672L20.534,95.89,15.788,83.223,29.34,76.03a1.571,1.571,0,0,1,2.276,1.7,6.044,6.044,0,0,1-2.071,3.614l-1.453,1.177a1.785,1.785,0,0,0,1.123,3.172l5.824,0h0a9.967,9.967,0,0,0,5.762-1.823L47.316,79.3a2.251,2.251,0,0,1,2.917.269A2.218,2.218,0,0,1,50.052,82.891Zm0,0" transform="translate(-2.679 -49.937)"/>
        <path id="Trazado_731252" data-name="Trazado 731252" d="M70.619,422.388a3.149,3.149,0,1,0-3.149,3.149A3.153,3.153,0,0,0,70.619,422.388Zm-4.7,0a1.55,1.55,0,1,1,1.55,1.551A1.552,1.552,0,0,1,65.919,422.388Zm0,0" transform="translate(-57.019 -374.554)"/>
        <path id="Trazado_731253" data-name="Trazado 731253" d="M4.7,25.1l11.62-11.71,2.614,1.352a2.458,2.458,0,0,0,2.835-.413L28.1,8.24s-.174,3.127,2.459,3.127a2.462,2.462,0,0,0,2.459-2.459V2.459c0-.007,0-.015,0-.023A2.327,2.327,0,0,0,30.556,0H24.164A2.462,2.462,0,0,0,21.7,2.459a2.424,2.424,0,0,0,2.751,2.459L19.63,9.563,16.978,8.191a2.45,2.45,0,0,0-2.875.452L1.211,21.634a2.462,2.462,0,0,0,.013,3.478A2.424,2.424,0,0,0,4.7,25.1ZM2.346,22.761,15.238,9.769a.727.727,0,0,1,1.006-.158L19.4,11.246a.8.8,0,0,0,.922-.134l6.667-6.417a.8.8,0,0,0-.555-1.375H24.164a.86.86,0,0,1,0-1.721h6.392a.751.751,0,0,1,.86.855c0,.007,0,.014,0,.022V8.907a.86.86,0,0,1-1.721,0V6.361a.8.8,0,0,0-1.354-.576l-7.679,7.392a.86.86,0,0,1-.992.144L16.536,11.7a.8.8,0,0,0-.935.147L3.567,23.973a.825.825,0,0,1-1.217,0A.862.862,0,0,1,2.346,22.761Zm0,0" transform="translate(0)"/>
      </g>
    </g>
    <g id="Grupo_987208" data-name="Grupo 987208" transform="translate(22 2)">
      <circle id="Elipse_4736" data-name="Elipse 4736" cx="42" cy="42" r="42" transform="translate(1001 628)" fill="#ff6e33"/>
      <g id="layer1" transform="translate(1019 646)">
        <path id="rect820" d="M6.045,0A3.033,3.033,0,0,0,3.023,3.023V15.606A4.226,4.226,0,0,0,.73,17.415,5.259,5.259,0,0,0,0,20.137v6.429a15.335,15.335,0,0,0,1.176,4.578c.285.8.565,1.573.77,2.219a6.452,6.452,0,0,1,.317,1.383V37.6a2.26,2.26,0,0,0-.752,1.679v6.8a2.281,2.281,0,0,0,2.265,2.271H14.355a2.28,2.28,0,0,0,2.263-2.271v-6.8a2.274,2.274,0,0,0-1.294-2.042c.129-.517.392-1.226.686-2.051a13.446,13.446,0,0,0,.82-3.457H30.887L34.422,38.8a2.273,2.273,0,0,0-1.182,1.986v5.287A2.279,2.279,0,0,0,35.5,48.348H46.077a2.286,2.286,0,0,0,2.271-2.271V40.79A2.279,2.279,0,0,0,46.936,38.7a12.95,12.95,0,0,1,.592-1.47,7.773,7.773,0,0,0,.82-3.234V3.023A3.034,3.034,0,0,0,45.324,0Zm0,1.511h39.28a1.493,1.493,0,0,1,1.511,1.512V25.059a2.1,2.1,0,0,0-.758-.133,1.979,1.979,0,0,0-.752.137V5.287a2.273,2.273,0,0,0-2.263-2.263H8.308A2.273,2.273,0,0,0,6.045,5.287V18.408c-.046-.02-.092-.042-.139-.06a2.435,2.435,0,0,0-1.372-.162V3.023A1.493,1.493,0,0,1,6.045,1.511ZM7.556,19.781V5.287a.733.733,0,0,1,.752-.752H43.061a.733.733,0,0,1,.752.752V24.31a2,2,0,0,0-.752-.136,2.183,2.183,0,0,0-1.12.291,2.246,2.246,0,0,0-1.9-1.049,2.4,2.4,0,0,0-.758.131V20.4h2.259a.756.756,0,0,0,0-1.512H39.28a2.267,2.267,0,1,0-4.534,0h-6.8a.756.756,0,0,0,0,1.512h6.8v7l-.891-1.543a2.653,2.653,0,0,0-3.609-.971A2.619,2.619,0,0,0,28.953,27.2H9.481c-.348-.382-.663-.691-.871-.943-.236-.286-.3-.44-.3-.567V22.433a5.208,5.208,0,0,0-.752-2.652ZM37.016,6.045a2.279,2.279,0,0,0-2.271,2.263h-6.8a.756.756,0,0,0,0,1.512h6.8a2.267,2.267,0,0,0,4.534,0h2.269a.756.756,0,0,0,0-1.512H39.28A2.273,2.273,0,0,0,37.016,6.045Zm0,1.511a.733.733,0,0,1,.752.752V9.821a.756.756,0,1,1-1.512,0V8.308A.739.739,0,0,1,37.016,7.556Zm-19.64.752a8.32,8.32,0,0,0-8.308,8.31V19.64a.756.756,0,0,0,.752.76h15.1a.756.756,0,0,0,.76-.76V16.618A8.32,8.32,0,0,0,17.376,8.308Zm-.758,1.554v.717a.755.755,0,0,0,1.511,0V9.862a6.764,6.764,0,0,1,3.492,1.44l-.509.509a.757.757,0,0,0,1.071,1.071l.509-.509a6.761,6.761,0,0,1,1.439,3.492h-.71a.755.755,0,1,0,0,1.511h.751v1.511H20.4a3.008,3.008,0,0,0-.741-1.974l1.27-1.27a.753.753,0,1,0-1.065-1.065l-1.473,1.465a2.989,2.989,0,0,0-1.015-.177,3.033,3.033,0,0,0-3.022,3.022H10.579V17.376h.752a.755.755,0,0,0,0-1.511H10.62a6.764,6.764,0,0,1,1.44-3.492l.509.509a.755.755,0,1,0,1.065-1.071l-.506-.506a6.763,6.763,0,0,1,3.489-1.443Zm14.352,1.47a2.273,2.273,0,0,0-2.263,2.263h-.758a.756.756,0,0,0,0,1.512h.758a2.267,2.267,0,1,0,4.534,0h8.308a.756.756,0,0,0,0-1.512H33.241A2.279,2.279,0,0,0,30.97,11.331Zm0,1.511a.739.739,0,0,1,.76.752v1.512a.756.756,0,1,1-1.512,0V13.595A.733.733,0,0,1,30.97,12.842ZM3.023,17.233v8.456a.755.755,0,0,0,1.511,0V20.175c0-.363.082-.415.179-.468a.779.779,0,0,1,.624.038A2.844,2.844,0,0,1,6.8,22.467v3.218a2.421,2.421,0,0,0,.648,1.533c.33.4.7.749,1.053,1.143A4.6,4.6,0,0,1,9.821,31.73a.755.755,0,0,0,1.511,0h3.982a12.236,12.236,0,0,1-.726,2.949,15.442,15.442,0,0,0-.646,2.337H3.776V34.745a6.23,6.23,0,0,0-.385-1.84c-.22-.7-.51-1.472-.792-2.263a16.858,16.858,0,0,1-1.087-4.077V20.137a3.878,3.878,0,0,1,.508-1.94A2.55,2.55,0,0,1,3.023,17.233Zm14.353.143a1.5,1.5,0,0,1,1.511,1.511H15.866A1.5,1.5,0,0,1,17.376,17.376Zm20.392,1.511v9.819a.756.756,0,0,0,1.511,0V25.685a.755.755,0,1,1,1.511,0v3.022a.756.756,0,0,0,1.511,0V26.437a.756.756,0,0,1,1.512,0v2.269a.756.756,0,0,0,1.511,0V27.2a.755.755,0,1,1,1.511,0v6.8a6.328,6.328,0,0,1-.691,2.62,9.808,9.808,0,0,0-.738,1.914H35.972L30.608,27.781A1.149,1.149,0,0,1,31,26.191a1.117,1.117,0,0,1,1.551.413l2.3,3.987a.756.756,0,0,0,1.4-.373c0-3.775,0-7.559,0-11.33a.756.756,0,1,1,1.512,0ZM10.585,28.706H29.378l.754,1.511H11.159a6.079,6.079,0,0,0-.574-1.511ZM3.776,38.527H14.355a.733.733,0,0,1,.752.752v6.8a.738.738,0,0,1-.752.758H3.776a.738.738,0,0,1-.752-.758v-6.8A.733.733,0,0,1,3.776,38.527ZM35.5,40.038H46.077a.738.738,0,0,1,.758.752v5.287a.743.743,0,0,1-.758.758H35.5a.743.743,0,0,1-.758-.758V40.79A.738.738,0,0,1,35.5,40.038Z"/>
      </g>
    </g>
  </g>
</svg>
